<?xml version="1.0" standalone="no"?>
<!DOCTYPE svg PUBLIC "-//W3C//DTD SVG 20010904//EN"
 "http://www.w3.org/TR/2001/REC-SVG-20010904/DTD/svg10.dtd">
<svg version="1.0" xmlns="http://www.w3.org/2000/svg"
 width="736.000000pt" height="736.000000pt" viewBox="0 0 736.000000 736.000000"
 preserveAspectRatio="xMidYMid meet">

<g transform="translate(0.000000,736.000000) scale(0.100000,-0.100000)"
fill="#000000" stroke="none">
<path d="M0 7125 c0 -177 3 -235 12 -235 20 0 168 -72 168 -82 0 -12 -31 -2
-112 38 l-68 32 0 -474 c0 -294 4 -474 10 -474 16 0 60 23 60 32 0 4 6 8 13 8
14 0 47 31 47 43 0 4 -7 7 -15 7 -8 0 -15 4 -15 9 0 11 25 21 54 21 29 0 54
27 62 68 4 18 14 34 25 37 27 9 23 22 -8 33 -16 6 -22 11 -15 11 7 1 22 -4 32
-9 10 -6 21 -7 24 -2 6 10 -15 37 -34 45 -8 3 0 6 18 6 37 1 74 32 61 52 -12
21 -1 29 42 29 21 0 39 4 39 8 0 13 -23 32 -39 32 -9 0 -23 6 -32 13 -14 10
-4 12 55 9 122 -7 145 -5 199 21 58 28 133 57 144 56 4 0 9 4 11 10 3 9 -99
81 -115 81 -3 0 -27 13 -54 29 -26 17 -87 51 -136 77 -95 50 -128 74 -103 74
8 0 26 -6 40 -13 144 -76 228 -122 240 -132 32 -25 127 -65 160 -67 25 -1 68
15 153 57 64 32 117 62 117 67 0 4 9 8 20 8 33 0 23 25 -31 71 -83 71 -155
141 -136 132 10 -5 62 -48 116 -95 105 -93 91 -88 203 -79 9 0 20 10 23 21 3
11 13 20 21 20 8 0 17 7 20 15 5 12 10 12 27 3 35 -19 97 -19 97 -1 0 20 29
42 56 43 11 0 24 3 28 7 4 4 25 6 46 4 34 -2 41 1 51 23 13 27 39 36 39 14 0
-9 3 -8 10 2 7 12 14 12 43 2 18 -7 45 -12 58 -12 14 0 31 -6 38 -12 14 -13
13 7 -5 76 -8 32 9 34 30 4 13 -18 24 -22 61 -20 54 2 86 -9 115 -40 l21 -23
18 24 c17 23 20 23 47 9 59 -31 127 -49 135 -36 6 9 11 9 23 -2 14 -11 19 -10
34 1 50 41 112 52 197 37 13 -2 23 5 29 18 8 18 18 21 63 20 33 0 54 -5 57
-13 8 -19 29 -16 50 9 17 20 20 20 31 4 9 -12 20 -15 39 -10 14 3 39 1 56 -4
26 -9 31 -8 40 9 6 10 20 19 31 19 12 0 32 9 46 20 19 15 30 17 44 9 15 -7 21
-6 25 5 9 23 62 31 82 13 15 -14 19 -13 41 4 20 16 33 18 69 13 32 -5 46 -3
52 7 7 11 13 11 33 0 32 -17 49 -7 41 24 -5 20 -3 23 14 18 11 -2 23 0 26 6 4
6 19 11 33 11 23 0 25 3 20 33 -3 24 1 40 19 64 16 21 23 40 19 55 -3 13 -1
29 4 37 8 13 19 11 101 -17 8 -3 19 -4 23 -3 10 2 79 -39 88 -52 4 -5 15 0 26
12 l20 21 20 -22 c29 -33 43 -63 43 -95 0 -15 7 -41 15 -57 18 -35 12 -45 -13
-23 -17 15 -19 15 -36 -4 -9 -12 -15 -23 -12 -26 3 -3 -1 -21 -9 -39 -13 -33
-13 -34 18 -56 l31 -22 -24 -7 c-18 -4 -29 0 -41 14 -11 13 -18 16 -23 8 -9
-14 -57 -4 -73 17 -10 13 -10 17 0 24 8 5 7 8 -5 8 -10 0 -24 15 -33 35 -18
36 -42 61 -51 52 -3 -3 -1 -14 5 -25 6 -12 11 -30 11 -41 0 -20 -19 -27 -58
-22 -8 2 -1 -16 17 -43 19 -28 31 -57 31 -78 0 -18 4 -47 9 -65 7 -24 6 -33
-5 -37 -20 -8 -18 -32 4 -40 9 -4 30 -14 45 -22 21 -12 32 -13 40 -5 8 8 7 14
-5 23 -9 7 -18 32 -21 56 -3 24 -12 51 -21 61 -16 18 -22 51 -8 51 19 -1 30
-19 36 -61 7 -46 9 -48 69 -77 4 -2 7 13 7 34 0 36 1 37 19 20 23 -21 66 -115
62 -136 -1 -8 -9 -20 -16 -26 -16 -12 -30 -150 -16 -159 15 -8 74 53 67 70 -3
9 1 18 9 21 7 3 17 20 21 37 3 17 10 38 15 47 5 8 15 32 23 53 8 20 20 37 26
37 6 0 8 -4 5 -10 -3 -5 1 -10 9 -10 20 0 21 -19 1 -26 -20 -8 -20 -54 0 -54
16 0 30 -42 22 -64 -9 -23 66 -42 114 -29 38 10 41 9 50 -15 5 -14 10 -41 11
-60 1 -18 7 -36 14 -39 14 -5 15 -42 1 -60 -6 -9 -4 -15 8 -19 10 -4 21 -1 27
7 7 11 9 9 5 -7 -3 -13 3 -25 14 -33 12 -7 19 -7 19 -1 0 5 6 10 14 10 10 0
14 12 12 40 0 22 1 40 4 40 3 0 13 -20 22 -45 10 -25 13 -45 8 -45 -6 0 -10
-4 -10 -10 0 -14 41 -12 59 3 9 7 28 18 43 25 30 13 32 9 41 -63 3 -25 4 -24
6 10 1 22 6 49 10 60 5 11 5 30 0 43 -5 13 -5 22 1 22 16 0 12 38 -7 66 -14
22 -21 25 -50 19 -20 -4 -33 -2 -33 5 0 24 -31 8 -36 -20 -7 -30 -38 -50 -55
-33 -13 13 13 61 30 55 16 -5 13 12 -19 104 l-22 61 26 42 c15 23 29 55 32 71
4 16 15 38 26 50 26 27 17 53 -14 41 -15 -5 -28 -24 -39 -57 -9 -26 -23 -50
-31 -52 -7 -3 -19 -11 -26 -20 -10 -13 -12 -9 -12 26 0 27 4 42 13 42 14 0 38
109 30 140 -6 23 -23 27 -23 6 0 -8 -5 -18 -10 -21 -11 -7 -30 33 -39 85 -4
22 -13 36 -24 38 -14 3 -17 -5 -17 -51 0 -50 17 -87 33 -71 5 6 -1 -70 -9 -94
-2 -7 -12 -12 -21 -10 -17 3 -18 -1 -10 -46 5 -30 -18 -16 -26 16 -5 18 -12
38 -17 43 -4 6 -11 32 -14 58 -5 31 -13 50 -24 54 -9 4 -23 15 -30 25 -7 10
-18 15 -24 12 -6 -4 -5 -10 3 -15 10 -6 11 -9 2 -9 -7 0 -13 -11 -13 -25 0
-16 6 -25 15 -25 24 0 17 -43 -10 -63 -20 -14 -25 -15 -25 -4 0 8 7 20 15 27
20 16 19 29 -2 37 -9 4 -25 15 -36 26 -16 16 -17 23 -7 42 14 27 6 45 -20 45
-26 0 -57 55 -79 139 l-19 71 27 -6 c14 -3 34 -8 44 -11 10 -2 24 0 31 6 9 7
22 7 45 -2 30 -11 34 -10 52 12 13 16 19 39 19 75 0 43 4 57 26 77 l26 24 20
-28 c11 -15 26 -27 34 -27 8 0 24 -20 36 -45 12 -25 26 -45 31 -45 5 0 22 9
38 20 23 17 32 19 50 10 24 -13 22 -15 39 28 10 25 15 30 22 20 7 -10 13 -7
26 12 9 13 30 39 46 57 l28 33 -2186 0 -2186 0 0 -235z m463 110 c15 -14 27
-28 27 -31 0 -7 -58 34 -65 46 -12 19 11 10 38 -15z m82 -93 c-6 -7 -35 18
-35 31 0 5 9 2 20 -8 11 -10 18 -20 15 -23z m196 -157 c22 -19 33 -35 27 -35
-14 1 -87 70 -74 70 5 0 26 -16 47 -35z m3029 -410 c0 -8 -2 -15 -4 -15 -2 0
-6 7 -10 15 -3 8 -1 15 4 15 6 0 10 -7 10 -15z m314 -29 c-9 -24 -33 -27 -44
-6 -10 18 -7 20 19 20 22 0 29 -4 25 -14z"/>
<path d="M4400 7346 c0 -25 37 -29 59 -7 l21 21 -40 0 c-28 0 -40 -4 -40 -14z"/>
<path d="M4552 7343 c1 -10 -2 -43 -6 -73 -7 -53 -6 -58 22 -88 27 -29 32 -30
60 -20 27 10 37 9 73 -9 32 -16 48 -19 66 -12 13 5 42 6 64 3 22 -4 50 -2 62
4 72 33 160 42 202 19 11 -6 33 -10 48 -9 25 2 28 0 22 -19 -7 -21 -5 -22 51
-16 33 3 67 8 77 12 12 5 17 2 17 -8 0 -18 90 -33 137 -23 18 4 35 1 48 -8 11
-9 34 -16 51 -16 19 0 34 -6 38 -15 4 -11 21 -15 62 -15 40 0 63 -5 76 -17 13
-11 40 -17 91 -19 39 -2 74 -3 76 -3 2 -1 -4 -12 -13 -26 -30 -45 -19 -63 65
-107 69 -36 109 -72 103 -94 -3 -13 6 -26 31 -43 20 -13 40 -32 45 -42 6 -10
28 -20 52 -24 24 -4 61 -18 84 -31 22 -13 56 -24 75 -24 33 -1 79 -28 79 -48
0 -20 -32 -21 -177 -3 -141 18 -150 18 -218 1 -38 -10 -88 -22 -110 -27 -25
-5 -40 -14 -40 -23 0 -17 26 -18 118 -6 l58 8 -6 -25 c-6 -24 -5 -25 60 -32
36 -4 65 -10 63 -13 -29 -58 -31 -64 -21 -70 6 -4 -9 -7 -33 -8 -24 0 -50 -7
-59 -14 -11 -9 -32 -11 -73 -6 -70 8 -129 -8 -111 -30 9 -11 8 -14 -8 -14 -32
0 -143 -41 -137 -51 3 -5 22 -9 44 -9 24 0 40 -5 44 -15 3 -8 12 -15 20 -15
11 0 26 -20 26 -35 0 -4 -95 -14 -132 -15 -15 0 -29 -4 -33 -10 -3 -5 -1 -10
4 -10 18 0 12 -35 -10 -59 -17 -18 -19 -25 -9 -31 8 -5 10 -17 6 -33 -4 -16
-1 -29 9 -37 9 -8 15 -30 15 -56 0 -39 4 -47 33 -64 17 -11 40 -20 50 -20 10
0 15 -5 12 -10 -3 -6 5 -14 19 -20 19 -7 26 -17 26 -36 0 -22 3 -25 22 -21 24
7 58 -17 58 -40 0 -8 12 -13 35 -13 19 0 43 -4 53 -9 9 -5 25 -12 35 -15 11
-3 21 -15 24 -26 3 -11 9 -20 14 -20 14 0 33 -43 39 -89 3 -28 12 -48 24 -55
10 -6 32 -23 48 -37 26 -23 29 -31 23 -62 -6 -31 -4 -37 19 -52 18 -12 25 -23
21 -35 -4 -13 4 -25 27 -41 47 -33 55 -47 63 -106 7 -55 22 -73 60 -70 16 2
19 -3 17 -27 -4 -33 -34 -62 -74 -71 -23 -6 -26 -10 -18 -25 6 -10 10 -30 10
-44 0 -14 8 -30 18 -35 10 -6 12 -11 4 -11 -7 0 -17 -11 -22 -24 -10 -27 -68
-42 -85 -22 -12 16 -32 10 -44 -13 -9 -16 -3 -17 55 -17 74 0 98 -14 71 -41
-11 -11 -35 -18 -69 -19 -97 -2 -171 -54 -90 -62 36 -4 43 -27 11 -37 -11 -4
-18 -9 -15 -12 3 -3 18 -1 35 5 23 8 32 7 42 -4 9 -11 8 -18 -5 -33 -17 -18
-16 -20 1 -29 17 -10 17 -11 1 -17 -10 -4 -25 -4 -34 -1 -18 7 -64 -21 -64
-38 0 -8 17 -12 53 -11 72 3 88 11 77 40 -10 26 -5 35 22 35 26 0 98 -24 98
-32 0 -4 11 -2 25 4 14 6 28 8 32 4 10 -10 -17 -26 -44 -26 -12 0 -35 -12 -50
-26 -32 -30 -64 -44 -98 -44 -19 0 -24 -6 -27 -32 -3 -31 -24 -51 -85 -77 -29
-13 -33 -23 -18 -44 10 -15 17 -16 41 -7 43 17 75 50 68 72 -3 12 0 18 10 18
8 0 21 6 28 13 29 27 65 36 86 21 29 -20 21 -41 -23 -66 -22 -11 -55 -35 -75
-53 -19 -19 -56 -52 -81 -74 -33 -30 -46 -49 -46 -68 0 -14 -8 -32 -18 -39
-22 -17 -11 -34 23 -34 23 0 19 -4 -25 -25 -29 -14 -57 -34 -63 -45 -6 -11
-29 -25 -55 -31 -24 -6 -46 -18 -49 -25 -3 -8 -22 -22 -42 -30 -31 -13 -35
-18 -23 -29 11 -10 24 -11 62 -2 26 6 47 15 47 19 0 5 5 8 10 8 6 0 10 -7 10
-15 0 -21 -31 -31 -117 -40 -40 -4 -73 -11 -73 -16 0 -14 42 -37 82 -44 20 -4
45 -13 55 -21 16 -12 15 -13 -18 -14 -20 0 -50 5 -67 11 -16 6 -47 9 -69 6
l-38 -3 33 -8 c29 -8 37 -16 33 -38 -2 -16 52 -20 90 -8 28 10 43 10 50 3 19
-19 2 -30 -52 -36 -65 -8 -83 -22 -40 -32 28 -6 30 -9 19 -22 -12 -15 12 -16
247 -10 228 5 466 22 780 57 50 5 128 13 174 16 46 4 98 12 115 19 31 13 96 9
96 -5 0 -12 -87 -33 -111 -27 -11 3 -55 -1 -98 -9 -98 -19 -185 -29 -461 -53
-124 -10 -236 -22 -250 -25 -14 -3 -137 -10 -275 -16 -137 -6 -266 -14 -285
-19 -23 -6 -28 -9 -13 -10 12 -1 25 -6 28 -11 7 -11 781 -7 915 4 36 3 162 13
280 21 118 8 236 18 263 21 l47 7 0 58 c0 36 -5 59 -12 63 -10 5 -10 7 0 12 9
4 12 78 12 320 l0 314 -207 0 c-199 0 -259 7 -216 25 24 10 50 12 251 21 l172
7 0 1463 0 1464 -1404 0 c-1332 0 -1405 -1 -1404 -17z m1316 -1100 c-10 -2
-28 -2 -40 0 -13 2 -5 4 17 4 22 1 32 -1 23 -4z m532 -1523 c0 -16 7 -20 30
-20 17 0 30 -5 30 -12 0 -6 7 -19 16 -29 15 -17 14 -18 -12 -24 -16 -3 -42
-12 -59 -20 -39 -19 -123 -25 -129 -10 -6 16 4 28 37 42 30 14 35 28 12 40
-13 8 -13 11 1 31 20 30 74 31 74 2z m480 -320 c0 -5 -19 -10 -42 -9 -37 1
-39 2 -18 9 36 12 60 12 60 0z m-190 -10 c0 -5 -4 -10 -10 -10 -5 0 -10 5 -10
10 0 6 5 10 10 10 6 0 10 -4 10 -10z"/>
<path d="M3600 7023 c0 -11 7 -26 15 -33 20 -17 20 7 0 34 -15 19 -15 19 -15
-1z"/>
<path d="M3597 6934 c-9 -10 2 -24 19 -24 8 0 14 7 14 15 0 15 -21 21 -33 9z"/>
<path d="M3350 6851 c0 -10 30 -24 37 -17 3 3 2 9 -2 15 -8 13 -35 15 -35 2z"/>
<path d="M4232 6820 c0 -14 2 -19 5 -12 2 6 2 18 0 25 -3 6 -5 1 -5 -13z"/>
<path d="M3389 6788 c4 -13 18 -24 30 -26 26 -4 27 9 3 31 -27 25 -43 22 -33
-5z"/>
<path d="M4270 6734 c-14 -37 -12 -71 5 -78 8 -3 15 -17 15 -32 0 -16 5 -24
13 -22 17 6 22 139 5 150 -21 13 -28 10 -38 -18z"/>
<path d="M1488 6683 c-9 -10 -25 -37 -37 -60 -45 -90 -162 -180 -291 -223 -56
-19 -79 -21 -165 -17 -55 4 -115 9 -132 13 -97 19 3 -105 110 -139 75 -24 198
-22 272 3 84 29 133 60 193 124 70 74 102 143 102 223 0 92 -17 116 -52 76z"/>
<path d="M3406 6674 c-17 -44 -6 -80 39 -129 43 -46 46 -48 62 -32 16 16 15
19 -20 51 -22 20 -37 43 -37 57 0 59 -29 93 -44 53z"/>
<path d="M1723 6581 c-22 -16 -55 -55 -73 -86 -28 -49 -33 -69 -38 -145 -5
-92 7 -164 37 -224 61 -120 177 -214 288 -236 73 -15 129 -7 143 20 8 16 3 23
-36 49 -25 17 -48 31 -53 31 -4 0 -35 28 -70 63 -130 129 -188 322 -146 483
21 83 12 91 -52 45z"/>
<path d="M4491 6601 c-7 -5 -11 -16 -9 -26 3 -16 5 -15 21 3 19 21 11 37 -12
23z"/>
<path d="M4242 6588 c-7 -7 -12 -15 -12 -19 0 -11 33 -4 37 8 6 17 -12 24 -25
11z"/>
<path d="M4451 6479 c-13 -38 -13 -39 -3 -39 16 0 52 37 52 54 0 30 -37 18
-49 -15z"/>
<path d="M4320 6466 c0 -9 30 -14 35 -6 4 6 -3 10 -14 10 -12 0 -21 -2 -21 -4z"/>
<path d="M4437 6413 c-4 -3 -7 -16 -6 -27 0 -19 1 -19 10 3 10 24 8 36 -4 24z"/>
<path d="M3945 6380 c3 -5 8 -10 11 -10 2 0 4 5 4 10 0 6 -5 10 -11 10 -5 0
-7 -4 -4 -10z"/>
<path d="M5698 6349 c21 -6 39 -6 50 0 13 8 5 10 -33 10 -48 -1 -49 -1 -17
-10z"/>
<path d="M5795 6350 c3 -5 10 -10 16 -10 5 0 9 5 9 10 0 6 -7 10 -16 10 -8 0
-12 -4 -9 -10z"/>
<path d="M4584 6326 c-8 -22 3 -33 18 -18 9 9 9 15 0 24 -9 9 -13 7 -18 -6z"/>
<path d="M4472 6253 c-22 -4 -42 -37 -42 -67 0 -8 11 -16 25 -18 21 -4 28 1
45 37 29 59 29 59 -28 48z"/>
<path d="M4623 6203 c-18 -7 -16 -33 2 -33 8 0 15 9 15 20 0 11 -1 20 -2 19
-2 0 -9 -3 -15 -6z"/>
<path d="M742 6148 c-31 -15 -24 -28 34 -58 27 -13 72 -47 99 -75 99 -98 146
-190 165 -323 11 -72 10 -92 -5 -157 -21 -88 -14 -106 32 -81 109 56 158 257
103 421 -27 81 -97 176 -163 221 -80 55 -206 80 -265 52z"/>
<path d="M4568 6149 c-12 -6 -18 -22 -18 -44 0 -39 -1 -39 35 -25 20 8 26 15
22 30 -3 11 -1 20 4 20 5 0 9 7 9 15 0 17 -27 19 -52 4z"/>
<path d="M2080 6091 c0 -10 19 -25 25 -20 1 2 -3 10 -11 17 -8 7 -14 8 -14 3z"/>
<path d="M32 5803 c-32 -4 -32 -5 -32 -59 0 -51 2 -54 24 -54 33 0 76 17 76
30 0 5 -7 10 -15 10 -8 0 -15 5 -15 10 0 7 7 7 20 0 21 -11 44 -5 35 9 -2 5 9
11 25 15 17 3 30 9 30 14 0 8 -82 33 -103 30 -6 0 -27 -3 -45 -5z"/>
<path d="M1570 5792 c-179 -59 -310 -214 -310 -367 0 -38 5 -56 18 -68 10 -10
21 -17 25 -17 3 0 20 26 37 58 54 102 165 199 270 235 77 27 198 39 260 27 89
-18 114 -17 118 3 6 30 -44 84 -105 113 -76 37 -227 44 -313 16z"/>
<path d="M0 5261 c0 -227 4 -412 9 -415 5 -3 12 -25 15 -49 4 -23 15 -55 25
-71 10 -15 17 -35 14 -45 -2 -9 8 -34 22 -55 17 -25 24 -47 21 -60 -4 -15 1
-26 15 -34 12 -8 18 -19 15 -28 -11 -28 5 -64 30 -70 31 -8 30 -21 -1 -36 -26
-12 -36 -34 -11 -25 8 3 18 -5 25 -19 7 -16 19 -24 36 -24 14 0 25 -4 25 -10
0 -5 -4 -10 -10 -10 -14 0 -12 -28 3 -33 9 -3 7 -10 -7 -25 -25 -28 -15 -48
26 -55 24 -4 42 1 65 16 38 25 43 47 11 47 -22 1 -22 2 -5 14 16 12 16 14 1
20 -8 3 -24 6 -35 6 -32 0 -21 18 19 31 52 16 55 19 41 35 -14 17 -13 18 25
31 43 13 42 26 -4 46 -22 9 -40 19 -40 22 0 3 12 11 27 17 27 11 26 12 -25 19
-67 9 -79 19 -23 19 26 0 40 4 36 10 -3 6 -15 10 -26 10 -10 0 -19 5 -19 11 0
8 16 10 49 6 38 -5 52 -2 64 11 26 29 23 41 -13 60 -42 23 -45 46 -7 50 37 5
34 25 -8 48 -19 10 -35 22 -35 26 0 4 18 8 39 10 l39 3 -16 34 c-10 19 -32 42
-52 52 -19 10 -39 22 -45 26 -5 5 -21 14 -35 20 -24 11 -24 12 -3 12 12 1 24
-3 27 -8 3 -5 20 -14 36 -20 18 -6 28 -6 25 -1 -4 6 3 10 14 10 28 0 27 14 -1
29 -23 11 -23 11 2 7 14 -2 42 -11 63 -20 20 -9 37 -12 37 -6 0 5 -11 12 -25
16 -27 7 -50 29 -38 37 4 3 26 -1 47 -8 65 -23 78 5 21 44 -41 28 -38 39 16
47 37 6 55 24 24 24 -8 0 -15 4 -15 8 0 5 23 8 52 6 56 -3 91 17 69 39 -13 13
-15 31 -2 22 17 -10 21 12 6 25 -26 21 -17 26 56 28 84 2 113 20 85 51 -12 13
-14 21 -6 26 17 10 -25 42 -65 49 -19 4 -43 2 -54 -4 -11 -5 -28 -10 -38 -10
-27 1 22 37 70 52 53 16 47 31 -10 24 -70 -10 -157 -6 -164 6 -5 7 -18 7 -43
-2 -21 -7 -39 -10 -42 -7 -7 6 72 37 96 37 11 0 20 5 20 10 0 6 7 10 15 10 8
0 15 5 15 10 0 6 -8 10 -19 10 -10 0 -25 7 -32 16 -10 12 -25 15 -61 12 -26
-3 -48 -1 -48 3 0 9 27 17 75 21 l30 3 -30 17 -30 16 25 5 c14 3 50 10 80 15
48 8 50 10 18 11 -20 0 -38 6 -40 11 -4 13 -127 32 -142 23 -5 -4 -48 -10 -94
-13 -75 -6 -87 -5 -104 12 -10 10 -27 18 -38 18 -11 0 -20 5 -20 10 0 6 -29
10 -66 10 -55 0 -65 3 -60 15 3 8 1 15 -4 15 -6 0 -10 -152 -10 -409z m683 22
c-7 -2 -21 -2 -30 0 -10 3 -4 5 12 5 17 0 24 -2 18 -5z"/>
<path d="M587 5640 c-52 -10 -55 -17 -14 -35 24 -10 51 -13 77 -9 41 7 54 28
23 37 -10 2 -25 7 -33 10 -8 2 -32 1 -53 -3z"/>
<path d="M4352 5496 c2 -16 9 -31 16 -34 17 -5 15 20 -3 44 -15 18 -15 18 -13
-10z"/>
<path d="M580 5400 c0 -5 5 -10 11 -10 5 0 7 5 4 10 -3 6 -8 10 -11 10 -2 0
-4 -4 -4 -10z"/>
<path d="M4376 5345 c-6 -18 2 -45 22 -64 7 -8 11 -23 9 -33 -7 -25 31 -110
46 -105 7 2 12 16 12 30 1 15 11 38 24 51 23 24 23 26 7 51 -10 15 -14 34 -11
46 8 24 -20 37 -46 21 -24 -16 -29 -15 -29 3 0 8 -6 15 -14 15 -8 0 -16 -7
-20 -15z"/>
<path d="M4970 5278 c-25 -5 -59 -6 -77 -3 -56 10 -135 -40 -265 -166 -70 -69
-122 -129 -131 -151 -9 -22 -30 -46 -49 -57 -88 -52 -108 -66 -114 -85 -4 -10
-13 -35 -22 -55 -9 -20 -15 -41 -14 -48 2 -6 -2 -14 -8 -18 -5 -3 -10 1 -10 9
0 19 -4 19 -33 4 -12 -6 -28 -14 -36 -18 -24 -11 -23 -26 3 -51 31 -29 32 -35
8 -41 -13 -4 -25 4 -38 23 -22 34 -34 38 -27 9 3 -11 10 -20 15 -20 6 0 4 -7
-3 -17 -10 -12 -11 -17 -2 -20 7 -2 9 -11 6 -19 -6 -16 32 -97 53 -115 10 -8
11 -16 4 -30 -8 -13 -4 -32 16 -74 30 -63 39 -71 59 -55 9 7 26 9 45 5 25 -6
29 -9 19 -21 -6 -8 -19 -14 -29 -14 -16 0 -57 -36 -49 -44 2 -2 21 -11 41 -21
32 -14 43 -15 75 -5 48 16 61 27 40 36 -13 5 -14 10 -6 25 7 14 21 19 49 19
43 0 64 18 31 27 -21 5 -27 28 -13 49 13 20 50 34 94 34 24 1 63 5 88 10 25 6
81 16 125 24 44 8 93 19 108 25 16 6 46 11 68 11 23 0 66 13 104 31 51 24 75
43 108 87 55 71 82 123 99 186 7 27 19 51 26 53 6 3 12 16 12 28 0 18 7 25 30
30 17 4 30 10 30 15 0 4 30 39 66 76 44 46 64 74 61 86 -3 10 6 29 19 43 13
14 24 27 24 28 0 1 -25 1 -56 0 -35 -1 -60 -6 -65 -15 -6 -9 -11 -10 -19 -2
-7 7 -5 18 10 36 28 36 26 58 -5 58 -14 0 -25 6 -25 13 0 22 -43 36 -86 28
-28 -5 -44 -4 -52 6 -7 7 -21 13 -32 13 -10 0 -22 5 -25 10 -3 6 -45 10 -92
10 -60 0 -89 4 -97 13 -8 11 -22 12 -56 5z m-40 -390 c0 -14 -18 -9 -24 8 -11
28 -6 39 9 20 8 -11 15 -23 15 -28z m-710 -348 c0 -11 -4 -20 -10 -20 -5 0
-10 9 -10 20 0 11 5 20 10 20 6 0 10 -9 10 -20z"/>
<path d="M5918 5256 c-23 -17 -23 -33 2 -46 16 -9 24 -7 41 9 39 36 -1 70 -43
37z"/>
<path d="M2250 5248 c0 -7 9 -26 19 -41 18 -29 18 -67 -1 -67 -5 0 2 -20 16
-45 27 -45 22 -54 -16 -34 -16 9 -19 8 -16 -3 2 -7 14 -17 26 -23 30 -13 28
-27 -3 -19 -30 8 -32 -5 -5 -34 20 -21 20 -22 1 -22 -32 0 -31 -25 5 -65 25
-29 32 -44 28 -62 -4 -13 -2 -23 5 -23 6 0 8 -7 4 -15 -3 -9 -2 -15 3 -13 5 1
28 -8 51 -20 50 -26 60 -28 43 -7 -7 8 -9 15 -6 15 4 0 2 9 -5 21 -10 20 -9
21 22 14 l32 -7 -22 28 c-13 16 -32 34 -44 41 -21 12 -21 12 7 13 28 0 29 1
12 19 -17 19 -17 19 6 15 22 -5 22 -5 -5 20 -16 15 -33 24 -38 21 -5 -4 -14
-3 -20 1 -8 4 -7 9 2 15 11 6 8 13 -10 33 -23 24 -23 25 -2 19 29 -7 28 21 -1
42 -19 13 -21 17 -8 25 12 7 11 12 -5 31 -11 12 -15 19 -8 16 20 -12 26 14 7
29 -11 9 -14 13 -8 10 27 -13 20 24 -10 53 -33 32 -56 40 -56 19z"/>
<path d="M720 5156 c0 -2 9 -6 20 -9 11 -3 18 -1 14 4 -5 9 -34 13 -34 5z"/>
<path d="M5480 5150 c0 -5 7 -10 15 -10 8 0 15 5 15 10 0 6 -7 10 -15 10 -8 0
-15 -4 -15 -10z"/>
<path d="M4278 4897 c-41 -42 -47 -61 -22 -71 49 -19 69 5 62 75 l-3 34 -37
-38z"/>
<path d="M6203 4883 c-24 -5 -32 -23 -10 -23 24 0 57 12 57 21 0 9 -8 10 -47
2z"/>
<path d="M2180 4645 c0 -3 25 -21 56 -41 31 -20 53 -38 50 -41 -6 -7 -146 36
-160 49 -6 4 -20 8 -32 8 -13 0 -26 4 -29 10 -3 5 -42 9 -87 8 -76 -1 -83 -3
-105 -28 -36 -43 -73 -54 -133 -40 -35 8 -93 10 -188 5 -162 -8 -168 -9 -176
-38 -4 -14 -9 -18 -13 -10 -5 6 -24 13 -43 15 -44 4 -53 -22 -13 -40 53 -23
118 -68 127 -88 5 -11 22 -28 38 -37 15 -9 28 -23 28 -32 0 -9 14 -29 30 -45
17 -16 30 -38 30 -48 0 -11 7 -25 15 -32 8 -6 26 -32 40 -56 31 -52 122 -118
188 -134 33 -9 60 -9 108 0 35 6 91 14 124 17 33 3 63 10 67 16 3 5 32 11 65
13 32 1 72 7 88 12 17 5 84 7 150 4 99 -3 124 -7 140 -23 17 -15 42 -20 133
-24 61 -3 117 -6 123 -7 22 -5 19 19 -3 29 -14 6 -18 12 -10 17 6 4 19 -2 29
-14 20 -24 63 -27 63 -5 0 8 5 15 11 15 6 0 1 14 -11 30 -12 17 -17 30 -13 30
5 0 9 50 9 111 -1 105 0 112 23 130 23 19 23 19 2 19 -12 0 -21 6 -21 13 0 10
-32 29 -112 65 -3 2 -4 -6 -1 -17 4 -16 1 -21 -16 -21 -11 0 -21 5 -21 10 0 6
-11 10 -25 10 -14 0 -25 5 -25 10 0 6 -12 10 -27 10 -22 0 -25 -2 -13 -10 11
-7 12 -12 4 -20 -8 -8 -15 -8 -25 2 -18 17 -85 48 -104 48 -8 0 -15 4 -15 9 0
5 -38 28 -85 50 -47 23 -85 47 -85 52 0 6 -4 8 -8 5 -5 -3 -38 4 -73 14 -73
22 -69 22 -69 15z m663 -399 c4 -10 1 -13 -9 -9 -15 6 -19 23 -5 23 5 0 11 -7
14 -14z"/>
<path d="M6110 4430 c0 -5 5 -10 10 -10 6 0 10 5 10 10 0 6 -4 10 -10 10 -5 0
-10 -4 -10 -10z"/>
<path d="M0 3793 l0 -583 23 -4 c12 -3 42 -8 67 -10 62 -8 71 -10 99 -25 13
-7 71 -16 127 -19 l104 -5 0 32 c0 17 -6 42 -14 54 -13 20 -25 58 -43 137 -3
14 -12 32 -19 41 -8 8 -17 30 -20 47 -4 18 -13 32 -21 32 -10 0 -14 10 -12 35
2 19 -2 40 -9 47 -6 6 -12 24 -12 39 0 15 -7 32 -15 39 -8 7 -15 20 -15 30 0
10 -7 21 -16 24 -9 3 -14 12 -11 19 2 6 -2 24 -9 38 -7 14 -10 36 -7 48 3 12
1 32 -5 44 -5 12 -15 41 -21 65 -7 23 -17 42 -23 42 -5 0 -8 9 -5 20 3 11 1
20 -4 20 -5 0 -9 13 -9 29 0 16 -6 31 -15 35 -10 3 -15 19 -15 45 0 22 -4 42
-9 45 -5 3 -12 18 -16 33 -3 15 -15 45 -26 67 -10 22 -19 45 -19 52 0 6 -7 25
-15 40 -13 26 -15 -31 -15 -553z"/>
<path d="M6080 4350 c0 -19 3 -21 12 -12 9 9 9 15 0 24 -9 9 -12 7 -12 -12z"/>
<path d="M269 4172 c-45 -23 -43 -36 7 -40 29 -2 48 3 65 17 27 21 25 25 -12
34 -15 4 -39 0 -60 -11z"/>
<path d="M1420 4120 c0 -11 70 -43 78 -36 5 5 -58 46 -70 46 -5 0 -8 -4 -8
-10z"/>
<path d="M1517 4123 c-13 -12 -7 -23 13 -23 11 0 20 -3 20 -7 0 -5 11 -9 25
-9 32 -2 32 0 -9 25 -37 23 -40 24 -49 14z"/>
<path d="M291 4086 l-24 -13 22 -13 c17 -9 20 -15 12 -23 -18 -18 -13 -37 9
-37 11 0 20 -4 20 -10 0 -5 7 -10 15 -10 8 0 15 5 15 10 0 6 -5 10 -10 10 -6
0 -10 6 -9 13 1 6 -1 20 -6 30 -4 10 -2 23 4 31 22 26 -9 34 -48 12z"/>
<path d="M6080 4084 c0 -8 5 -12 10 -9 6 4 8 11 5 16 -9 14 -15 11 -15 -7z"/>
<path d="M1438 4043 c7 -3 16 -2 19 1 4 3 -2 6 -13 5 -11 0 -14 -3 -6 -6z"/>
<path d="M5972 4039 c-13 -5 -20 -13 -17 -19 8 -13 18 -13 40 3 23 17 8 28
-23 16z"/>
<path d="M1550 4010 c0 -5 4 -10 9 -10 5 0 18 -3 28 -6 16 -5 16 -4 -1 10 -23
18 -36 20 -36 6z"/>
<path d="M681 3946 c-15 -18 2 -31 25 -18 13 7 13 10 1 20 -11 10 -17 9 -26
-2z"/>
<path d="M646 3885 c-4 -14 -11 -25 -16 -25 -6 0 -10 -3 -10 -7 0 -5 16 -8 35
-9 22 0 35 4 35 12 0 7 6 14 13 17 9 3 9 7 -2 20 -20 25 -48 21 -55 -8z"/>
<path d="M686 3744 c-8 -20 1 -34 20 -34 17 0 17 10 0 33 -12 16 -14 16 -20 1z"/>
<path d="M720 3646 l-25 -14 30 -4 c25 -2 30 -8 30 -30 1 -39 19 -54 47 -41
17 8 23 19 23 44 0 29 -4 35 -25 37 -14 2 -29 8 -34 13 -13 12 -16 11 -46 -5z"/>
<path d="M440 3639 c0 -5 5 -7 10 -4 6 3 10 8 10 11 0 2 -4 4 -10 4 -5 0 -10
-5 -10 -11z"/>
<path d="M7255 3579 c-226 -26 -691 -55 -1140 -70 -253 -8 -352 -15 -362 -24
-10 -10 -7 -14 15 -18 15 -3 43 -4 62 -2 19 1 67 -3 105 -10 39 -8 178 -19
310 -25 132 -6 312 -16 400 -21 88 -4 285 -12 438 -15 l277 -7 0 101 c0 91 -2
102 -17 101 -10 -1 -49 -5 -88 -10z"/>
<path d="M523 3558 c-13 -6 -23 -15 -23 -20 0 -4 -9 -8 -20 -8 -24 0 -28 -41
-6 -63 9 -9 13 -26 10 -44 -5 -31 28 -75 40 -54 4 6 14 7 22 4 12 -4 13 -8 3
-13 -7 -5 -13 -25 -14 -47 -1 -31 5 -45 31 -72 24 -25 31 -39 25 -50 -5 -9 -6
-34 -2 -56 l6 -40 65 -5 c43 -3 57 -7 43 -12 -15 -4 -23 -14 -23 -27 0 -24 30
-28 74 -11 30 11 36 34 7 25 -23 -7 -39 14 -20 26 8 5 34 9 58 9 71 0 118 19
135 54 8 16 12 34 10 38 -3 4 -44 8 -92 9 -58 0 -80 3 -67 9 11 5 33 9 48 9
25 1 107 35 107 45 0 2 -26 3 -57 2 -32 0 -66 2 -77 7 -18 7 -18 9 -2 26 16
17 16 19 0 25 -9 4 -24 4 -33 1 -9 -2 -29 -1 -44 3 l-29 8 29 14 c15 8 36 21
46 29 13 10 20 12 25 4 4 -6 22 -14 40 -18 17 -3 32 -10 32 -15 0 -4 9 -10 21
-13 26 -7 38 21 16 38 -10 7 -14 19 -10 34 4 15 -1 28 -17 41 -23 20 -23 21
-4 35 17 13 17 14 2 15 -10 0 -18 -4 -18 -10 0 -5 -9 -10 -20 -10 -21 0 -28
-24 -10 -35 17 -11 11 -25 -16 -35 -50 -19 -69 33 -25 67 15 11 14 12 -1 13
-10 0 -22 -9 -28 -20 -14 -27 -52 -50 -94 -60 l-35 -8 -7 47 c-4 25 -8 62 -8
81 -2 33 -4 35 -36 37 -19 1 -45 -3 -57 -9z"/>
<path d="M5939 3359 l6 -44 95 -17 c52 -9 149 -22 215 -28 124 -11 223 -27
380 -60 50 -10 119 -24 155 -31 36 -6 115 -25 175 -41 61 -16 118 -31 127 -33
27 -6 156 -50 216 -74 l53 -21 -2 169 -1 169 -62 6 c-33 3 -169 8 -301 11
-132 3 -278 8 -325 12 -130 10 -136 10 -446 18 l-291 8 6 -44z m1341 -89 c0
-5 -19 -10 -42 -10 -24 0 -53 -3 -64 -6 -14 -4 -23 0 -27 10 -5 14 4 16 63 16
40 0 70 -4 70 -10z m50 0 c0 -5 -9 -10 -20 -10 -11 0 -20 5 -20 10 0 6 9 10
20 10 11 0 20 -4 20 -10z"/>
<path d="M955 3320 c-3 -5 -2 -10 4 -10 5 0 13 5 16 10 3 6 2 10 -4 10 -5 0
-13 -4 -16 -10z"/>
<path d="M4160 3265 c-15 -9 -40 -12 -67 -8 -34 4 -44 2 -49 -11 -3 -9 -1 -22
5 -30 18 -21 5 -38 -62 -80 -49 -32 -71 -40 -107 -40 -49 1 -178 25 -197 37
-22 14 -211 6 -224 -9 -17 -21 -27 -17 -22 9 4 22 1 23 -58 25 -52 2 -65 6
-81 28 -11 14 -22 23 -25 20 -7 -7 129 -181 224 -284 18 -19 39 -50 48 -68 9
-19 22 -34 30 -34 29 0 65 -46 65 -84 0 -38 -27 -76 -55 -76 -8 0 -22 -11 -31
-25 -30 -46 -159 -95 -264 -101 -25 -1 -47 -3 -50 -4 -14 -7 -61 -11 -111 -11
-31 1 -69 -5 -85 -13 -18 -10 -33 -12 -45 -6 -40 22 -82 -129 -45 -165 9 -10
16 -11 24 -3 13 13 43 3 40 -14 -3 -15 8 -15 70 0 32 8 42 7 42 -3 0 -20 33
-43 72 -50 34 -7 39 -5 48 19 13 36 33 33 57 -11 10 -17 10 -23 0 -26 -7 -3
-5 -6 5 -6 9 -1 18 5 21 12 3 10 9 10 26 0 28 -18 51 -16 66 3 11 16 19 16 92
2 74 -13 82 -13 94 2 8 10 35 20 62 23 38 5 47 4 47 -9 0 -20 40 -34 62 -20
10 6 18 19 18 28 0 11 8 18 19 18 14 0 17 -6 13 -25 -3 -18 0 -25 11 -25 8 0
18 -8 22 -17 6 -17 7 -17 17 0 5 10 8 28 5 38 -7 26 22 38 35 16 5 -10 14 -17
20 -17 13 0 68 59 68 72 0 5 8 7 19 3 14 -4 20 1 25 20 6 23 11 25 44 23 31
-3 37 0 40 17 3 20 96 85 121 85 13 0 14 6 2 48 -12 40 -2 41 24 0 32 -50 48
-55 83 -27 17 13 31 29 31 35 1 6 8 17 16 24 8 7 15 21 15 30 0 21 -26 27
-115 26 -51 -1 -60 -4 -57 -18 2 -12 -4 -16 -18 -15 -11 1 -20 7 -20 14 0 7
-7 10 -15 7 -8 -4 -15 -1 -15 5 0 7 -6 11 -12 10 -7 -1 -26 3 -41 9 -37 16
-44 15 -51 -3 -7 -20 -29 -19 -48 3 -17 19 -29 82 -16 82 4 0 -3 18 -17 40
-30 47 -32 81 -6 104 11 10 17 24 14 32 -3 8 0 14 6 14 6 0 11 7 11 15 0 8 5
15 10 15 6 0 10 11 10 24 0 13 8 34 18 47 26 35 72 119 72 134 0 7 10 27 23
46 12 19 28 46 34 62 14 31 5 34 -37 12z m-167 -511 c9 -9 -4 -35 -14 -28 -5
3 -9 12 -9 20 0 14 12 19 23 8z"/>
<path d="M6000 3234 c0 -5 13 -20 29 -33 23 -19 28 -29 20 -42 -12 -24 -3 -44
27 -57 15 -8 24 -20 24 -35 0 -30 20 -56 47 -60 11 -2 27 -8 35 -14 7 -6 94
-34 193 -62 99 -29 203 -60 230 -71 28 -10 86 -30 130 -44 106 -33 380 -129
430 -151 22 -9 75 -30 118 -46 l77 -28 0 109 0 110 -126 60 c-69 33 -128 60
-131 60 -3 0 -19 6 -36 14 -197 86 -735 248 -922 276 -38 6 -87 13 -107 17
-21 3 -38 2 -38 -3z"/>
<path d="M6375 3201 c3 -6 13 -11 22 -11 58 0 569 -174 766 -261 97 -44 182
-79 187 -79 6 0 10 28 10 63 l0 62 -78 29 c-42 15 -86 32 -97 37 -86 38 -379
105 -615 139 -74 11 -150 23 -168 26 -23 3 -32 2 -27 -5z"/>
<path d="M857 3024 c-2 -2 -30 -9 -63 -15 -146 -25 -210 -69 -101 -69 61 0
268 37 281 51 6 5 18 9 28 9 23 0 23 17 1 24 -20 6 -140 5 -146 0z"/>
<path d="M1314 2935 c-4 -8 -12 -15 -19 -15 -22 0 -35 -24 -20 -37 10 -9 17
-9 31 2 11 8 27 15 38 15 12 0 16 5 13 14 -4 10 -1 13 9 9 7 -3 14 -1 14 5 0
5 -10 12 -22 16 -33 9 -38 8 -44 -9z"/>
<path d="M6175 2905 c22 -13 46 -25 53 -25 29 0 9 -18 -28 -24 -41 -6 -51 -19
-26 -33 8 -4 16 -23 18 -41 3 -24 11 -38 28 -46 14 -7 49 -25 79 -41 40 -20
73 -29 125 -32 39 -3 78 -7 86 -9 26 -9 -10 -23 -42 -17 -15 3 -28 3 -28 0 0
-7 147 -78 240 -115 41 -16 100 -41 130 -54 30 -14 78 -33 105 -43 28 -10 68
-25 90 -35 22 -9 73 -30 112 -44 40 -15 75 -31 78 -36 9 -15 -280 78 -361 116
-28 13 -56 24 -63 24 -7 0 -36 11 -64 24 -81 38 -287 122 -340 140 -53 18
-144 21 -167 6 -13 -8 -12 -11 5 -24 11 -8 30 -12 41 -10 28 7 37 -8 20 -32
-10 -13 -11 -25 -4 -43 11 -31 19 -36 148 -103 58 -30 114 -59 125 -66 11 -6
77 -38 147 -71 71 -33 140 -68 155 -78 16 -10 45 -25 67 -32 47 -16 109 -52
102 -59 -8 -7 -95 27 -128 49 -14 11 -32 19 -39 19 -12 0 -140 56 -274 121
-108 52 -254 102 -242 83 3 -5 -13 -9 -35 -10 -60 0 -79 -40 -30 -65 15 -8 33
-22 40 -32 7 -9 17 -15 22 -12 4 2 22 0 39 -6 29 -10 31 -13 17 -28 -22 -24
-20 -36 9 -67 32 -34 31 -40 -4 -47 -17 -4 -30 -14 -34 -26 -3 -12 -13 -21
-25 -21 -55 0 -47 -63 10 -75 18 -4 38 -11 44 -16 6 -5 55 -24 110 -42 54 -19
128 -45 164 -60 36 -14 121 -46 190 -71 366 -133 512 -186 516 -186 2 0 4 211
4 468 l0 468 -35 17 c-20 9 -43 17 -53 17 -9 0 -26 7 -36 15 -11 8 -26 15 -34
15 -8 0 -28 6 -45 14 -18 7 -81 30 -142 49 -60 20 -175 59 -254 87 -79 27
-146 49 -148 47 -2 -2 18 -12 44 -22 27 -10 71 -29 100 -42 28 -12 58 -23 65
-23 7 0 33 -10 58 -23 25 -12 68 -31 95 -41 28 -10 70 -28 95 -41 25 -12 77
-34 115 -49 39 -15 81 -33 95 -42 25 -15 25 -15 -10 -9 -19 4 -46 14 -60 23
-14 10 -43 23 -65 30 -42 14 -236 88 -270 103 -11 5 -58 23 -105 40 -47 17
-107 40 -135 51 -134 54 -382 139 -398 137 -1 0 -19 7 -39 15 -56 24 -68 19
-23 -9z m1160 -405 c3 -6 -1 -7 -9 -4 -18 7 -21 14 -7 14 6 0 13 -4 16 -10z
m-254 -426 c9 -11 9 -14 0 -14 -18 0 -51 19 -51 29 0 13 37 2 51 -15z m86 -36
c18 -7 33 -16 33 -20 0 -5 -12 -2 -27 5 -16 8 -35 17 -43 20 -8 3 -11 6 -6 6
5 1 25 -4 43 -11z"/>
<path d="M793 2883 c-47 -6 -52 -20 -55 -146 0 -42 -3 -48 -25 -53 -47 -12 -3
-21 55 -11 55 9 119 36 229 98 44 25 55 28 72 17 25 -15 53 5 49 36 -2 17 -9
20 -33 18 -16 -2 -34 -7 -40 -11 -16 -13 -65 -22 -65 -13 0 5 12 14 28 21 l27
13 -35 19 c-34 18 -119 23 -207 12z"/>
<path d="M420 2847 c-21 -7 -40 -23 -48 -40 -7 -15 -28 -34 -45 -42 -18 -8
-59 -33 -92 -55 -33 -22 -68 -43 -77 -46 -10 -4 -18 -10 -18 -16 0 -5 -19 -17
-42 -28 -24 -10 -55 -29 -70 -43 l-28 -24 0 -498 0 -497 23 6 c12 3 30 6 40 6
9 0 17 7 17 15 0 11 11 15 40 15 28 0 40 4 40 14 0 9 -7 12 -18 9 -12 -3 -19
1 -19 11 0 9 6 16 13 16 7 0 17 6 21 14 11 19 75 54 91 49 17 -6 4 -23 -18
-23 -27 0 -32 -13 -14 -38 12 -18 18 -19 45 -10 22 7 34 7 41 0 8 -8 14 -7 22
3 8 11 23 13 60 7 55 -8 70 -27 34 -41 -12 -6 -18 -10 -12 -10 6 -1 9 -14 6
-32 l-4 -30 -23 21 c-23 22 -23 22 -34 2 -14 -26 -15 -122 -1 -122 5 0 13 12
16 26 4 16 12 23 20 20 8 -3 14 -1 14 4 0 13 37 22 60 15 11 -3 20 -13 20 -21
0 -9 11 -14 30 -14 17 0 30 -4 30 -9 0 -5 9 -11 19 -14 20 -5 31 15 31 58 0
31 19 46 42 34 27 -15 58 -19 58 -9 0 10 90 8 107 -3 6 -4 15 -3 18 3 4 7 11
7 18 2 20 -16 201 -36 205 -23 5 14 32 15 32 1 0 -5 9 -10 20 -10 11 0 20 5
20 10 0 6 11 10 25 10 15 0 25 -6 25 -15 0 -26 23 -66 36 -61 7 3 14 1 16 -5
2 -5 20 -10 40 -11 21 -1 39 -7 42 -15 8 -20 26 -16 36 10 7 17 9 18 9 5 1
-10 3 -18 5 -18 4 0 107 51 115 57 2 2 -6 12 -19 23 -17 14 -27 17 -40 10 -18
-10 -50 -4 -50 9 0 4 7 16 15 28 8 11 17 39 21 62 8 48 -4 52 -66 22 -37 -18
-40 -18 -45 -1 -7 22 8 61 29 79 22 19 20 44 -5 59 -21 13 -21 14 10 41 17 15
31 33 31 39 0 7 7 12 15 12 8 0 15 3 16 8 0 4 3 16 5 27 3 11 5 35 5 53 0 17
4 32 9 32 6 0 10 5 10 11 0 15 -61 3 -71 -13 -4 -6 -14 -8 -23 -5 -20 8 -10
33 35 85 16 18 29 38 29 46 0 7 16 26 35 43 19 17 35 36 35 42 0 17 -28 13
-39 -6 -6 -11 -22 -17 -45 -17 -20 0 -36 -4 -36 -10 0 -5 -3 -6 -6 -3 -4 4 1
18 10 31 9 14 16 28 16 30 0 3 -23 8 -50 12 -47 6 -49 8 -30 21 11 8 20 24 20
37 0 12 5 27 11 33 17 17 3 31 -28 27 -16 -3 -44 -6 -65 -8 -43 -5 -87 -27
-111 -56 -10 -11 -22 -18 -28 -14 -7 4 -3 14 10 28 12 12 21 28 21 35 0 6 15
18 33 26 45 20 88 50 81 58 -3 3 3 16 15 28 34 37 26 48 -21 30 -13 -5 -27 -9
-33 -10 -5 -1 -19 -11 -30 -21 -11 -10 -54 -35 -95 -56 -41 -21 -82 -47 -92
-58 -15 -19 -15 -22 4 -48 10 -15 15 -28 9 -28 -6 0 -8 -7 -4 -16 5 -13 14
-15 44 -10 35 6 39 4 39 -14 0 -12 -4 -19 -9 -16 -5 3 -23 -7 -39 -22 -23 -22
-30 -36 -28 -60 2 -36 -27 -63 -66 -60 -13 0 -30 -1 -38 -3 -8 -2 -19 6 -25
19 -5 12 -16 22 -24 22 -12 0 -12 3 -3 12 16 16 15 28 -1 28 -7 0 -19 21 -26
47 -8 25 -22 54 -32 64 -22 22 -33 56 -30 90 2 26 -21 45 -40 33 -12 -7 -11
-1 1 32 7 18 7 30 0 39 -8 9 -8 15 0 20 17 11 11 23 -15 29 -14 4 -25 13 -25
22 0 8 -10 33 -21 56 -19 38 -20 43 -5 53 9 7 16 20 16 29 0 11 5 14 12 10 6
-4 -2 9 -18 30 -16 20 -39 39 -50 42 -26 7 -47 49 -38 76 3 10 -1 30 -10 43
-18 28 -49 31 -106 12z m746 -642 c-28 -30 -36 -31 -36 -7 0 9 10 22 23 28 33
15 39 7 13 -21z m-53 8 c-7 -2 -19 -2 -25 0 -7 3 -2 5 12 5 14 0 19 -2 13 -5z
m-548 -363 c3 -5 1 -10 -4 -10 -6 0 -11 5 -11 10 0 6 2 10 4 10 3 0 8 -4 11
-10z m-5 -90 c0 -11 -7 -20 -15 -20 -18 0 -19 12 -3 28 16 16 18 15 18 -8z
m-260 -20 c0 -5 -4 -10 -10 -10 -5 0 -10 5 -10 10 0 6 5 10 10 10 6 0 10 -4
10 -10z m190 -6 c0 -11 -5 -14 -16 -10 -9 3 -21 6 -27 7 -7 0 -3 4 8 9 29 13
35 12 35 -6z"/>
<path d="M6568 2813 c7 -3 16 -2 19 1 4 3 -2 6 -13 5 -11 0 -14 -3 -6 -6z"/>
<path d="M4020 2777 c0 -12 14 -22 63 -45 4 -2 7 4 7 13 0 9 -4 14 -9 10 -5
-3 -12 -1 -16 5 -3 5 -15 15 -26 20 -14 8 -19 7 -19 -3z"/>
<path d="M1178 2616 c-48 -24 -93 -48 -100 -53 -7 -6 -30 -13 -51 -16 -37 -6
-91 -39 -81 -50 3 -3 21 3 40 14 37 21 74 25 74 9 0 -5 -4 -10 -9 -10 -5 0
-24 -12 -41 -27 -20 -16 -34 -22 -38 -16 -11 17 -70 3 -75 -17 -7 -28 1 -30
45 -14 22 7 44 12 48 9 5 -3 25 4 47 14 21 11 56 28 78 38 22 10 70 47 108 83
98 97 90 103 -45 36z"/>
<path d="M1095 2630 c-3 -5 3 -10 14 -10 11 0 23 5 26 10 3 6 -3 10 -14 10
-11 0 -23 -4 -26 -10z"/>
<path d="M915 2610 c-3 -6 1 -7 9 -4 18 7 21 14 7 14 -6 0 -13 -4 -16 -10z"/>
<path d="M922 2540 c-12 -11 -26 -20 -32 -20 -5 0 -10 -7 -10 -15 0 -8 5 -15
11 -15 12 0 69 51 69 62 0 14 -16 9 -38 -12z"/>
<path d="M2894 2489 c-3 -6 -2 -15 4 -21 6 -6 11 -2 15 11 5 22 -7 29 -19 10z"/>
<path d="M4993 2293 c-7 -2 -13 -13 -13 -23 0 -10 -6 -21 -12 -23 -7 -3 2 -6
20 -6 25 -1 32 -5 32 -21 0 -14 9 -21 35 -26 20 -3 38 -4 41 -1 13 13 -10 49
-36 58 -15 6 -30 19 -33 30 -5 19 -12 22 -34 12z"/>
<path d="M3462 2244 c10 -9 58 -12 58 -3 0 5 -14 9 -32 9 -17 0 -29 -3 -26 -6z"/>
<path d="M4490 2242 c-57 -26 -63 -38 -58 -107 3 -36 3 -75 1 -86 -8 -31 -33
-3 -33 36 0 27 -6 36 -30 49 -29 14 -30 14 -30 -11 0 -22 -3 -24 -29 -18 -17
3 -32 2 -36 -4 -3 -6 -13 -11 -21 -11 -9 0 -30 -11 -48 -25 -18 -14 -37 -25
-42 -25 -6 0 -16 -6 -22 -12 -7 -7 -18 -13 -25 -13 -7 -1 -11 -6 -9 -13 3 -16
-4 -15 -31 2 -12 8 -42 16 -67 18 -40 3 -45 1 -48 -19 -4 -28 -31 -30 -98 -7
-29 10 -56 13 -73 8 -14 -4 -34 -6 -43 -5 -10 1 -18 -3 -18 -8 0 -6 -10 -11
-22 -11 -12 0 -32 -9 -44 -21 l-22 -21 -11 21 c-18 33 -44 27 -39 -9 3 -21 1
-27 -6 -20 -5 5 -18 10 -27 10 -9 0 -22 14 -29 30 -14 35 -17 36 -42 13 -17
-15 -18 -15 -18 6 l0 23 -34 -21 c-40 -25 -58 -27 -49 -5 4 11 -7 28 -34 52
-36 34 -42 36 -64 25 -13 -7 -37 -13 -52 -13 -15 0 -30 -7 -33 -15 -7 -17 -44
-21 -44 -5 0 6 -11 10 -24 10 -16 0 -26 -7 -29 -21 -4 -16 -11 -20 -26 -16
-16 4 -29 -4 -51 -31 -17 -20 -30 -40 -30 -45 0 -5 -9 -20 -19 -34 -11 -13
-25 -49 -31 -79 -7 -35 -16 -54 -26 -54 -8 0 -14 -5 -14 -11 0 -7 8 -9 23 -4
12 4 33 8 47 10 14 1 28 3 33 4 4 0 7 10 7 21 0 11 5 20 10 20 6 0 10 9 10 19
0 10 7 22 15 25 14 5 15 -3 10 -57 -4 -34 -8 -82 -10 -107 -4 -40 -16 -91 -41
-169 -6 -19 -4 -22 12 -20 12 3 30 28 49 66 17 36 37 62 46 62 8 1 25 11 36
24 12 12 33 33 48 47 15 13 32 36 37 50 l10 25 10 -22 c9 -19 13 -20 32 -10
11 7 31 21 44 31 15 13 22 15 22 7 0 -7 8 -3 18 9 20 25 45 20 40 -7 -4 -20
33 -44 39 -25 3 6 13 12 23 12 16 0 17 -4 7 -35 -12 -41 -6 -51 21 -36 39 21
97 8 62 -14 -6 -4 -8 -11 -4 -16 3 -5 10 -7 15 -3 5 3 7 10 4 15 -4 5 -2 9 4
9 5 0 11 10 14 23 3 21 4 21 11 2 15 -40 23 -50 45 -53 24 -4 28 -17 6 -26
-24 -9 -17 -26 10 -26 20 0 24 -5 24 -27 0 -104 10 -138 39 -129 11 4 22 -2
31 -16 10 -16 10 -23 2 -26 -21 -7 -11 -22 15 -22 17 0 28 6 31 20 3 12 14 20
27 20 28 0 99 65 101 92 2 21 24 40 37 31 5 -2 15 1 23 7 8 6 23 9 34 5 14 -4
21 0 27 17 7 22 7 22 15 3 8 -19 8 -19 15 3 5 18 14 22 45 22 22 0 39 -4 39
-10 0 -18 30 -11 31 8 3 66 8 102 14 111 3 7 42 11 91 11 83 0 84 0 84 25 0
28 20 32 66 15 15 -6 35 -8 44 -5 23 7 32 41 14 56 -20 16 -17 26 8 32 23 7
47 -16 48 -44 0 -13 12 -18 48 -21 61 -6 75 5 67 52 -4 25 -2 42 7 51 22 22
30 49 12 42 -24 -9 -16 25 11 49 21 18 23 23 9 32 -10 8 -14 24 -12 49 l3 38
33 -30 c19 -18 39 -28 48 -24 8 3 26 0 40 -7 21 -12 26 -11 39 6 17 22 19 44
5 44 -5 0 -10 7 -10 15 0 8 -7 15 -15 15 -18 0 -28 20 -29 63 -1 22 -7 33 -18
35 -11 2 -18 -3 -18 -11 0 -8 -7 -18 -16 -21 -9 -4 -14 -13 -10 -21 3 -8 1
-15 -4 -15 -6 0 -10 6 -10 14 0 8 -5 18 -11 22 -17 10 -109 14 -109 5 0 -21
-46 4 -60 32 -11 24 -22 32 -45 34 -16 1 -37 -1 -45 -5z m390 -178 c0 -17 -22
-14 -28 4 -2 7 3 12 12 12 9 0 16 -7 16 -16z m-510 -60 c0 -12 -5 -26 -10 -29
-13 -8 -31 40 -24 60 9 22 34 -1 34 -31z m-401 -124 c0 -34 -3 -40 -9 -25 -5
11 -9 40 -9 65 0 34 3 40 9 25 5 -11 9 -40 9 -65z m-529 -86 c0 -8 -5 -12 -10
-9 -6 4 -8 11 -5 16 9 14 15 11 15 -7z m-445 -24 c3 -5 1 -10 -4 -10 -6 0 -11
5 -11 10 0 6 2 10 4 10 3 0 8 -4 11 -10z"/>
<path d="M4668 2198 c9 -9 15 -9 24 0 9 9 7 12 -12 12 -19 0 -21 -3 -12 -12z"/>
<path d="M4810 1991 c0 -6 11 -22 24 -37 l23 -28 17 33 c20 37 15 51 -10 30
-13 -11 -18 -11 -21 -1 -5 14 -33 17 -33 3z"/>
<path d="M2939 1975 c-1 -3 -2 -8 -3 -12 -4 -21 -20 -34 -37 -30 -14 4 -19 0
-19 -13 0 -11 5 -22 10 -25 6 -3 10 -18 11 -33 1 -23 2 -24 8 -7 8 23 29 72
42 97 5 10 9 20 9 23 0 6 -20 7 -21 0z"/>
<path d="M6408 1638 c-16 -5 -28 -16 -28 -23 0 -23 12 -45 21 -40 4 3 19 -11
33 -31 23 -35 65 -64 91 -64 7 0 15 -3 17 -7 5 -12 67 -43 85 -43 8 0 25 -8
38 -18 30 -24 271 -115 288 -109 16 6 49 -12 42 -22 -14 -24 118 -35 315 -27
36 2 49 13 43 36 -9 32 -39 48 -141 71 -52 12 -101 30 -110 39 -24 24 -138 80
-164 80 -6 0 -41 13 -77 29 -36 16 -113 46 -171 66 -58 20 -114 41 -125 46
-22 10 -104 29 -120 28 -5 0 -22 -5 -37 -11z"/>
<path d="M325 1610 c-3 -5 1 -10 9 -10 9 0 16 5 16 10 0 6 -4 10 -9 10 -6 0
-13 -4 -16 -10z"/>
<path d="M0 1520 c0 -11 6 -20 14 -20 24 0 26 15 5 28 -16 11 -19 9 -19 -8z"/>
<path d="M2990 1460 c0 -5 4 -10 9 -10 6 0 13 5 16 10 3 6 -1 10 -9 10 -9 0
-16 -4 -16 -10z"/>
<path d="M530 1426 c0 -2 7 -6 15 -10 8 -3 15 -1 15 4 0 6 -7 10 -15 10 -8 0
-15 -2 -15 -4z"/>
<path d="M6282 1195 c-46 -16 -61 -32 -36 -41 32 -12 53 -40 47 -63 -4 -16 2
-23 34 -36 39 -16 47 -34 29 -63 -4 -7 0 -14 11 -18 35 -11 122 -54 127 -63 3
-5 25 -6 49 -4 31 4 46 1 56 -11 7 -9 22 -16 32 -16 17 0 36 -7 106 -36 17 -8
34 -14 38 -14 4 0 42 -16 84 -36 42 -20 82 -37 89 -37 6 0 12 -4 12 -8 0 -4
39 -26 88 -49 48 -24 89 -47 90 -52 2 -4 10 -8 18 -8 8 0 14 -5 14 -10 0 -6
10 -14 23 -19 12 -5 54 -37 92 -71 l70 -62 3 86 3 85 -44 43 c-24 24 -59 52
-78 62 -19 10 -43 27 -54 37 -11 10 -45 29 -77 44 -31 14 -62 32 -69 41 -7 8
-25 22 -41 30 -16 8 -38 24 -49 35 -10 10 -39 24 -63 31 -28 7 -46 19 -49 30
-4 13 -15 18 -41 18 -23 0 -39 6 -42 14 -3 8 -18 14 -34 14 -30 -1 -71 21
-103 54 -10 10 -38 24 -63 30 -24 7 -44 16 -44 21 0 4 -4 6 -9 2 -14 -8 -95
12 -99 24 -2 6 -15 11 -28 11 -14 0 -33 4 -42 8 -10 5 -31 4 -50 -3z"/>
<path d="M1120 930 c-13 -9 -13 -11 0 -20 20 -14 45 -8 45 10 0 18 -25 24 -45
10z"/>
<path d="M1230 895 c0 -8 7 -15 16 -15 14 0 14 3 4 15 -7 8 -14 15 -16 15 -2
0 -4 -7 -4 -15z"/>
<path d="M6313 865 c4 -9 7 -21 7 -26 0 -15 36 -10 50 6 16 19 14 21 -29 30
-29 6 -33 5 -28 -10z"/>
<path d="M6475 801 c-7 -22 0 -41 16 -41 11 0 12 30 0 49 -7 11 -10 9 -16 -8z"/>
</g>
</svg>
