<?xml version="1.0" standalone="no"?>
<!DOCTYPE svg PUBLIC "-//W3C//DTD SVG 20010904//EN"
 "http://www.w3.org/TR/2001/REC-SVG-20010904/DTD/svg10.dtd">
<svg version="1.0" xmlns="http://www.w3.org/2000/svg"
 width="576.000000pt" height="768.000000pt" viewBox="0 0 576.000000 768.000000"
 preserveAspectRatio="xMidYMid meet">

<g transform="translate(0.000000,768.000000) scale(0.100000,-0.100000)"
fill="#000000" stroke="none">
<path d="M0 7356 l0 -325 27 -4 28 -4 -27 -2 c-28 -1 -28 -2 -28 -70 0 -68 1
-70 28 -75 51 -11 197 -26 244 -26 46 0 47 1 43 28 -3 15 -9 86 -15 157 -22
277 -50 630 -50 638 0 4 -21 7 -47 5 l-48 -3 2 -40 c5 -90 7 -103 15 -99 5 3
6 -7 2 -23 -4 -15 -7 -30 -6 -33 2 -116 5 -151 11 -125 5 18 7 -5 5 -55 -1
-55 2 -88 10 -92 8 -6 7 -8 -1 -8 -18 0 -16 -42 2 -66 18 -24 20 -118 2 -133
-20 -16 -27 -3 -27 47 0 24 -9 143 -20 265 -19 215 -27 313 -29 350 -1 14 -11
17 -61 17 l-60 0 0 -324z"/>
<path d="M192 7030 c0 -14 2 -19 5 -12 2 6 2 18 0 25 -3 6 -5 1 -5 -13z"/>
<path d="M706 6801 c-3 -5 1 -14 9 -21 12 -10 15 -10 15 3 0 19 -16 31 -24 18z"/>
<path d="M760 6782 c-8 -9 -14 -22 -12 -28 1 -6 -28 -26 -65 -44 -38 -17 -75
-35 -83 -39 -8 -5 -16 -21 -16 -37 -1 -16 -12 -56 -25 -89 -20 -52 -23 -79
-24 -200 l-1 -140 -26 -9 c-19 -7 -31 -6 -43 4 -9 8 -35 15 -58 17 -27 3 -48
11 -58 24 -9 13 -28 21 -49 21 -40 1 -66 22 -75 61 -8 29 -15 32 -105 42 -30
3 -70 8 -87 11 l-33 6 0 -822 0 -821 203 5 c611 17 713 17 692 1 -15 -12 -17
-18 -7 -24 15 -9 -20 -25 -75 -35 -25 -4 -31 -2 -26 9 3 8 0 15 -7 15 -6 0 -8
5 -5 10 3 6 -3 10 -14 10 -13 0 -21 -7 -21 -16 0 -11 -5 -14 -16 -10 -9 3 -19
6 -22 6 -4 0 0 5 8 10 11 7 4 9 -25 9 -33 -1 -36 -2 -15 -8 15 -5 -27 -10
-109 -15 -74 -4 -142 -11 -150 -16 -14 -8 -14 -9 2 -10 20 0 23 -16 5 -23 -15
-5 9 -2 66 9 28 5 37 4 32 -5 -4 -6 -17 -11 -29 -11 -39 -1 -378 -88 -402
-104 -13 -9 -38 -16 -55 -16 -19 0 -30 -5 -30 -14 0 -11 14 -16 48 -19 l47 -3
-47 -2 c-42 -2 -48 -5 -48 -23 0 -19 4 -21 42 -15 97 13 154 16 128 7 -14 -5
-51 -12 -82 -16 -67 -7 -87 -24 -31 -26 l38 -1 -47 -10 -48 -10 0 -64 c0 -62
1 -64 23 -60 75 16 260 60 304 72 28 8 60 14 72 14 11 0 40 6 63 14 24 7 70
19 103 26 81 16 314 97 325 112 6 8 43 4 59 -6 5 -3 14 1 21 10 7 8 20 12 29
9 9 -4 22 3 33 17 11 14 17 17 16 8 -2 -10 4 -14 16 -12 18 3 18 3 1 -15 -18
-17 -18 -18 7 -21 15 -2 50 4 79 12 73 22 91 20 44 -5 -22 -12 -41 -25 -43
-30 -2 -5 -12 -9 -22 -9 -9 0 -24 -7 -31 -17 -13 -15 -10 -16 31 -9 102 17
139 25 210 46 41 13 83 23 92 24 10 1 21 5 24 9 4 4 14 7 23 7 14 0 14 -2 1
-10 -31 -19 1 -19 95 0 54 11 106 26 114 34 9 7 32 16 51 19 19 4 64 14 100
22 36 9 83 18 105 22 22 3 42 9 45 13 3 4 21 10 40 14 l35 6 -32 -22 c-18 -13
-31 -29 -28 -35 2 -7 -2 -13 -10 -13 -8 0 -15 -4 -15 -10 0 -5 -10 -10 -22 -9
l-23 0 23 16 c12 8 22 19 22 24 0 12 -33 -1 -47 -19 -10 -12 -9 -18 5 -28 9
-7 13 -16 9 -20 -4 -5 -11 -3 -15 4 -6 8 -12 6 -22 -8 -10 -14 -17 -16 -26 -9
-7 6 -18 8 -25 4 -8 -6 -8 -9 1 -15 8 -5 2 -10 -15 -14 -15 -4 -30 -5 -33 -1
-3 3 2 5 11 5 9 0 17 5 17 11 0 6 -10 9 -22 6 -13 -3 -67 -15 -120 -27 -54
-13 -98 -26 -98 -31 0 -13 32 -11 80 6 45 16 96 11 69 -6 -8 -5 -26 -9 -40 -9
-14 0 -29 -3 -33 -7 -13 -13 -65 -11 -77 3 -6 8 -16 14 -21 14 -6 0 -5 -7 2
-15 17 -20 4 -32 -19 -18 -11 7 -23 8 -32 2 -8 -5 -26 -9 -40 -9 -16 0 -33
-10 -47 -30 -13 -16 -30 -30 -40 -30 -12 0 -8 6 13 20 17 11 23 20 15 20 -30
0 -87 -26 -119 -53 -18 -15 -45 -28 -59 -28 -34 -2 -43 -3 -62 -12 -8 -4 -55
-18 -105 -31 -49 -14 -79 -25 -65 -26 48 -2 -2 -17 -115 -34 -60 -9 -139 -24
-175 -32 -67 -15 -195 -38 -310 -54 -36 -5 -132 -20 -214 -34 -82 -14 -162
-26 -178 -26 -28 0 -28 0 -28 -65 0 -41 4 -65 11 -65 13 0 172 26 244 41 28 5
120 23 205 40 85 16 205 41 265 54 61 13 174 35 253 50 79 15 156 34 173 42
16 8 33 12 38 8 6 -3 26 1 44 9 39 16 109 17 104 2 -8 -23 -93 -56 -149 -57
-10 0 -18 -4 -18 -8 0 -5 -29 -14 -65 -21 -36 -7 -65 -16 -65 -21 0 -5 -24 -9
-52 -9 -70 0 -208 -21 -208 -32 0 -5 -11 -6 -25 -2 -16 4 -25 2 -25 -6 0 -8
-9 -11 -25 -8 -14 3 -25 1 -25 -3 0 -5 -18 -9 -40 -9 -22 0 -56 -9 -77 -19
-26 -13 -77 -23 -158 -31 -103 -10 -210 -23 -368 -46 l-37 -6 0 -65 0 -65 47
6 c66 10 84 16 78 26 -9 14 24 18 240 30 110 7 203 14 207 16 5 3 38 7 74 9
87 6 74 -12 -16 -21 -38 -3 -67 -10 -65 -14 3 -5 -39 -11 -92 -15 -54 -3 -132
-13 -173 -21 -41 -9 -97 -18 -125 -20 -27 -3 -59 -9 -70 -14 -18 -9 -59 -17
-93 -19 -9 -1 -12 -80 -12 -367 l1 -366 62 6 62 5 -45 -13 -45 -14 85 -2 c47
-1 110 -5 140 -10 42 -6 24 -7 -80 -7 -134 0 -180 -6 -180 -23 0 -5 15 -11 33
-13 l32 -4 -32 -1 c-30 -2 -33 -5 -33 -35 l0 -34 133 3 132 2 -125 -8 c-69 -4
-128 -8 -132 -9 -5 0 -8 -43 -8 -95 l0 -93 138 4 c75 3 177 8 225 12 74 6 86
5 71 -6 -10 -7 -47 -14 -83 -14 -59 -2 -183 -6 -308 -11 l-43 -1 0 -56 c0 -36
3 -51 9 -42 6 10 23 12 60 9 28 -3 53 -2 57 1 10 10 164 8 164 -3 0 -5 3 -6 7
-3 3 4 12 -1 19 -11 7 -9 14 -12 14 -6 0 7 43 10 123 10 123 0 210 5 410 25
59 7 130 9 158 7 37 -4 52 -2 56 8 3 8 10 14 15 14 7 0 7 -4 0 -12 -10 -13
-12 -18 -12 -39 0 -5 -5 -7 -12 -3 -16 10 -79 7 -253 -12 -33 -3 -76 -8 -95
-9 -90 -7 -181 -16 -250 -24 -47 -5 -80 -5 -87 1 -7 6 -21 7 -30 3 -10 -4 -52
-9 -93 -11 -112 -6 -124 -8 -132 -18 -4 -6 -12 -6 -20 1 -7 5 -26 9 -43 7 -16
-1 -38 -3 -47 -3 -15 -1 -18 -11 -18 -66 l0 -65 28 5 c25 4 118 14 187 20 150
14 457 46 467 49 12 4 114 12 283 22 33 2 60 4 60 4 0 1 35 3 78 5 42 2 77 0
77 -5 0 -4 -35 -10 -77 -13 -43 -3 -100 -7 -128 -10 -27 -3 -88 -9 -135 -13
-47 -3 -101 -12 -120 -20 -33 -12 -126 -22 -235 -24 l-50 -2 30 -13 c29 -14
30 -14 5 -15 -68 -3 -117 -13 -132 -27 -11 -10 -18 -12 -18 -5 0 7 -4 12 -10
12 -5 0 -10 -7 -10 -15 0 -10 -10 -15 -27 -16 -16 0 -39 -2 -53 -4 -14 -1 -69
-6 -122 -10 l-98 -8 0 -49 c0 -35 4 -48 14 -48 8 0 18 5 21 10 4 6 10 8 14 6
10 -6 109 -8 146 -2 81 13 152 20 168 18 9 -1 17 2 17 7 0 13 45 22 134 26 57
3 84 8 92 19 6 9 14 13 18 9 11 -12 46 -13 46 -3 0 14 50 34 78 31 12 -1 22 2
22 8 0 6 7 11 15 11 8 0 15 -5 15 -12 0 -20 31 -47 48 -41 12 4 14 3 7 -5 -5
-6 -26 -14 -45 -17 -19 -3 -40 -11 -47 -16 -7 -6 -18 -7 -25 -3 -18 12 -59 14
-53 3 8 -13 -7 -17 -100 -28 -44 -6 -94 -17 -110 -25 -16 -8 -53 -18 -82 -22
-29 -3 -53 -10 -53 -15 0 -5 -14 -7 -30 -5 -17 2 -33 0 -35 -4 -5 -9 -74 -24
-92 -21 -7 1 -13 -2 -13 -6 0 -7 -13 -9 -92 -13 -15 -1 -30 -6 -33 -11 -4 -5
-15 -9 -26 -9 -18 0 -19 -8 -19 -131 0 -95 3 -128 11 -123 7 4 41 6 77 6 44
-1 74 4 93 15 22 13 31 14 42 4 10 -8 17 -9 22 -1 9 15 44 12 61 -4 20 -20 18
-24 -13 -30 -16 -2 0 -3 34 -1 34 1 68 7 75 11 7 5 24 10 38 11 54 4 90 16 90
29 0 13 62 30 77 21 5 -3 44 -1 88 5 44 5 96 11 115 12 20 2 45 8 56 14 15 8
24 8 31 1 7 -7 17 -7 32 3 18 11 23 11 31 -2 9 -13 14 -7 11 12 0 5 8 8 20 8
15 0 19 -4 14 -19 -3 -11 -1 -22 5 -26 17 -11 0 -25 -28 -24 -15 0 -47 -2 -72
-6 -25 -4 -57 -8 -72 -8 -16 0 -28 -3 -28 -7 0 -3 -29 -7 -64 -7 -35 -1 -73
-6 -84 -12 -11 -6 -36 -11 -55 -11 -39 0 -99 -19 -93 -29 3 -4 -12 -7 -32 -8
-42 0 -167 -30 -197 -46 -11 -6 -61 -11 -112 -12 -74 -1 -96 -4 -112 -20 -12
-10 -21 -13 -21 -7 0 7 -9 12 -19 12 -18 0 -19 -11 -21 -262 -1 -212 2 -259
12 -251 7 6 47 22 89 36 43 14 96 35 119 47 24 12 86 37 139 55 236 82 334
115 446 150 66 21 137 44 158 51 20 8 44 14 53 14 8 0 34 9 56 20 23 11 52 20
64 20 13 0 54 11 92 25 38 14 82 25 97 25 16 0 36 7 45 15 9 8 30 15 48 17 18
1 32 6 32 10 0 4 8 8 18 8 9 0 37 7 61 16 24 8 58 12 75 9 22 -3 25 -2 11 3
-16 7 -12 10 20 15 21 4 41 4 44 2 2 -3 -4 -6 -15 -6 -10 -1 8 -7 41 -14 47
-10 53 -13 26 -14 -33 -1 -33 -1 -17 -26 19 -29 12 -49 -15 -42 -11 3 -19 2
-19 -3 0 -4 -12 -6 -27 -3 -23 3 -24 2 -8 -5 18 -8 17 -10 -10 -15 -86 -16
-127 -30 -133 -45 -9 -25 -28 -42 -46 -42 -9 0 -16 -4 -16 -10 0 -5 -13 -10
-30 -10 -34 0 -37 -10 -14 -45 10 -15 12 -25 5 -25 -6 0 -11 7 -11 16 0 21
-32 10 -67 -22 -14 -13 -36 -24 -49 -24 -12 0 -25 -4 -28 -9 -3 -4 -17 -6 -31
-3 -18 3 -25 1 -23 -9 2 -9 -6 -14 -23 -15 -14 -1 -36 -8 -50 -17 -14 -9 -34
-18 -45 -20 -12 -1 -29 -11 -38 -20 -10 -9 -22 -17 -27 -17 -5 0 -11 -11 -15
-25 -6 -22 -21 -31 -48 -26 -5 1 -12 -2 -15 -7 -8 -12 -55 -27 -48 -15 3 5 -7
7 -24 5 -16 -2 -29 -10 -29 -17 0 -7 -8 -16 -17 -20 -17 -6 -17 -7 0 -16 9 -6
22 -7 28 -4 5 4 17 1 26 -6 14 -12 13 -14 -8 -20 -24 -7 -24 -7 2 -8 15 -1 29
-7 32 -15 8 -21 -34 -56 -60 -50 -14 4 -29 -2 -43 -16 -13 -13 -31 -20 -48
-19 -18 2 -37 -6 -56 -24 -30 -28 -46 -34 -46 -17 0 6 -9 10 -20 10 -16 0 -19
-6 -17 -37 2 -32 -2 -39 -28 -52 -16 -8 -45 -27 -63 -42 -18 -16 -50 -32 -72
-35 -22 -4 -40 -12 -40 -19 0 -6 -11 -17 -25 -23 -14 -6 -25 -16 -25 -22 0 -5
-13 -10 -28 -10 -32 0 -53 -16 -46 -35 3 -7 1 -16 -5 -20 -6 -3 -11 -14 -11
-23 0 -10 -11 -26 -25 -36 -16 -12 -25 -29 -25 -47 0 -33 23 -39 40 -11 8 12
13 13 16 5 11 -25 33 -13 36 20 2 20 9 32 18 32 8 1 14 6 13 13 -2 7 4 12 12
12 8 0 15 -9 15 -20 0 -11 7 -20 15 -20 9 0 12 6 9 15 -8 19 48 75 74 75 12 0
23 -8 25 -17 4 -14 5 -13 6 4 2 32 18 37 43 13 13 -11 24 -16 26 -11 2 5 9 8
17 5 10 -4 16 6 21 33 8 46 33 80 46 61 6 -10 8 -9 8 3 0 19 40 33 54 19 7 -7
2 -10 -13 -10 -16 0 -22 -5 -19 -17 5 -26 38 -29 38 -4 0 11 15 35 32 53 18
18 32 36 30 40 -1 5 5 8 13 8 8 0 15 -5 15 -11 0 -5 5 -7 11 -3 6 3 8 17 5 30
-5 20 1 28 34 49 26 16 52 25 77 24 l38 -2 -35 -6 -35 -7 29 -10 c26 -9 33 -7
60 18 41 38 70 34 74 -9 2 -19 -1 -33 -7 -33 -6 0 -11 -9 -11 -20 0 -24 38
-28 46 -5 4 8 12 15 20 15 8 0 14 7 14 16 0 13 7 15 33 10 29 -5 36 -2 62 29
15 20 33 34 39 32 6 -2 18 0 28 4 11 6 18 4 22 -6 3 -8 17 -15 31 -15 14 0 25
-4 25 -10 0 -22 36 -8 52 21 15 26 20 28 38 19 39 -21 21 -38 -68 -60 -27 -7
-48 -20 -60 -38 -33 -52 -46 -62 -79 -62 -36 0 -88 -28 -88 -48 0 -12 -45 -41
-90 -58 -19 -7 -27 -9 -50 -13 -5 -1 -4 -5 3 -10 10 -6 10 -10 -3 -21 -9 -7
-15 -9 -13 -3 3 13 -6 15 -27 7 -8 -4 -15 -14 -15 -23 0 -10 -12 -24 -28 -32
-32 -17 -52 -34 -52 -46 0 -9 -54 -35 -81 -38 -8 -1 -35 -21 -59 -44 -24 -22
-49 -41 -55 -41 -7 0 -18 -7 -25 -15 -7 -8 -24 -15 -38 -15 -13 0 -31 -8 -38
-18 -7 -9 -16 -17 -21 -18 -21 -1 -80 -33 -97 -53 -11 -11 -25 -21 -32 -21 -7
0 -15 -6 -18 -12 -5 -11 -7 -11 -12 0 -8 18 -28 15 -42 -8 -9 -15 -23 -20 -57
-20 -32 0 -48 -5 -57 -19 -7 -10 -31 -22 -53 -25 -46 -8 -99 -51 -108 -88 -4
-16 -16 -28 -32 -32 -28 -7 -33 -27 -10 -46 21 -17 19 -30 -4 -30 -12 0 -23
-11 -30 -30 l-10 -30 128 0 128 0 72 69 c58 55 76 67 96 63 14 -2 32 1 40 8
10 8 15 9 15 2 0 -21 28 -1 40 27 11 27 60 71 79 71 11 0 19 -34 17 -75 -1
-23 -9 -34 -39 -51 -35 -19 -77 -64 -61 -64 4 0 -3 -11 -16 -25 l-23 -25 2641
0 2642 0 0 2121 c0 1835 -2 2120 -14 2116 -8 -3 -30 -9 -49 -12 -20 -4 -45
-18 -58 -31 -12 -13 -30 -24 -40 -24 -9 0 -19 -9 -22 -20 -3 -11 -12 -20 -20
-20 -9 0 -18 -8 -22 -17 -6 -17 -129 -83 -153 -83 -6 0 -14 -9 -17 -21 -4 -11
-9 -18 -12 -15 -3 3 -19 -6 -35 -19 -16 -14 -38 -25 -49 -25 -11 0 -22 -6 -25
-14 -5 -14 -39 -28 -47 -19 -8 7 54 63 69 63 8 0 17 13 21 30 5 27 13 34 35
31 4 0 10 8 13 19 4 11 13 20 21 20 8 0 31 16 51 35 20 19 43 35 52 36 10 0
12 2 3 6 -6 2 -9 10 -5 16 4 7 0 8 -11 4 -10 -4 -27 -7 -37 -7 -11 0 -17 -4
-14 -10 3 -5 -3 -10 -13 -10 -11 0 -25 -7 -32 -15 -7 -8 -20 -15 -30 -15 -10
0 -21 -10 -25 -22 -5 -17 -8 -19 -11 -7 -4 11 -13 14 -34 11 -33 -5 -40 -18
-12 -24 12 -3 5 -10 -25 -26 -22 -12 -43 -27 -46 -34 -3 -10 -8 -9 -18 4 -12
14 -21 16 -54 8 -22 -5 -45 -16 -51 -24 -6 -9 -16 -16 -21 -16 -5 0 -20 -9
-33 -20 -12 -11 -27 -17 -31 -14 -13 8 -11 32 4 37 6 3 0 6 -15 6 l-28 1 20
23 c12 12 28 30 37 40 9 9 12 17 7 18 -5 0 -19 2 -31 5 -13 2 -23 0 -23 -5 0
-5 -10 -13 -22 -17 -12 -3 -31 -15 -42 -25 -11 -11 -25 -19 -30 -19 -6 0 12
21 39 47 28 25 83 77 124 114 41 38 77 69 82 69 4 0 19 11 33 23 27 25 26 40
-2 30 -10 -5 -13 -3 -8 6 5 8 18 10 33 6 14 -3 22 -2 20 3 -3 4 39 18 94 31
104 25 115 35 65 60 -39 18 -240 21 -282 3 -18 -8 -45 -12 -60 -10 -26 3 -24
5 21 20 l50 17 -65 2 c-168 6 -203 3 -325 -35 -66 -21 -133 -44 -149 -52 -16
-8 -34 -14 -39 -14 -5 0 -16 -8 -23 -18 -12 -15 -13 -14 -14 11 0 20 5 27 20
27 11 0 20 7 20 16 0 8 4 13 8 10 5 -3 45 13 91 35 45 21 95 39 111 39 72 0
23 37 -62 47 -45 5 -47 5 -43 -18 5 -25 9 -22 -144 -94 -64 -29 -61 -29 -61
-12 0 12 75 55 133 76 41 16 34 34 -10 28 -77 -12 -105 -20 -110 -33 -3 -8
-16 -14 -29 -14 -13 0 -24 -4 -24 -9 0 -5 -9 -11 -20 -14 -36 -9 -21 11 25 33
25 12 47 26 51 31 3 5 14 9 26 9 17 0 18 2 8 15 -21 25 -163 18 -234 -10 -14
-6 -17 -4 -14 6 2 7 15 16 27 19 60 14 -6 48 -96 49 -28 1 -54 -3 -57 -7 -6
-11 -134 3 -206 22 -30 8 -82 20 -115 27 -65 14 -74 16 -77 18 -4 2 -295 12
-443 15 -71 2 -150 7 -175 12 -49 9 -76 10 -223 6 -59 -1 -96 -6 -92 -11 8
-14 -67 -33 -79 -21 -7 7 -1 10 17 10 15 0 27 5 27 11 0 8 -11 9 -32 5 -41 -8
-58 -24 -39 -36 37 -22 -59 -63 -97 -41 -15 9 -14 10 6 11 12 0 25 7 29 16 4
12 7 13 14 3 14 -23 20 -3 8 25 -7 14 -18 26 -26 26 -19 0 -16 -18 5 -23 9 -3
1 -5 -18 -6 -19 0 -48 -3 -65 -6 -16 -3 -55 -8 -85 -11 -30 -3 -71 -7 -90 -9
-117 -13 -159 -15 -165 -5 -6 10 -5 11 33 15 13 1 35 9 49 16 21 11 27 11 30
2 3 -7 18 -13 33 -13 31 0 48 15 28 23 -8 3 -6 6 5 6 9 1 17 7 17 15 0 7 14
16 31 20 42 8 49 8 49 -4 0 -5 -7 -10 -16 -10 -8 0 -12 -5 -9 -10 4 -6 15 -8
26 -5 21 7 27 -11 7 -18 -7 -2 -4 -3 7 -1 11 2 32 4 46 4 19 0 26 5 25 18 -1
13 9 18 49 22 47 6 48 6 20 14 -16 5 -34 12 -40 16 -25 17 -137 50 -207 60
-113 17 -334 18 -349 3 -7 -7 -20 -13 -29 -12 -9 0 -6 4 8 9 56 23 18 30 -153
28 -107 -2 -179 1 -183 7 -4 6 -16 15 -26 21 -34 18 -58 60 -59 100 0 22 -4
45 -10 51 -5 7 -7 20 -3 28 4 10 -2 19 -17 25 -12 5 -16 9 -9 9 7 1 12 16 12
41 0 36 -2 40 -25 40 -28 0 -28 0 -15 35 12 32 -7 136 -21 114 -6 -9 -8 4 -8
36 0 37 3 45 9 30 8 -19 9 -19 9 2 1 12 -3 25 -9 28 -5 3 -10 19 -10 34 0 15
-3 31 -7 34 -7 8 -7 6 -22 162 -8 92 -49 278 -67 307 -3 4 -18 8 -33 8 -19 0
-30 6 -33 18 -5 18 -61 31 -150 36 -21 1 -28 6 -29 21 0 11 -3 14 -6 8 -2 -7
-10 -13 -16 -13 -6 0 -4 8 6 17 13 13 19 14 29 5 36 -36 37 12 3 158 -3 14
-10 49 -16 77 -5 29 -19 78 -29 109 -11 32 -20 70 -20 86 0 27 -19 41 -21 16
-1 -7 -5 -2 -10 12 -7 20 -8 17 -5 -15 3 -22 8 -55 12 -74 6 -27 4 -33 -7 -29
-8 3 -17 23 -20 46 -3 25 -15 51 -31 67 -28 28 -35 51 -47 165 -6 48 -5 80 2
88 12 16 11 17 -39 29 -31 8 -45 7 -58 -3 -17 -12 -16 -14 3 -33 26 -26 38
-139 15 -148 -19 -7 -23 -3 -34 36 -6 23 -5 35 5 45 12 12 12 18 -1 45 -9 17
-19 31 -24 31 -12 0 -7 34 8 43 13 9 17 47 5 47 -5 -1 -15 -8 -23 -18z m-15
-82 c-8 -24 3 -62 15 -55 11 7 7 -75 -4 -93 -5 -9 -13 -9 -26 -2 -10 5 -24 10
-31 10 -19 0 8 -26 41 -40 17 -7 30 -19 30 -26 0 -8 5 -14 10 -14 6 0 10 -4
10 -10 0 -5 -6 -10 -14 -10 -16 0 -31 -34 -22 -49 4 -5 2 -11 -4 -13 -5 -2 -6
-9 -1 -17 13 -21 32 -3 25 25 -5 18 -2 24 10 24 12 0 14 -7 10 -30 -4 -19 -2
-30 5 -30 6 0 11 -8 11 -17 0 -15 2 -16 10 -3 9 13 11 13 20 0 17 -26 12 -50
-10 -50 -11 0 -23 -7 -26 -15 -4 -8 -10 -12 -15 -9 -24 14 -5 -15 22 -35 l30
-23 -6 -76 c-5 -61 -3 -83 9 -107 22 -41 21 -85 -1 -85 -72 0 -535 23 -561 29
l-34 6 27 29 c30 33 29 60 -3 64 -12 2 -22 8 -22 14 0 5 10 8 22 5 13 -3 121
-13 241 -23 212 -17 218 -17 238 2 31 28 42 54 41 96 -2 49 -17 72 -61 96 -40
21 -111 23 -136 2 -13 -10 -15 -9 -15 7 0 10 5 24 12 31 8 8 8 15 -2 26 -7 9
-10 26 -6 41 5 20 3 25 -14 25 -20 0 -21 19 -4 124 6 40 58 111 123 167 37 32
65 37 56 9z m130 -21 c9 -27 -3 -89 -17 -89 -6 0 -8 11 -5 26 3 15 1 40 -3 55
-7 22 -5 29 5 29 8 0 17 -9 20 -21z m5 -134 c-7 -9 -15 -13 -17 -11 -7 7 7 26
19 26 6 0 6 -6 -2 -15z m-50 -60 c0 -26 -3 -33 -15 -29 -16 6 -19 22 -9 48 11
28 24 17 24 -19z m0 -75 c0 -5 -5 -10 -11 -10 -5 0 -7 5 -4 10 3 6 8 10 11 10
2 0 4 -4 4 -10z m-400 -226 c0 -3 -6 -11 -13 -18 -9 -10 -20 -10 -45 -2 -18 7
-30 15 -26 19 9 8 84 10 84 1z m-160 -14 c0 -5 -2 -10 -4 -10 -3 0 -8 5 -11
10 -3 6 -1 10 4 10 6 0 11 -4 11 -10z m60 0 c0 -5 -12 -10 -26 -10 -14 0 -23
4 -19 10 3 6 15 10 26 10 10 0 19 -4 19 -10z m599 -52 c1 -5 -3 -8 -9 -8 -5 0
-10 12 -9 28 0 24 1 25 9 7 5 -11 9 -23 9 -27z m70 23 c16 -10 21 -82 5 -88
-13 -4 -64 41 -64 57 0 6 4 9 9 6 5 -3 11 3 14 14 6 22 14 24 36 11z m-759
-51 c0 -12 -27 -12 -55 0 -16 7 -13 9 18 9 20 1 37 -3 37 -9z m707 -1344 c-14
-11 -15 -15 -5 -19 8 -4 7 -6 -4 -6 -12 -1 -18 6 -18 19 0 14 7 20 23 20 21
-1 21 -1 4 -14z m55 6 c15 -6 14 -8 -5 -18 -19 -9 -23 -7 -24 8 -2 19 2 21 29
10z m-282 -82 c0 -5 -4 -10 -10 -10 -5 0 -10 5 -10 10 0 6 5 10 10 10 6 0 10
-4 10 -10z m1760 -105 c0 -8 -4 -15 -9 -15 -13 0 -22 16 -14 24 11 11 23 6 23
-9z m-275 -35 c-3 -5 -12 -10 -18 -10 -7 0 -6 4 3 10 19 12 23 12 15 0z
m-1892 -7 c-7 -2 -19 -2 -25 0 -7 3 -2 5 12 5 14 0 19 -2 13 -5z m1932 -3 c3
-5 1 -10 -4 -10 -6 0 -11 5 -11 10 0 6 2 10 4 10 3 0 8 -4 11 -10z m-2012 -7
c-7 -2 -19 -2 -25 0 -7 3 -2 5 12 5 14 0 19 -2 13 -5z m1787 -3 c0 -5 -4 -10
-10 -10 -5 0 -10 5 -10 10 0 6 5 10 10 10 6 0 10 -4 10 -10z m-1543 -26 c-3
-3 -12 -4 -19 -1 -8 3 -5 6 6 6 11 1 17 -2 13 -5z m1609 -16 c-11 18 2 14 24
-8 22 -22 27 -35 8 -23 -7 4 -22 8 -33 8 -12 0 -21 8 -23 20 -4 17 -3 18 14 5
11 -9 15 -10 10 -2z m64 -8 c0 -5 -2 -10 -4 -10 -3 0 -8 5 -11 10 -3 6 -1 10
4 10 6 0 11 -4 11 -10z m-101 -9 c19 -12 4 -31 -25 -31 -17 0 -24 5 -24 20 0
21 24 27 49 11z m-99 -74 c0 -12 -7 -18 -17 -16 -32 3 -36 -1 -22 -18 13 -15
11 -16 -14 -9 -19 4 -26 3 -22 -4 3 -6 -3 -10 -15 -10 -25 0 -54 -26 -45 -40
3 -5 -1 -10 -9 -10 -9 0 -16 -7 -16 -15 0 -9 -9 -15 -22 -15 -12 0 -19 -3 -15
-6 3 -3 -2 -14 -11 -24 -33 -37 -42 -49 -42 -61 0 -6 -8 -18 -17 -25 -12 -9
-14 -13 -5 -14 7 0 11 -4 8 -9 -3 -5 -16 -7 -27 -4 -19 5 -20 4 -9 -17 11 -20
10 -22 -4 -17 -53 22 -52 22 -32 -1 11 -12 16 -25 11 -30 -4 -4 -10 -1 -12 6
-3 6 -9 9 -14 6 -6 -3 -17 0 -26 8 -14 12 -15 11 -5 -8 6 -11 18 -26 26 -34
20 -16 21 -31 1 -24 -18 7 -20 -7 -3 -24 9 -9 9 -12 -1 -12 -7 0 -11 -6 -8
-14 4 -9 0 -12 -13 -9 -10 3 -21 12 -25 21 -5 13 -8 12 -20 -4 -14 -17 -14
-17 -9 -1 5 13 1 20 -13 23 -12 3 -26 18 -33 32 -10 19 -14 22 -17 12 -7 -29
-39 -41 -67 -26 -32 16 -23 28 11 15 33 -12 21 6 -21 32 l-31 20 30 -7 c17 -4
38 -14 48 -22 27 -24 20 -6 -10 25 -16 15 -28 31 -28 36 0 5 -8 14 -17 21 -26
19 -22 27 7 14 29 -13 35 -9 39 24 1 13 6 29 10 36 4 7 5 16 1 21 -8 13 13 24
47 25 19 1 27 -3 23 -11 -7 -19 6 -16 21 5 7 9 14 12 14 5 0 -6 -4 -15 -10
-18 -5 -3 -10 -17 -10 -31 0 -14 4 -22 10 -19 5 3 7 0 4 -9 -3 -8 -11 -17 -19
-19 -7 -3 -11 -15 -8 -30 4 -18 11 -24 29 -24 25 0 32 11 13 23 -8 5 -6 10 5
16 9 5 14 13 11 19 -4 5 6 9 20 9 14 0 24 4 20 9 -3 5 -1 12 5 16 5 3 10 1 10
-4 0 -6 4 -11 10 -11 6 0 6 9 0 25 -6 16 -6 34 0 50 6 15 6 26 0 30 -15 9 -12
25 4 25 8 0 28 14 46 30 18 17 39 30 47 30 13 0 13 3 3 15 -10 13 -9 15 11 15
13 0 30 9 37 20 15 24 28 25 49 4 12 -12 18 -12 23 -3 5 6 21 12 38 13 17 0
29 3 27 5 -2 2 2 9 8 16 10 10 14 9 24 -9 7 -11 12 -29 13 -39z m2983 16 c-7
-2 -19 -2 -25 0 -7 3 -2 5 12 5 14 0 19 -2 13 -5z m-78 -33 c-3 -5 -10 -10
-15 -10 -15 0 -134 -72 -143 -87 -4 -7 -15 -13 -22 -13 -8 0 -15 -4 -15 -10 0
-5 -5 -10 -11 -10 -6 0 -26 -12 -45 -26 -24 -19 -34 -22 -34 -12 0 21 51 66
90 79 19 7 42 18 50 25 22 18 123 72 138 73 7 1 10 -3 7 -9z m-3310 -70 c3 -5
1 -10 -4 -10 -6 0 -11 5 -11 10 0 6 2 10 4 10 3 0 8 -4 11 -10z m-160 -20 c-3
-5 -13 -10 -21 -10 -8 0 -14 5 -14 10 0 6 9 10 21 10 11 0 17 -4 14 -10z
m3545 -4 c0 -5 -90 -56 -99 -56 -15 1 65 60 81 60 10 0 18 -2 18 -4z m-3790
-10 c0 -9 -30 -14 -35 -6 -4 6 3 10 14 10 12 0 21 -2 21 -4z m3632 -102 c-13
-9 -26 -13 -30 -9 -8 8 17 25 38 25 9 0 6 -6 -8 -16z m-3402 -74 c0 -5 -2 -10
-4 -10 -3 0 -8 5 -11 10 -3 6 -1 10 4 10 6 0 11 -4 11 -10z m-33 -16 c-3 -3
-12 -4 -19 -1 -8 3 -5 6 6 6 11 1 17 -2 13 -5z m4370 -29 c-16 -14 -26 -29
-23 -34 4 -5 -3 -7 -13 -4 -19 5 -19 5 0 24 10 10 24 19 29 19 6 0 10 5 10 10
0 6 6 10 13 10 6 0 -1 -12 -16 -25z m-4724 0 c-29 -19 -101 -27 -126 -13 l-22
12 25 6 c14 4 51 7 83 7 48 0 54 -2 40 -12z m4652 -65 c-3 -5 -14 -10 -23 -10
-15 0 -15 2 -2 10 20 13 33 13 25 0z m-4136 -40 l21 -29 -30 11 c-17 6 -27 15
-23 21 4 6 0 8 -8 5 -9 -4 -15 1 -15 12 0 25 29 14 55 -20z m-79 10 c0 -5 -4
-10 -10 -10 -5 0 -10 5 -10 10 0 6 5 10 10 10 6 0 10 -4 10 -10z m-37 -19 c10
-12 8 -13 -13 -6 -22 7 -23 6 -11 -9 7 -9 11 -16 9 -16 -8 0 -48 37 -48 44 0
11 51 1 63 -13z m3577 9 c0 -5 -4 -10 -10 -10 -5 0 -10 5 -10 10 0 6 5 10 10
10 6 0 10 -4 10 -10z m-30 -14 c0 -2 -7 -6 -15 -10 -8 -3 -15 -1 -15 4 0 6 7
10 15 10 8 0 15 -2 15 -4z m-3427 -81 c20 -28 12 -32 -21 -9 -12 8 -20 20 -17
25 9 14 19 10 38 -16z m3607 1 c0 -3 -4 -8 -10 -11 -5 -3 -10 -1 -10 4 0 6 5
11 10 11 6 0 10 -2 10 -4z m-3670 -56 c0 -5 -4 -10 -10 -10 -5 0 -10 5 -10 10
0 6 5 10 10 10 6 0 10 -4 10 -10z m-124 -53 c4 -4 -2 -7 -13 -7 -12 0 -23 -7
-27 -15 -3 -9 0 -15 9 -15 23 0 28 -21 6 -27 -12 -3 -21 -12 -21 -19 0 -8 -4
-14 -9 -14 -14 0 -23 18 -13 24 5 3 7 17 4 31 -3 16 0 25 8 25 7 0 10 6 7 13
-5 15 36 18 49 4z m91 -43 c-3 -3 -12 -4 -19 -1 -8 3 -5 6 6 6 11 1 17 -2 13
-5z m-209 -86 c-3 -7 -13 -15 -23 -16 -15 -4 -16 -2 -4 12 17 19 32 21 27 4z
m246 -3 c4 -11 -2 -15 -24 -15 -23 0 -30 -5 -30 -19 0 -10 -6 -21 -14 -24 -17
-7 -30 20 -13 27 9 3 8 8 -3 15 -13 9 -13 11 3 11 9 0 17 5 17 10 0 16 57 12
64 -5z m-266 -48 c2 -9 -10 -31 -26 -47 -21 -21 -26 -30 -15 -30 10 0 13 -6 9
-16 -5 -12 -1 -14 17 -9 14 4 18 3 9 -3 -14 -10 -6 -42 12 -42 6 0 20 -8 31
-17 20 -15 20 -15 -2 -10 -24 5 -32 -8 -10 -16 6 -2 -13 -2 -43 0 -34 3 -50 1
-42 -5 16 -11 5 -45 -12 -35 -6 4 -21 6 -33 5 -12 -2 -44 3 -71 12 -28 8 -53
13 -56 10 -3 -2 -4 -1 -1 3 3 4 -11 14 -32 24 l-37 17 42 11 c23 7 42 16 42
21 0 6 9 10 20 10 18 0 25 10 18 26 -2 3 6 10 16 16 19 10 19 11 1 24 -19 14
-17 17 36 28 14 3 36 15 49 26 29 25 73 23 78 -3z m172 -11 c0 -2 -9 -6 -20
-9 -11 -3 -20 -1 -20 4 0 5 9 9 20 9 11 0 20 -2 20 -4z m-38 -20 c19 -8 40
-21 47 -29 10 -13 7 -14 -26 -6 -47 11 -62 11 -47 1 6 -4 16 -17 22 -28 9 -18
8 -25 -5 -35 -14 -13 -16 -11 -11 13 3 17 0 32 -8 39 -12 10 -20 59 -10 59 2
0 19 -6 38 -14z m-62 -21 c11 -13 10 -14 -4 -9 -9 3 -16 10 -16 15 0 13 6 11
20 -6z m-17 -22 c9 -3 17 -10 17 -15 0 -6 7 -8 15 -4 9 3 15 0 15 -9 0 -23
-21 -17 -65 17 -22 17 -31 27 -20 23 11 -4 28 -10 38 -12z m-356 -69 c-3 -3
-12 -4 -19 -1 -8 3 -5 6 6 6 11 1 17 -2 13 -5z m1168 -149 c0 -26 5 -30 39
-38 29 -7 40 -6 47 4 4 8 14 14 21 15 7 0 21 4 30 8 25 11 52 -9 55 -41 5 -53
8 -68 18 -75 6 -4 2 -8 -8 -8 -11 0 -15 -5 -11 -11 4 -6 20 -8 40 -4 30 5 34
3 40 -21 11 -44 62 -129 74 -126 8 2 11 -5 7 -17 -3 -14 4 -26 24 -42 16 -12
26 -25 24 -30 -6 -9 34 -79 45 -79 4 0 10 -9 13 -20 3 -11 1 -20 -5 -20 -5 0
-6 -6 -1 -12 4 -7 6 -25 4 -40 -1 -14 2 -29 7 -32 11 -7 4 -85 -10 -102 -5 -8
-2 -13 10 -17 15 -3 19 -12 17 -41 -2 -20 1 -39 7 -42 12 -7 -37 -34 -63 -34
-11 0 -19 5 -19 10 0 6 -11 8 -27 4 -22 -6 -25 -4 -19 11 5 15 4 16 -9 5 -10
-8 -12 -17 -5 -30 6 -11 5 -21 -2 -28 -9 -9 -9 -12 1 -12 11 0 11 -3 1 -15
-18 -22 -30 -18 -27 7 1 16 -6 25 -28 32 -33 12 -59 34 -61 50 -2 20 -23 64
-34 71 -6 4 -8 15 -5 26 4 11 2 19 -4 19 -6 0 -11 9 -11 20 0 11 -3 20 -7 20
-5 0 -9 14 -9 32 -1 18 -6 34 -12 36 -5 1 -8 12 -5 23 3 12 -1 25 -10 32 -20
14 -70 107 -63 115 3 3 -2 10 -10 17 -9 6 -18 22 -19 36 -1 13 -3 27 -4 32 0
4 -11 7 -23 7 -16 0 -19 3 -10 8 15 10 12 60 -5 66 -21 9 -15 26 10 26 20 1
21 1 4 11 -11 6 -30 9 -43 6 -36 -6 -29 11 9 22 l32 9 -35 2 -35 2 27 10 27 9
-24 23 c-29 27 -31 36 -10 36 18 0 18 5 4 31 -12 23 -2 62 13 53 8 -5 9 -1 5
10 -5 12 -3 16 5 13 7 -2 13 -17 13 -32z m518 -8 c9 -3 17 -11 17 -16 0 -7 -9
-6 -25 1 -14 6 -25 18 -25 27 0 10 3 12 8 5 4 -6 15 -13 25 -17z m-26 -63 c3
-8 0 -21 -7 -27 -10 -10 -11 -7 -5 13 7 24 7 24 -9 5 -12 -16 -15 -17 -16 -4
0 30 26 40 37 13z m-27 -43 c0 -6 -4 -13 -10 -16 -5 -3 -10 1 -10 9 0 9 5 16
10 16 6 0 10 -4 10 -9z m6 -92 c3 -5 -8 -9 -25 -9 -16 0 -37 -7 -46 -16 -20
-20 -26 -15 -19 13 4 12 13 23 23 25 22 5 60 -3 67 -13z m-2298 -106 c-10 -2
-28 -2 -40 0 -13 2 -5 4 17 4 22 1 32 -1 23 -4z m95 0 c-13 -2 -33 -2 -45 0
-13 2 -3 4 22 4 25 0 35 -2 23 -4z m-206 -9 c-3 -3 -12 -4 -19 -1 -8 3 -5 6 6
6 11 1 17 -2 13 -5z m2625 -36 c-6 -6 -15 -8 -19 -4 -4 4 -1 11 7 16 19 12 27
3 12 -12z m-2245 -24 c-3 -3 -12 -4 -19 -1 -8 3 -5 6 6 6 11 1 17 -2 13 -5z
m296 -11 c-13 -2 -33 -2 -45 0 -13 2 -3 4 22 4 25 0 35 -2 23 -4z m-150 -190
c-29 -2 -78 -2 -110 0 -32 2 -8 3 52 3 61 0 87 -1 58 -3z m520 -74 c-6 -6 -9
-19 -6 -28 5 -13 3 -13 -15 3 -25 21 -20 36 11 36 15 0 18 -3 10 -11z m-1103
-133 c0 -3 -4 -8 -10 -11 -5 -3 -10 -1 -10 4 0 6 5 11 10 11 6 0 10 -2 10 -4z
m2294 -65 c4 -5 -3 -7 -14 -4 -23 6 -26 13 -6 13 8 0 17 -4 20 -9z m76 -57 c0
-14 -3 -14 -15 -4 -8 7 -15 14 -15 16 0 2 7 4 15 4 8 0 15 -7 15 -16z m-1115
-24 c3 -5 2 -10 -4 -10 -5 0 -13 5 -16 10 -3 6 -2 10 4 10 5 0 13 -4 16 -10z
m1120 -10 c3 -5 1 -10 -4 -10 -6 0 -11 5 -11 10 0 6 2 10 4 10 3 0 8 -4 11
-10z m-1275 -16 c0 -8 -4 -12 -10 -9 -5 3 -10 10 -10 16 0 5 5 9 10 9 6 0 10
-7 10 -16z m83 9 c-7 -2 -19 -2 -25 0 -7 3 -2 5 12 5 14 0 19 -2 13 -5z m-383
-13 c0 -5 -4 -10 -10 -10 -5 0 -10 5 -10 10 0 6 5 10 10 10 6 0 10 -4 10 -10z
m191 -2 c0 -10 2 -10 6 0 2 6 18 12 34 12 17 0 28 -4 24 -9 -3 -6 -13 -9 -23
-9 -9 0 -21 0 -27 -2 -20 -5 -45 0 -45 10 0 15 30 12 31 -2z m1079 -8 c0 -5
-2 -10 -4 -10 -3 0 -8 5 -11 10 -3 6 -1 10 4 10 6 0 11 -4 11 -10z m-1132 -7
c-10 -2 -28 -2 -40 0 -13 2 -5 4 17 4 22 1 32 -1 23 -4z m-78 -17 c0 -2 -9 -6
-20 -9 -11 -3 -18 -1 -14 4 5 9 34 13 34 5z m2197 -243 c38 -15 76 -36 86 -47
14 -16 21 -17 43 -8 34 16 59 15 73 -2 8 -9 26 -14 49 -12 22 2 44 -3 55 -12
9 -8 17 -12 17 -8 0 9 41 -41 58 -72 10 -18 10 -27 1 -38 -14 -17 -5 -18 21
-4 30 16 60 -8 60 -48 0 -73 -82 -151 -176 -166 -69 -12 -313 -10 -327 3 -8 6
-17 8 -20 4 -4 -3 -7 -1 -7 4 0 6 -12 10 -26 8 -15 -1 -38 4 -53 11 -14 8 -36
14 -48 14 -13 0 -23 6 -23 13 0 17 -39 49 -50 42 -6 -4 -10 -2 -10 3 0 5 -11
15 -25 22 -13 7 -23 18 -22 24 1 6 -3 10 -10 9 -7 -2 -10 3 -7 11 3 8 -1 30
-9 48 -21 46 -30 101 -16 92 7 -4 10 -1 7 7 -7 19 73 114 82 98 6 -8 11 -6 19
7 6 11 11 15 11 10 0 -5 7 -3 16 4 41 35 117 29 231 -17z m-753 -78 c-6 -16
-24 -21 -24 -7 0 11 11 22 21 22 5 0 6 -7 3 -15z m-1164 -49 c0 -3 -11 -6 -25
-6 -22 0 -24 2 -13 19 9 16 14 17 25 6 7 -8 13 -16 13 -19z m150 24 c0 -5 -2
-10 -4 -10 -3 0 -8 5 -11 10 -3 6 -1 10 4 10 6 0 11 -4 11 -10z m-45 -10 c3
-5 -1 -10 -10 -10 -9 0 -13 5 -10 10 3 6 8 10 10 10 2 0 7 -4 10 -10z m-191
-6 c24 -9 19 -26 -6 -23 -13 2 -29 0 -36 -5 -22 -13 -27 3 -6 19 22 16 26 17
48 9z m149 -1 c-7 -2 -19 -2 -25 0 -7 3 -2 5 12 5 14 0 19 -2 13 -5z m3200
-47 c45 -18 95 -78 102 -123 4 -21 9 -45 11 -53 4 -14 -81 -90 -100 -90 -4 0
-14 -7 -22 -15 -26 -25 -92 -40 -125 -28 -27 11 -29 10 -23 -12 3 -13 1 -33
-6 -45 -10 -19 -19 -21 -91 -19 -44 1 -82 -1 -86 -5 -10 -10 -179 -7 -206 3
-32 12 -74 54 -82 83 -4 13 -14 30 -22 39 -8 10 -17 41 -20 70 -4 46 -2 57 16
73 18 17 26 18 60 8 45 -14 52 -15 49 -4 -8 37 42 60 147 66 l69 4 54 -52 c56
-54 72 -64 72 -48 0 6 -16 24 -36 40 -49 41 -45 74 11 85 22 5 60 15 85 22 59
18 103 18 143 1z m-4053 -5 c0 -15 -29 -33 -41 -25 -9 5 -7 11 6 21 22 15 35
17 35 4z m980 -425 c0 -3 -4 -8 -10 -11 -5 -3 -10 -1 -10 4 0 6 5 11 10 11 6
0 10 -2 10 -4z m198 -68 c16 -16 15 -28 -2 -28 -8 0 -17 -8 -21 -19 -6 -20
-32 -23 -52 -6 -15 12 11 35 40 35 13 0 17 5 13 15 -7 18 5 20 22 3z m46 -19
c-8 -14 -24 -10 -24 6 0 9 6 12 15 9 8 -4 12 -10 9 -15z m-134 -45 c0 -2 -11
-4 -25 -4 -14 0 -25 4 -25 9 0 4 11 6 25 3 14 -2 25 -6 25 -8z m-70 -19 c-7
-8 -16 -15 -21 -15 -5 0 -9 7 -9 15 0 9 9 15 21 15 18 0 19 -2 9 -15z m-101
-28 c-2 -1 -23 -17 -47 -35 -41 -32 -62 -35 -62 -7 0 17 104 69 108 55 2 -6 2
-12 1 -13z m366 3 c-3 -5 -13 -10 -21 -10 -8 0 -12 5 -9 10 3 6 13 10 21 10 8
0 12 -4 9 -10z m-175 -10 c0 -5 -4 -10 -10 -10 -5 0 -10 5 -10 10 0 6 5 10 10
10 6 0 10 -4 10 -10z m-310 -60 c0 -5 -2 -10 -4 -10 -3 0 -8 5 -11 10 -3 6 -1
10 4 10 6 0 11 -4 11 -10z m132 -12 c-6 -6 -16 -7 -22 -3 -9 6 -9 9 1 16 17
10 34 0 21 -13z m163 2 c0 -10 -12 -16 -32 -18 -24 -2 -33 1 -33 12 0 8 6 17
13 20 22 9 52 1 52 -14z m-505 -16 c0 -9 -4 -24 -10 -34 -13 -24 -64 -13 -67
16 -2 10 0 13 3 6 5 -10 10 -8 21 7 8 12 19 19 24 16 5 -4 9 -1 9 5 0 6 5 8
10 5 6 -3 10 -13 10 -21z m180 -24 c-10 -6 -11 -10 -2 -10 20 0 14 -49 -9 -68
-12 -9 -32 -28 -44 -41 -26 -27 -45 -21 -45 14 0 30 32 86 46 81 6 -2 16 5 22
15 7 10 20 19 30 19 14 0 15 -2 2 -10z m64 -15 c-4 -8 -8 -15 -10 -15 -2 0 -4
7 -4 15 0 8 4 15 10 15 5 0 7 -7 4 -15z m96 5 c0 -5 -4 -10 -10 -10 -5 0 -10
5 -10 10 0 6 5 10 10 10 6 0 10 -4 10 -10z m113 -2 c8 -25 -5 -48 -27 -48 -12
0 -31 -7 -42 -15 -25 -19 -34 -19 -34 0 0 8 5 15 10 15 6 0 10 6 10 14 0 10 8
13 22 11 13 -3 31 -2 41 1 14 4 16 9 6 20 -7 9 -8 14 -1 14 6 0 12 -6 15 -12z
m-166 -40 c-3 -7 -5 -2 -5 12 0 14 2 19 5 13 2 -7 2 -19 0 -25z m250 6 c-9 -9
-28 6 -21 18 4 6 10 6 17 -1 6 -6 8 -13 4 -17z m93 11 c0 -8 -4 -15 -10 -15
-5 0 -10 7 -10 15 0 8 5 15 10 15 6 0 10 -7 10 -15z m-160 -39 c0 -3 -4 -8
-10 -11 -5 -3 -10 -1 -10 4 0 6 5 11 10 11 6 0 10 -2 10 -4z m180 -5 c0 -12
-20 -25 -27 -18 -7 7 6 27 18 27 5 0 9 -4 9 -9z m-653 -37 c-3 -3 -12 -4 -19
-1 -8 3 -5 6 6 6 11 1 17 -2 13 -5z"/>
<path d="M626 6601 c-9 -10 -16 -24 -16 -32 1 -11 4 -10 14 4 7 9 21 17 30 17
20 0 21 16 2 23 -8 3 -21 -2 -30 -12z"/>
<path d="M629 6520 c-1 -25 -3 -58 -3 -74 -1 -16 -7 -31 -14 -34 -23 -7 -12
-22 17 -22 17 0 33 -4 36 -10 3 -5 15 -10 26 -10 28 0 21 34 -9 38 -23 4 -30
18 -11 24 17 6 1 83 -22 110 l-18 23 -2 -45z"/>
<path d="M800 6069 c0 -5 5 -7 10 -4 6 3 10 8 10 11 0 2 -4 4 -10 4 -5 0 -10
-5 -10 -11z"/>
<path d="M768 6063 c7 -3 16 -2 19 1 4 3 -2 6 -13 5 -11 0 -14 -3 -6 -6z"/>
<path d="M1456 4062 c-3 -5 1 -15 9 -22 21 -17 27 -9 10 13 -7 10 -16 14 -19
9z"/>
<path d="M2346 2592 c-12 -12 -5 -19 19 -19 14 0 25 3 25 7 0 10 -37 20 -44
12z"/>
<path d="M2354 2545 c16 -12 17 -18 8 -27 -9 -9 -12 -9 -12 0 0 7 -4 12 -10
12 -5 0 -7 -6 -4 -14 3 -8 -3 -16 -15 -19 -28 -7 -17 -37 13 -36 21 0 21 0 -1
9 -29 12 -29 15 2 18 14 1 25 -3 25 -8 0 -16 26 -11 43 8 12 13 26 17 47 14
17 -2 30 0 30 6 0 24 -14 42 -32 42 -14 0 -18 -5 -14 -15 8 -22 -17 -18 -32 5
-7 12 -23 20 -40 20 -26 -1 -26 -1 -8 -15z m37 -58 c-6 -6 -14 -7 -18 -2 -5 4
-2 10 5 12 6 3 13 12 13 21 1 14 2 14 6 -2 3 -10 0 -23 -6 -29z"/>
<path d="M2428 2473 c7 -3 16 -2 19 1 4 3 -2 6 -13 5 -11 0 -14 -3 -6 -6z"/>
<path d="M2315 2440 c3 -5 14 -10 23 -10 15 0 15 2 2 10 -20 13 -33 13 -25 0z"/>
<path d="M3157 1904 c-16 -9 -27 -18 -24 -21 6 -5 67 24 67 32 0 8 -14 5 -43
-11z"/>
<path d="M3357 1733 c-44 -36 -56 -53 -39 -53 13 0 97 78 91 84 -4 4 -27 -10
-52 -31z"/>
<path d="M3961 1610 c10 -28 29 -42 29 -20 0 6 -4 10 -10 10 -5 0 -10 6 -10
14 0 8 -4 17 -10 21 -5 3 -5 -7 1 -25z"/>
<path d="M620 6700 c0 -5 5 -10 10 -10 6 0 10 5 10 10 0 6 -4 10 -10 10 -5 0
-10 -4 -10 -10z"/>
<path d="M850 4730 c0 -5 5 -10 10 -10 6 0 10 5 10 10 0 6 -4 10 -10 10 -5 0
-10 -4 -10 -10z"/>
<path d="M260 4673 l-65 -13 64 5 c35 3 75 5 87 5 13 0 24 4 24 9 0 11 -31 10
-110 -6z"/>
<path d="M230 4630 c-12 -8 -11 -10 8 -10 12 0 22 5 22 10 0 13 -11 13 -30 0z"/>
<path d="M75 4608 c-27 -5 -54 -14 -60 -20 -7 -7 -2 -9 15 -5 14 3 49 9 78 13
28 3 52 10 52 15 0 11 -18 10 -85 -3z"/>
<path d="M1888 4563 c7 -3 16 -2 19 1 4 3 -2 6 -13 5 -11 0 -14 -3 -6 -6z"/>
<path d="M740 4421 c-25 -10 -75 -32 -112 -49 -37 -18 -76 -32 -87 -32 -11 0
-51 -11 -89 -25 -38 -14 -79 -25 -90 -25 -12 0 -23 -4 -27 -9 -3 -6 -27 -13
-53 -17 -25 -4 -60 -13 -77 -19 -16 -7 -69 -16 -117 -20 -65 -5 -88 -11 -88
-21 0 -17 -3 -17 145 1 138 16 255 34 265 40 4 3 70 19 146 36 136 30 291 90
280 108 -3 5 1 14 9 21 8 7 15 16 15 21 0 15 -72 8 -120 -10z"/>
<path d="M5389 4343 c-6 -7 -18 -13 -25 -13 -14 0 -55 -20 -64 -31 -3 -4 -14
-6 -25 -6 -54 1 -75 -4 -75 -18 0 -19 -1 -19 79 4 36 10 73 19 81 19 8 1 35 6
60 12 25 7 62 16 83 21 20 6 37 13 37 17 0 14 -140 9 -151 -5z"/>
<path d="M5658 4333 c0 -5 -2 -14 -2 -22 -1 -8 -24 -23 -51 -33 l-50 -19 45 7
c25 3 50 12 56 20 7 8 16 14 20 13 23 -6 84 15 84 27 0 10 -14 14 -50 14 -27
0 -51 -3 -52 -7z"/>
<path d="M1020 4317 c-25 -6 -47 -14 -50 -17 -3 -4 -21 -10 -40 -13 -51 -7
-123 -28 -135 -38 -15 -14 52 -11 145 7 86 17 149 37 185 61 18 12 16 13 -20
12 -22 -1 -60 -6 -85 -12z"/>
<path d="M5388 4287 c-49 -19 -108 -63 -108 -82 0 -15 53 -1 110 28 116 60
114 58 99 68 -20 12 -36 10 -101 -14z"/>
<path d="M5745 4281 c-3 -5 -1 -12 5 -16 5 -3 10 1 10 9 0 18 -6 21 -15 7z"/>
<path d="M5512 4255 c-11 -12 -10 -15 3 -15 8 0 15 7 15 15 0 18 -2 18 -18 0z"/>
<path d="M5231 4187 c-6 -8 -8 -17 -5 -20 7 -7 44 14 44 25 0 13 -27 9 -39 -5z"/>
<path d="M5018 4163 c-20 -5 -24 -18 -8 -28 6 -3 13 1 16 10 6 13 8 14 15 3 6
-9 9 -9 9 -1 0 15 -11 20 -32 16z"/>
<path d="M4987 4123 c-4 -3 -7 -12 -7 -20 0 -16 32 -17 48 -1 17 17 15 33 -3
18 -10 -9 -15 -9 -15 -1 0 12 -13 15 -23 4z"/>
<path d="M5150 4075 c0 -7 30 -13 34 -7 3 4 -4 9 -15 9 -10 1 -19 0 -19 -2z"/>
<path d="M4960 4024 c0 -8 5 -12 10 -9 6 4 8 11 5 16 -9 14 -15 11 -15 -7z"/>
<path d="M28 2293 c7 -3 16 -2 19 1 4 3 -2 6 -13 5 -11 0 -14 -3 -6 -6z"/>
<path d="M225 1730 c-3 -5 -1 -10 4 -10 6 0 11 5 11 10 0 6 -2 10 -4 10 -3 0
-8 -4 -11 -10z"/>
<path d="M1633 1670 c-14 -22 -2 -34 25 -26 22 7 24 46 2 46 -8 0 -21 -9 -27
-20z"/>
<path d="M1535 1660 c4 -6 11 -8 16 -5 14 9 11 15 -7 15 -8 0 -12 -5 -9 -10z"/>
<path d="M1480 1641 c0 -5 17 -9 38 -9 28 0 32 2 17 9 -27 11 -55 11 -55 0z"/>
<path d="M1498 1613 c7 -3 16 -2 19 1 4 3 -2 6 -13 5 -11 0 -14 -3 -6 -6z"/>
<path d="M755 1400 c-10 -11 -16 -22 -14 -25 7 -6 49 24 49 36 0 15 -16 10
-35 -11z"/>
<path d="M702 1381 c-11 -6 -9 -9 6 -13 15 -4 19 -2 15 8 -6 16 -4 16 -21 5z"/>
<path d="M615 1363 c-27 -6 -108 -35 -120 -43 -5 -4 -30 -12 -55 -19 -44 -13
-68 -23 -175 -71 -27 -13 -53 -22 -58 -21 -4 0 -25 -8 -47 -19 -21 -11 -46
-20 -55 -20 -9 0 -18 -7 -21 -15 -4 -8 -17 -15 -29 -15 -53 0 -55 -5 -55 -119
1 -77 3 -101 11 -88 7 12 17 15 34 11 18 -4 25 -1 30 16 4 12 18 23 35 26 17
4 30 14 34 28 4 15 8 18 14 8 7 -10 11 -10 22 3 7 8 17 15 22 15 5 0 21 12 36
26 15 14 44 33 65 42 28 13 37 23 37 41 0 23 1 23 13 7 12 -16 14 -16 33 1 12
10 26 28 33 41 7 12 17 20 23 16 7 -4 6 -9 -2 -14 -10 -6 -9 -9 0 -15 13 -8
30 11 30 33 0 7 5 10 10 7 6 -3 10 0 10 8 0 9 14 17 35 21 22 5 43 18 57 36
13 18 31 30 45 30 13 0 32 9 42 19 19 19 19 19 -2 25 -12 3 -24 5 -27 5 -3 -1
-14 -3 -25 -6z"/>
<path d="M756 1131 c-4 -6 -16 -11 -27 -11 -12 0 -19 -5 -17 -12 7 -19 31 -21
53 -4 15 11 17 18 9 26 -8 8 -14 9 -18 1z"/>
<path d="M405 884 c-25 -20 -28 -26 -15 -34 26 -17 69 6 70 36 0 23 -26 21
-55 -2z"/>
<path d="M880 901 c0 -5 -10 -13 -22 -19 -21 -9 -21 -10 7 -7 17 2 36 4 43 4
19 1 14 18 -8 24 -11 3 -20 2 -20 -2z"/>
<path d="M1186 892 c-2 -4 -1 -14 5 -22 7 -12 9 -10 9 8 0 23 -5 28 -14 14z"/>
<path d="M910 835 c-11 -13 -8 -15 19 -15 21 0 31 5 31 15 0 8 -8 15 -19 15
-10 0 -24 -7 -31 -15z"/>
<path d="M898 788 c9 -9 15 -9 24 0 9 9 7 12 -12 12 -19 0 -21 -3 -12 -12z"/>
<path d="M720 725 c0 -8 5 -15 10 -15 6 0 10 7 10 15 0 8 -4 15 -10 15 -5 0
-10 -7 -10 -15z"/>
<path d="M95 689 c-4 -6 -5 -13 -2 -16 7 -7 27 6 27 18 0 12 -17 12 -25 -2z"/>
<path d="M60 672 c-47 -16 -57 -35 -59 -120 -2 -67 0 -82 13 -82 40 0 68 90
29 90 -17 1 -17 1 0 14 11 9 15 20 11 31 -5 12 -1 22 10 31 21 15 18 43 -4 36z"/>
<path d="M455 660 c3 -5 11 -10 16 -10 6 0 7 5 4 10 -3 6 -11 10 -16 10 -6 0
-7 -4 -4 -10z"/>
</g>
</svg>
