<?xml version="1.0" encoding="UTF-8"?>
<svg version="1.1" xmlns="http://www.w3.org/2000/svg" width="736" height="736">
<path d="M0 0 C242.88 0 485.76 0 736 0 C736 242.88 736 485.76 736 736 C493.12 736 250.24 736 0 736 C0 493.12 0 250.24 0 0 Z " fill="#422E47" transform="translate(0,0)"/>
<path d="M0 0 C1.07217773 0.20399414 2.14435547 0.40798828 3.24902344 0.61816406 C18.65711829 3.55120955 33.40468423 7.23579202 48 13 C49.08667969 13.42023438 50.17335938 13.84046875 51.29296875 14.2734375 C54.22732533 15.45351612 57.11415994 16.70583461 60 18 C60.61875 18.27392578 61.2375 18.54785156 61.875 18.83007812 C100.47720748 36.01548396 136.10513764 63.70518099 161 98 C161.53689453 98.72493652 162.07378906 99.44987305 162.62695312 100.19677734 C184.99326525 130.48711832 199.85167548 164.59621435 207.3125 201.5 C207.45961426 202.22670898 207.60672852 202.95341797 207.75830078 203.70214844 C208.21800861 206.12919072 208.61721218 208.55959057 209 211 C209.17732666 212.09546143 209.35465332 213.19092285 209.53735352 214.31958008 C211.13947729 225.39897543 211.33931743 236.37785568 211.31567383 247.5612793 C211.31252227 250.66556248 211.3360351 253.76888115 211.36132812 256.87304688 C211.40296378 270.16167095 210.29979078 282.91595127 208 296 C207.85949722 296.81117279 207.71899445 297.62234558 207.57423401 298.45809937 C203.63514357 320.94567952 196.06393667 344.40223659 185.1875 364.5 C184.539021 365.71345093 184.539021 365.71345093 183.87744141 366.95141602 C180.17861974 373.80655643 176.23012168 380.45706789 172 387 C171.36578125 387.99128906 170.7315625 388.98257812 170.078125 390.00390625 C163.19603717 400.56102897 155.62930394 410.45171821 147.08984375 419.7265625 C145.14128585 421.84630212 143.25242667 424.00483469 141.375 426.1875 C135.70578733 432.65920396 129.65437389 438.22854681 122.94140625 443.6171875 C120.98894799 445.19886019 119.05866854 446.80833127 117.15234375 448.4453125 C109.5073514 455.00992235 101.50314452 460.61445727 93 466 C92.39816895 466.38542969 91.79633789 466.77085937 91.17626953 467.16796875 C56.08518875 489.51338938 12.77330761 503.90734349 -28.96484375 504.23828125 C-29.98780548 504.24812042 -31.01076721 504.25795959 -32.06472778 504.26809692 C-62.8401224 504.50328612 -90.51587797 502.46590368 -120 493 C-121.40475586 492.55164795 -121.40475586 492.55164795 -122.83789062 492.09423828 C-151.40477216 482.78836021 -176.5354422 467.70313875 -200.18164062 449.39111328 C-201.46145965 448.41200361 -202.75301276 447.44813694 -204.05273438 446.49560547 C-208.03794904 443.57379818 -211.57894631 440.5887524 -215 437 C-216.00192858 436.0148823 -217.00734937 435.03330797 -218.015625 434.0546875 C-224.02061869 428.16866849 -229.69094423 422.24289778 -234.90234375 415.6328125 C-236.5196075 413.60295074 -238.16782207 411.64304661 -239.87109375 409.6875 C-257.3624326 389.36098886 -270.66794898 365.04464428 -279.89453125 339.9296875 C-280.97973744 336.94688385 -280.97973744 336.94688385 -282.41796875 333.93359375 C-284.74287142 328.55610783 -286.04994618 322.84834002 -287.5 317.1875 C-287.80897217 315.98786621 -288.11794434 314.78823242 -288.4362793 313.55224609 C-290.63599979 304.83632835 -292.45429368 296.16045022 -293.66772461 287.25219727 C-293.91393203 285.58337769 -294.19954381 283.92026875 -294.50610352 282.26147461 C-296.21714546 272.5884146 -296.35569043 263.10252874 -296.3125 253.3125 C-296.31067719 252.45616974 -296.30885437 251.59983948 -296.30697632 250.71755981 C-296.1752391 213.82727703 -288.97836733 178.39819481 -273 145 C-272.69626465 144.35691895 -272.3925293 143.71383789 -272.07958984 143.05126953 C-264.80872853 127.74518396 -256.48949224 113.33715508 -246 100 C-245.19778698 98.93434419 -244.39837807 97.86657261 -243.6015625 96.796875 C-231.36155388 80.43552855 -216.68426577 63.90024691 -200 52 C-199.11570312 51.32195312 -198.23140625 50.64390625 -197.3203125 49.9453125 C-179.67138379 36.41602763 -160.18988134 23.2718667 -139.01806641 16.07080078 C-136.1042134 15.0369746 -133.30235397 13.86380819 -130.46875 12.62890625 C-124.01548732 9.92401118 -117.47719494 7.84591399 -110.75 5.9375 C-108.93822266 5.42207642 -108.93822266 5.42207642 -107.08984375 4.89624023 C-73.30700042 -4.42278363 -34.49982169 -7.07656306 0 0 Z " fill="#F3CBFE" transform="translate(410,117)"/>
<path d="M0 0 C1.03060547 0.00276947 2.06121094 0.00553894 3.12304688 0.00839233 C61.34659379 0.19034092 124.01374388 6.07217865 177.75 30.25 C179.05262613 30.80646826 180.35607789 31.36100608 181.66015625 31.9140625 C190.64246879 35.76362502 199.38582586 40.00369963 208.0625 44.5 C209.04710205 45.00732666 210.0317041 45.51465332 211.04614258 46.03735352 C219.4040134 50.42308086 225.53103187 54.36973446 229 63.5625 C230.41886626 70.53859245 230.60262593 76.14249706 227.0078125 82.46484375 C223.22679551 87.83106973 218.02939198 90.82434948 211.75 92.25 C199.71829819 93.93703369 189.86007177 87.88095886 179.41357422 82.64404297 C166.09834435 75.98741654 152.65626204 70.67558543 138.4777832 66.12792969 C135.21710357 65.07848872 131.9749947 63.97802235 128.73461914 62.86767578 C125.87478875 61.97760678 122.97042008 61.38684285 120.04003906 60.77734375 C117.70002074 60.23849092 115.45721408 59.54792383 113.171875 58.8125 C107.65444167 57.13965847 102.12630703 56.14421623 96.4375 55.25 C94.87914429 54.99790771 94.87914429 54.99790771 93.28930664 54.74072266 C83.89146609 53.23598213 74.47621571 51.86159164 65.046875 50.5703125 C62.96666314 50.28021493 60.88936247 49.96942767 58.8125 49.65625 C41.05672809 47.05411101 23.08964634 47.06339394 5.17797852 47.06469727 C1.81969626 47.0625047 -1.53825944 47.04424193 -4.89648438 47.02539062 C-22.92731933 46.9777897 -40.56524609 48.27149551 -58.375 51.125 C-59.46192139 51.29644531 -60.54884277 51.46789062 -61.66870117 51.64453125 C-73.69537191 53.58337528 -85.67249692 55.64535654 -97.25 59.5 C-104.03141573 61.64873756 -110.13669836 62.82974628 -116.9453125 60.21484375 C-123.54202884 56.68018529 -128.58776575 51.52759374 -130.875 44.265625 C-132.30868758 36.55955426 -131.50926199 31.05326072 -127.05078125 24.50390625 C-117.9402718 13.10094757 -101.79089665 11.28729179 -88.12890625 8.92578125 C-85.2692507 8.42757339 -82.44206806 7.88248056 -79.6015625 7.29296875 C-73.45418129 6.05345978 -67.26847043 5.14204291 -61.0625 4.25 C-59.96486328 4.085 -58.86722656 3.92 -57.73632812 3.75 C-38.52817581 0.97969747 -19.39462643 -0.1031839 0 0 Z " fill="#432E48" transform="translate(324.25,250.75)"/>
<path d="M0 0 C0.93889069 0.00021149 1.87778137 0.00042297 2.84512329 0.00064087 C30.13845944 0.0611977 57.14441879 2.73491889 83.7734375 8.83740234 C85.73942476 9.2868525 87.71275106 9.70404052 89.6875 10.11328125 C107.3288254 13.8574688 124.46567683 19.47157559 141.05078125 26.50097656 C142.84817824 27.2583543 144.65751051 27.98728808 146.46875 28.7109375 C158.17301248 33.3989351 169.35105804 39.22795658 180.3125 45.4375 C181.01914795 45.82446045 181.7257959 46.2114209 182.45385742 46.61010742 C187.21731301 49.372005 190.63690412 52.38843253 193.125 57.375 C194.20317882 62.62526207 194.04058479 68.37550154 191.625 73.25 C188.60036611 77.68903103 183.8876636 80.9936682 179.125 83.375 C170.28590647 84.55099993 164.37762706 82.14879699 156.8125 77.8125 C154.76969372 76.69892066 152.72672588 75.58563762 150.68359375 74.47265625 C148.8299878 73.44143563 146.97703534 72.40903871 145.125 71.375 C126.46381721 61.06187777 105.85576573 54.15079551 85.125 49.375 C83.68478584 49.0277997 82.24468144 48.68014376 80.8046875 48.33203125 C28.73672061 36.00645301 -32.92968907 32.58044544 -84.13232422 50.75708008 C-89.94159932 52.81693932 -96.43678316 53.60175577 -102.31640625 51.50390625 C-108.60611767 48.3435076 -111.09660447 44.96918844 -113.625 38.4375 C-114.46942857 31.47096428 -114.17176881 26.13083201 -109.875 20.375 C-104.81828969 15.16431934 -99.40655735 13.62336663 -92.5 11.75 C-91.42435791 11.44932617 -90.34871582 11.14865234 -89.24047852 10.83886719 C-80.84770278 8.53844337 -72.49460324 6.61737857 -63.875 5.375 C-63.02115723 5.2517334 -62.16731445 5.1284668 -61.28759766 5.00146484 C-54.49315346 4.04031113 -47.69266464 3.15460058 -40.875 2.375 C-39.81886505 2.2505249 -39.81886505 2.2505249 -38.74139404 2.12353516 C-25.80749624 0.61945914 -13.01838254 -0.02747384 0 0 Z " fill="#432F48" transform="translate(324.875,336.625)"/>
<path d="M0 0 C1.39554108 -0.0080365 1.39554108 -0.0080365 2.8192749 -0.01623535 C21.44127461 -0.09747708 39.61736797 1.67293008 58 4.5625 C58.6850058 4.66982452 59.3700116 4.77714905 60.07577515 4.88772583 C70.18163343 6.48626944 80.03930896 8.44325485 89.79003906 11.58642578 C92.06650838 12.31095079 94.35508786 12.98325876 96.6484375 13.65234375 C106.1769594 16.4771878 115.13406292 19.85274731 124.01269531 24.31591797 C125.95648736 25.29087187 127.91059572 26.24242614 129.8671875 27.19140625 C136.53733276 30.44687237 143.13302851 33.83905369 149.625 37.4375 C150.73359375 38.04980469 151.8421875 38.66210938 152.984375 39.29296875 C156.57129502 41.72141055 158.9384521 44.3769042 160.875 48.25 C161.25089276 53.88839145 161.01998557 57.36984997 157.875 62.25 C153.93056861 66.57925396 151.62911559 68.44944835 145.8125 68.9375 C137.1621312 68.89606111 130.97791032 64.03200667 123.93847656 59.53662109 C114.23860429 53.48854645 103.743079 49.52360497 92.94921875 45.9453125 C90.98860475 45.28808219 89.04060595 44.6030195 87.09375 43.90625 C74.25484581 39.40714682 61.17633886 36.65650422 47.75 34.5625 C47.00016846 34.44310059 46.25033691 34.32370117 45.4777832 34.20068359 C31.14840562 32.09686974 16.63895603 32.0440829 2.1875 32.0625 C0.86514847 32.06340637 0.86514847 32.06340637 -0.48391724 32.06433105 C-13.46119689 32.08843955 -26.2659781 32.34751535 -39.125 34.25 C-40.64915527 34.47526367 -40.64915527 34.47526367 -42.20410156 34.70507812 C-48.5281779 35.65845647 -54.83991559 36.67518843 -61.14501953 37.74658203 C-63.2281292 38.09848865 -65.31256689 38.4425832 -67.39794922 38.78076172 C-68.99340576 39.04010498 -68.99340576 39.04010498 -70.62109375 39.3046875 C-71.58072021 39.45921387 -72.54034668 39.61374023 -73.52905273 39.77294922 C-75.7870591 40.18789744 -77.92902668 40.71457509 -80.125 41.375 C-85.92493946 42.85222884 -92.88231388 43.95697738 -98.34375 41.08203125 C-102.76866592 37.43522555 -105.85392316 33.68969153 -106.5 27.875 C-105.97454547 22.79560619 -105.23395758 19.08762464 -101.33935547 15.6940918 C-95.46570726 11.6284861 -90.17875795 9.8700743 -83.1875 8.625 C-82.15189941 8.42608154 -81.11629883 8.22716309 -80.04931641 8.0222168 C-76.74583234 7.40129653 -73.43777786 6.81913437 -70.125 6.25 C-69.03783691 6.06163574 -67.95067383 5.87327148 -66.83056641 5.67919922 C-59.28019256 4.39438795 -51.71481444 3.27435441 -44.125 2.25 C-43.27486328 2.12995605 -42.42472656 2.00991211 -41.54882812 1.88623047 C-27.75837122 0.01003489 -13.8914612 0.04465123 0 0 Z " fill="#432E48" transform="translate(326.125,419.75)"/>
<path d="M0 0 C-6.46439121 5.9417383 -13.07935918 11.59601026 -20 17 C-21.32 16.34 -22.64 15.68 -24 15 C-22.35 13.35 -20.7 11.7 -19 10 C-19 10.66 -19 11.32 -19 12 C-18.34 12 -17.68 12 -17 12 C-16.7525 11.030625 -16.505 10.06125 -16.25 9.0625 C-15.8375 8.051875 -15.425 7.04125 -15 6 C-12.875 5.125 -12.875 5.125 -11 5 C-11.33 4.34 -11.66 3.68 -12 3 C-10.5682384 2.30062798 -9.12932968 1.61587282 -7.6875 0.9375 C-6.88699219 0.55464844 -6.08648438 0.17179688 -5.26171875 -0.22265625 C-3 -1 -3 -1 0 0 Z " fill="#E5C4EE" transform="translate(544,551)"/>
<path d="M0 0 C0 3.25811062 -0.5522078 5.10441559 -2 8 C-2.99 8.33 -3.98 8.66 -5 9 C-5.0825 10.093125 -5.165 11.18625 -5.25 12.3125 C-6 16 -6 16 -7.9375 17.9375 C-10 19 -10 19 -12 19 C-12.66 18.34 -13.32 17.68 -14 17 C-14.66 16.67 -15.32 16.34 -16 16 C-10.72 10.72 -5.44 5.44 0 0 Z " fill="#ECC8F5" transform="translate(197,180)"/>
<path d="M0 0 C3.73680647 0.56973731 5.49828114 2.09331857 8.125 4.75 C8.80820312 5.42546875 9.49140625 6.1009375 10.1953125 6.796875 C12.09263815 9.11309073 13.04325397 11.17907873 14 14 C7.25 15.125 7.25 15.125 5 14 C6.32 13.34 7.64 12.68 9 12 C8.01 11.01 7.02 10.02 6 9 C5.67 9.66 5.34 10.32 5 11 C4.855625 10.236875 4.71125 9.47375 4.5625 8.6875 C4.0367406 5.91827092 4.0367406 5.91827092 3 3 C2.34 3 1.68 3 1 3 C0.67 2.01 0.34 1.02 0 0 Z " fill="#F0CAF9" transform="translate(532,176)"/>
<path d="M0 0 C-2.71576573 3.08565497 -6.08655828 5.07287319 -9.5625 7.1875 C-10.15224609 7.55552734 -10.74199219 7.92355469 -11.34960938 8.30273438 C-15.74830415 11 -15.74830415 11 -18 11 C-18 9.68 -18 8.36 -18 7 C-17.34 6.67 -16.68 6.34 -16 6 C-16.33 5.34 -16.66 4.68 -17 4 C-15.6078125 4.0928125 -15.6078125 4.0928125 -14.1875 4.1875 C-11.03628567 4.32339779 -11.03628567 4.32339779 -9.3125 2.5625 C-8.6628125 1.7890625 -8.6628125 1.7890625 -8 1 C-5.07175348 0.02391783 -3.04386724 -0.08226668 0 0 Z " fill="#E9C7F1" transform="translate(504,581)"/>
<path d="M0 0 C1.32 0 2.64 0 4 0 C4 0.66 4 1.32 4 2 C6.64 2.33 9.28 2.66 12 3 C11.49396008 5.16874252 11.00016187 6.99967627 10 9 C11.65 9 13.3 9 15 9 C15 9.66 15 10.32 15 11 C14.01 11.33 13.02 11.66 12 12 C10.37133456 10.56665422 8.74719006 9.12817021 7.125 7.6875 C6.22007812 6.88699219 5.31515625 6.08648438 4.3828125 5.26171875 C2 3 2 3 0 0 Z " fill="#E7C3EF" transform="translate(192,550)"/>
<path d="M0 0 C0.66 0.66 1.32 1.32 2 2 C3.65 1.34 5.3 0.68 7 0 C5.42219077 3.71045247 3.09296752 6.29906384 0.375 9.25 C-0.44226563 10.14203125 -1.25953125 11.0340625 -2.1015625 11.953125 C-2.72804688 12.62859375 -3.35453125 13.3040625 -4 14 C-5 11 -5 11 -3.6875 8.125 C-3.130625 7.09375 -2.57375 6.0625 -2 5 C-1.31471955 3.34089996 -0.64108137 1.67667436 0 0 Z " fill="#E6C6EE" transform="translate(555,530)"/>
<path d="M0 0 C0.99 0.66 1.98 1.32 3 2 C3.66 2.33 4.32 2.66 5 3 C4.67 3.99 4.34 4.98 4 6 C-0.83628305 5.00956295 -5.47618873 4.04301154 -10 2 C-6.24958843 -0.50027438 -4.25261628 -1.46183685 0 0 Z M2 0 C5 1 5 1 5 1 Z " fill="#ECC7F5" transform="translate(283,602)"/>
<path d="M0 0 C0.33 0 0.66 0 1 0 C1.44701413 7.56198897 1.53574091 12.76335625 -3 19 C-3.99 19 -4.98 19 -6 19 C-4 13 -4 13 -3 10.0625 C-1.91118151 6.72799337 -0.94573081 3.37761002 0 0 Z " fill="#4F3555" transform="translate(517,394)"/>
<path d="M0 0 C0.77772405 2.33317216 1.42415568 4.61435923 2 7 C1.01 7.495 1.01 7.495 0 8 C-0.99 7.67 -1.98 7.34 -3 7 C-5.69433317 8.87197454 -5.69433317 8.87197454 -8 11 C-9.32 10.34 -10.64 9.68 -12 9 C-8.04 6.03 -4.08 3.06 0 0 Z " fill="#E9C7F1" transform="translate(222,160)"/>
<path d="M0 0 C4.2687882 0.4743098 6.31511656 2.80716564 9 6 C9.8125 8.8125 9.8125 8.8125 10 11 C10.66 11 11.32 11 12 11 C12 12.32 12 13.64 12 15 C7.94096184 13.64698728 6.58364348 10.91214858 4.3125 7.5 C3.89677734 6.89285156 3.48105469 6.28570312 3.05273438 5.66015625 C0 1.15875154 0 1.15875154 0 0 Z " fill="#4E3453" transform="translate(570,214)"/>
<path d="M0 0 C1.32 1.32 2.64 2.64 4 4 C3.443125 4.268125 2.88625 4.53625 2.3125 4.8125 C-0.0839757 5.99898377 -0.0839757 5.99898377 -2.5625 7.625 C-5 9 -5 9 -8 9 C-8.66 9.66 -9.32 10.32 -10 11 C-10 10.01 -10 9.02 -10 8 C-7.8125 5.95703125 -7.8125 5.95703125 -5 3.8125 C-4.071875 3.09707031 -3.14375 2.38164063 -2.1875 1.64453125 C-1.1046875 0.83048828 -1.1046875 0.83048828 0 0 Z " fill="#4F3554" transform="translate(530,562)"/>
<path d="M0 0 C1.32 0.66 2.64 1.32 4 2 C3.20890398 3.27118864 2.41709922 4.54193623 1.625 5.8125 C1.18414062 6.52019531 0.74328125 7.22789062 0.2890625 7.95703125 C-0.78188476 9.65432039 -1.88676239 11.33014358 -3 13 C-4.73678556 8.76658519 -5.12286274 7.35109312 -4 3 C-3.01 3 -2.02 3 -1 3 C-0.67 2.01 -0.34 1.02 0 0 Z " fill="#EDC8F6" transform="translate(214,352)"/>
<path d="M0 0 C0.66 1.65 1.32 3.3 2 5 C-0.64745321 4.71943562 -3.29237964 4.42614369 -5.9375 4.125 C-6.69224609 4.04636719 -7.44699219 3.96773438 -8.22460938 3.88671875 C-10.15919299 3.66116192 -12.08176019 3.33741026 -14 3 C-14.33 2.34 -14.66 1.68 -15 1 C-12.8750734 0.83240016 -10.75005624 0.66594799 -8.625 0.5 C-7.44164062 0.4071875 -6.25828125 0.314375 -5.0390625 0.21875 C-3.36213157 0.09804546 -1.68126944 0 0 0 Z " fill="#492E4E" transform="translate(384,451)"/>
<path d="M0 0 C0 3 0 3 -2.5 5.6875 C-3.325 6.450625 -4.15 7.21375 -5 8 C-4.67 8.66 -4.34 9.32 -4 10 C-6.97 9.67 -9.94 9.34 -13 9 C-8.91266859 5.55131413 -4.56194093 2.76206846 0 0 Z " fill="#E7C4EE" transform="translate(239,149)"/>
<path d="M0 0 C1.65 0 3.3 0 5 0 C4.0919838 1.13199353 3.17316174 2.25532363 2.25 3.375 C1.73953125 4.00148438 1.2290625 4.62796875 0.703125 5.2734375 C-1.08199481 7.08312318 -2.67949644 8.00117455 -5 9 C-5.99 8.01 -6.98 7.02 -8 6 C-6.35 4.68 -4.7 3.36 -3 2 C-3 2.66 -3 3.32 -3 4 C-2.34 4 -1.68 4 -1 4 C-0.67 2.68 -0.34 1.36 0 0 Z " fill="#ECC9F4" transform="translate(528,559)"/>
<path d="M0 0 C0.66 0 1.32 0 2 0 C1.34 1.65 0.68 3.3 0 5 C0.66 5.33 1.32 5.66 2 6 C1.67 6.99 1.34 7.98 1 9 C0.01 9 -0.98 9 -2 9 C-1.67 9.66 -1.34 10.32 -1 11 C-1.99 11.33 -2.98 11.66 -4 12 C-4.33 11.34 -4.66 10.68 -5 10 C-5.66 9.67 -6.32 9.34 -7 9 C-5.88266271 7.49428343 -4.75589965 5.99555708 -3.625 4.5 C-2.99851562 3.6646875 -2.37203125 2.829375 -1.7265625 1.96875 C-1.15679688 1.3190625 -0.58703125 0.669375 0 0 Z " fill="#4D3651" transform="translate(573,516)"/>
<path d="M0 0 C0 1.32 0 2.64 0 4 C-0.99 4.495 -0.99 4.495 -2 5 C-2 5.66 -2 6.32 -2 7 C-4.25 7.25 -4.25 7.25 -7 7 C-9.3125 5 -9.3125 5 -11 3 C-9.54293274 2.49632243 -8.08429904 1.99717444 -6.625 1.5 C-5.81289063 1.2215625 -5.00078125 0.943125 -4.1640625 0.65625 C-2 0 -2 0 0 0 Z " fill="#4D3652" transform="translate(456,606)"/>
<path d="M0 0 C4.55737263 0.43820891 7.57653445 0.85041169 11 4 C7.5647952 6.29013653 6.014669 6.17842973 2 6 C2.33 5.34 2.66 4.68 3 4 C1.68 4 0.36 4 -1 4 C-0.67 2.68 -0.34 1.36 0 0 Z " fill="#EAC6F2" transform="translate(482,416)"/>
<path d="M0 0 C0.86476686 2.42134721 1.1422798 3.60873054 0.25 6.0625 C-0.995484 7.9930002 -2.38285151 9.38285151 -4 11 C-4.33 11.99 -4.66 12.98 -5 14 C-7.5625 15.1875 -7.5625 15.1875 -10 16 C-6.78655405 10.57998782 -3.55873262 5.2012246 0 0 Z " fill="#54395B" transform="translate(585,498)"/>
<path d="M0 0 C-0.804375 0.61875 -1.60875 1.2375 -2.4375 1.875 C-5.03874519 3.74164041 -5.03874519 3.74164041 -6 6 C-8.5625 6.625 -8.5625 6.625 -11 7 C-11 6.34 -11 5.68 -11 5 C-11.66 4.34 -12.32 3.68 -13 3 C-11.21189234 2.30329584 -9.41937948 1.61788811 -7.625 0.9375 C-6.62726563 0.55464844 -5.62953125 0.17179687 -4.6015625 -0.22265625 C-2 -1 -2 -1 0 0 Z " fill="#E1BEE9" transform="translate(291,127)"/>
<path d="M0 0 C3.3 0.99 6.6 1.98 10 3 C7 6 7 6 5.0625 6.109375 C4.381875 5.99078125 3.70125 5.8721875 3 5.75 C2.319375 5.64171875 1.63875 5.5334375 0.9375 5.421875 C-1 5 -1 5 -4 4 C-2.68 2.68 -1.36 1.36 0 0 Z " fill="#EEC8F4" transform="translate(476,321)"/>
<path d="M0 0 C0.66 0 1.32 0 2 0 C0.88391137 4.83638406 0.01865504 7.95885564 -4 11 C-6.30136389 12.14820736 -8.59328695 13.07434113 -11 14 C-11.66 13.34 -12.32 12.68 -13 12 C-12.46890625 11.76925781 -11.9378125 11.53851563 -11.390625 11.30078125 C-6.81455755 9.18810777 -3.79604836 7.36183544 -1 3 C-0.67 2.01 -0.34 1.02 0 0 Z " fill="#E3C0E9" transform="translate(552,329)"/>
<path d="M0 0 C0.99 0.33 1.98 0.66 3 1 C3.875 2.875 3.875 2.875 4 5 C2.625 6.75 2.625 6.75 1 8 C0.67 8 0.34 8 0 8 C-0.33 9.98 -0.66 11.96 -1 14 C-1.33 14 -1.66 14 -2 14 C-2.05437607 12.41705218 -2.09296271 10.83355744 -2.125 9.25 C-2.14820313 8.36828125 -2.17140625 7.4865625 -2.1953125 6.578125 C-1.99139502 3.8864142 -1.36551721 2.30095026 0 0 Z " fill="#63486A" transform="translate(195,279)"/>
<path d="M0 0 C0.99 0 1.98 0 3 0 C4.29243536 4.1196377 5.26252625 7.66831683 5 12 C2.75892504 9.11861791 0.66831106 6.25320657 -1 3 C-0.67 2.01 -0.34 1.02 0 0 Z " fill="#4A3250" transform="translate(587,236)"/>
<path d="M0 0 C3.3 0 6.6 0 10 0 C10.33 1.98 10.66 3.96 11 6 C7.2089881 4.55049545 3.6125362 2.84827434 0 1 C0 0.67 0 0.34 0 0 Z " fill="#4D3552" transform="translate(442,474)"/>
<path d="M0 0 C1.5625 1.8125 1.5625 1.8125 3 4 C1.77036367 7.68890899 -0.03683203 10.64361605 -2 14 C-3.25127906 10.45332822 -2.72285053 8.27746562 -1.5625 4.75 C-1.27503906 3.85796875 -0.98757812 2.9659375 -0.69140625 2.046875 C-0.46324219 1.37140625 -0.23507813 0.6959375 0 0 Z " fill="#E2C0E8" transform="translate(124,296)"/>
<path d="M0 0 C2.475 0.99 2.475 0.99 5 2 C4.67 4.31 4.34 6.62 4 9 C3.01 9 2.02 9 1 9 C0.63877119 7.68942607 0.28619689 6.37646376 -0.0625 5.0625 C-0.35833984 3.96615234 -0.35833984 3.96615234 -0.66015625 2.84765625 C-0.77230469 2.23792969 -0.88445313 1.62820313 -1 1 C-0.67 0.67 -0.34 0.34 0 0 Z " fill="#4B3451" transform="translate(608,281)"/>
<path d="M0 0 C-1.98 1.32 -3.96 2.64 -6 4 C-5.67 4.66 -5.34 5.32 -5 6 C-5.99 6 -6.98 6 -8 6 C-8.66 4.68 -9.32 3.36 -10 2 C-10 2.66 -10 3.32 -10 4 C-10.99 3.67 -11.98 3.34 -13 3 C-9.54666565 -0.45333435 -4.63654999 -1.85462 0 0 Z " fill="#543B5A" transform="translate(220,265)"/>
<path d="M0 0 C2 3 2 3 1.875 5 C0.76035105 7.54776903 -0.77008169 8.39724621 -3 10 C-3.33 10.99 -3.66 11.98 -4 13 C-4.66 13 -5.32 13 -6 13 C-4.31326082 8.50202887 -2.18326108 4.27113698 0 0 Z " fill="#DFBEE6" transform="translate(147,242)"/>
<path d="M0 0 C4.875 4.75 4.875 4.75 6 7 C4.35 7.66 2.7 8.32 1 9 C-0.61949011 6.42786866 -1.04408751 5.32330841 -0.625 2.25 C-0.41875 1.5075 -0.2125 0.765 0 0 Z " fill="#523956" transform="translate(161,515)"/>
<path d="M0 0 C0.33 0 0.66 0 1 0 C1 3.96 1 7.92 1 12 C1.66 11.67 2.32 11.34 3 11 C2.625 13.9375 2.625 13.9375 2 17 C1.34 17.33 0.68 17.66 0 18 C-1.96006223 12.11981331 -1.00051595 6.00309571 0 0 Z " fill="#5C4461" transform="translate(620,392)"/>
<path d="M0 0 C4.455 1.98 4.455 1.98 9 4 C8.34 4.66 7.68 5.32 7 6 C4 5.8125 4 5.8125 1 5 C0.34 4.01 -0.32 3.02 -1 2 C-0.67 1.34 -0.34 0.68 0 0 Z " fill="#EDCBF3" transform="translate(496,329)"/>
<path d="M0 0 C1.32 0 2.64 0 4 0 C4 0.66 4 1.32 4 2 C5.32 2.33 6.64 2.66 8 3 C4.37 3.66 0.74 4.32 -3 5 C-2.67 4.01 -2.34 3.02 -2 2 C-1.34 2 -0.68 2 0 2 C0 1.34 0 0.68 0 0 Z " fill="#E6C5ED" transform="translate(424,611)"/>
<path d="M0 0 C2.31 0 4.62 0 7 0 C6.835 0.598125 6.67 1.19625 6.5 1.8125 C5.8885876 4.11344336 5.8885876 4.11344336 6 7 C3.69 5.35 1.38 3.7 -1 2 C-0.67 1.34 -0.34 0.68 0 0 Z " fill="#E8C5F0" transform="translate(209,563)"/>
<path d="M0 0 C-1.85714286 7.57142857 -1.85714286 7.57142857 -5 10 C-6.1092904 6.67212881 -6.01557588 5.3006216 -5 2 C-2 0 -2 0 0 0 Z " fill="#EDC9F2" transform="translate(598,473)"/>
<path d="M0 0 C1.14926266 0.95421808 2.29430541 1.91352045 3.4375 2.875 C4.07558594 3.40867188 4.71367188 3.94234375 5.37109375 4.4921875 C7 6 7 6 8 8 C7.34 8.66 6.68 9.32 6 10 C3.35247996 7.42215154 1.05567935 5.08351902 -1 2 C-0.67 1.34 -0.34 0.68 0 0 Z " fill="#E8C7F0" transform="translate(550,192)"/>
<path d="M0 0 C0.99 0 1.98 0 3 0 C4.125 5.75 4.125 5.75 3 8 C0.53721199 6.768606 -0.42497687 5.21935077 -2 3 C-1 1 -1 1 0 0 Z " fill="#4D3654" transform="translate(122,440)"/>
<path d="M0 0 C2.37948772 0.17625835 3.70225849 0.69719773 5.37890625 2.40234375 C6.62115486 3.90649092 7.81376056 5.45129851 9 7 C7.68 7 6.36 7 5 7 C4.34 5.68 3.68 4.36 3 3 C2.34 3 1.68 3 1 3 C0.67 2.01 0.34 1.02 0 0 Z " fill="#E7C7EE" transform="translate(532,176)"/>
<path d="M0 0 C1.98 0.66 3.96 1.32 6 2 C5.67 2.99 5.34 3.98 5 5 C5 4.34 5 3.68 5 3 C4.34 3 3.68 3 3 3 C3.33 3.99 3.66 4.98 4 6 C3.01 6.33 2.02 6.66 1 7 C0.01 6.01 -0.98 5.02 -2 4 C-1.34 4 -0.68 4 0 4 C0 2.68 0 1.36 0 0 Z " fill="#49334E" transform="translate(513,154)"/>
<path d="M0 0 C0 0.66 0 1.32 0 2 C0.66 2 1.32 2 2 2 C2.33 3.98 2.66 5.96 3 8 C2.34 8 1.68 8 1 8 C-0.37482707 6.36739286 -1.70647667 4.69774938 -3 3 C-3.66 2.34 -4.32 1.68 -5 1 C-2 0 -2 0 0 0 Z " fill="#E7C7EE" transform="translate(484,458)"/>
<path d="M0 0 C0.66 1.65 1.32 3.3 2 5 C-1.3 4.34 -4.6 3.68 -8 3 C-5.36657694 0.36657694 -3.69534435 0 0 0 Z " fill="#E6C6ED" transform="translate(312,611)"/>
<path d="M0 0 C0 2 0 4 0 6 C-2.95664519 7.4783226 -5.74229737 7.06032783 -9 7 C-6.03716687 4.61327331 -3.05729491 2.2646629 0 0 Z " fill="#4E3656" transform="translate(513,575)"/>
<path d="M0 0 C0.99 0.99 1.98 1.98 3 3 C1.35 4.65 -0.3 6.3 -2 8 C-2.6875 6.25 -2.6875 6.25 -3 4 C-1.5625 1.75 -1.5625 1.75 0 0 Z " fill="#E6C4F0" transform="translate(547,541)"/>
<path d="M0 0 C2 3 2 3 1.625 5.1875 C1.41875 5.785625 1.2125 6.38375 1 7 C-0.65 6.67 -2.3 6.34 -4 6 C-1.125 1.125 -1.125 1.125 0 0 Z " fill="#4C3451" transform="translate(557,536)"/>
<path d="M0 0 C2.96175123 0.61277612 4.38058783 1.25372522 7 3 C2.87831311 4.62950412 0.29299643 5.26264601 -4 4 C-2.68 3.67 -1.36 3.34 0 3 C0 2.01 0 1.02 0 0 Z " fill="#E7C4ED" transform="translate(421,466)"/>
<path d="M0 0 C0.66 0.33 1.32 0.66 2 1 C2.75 3.875 2.75 3.875 3 7 C2.01 8.485 2.01 8.485 1 10 C1 9.34 1 8.68 1 8 C0.01 8 -0.98 8 -2 8 C-1.47731534 5.23723823 -0.89130413 2.6739124 0 0 Z " fill="#503757" transform="translate(603,461)"/>
<path d="M0 0 C1.98 0 3.96 0 6 0 C6.99 1.98 7.98 3.96 9 6 C2.42696629 4.1011236 2.42696629 4.1011236 0 1 C0 0.67 0 0.34 0 0 Z " fill="#DDBCE3" transform="translate(449,442)"/>
<path d="M0 0 C0.66 0.33 1.32 0.66 2 1 C1.67 2.32 1.34 3.64 1 5 C-1.375 5.625 -1.375 5.625 -4 6 C-4.66 5.34 -5.32 4.68 -6 4 C-4.02 2.68 -2.04 1.36 0 0 Z " fill="#4F3354" transform="translate(230,432)"/>
<path d="M0 0 C2.66735273 2.48952921 4.55746343 4.63408134 6 8 C4.68 8.33 3.36 8.66 2 9 C1.67 8.34 1.34 7.68 1 7 C1.33 6.34 1.66 5.68 2 5 C1.34 5 0.68 5 0 5 C0 3.35 0 1.7 0 0 Z " fill="#E8C5ED" transform="translate(570,215)"/>
<path d="M0 0 C0.66 0.33 1.32 0.66 2 1 C-0.52956528 4.0916909 -3.22454612 4.90931332 -7 6 C-7.66 5.34 -8.32 4.68 -9 4 C-7.54618103 3.30300448 -6.08677047 2.61766134 -4.625 1.9375 C-3.40683594 1.36322266 -3.40683594 1.36322266 -2.1640625 0.77734375 C-1.44992187 0.52082031 -0.73578125 0.26429688 0 0 Z " fill="#DEBDE6" transform="translate(264,136)"/>
<path d="M0 0 C0.66 0.33 1.32 0.66 2 1 C2 1.66 2 2.32 2 3 C0.04072937 4.7143618 -1.95880212 6.38405168 -4 8 C-4.33 7.34 -4.66 6.68 -5 6 C-2.59016393 1.29508197 -2.59016393 1.29508197 0 0 Z " fill="#E9C5F0" transform="translate(225,432)"/>
<path d="M0 0 C0.33 0 0.66 0 1 0 C1.33 1.98 1.66 3.96 2 6 C1.01 6 0.02 6 -1 6 C-1.66 7.32 -2.32 8.64 -3 10 C-3.99 9.67 -4.98 9.34 -6 9 C-4.73046875 7.53515625 -3.4609375 6.0703125 -2.19140625 4.60546875 C-0.79128769 2.89287029 -0.79128769 2.89287029 0 0 Z " fill="#E6C6EC" transform="translate(517,406)"/>
<path d="M0 0 C1.5625 1.125 1.5625 1.125 3 3 C2.6875 6.1875 2.6875 6.1875 2 9 C1.01 8.67 0.02 8.34 -1 8 C-2.2077558 4.37673261 -1.54311128 3.35853631 0 0 Z " fill="#E5C1EF" transform="translate(140,255)"/>
<path d="M0 0 C2.91517292 1.07401108 4.77810176 1.77810176 7 4 C6.67 4.66 6.34 5.32 6 6 C1.25 4.125 1.25 4.125 -1 3 C-0.67 2.01 -0.34 1.02 0 0 Z " fill="#4F3654" transform="translate(236,585)"/>
<path d="M0 0 C3.57104439 1.87949705 5.54744301 3.17053157 7 7 C3.76509224 6.44225728 2.02144994 5.62788492 0 3 C0 2.01 0 1.02 0 0 Z " fill="#4F3656" transform="translate(478,459)"/>
<path d="M0 0 C1.98 0.99 3.96 1.98 6 3 C5.67 3.99 5.34 4.98 5 6 C2.03 5.505 2.03 5.505 -1 5 C-0.34 4.67 0.32 4.34 1 4 C0.67 2.68 0.34 1.36 0 0 Z " fill="#4D3452" transform="translate(495,377)"/>
<path d="M0 0 C0.66 0 1.32 0 2 0 C2.93065133 2.60582371 3.14917407 3.64198224 2.0625 6.25 C1.5365625 7.11625 1.5365625 7.11625 1 8 C0.34 8 -0.32 8 -1 8 C-1.625 5.6875 -1.625 5.6875 -2 3 C-1.34 2.01 -0.68 1.02 0 0 Z " fill="#EEC7F5" transform="translate(194,273)"/>
<path d="M0 0 C0.66 0.33 1.32 0.66 2 1 C2 1.66 2 2.32 2 3 C2.66 3.33 3.32 3.66 4 4 C3.67 4.99 3.34 5.98 3 7 C0.69 5.35 -1.62 3.7 -4 2 C-2.125 0.9375 -2.125 0.9375 0 0 Z " fill="#513758" transform="translate(524,163)"/>
<path d="M0 0 C2.4375 0.75 2.4375 0.75 5 2 C5.8125 4.125 5.8125 4.125 6 6 C6.66 6 7.32 6 8 6 C7.67 6.99 7.34 7.98 7 9 C4.04070881 6.24479785 1.96318174 3.53372712 0 0 Z " fill="#E8C8EF" transform="translate(164,518)"/>
<path d="M0 0 C1.625 1.5625 1.625 1.5625 3 4 C2.1875 7.75 2.1875 7.75 1 11 C0.67 11 0.34 11 0 11 C-1.125 3.375 -1.125 3.375 0 0 Z " fill="#E8C6EE" transform="translate(121,418)"/>
<path d="M0 0 C5.75 -0.125 5.75 -0.125 8 1 C7.67 1.99 7.34 2.98 7 4 C4.69 3.34 2.38 2.68 0 2 C0 1.34 0 0.68 0 0 Z " fill="#E5C5EF" transform="translate(468,363)"/>
<path d="M0 0 C0.66 0.33 1.32 0.66 2 1 C1.67 2.98 1.34 4.96 1 7 C-0.65 7 -2.3 7 -4 7 C-2.68 4.69 -1.36 2.38 0 0 Z " fill="#E0BEE7" transform="translate(156,228)"/>
<path d="M0 0 C0.99 0.33 1.98 0.66 3 1 C1.35 2.65 -0.3 4.3 -2 6 C-2.33 5.34 -2.66 4.68 -3 4 C-3.66 3.67 -4.32 3.34 -5 3 C-2.6875 1.4375 -2.6875 1.4375 0 0 Z " fill="#56395A" transform="translate(483,593)"/>
<path d="M0 0 C2.5 2.3125 2.5 2.3125 5 5 C5 5.99 5 6.98 5 8 C3.02 6.35 1.04 4.7 -1 3 C-0.67 2.01 -0.34 1.02 0 0 Z " fill="#593B5E" transform="translate(173,530)"/>
<path d="M0 0 C4.875 4.75 4.875 4.75 6 7 C5.01 7.33 4.02 7.66 3 8 C0.9375 6.25 0.9375 6.25 -1 4 C-0.75 1.75 -0.75 1.75 0 0 Z " fill="#533658" transform="translate(167,523)"/>
<path d="M0 0 C0.66 0.33 1.32 0.66 2 1 C1.34 2.98 0.68 4.96 0 7 C-0.99 7 -1.98 7 -3 7 C-1.125 1.125 -1.125 1.125 0 0 Z " fill="#E6C5EE" transform="translate(588,488)"/>
<path d="M0 0 C0.99 0.33 1.98 0.66 3 1 C4.1875 4.5625 4.1875 4.5625 5 8 C4.34 8 3.68 8 3 8 C3 7.34 3 6.68 3 6 C2.34 6 1.68 6 1 6 C0.67 4.02 0.34 2.04 0 0 Z " fill="#563C5C" transform="translate(130,461)"/>
<path d="M0 0 C1.32 0 2.64 0 4 0 C4 0.66 4 1.32 4 2 C5.32 2.66 6.64 3.32 8 4 C7.34 4.66 6.68 5.32 6 6 C3.97945196 4.35830472 1.97956942 2.69088222 0 1 C0 0.67 0 0.34 0 0 Z " fill="#4F3355" transform="translate(224,456)"/>
<path d="M0 0 C6.625 -0.125 6.625 -0.125 10 1 C10 1.66 10 2.32 10 3 C8.5199159 2.88637738 7.04089926 2.75877092 5.5625 2.625 C4.73878906 2.55539062 3.91507812 2.48578125 3.06640625 2.4140625 C2.38449219 2.27742188 1.70257813 2.14078125 1 2 C0.67 1.34 0.34 0.68 0 0 Z " fill="#5B3E62" transform="translate(369,452)"/>
<path d="M0 0 C-0.33 0.99 -0.66 1.98 -1 3 C-6.75 2.25 -6.75 2.25 -9 0 C-5.62182575 -0.84454356 -3.32534757 -1.10844919 0 0 Z " fill="#54395A" transform="translate(428,387)"/>
<path d="M0 0 C2.91517292 1.07401108 4.77810176 1.77810176 7 4 C6.34 4.66 5.68 5.32 5 6 C2.5 4.6875 2.5 4.6875 0 3 C0 2.01 0 1.02 0 0 Z " fill="#E7C6F0" transform="translate(505,380)"/>
<path d="M0 0 C0.99 0 1.98 0 3 0 C3.66 2.31 4.32 4.62 5 7 C4.01 6.67 3.02 6.34 2 6 C2 5.34 2 4.68 2 4 C1.01 3.67 0.02 3.34 -1 3 C-0.67 2.01 -0.34 1.02 0 0 Z " fill="#DDBCE6" transform="translate(602,276)"/>
<path d="M0 0 C2.97 0.495 2.97 0.495 6 1 C5.01 1.495 5.01 1.495 4 2 C4 2.66 4 3.32 4 4 C2.125 4.625 2.125 4.625 0 5 C-0.66 4.34 -1.32 3.68 -2 3 C-1.34 3 -0.68 3 0 3 C0 2.01 0 1.02 0 0 Z " fill="#4C3451" transform="translate(450,265)"/>
<path d="M0 0 C1.32 0.33 2.64 0.66 4 1 C4 1.66 4 2.32 4 3 C2.02 3.66 0.04 4.32 -2 5 C-2 4.01 -2 3.02 -2 2 C-1.34 2 -0.68 2 0 2 C0 1.34 0 0.68 0 0 Z " fill="#ECC9F2" transform="translate(467,597)"/>
<path d="M0 0 C1.32 0 2.64 0 4 0 C4 0.66 4 1.32 4 2 C4.99 2.33 5.98 2.66 7 3 C6.67 3.99 6.34 4.98 6 6 C3.97945196 4.35830472 1.97956942 2.69088222 0 1 C0 0.67 0 0.34 0 0 Z " fill="#DDBDE4" transform="translate(192,550)"/>
<path d="M0 0 C0.66 0.66 1.32 1.32 2 2 C1.625 5.625 1.625 5.625 1 9 C0.01 9 -0.98 9 -2 9 C-1.34 6.03 -0.68 3.06 0 0 Z " fill="#5E4463" transform="translate(610,441)"/>
<path d="M0 0 C1.65 0 3.3 0 5 0 C4.67 2.31 4.34 4.62 4 7 C0 2.25 0 2.25 0 0 Z " fill="#513757" transform="translate(120,293)"/>
<path d="M0 0 C2.15341979 2.15341979 2.64111965 3.03923709 3 6 C2.01 7.485 2.01 7.485 1 9 C0.34 9 -0.32 9 -1 9 C-0.67 6.03 -0.34 3.06 0 0 Z " fill="#E3BFEC" transform="translate(595,255)"/>
<path d="M0 0 C0.66 0 1.32 0 2 0 C1.45773019 3.79588866 -0.20127563 5.47211993 -3 8 C-2.45276317 4.62537285 -1.9451 2.91765 0 0 Z " fill="#4B3252" transform="translate(158,221)"/>
<path d="M0 0 C0 0.99 0 1.98 0 3 C-2 5 -2 5 -5.125 5.125 C-6.548125 5.063125 -6.548125 5.063125 -8 5 C-5.44008376 2.98863724 -2.95409701 1.37154504 0 0 Z " fill="#E3C2EA" transform="translate(250,143)"/>
<path d="M0 0 C3.3125 -0.25 3.3125 -0.25 7 0 C7.99 1.32 8.98 2.64 10 4 C6.7 3.01 3.4 2.02 0 1 C0 0.67 0 0.34 0 0 Z " fill="#D5B7DE" transform="translate(273,603)"/>
<path d="M0 0 C1.65 1.65 3.3 3.3 5 5 C4.01 5.66 3.02 6.32 2 7 C0 5 0 5 -0.125 2.375 C-0.08375 1.59125 -0.0425 0.8075 0 0 Z " fill="#55395B" transform="translate(179,537)"/>
<path d="M0 0 C1.65 0.33 3.3 0.66 5 1 C4.67 2.32 4.34 3.64 4 5 C2.35 4.67 0.7 4.34 -1 4 C-0.67 2.68 -0.34 1.36 0 0 Z " fill="#4C3351" transform="translate(429,465)"/>
<path d="M0 0 C1.9955516 3.99110319 2.19546065 5.69986566 2 10 C1.01 10 0.02 10 -1 10 C-0.67 6.7 -0.34 3.4 0 0 Z " fill="#583F5E" transform="translate(115,324)"/>
<path d="M0 0 C1.65 0.99 3.3 1.98 5 3 C3.625 4.5 3.625 4.5 2 6 C1.34 6 0.68 6 0 6 C0 4.02 0 2.04 0 0 Z " fill="#EBC8F3" transform="translate(521,166)"/>
<path d="M0 0 C0.66 0.66 1.32 1.32 2 2 C0.6875 3.5 0.6875 3.5 -1 5 C-1.99 5 -2.98 5 -4 5 C-4 3.68 -4 2.36 -4 1 C-2.125 0.375 -2.125 0.375 0 0 Z " fill="#EBC8F4" transform="translate(455,602)"/>
<path d="M0 0 C0.66 0.33 1.32 0.66 2 1 C1.39816251 3.02045442 0.72693904 5.02111039 0 7 C-0.99 7.495 -0.99 7.495 -2 8 C-2.20086443 4.28400809 -2.1519437 3.22791555 0 0 Z " fill="#49304F" transform="translate(588,493)"/>
<path d="M0 0 C3.375 -0.125 3.375 -0.125 7 0 C7.66 0.66 8.32 1.32 9 2 C3.375 3.125 3.375 3.125 0 2 C0 1.34 0 0.68 0 0 Z " fill="#4F3456" transform="translate(470,485)"/>
<path d="M0 0 C6.75 0.75 6.75 0.75 9 3 C5.25 4.125 5.25 4.125 3 3 C3 2.34 3 1.68 3 1 C2.01 0.67 1.02 0.34 0 0 Z " fill="#E8C7F1" transform="translate(450,481)"/>
<path d="M0 0 C0.66 0.33 1.32 0.66 2 1 C2 1.99 2 2.98 2 4 C0.125 4.625 0.125 4.625 -2 5 C-2.66 4.34 -3.32 3.68 -4 3 C-2.68 2.01 -1.36 1.02 0 0 Z " fill="#4B3050" transform="translate(220,353)"/>
<path d="M0 0 C0.66 0.33 1.32 0.66 2 1 C1.34 2.65 0.68 4.3 0 6 C-1.65 5.67 -3.3 5.34 -5 5 C-3.35 3.35 -1.7 1.7 0 0 Z " fill="#E2C3E9" transform="translate(215,165)"/>
<path d="M0 0 C2.475 0.495 2.475 0.495 5 1 C5 2.65 5 4.3 5 6 C3.0625 5.25 3.0625 5.25 1 4 C0.25 1.875 0.25 1.875 0 0 Z " fill="#4C3452" transform="translate(506,152)"/>
<path d="M0 0 C2.97 0.495 2.97 0.495 6 1 C5.01 2.485 5.01 2.485 4 4 C2.68 3.67 1.36 3.34 0 3 C0 2.01 0 1.02 0 0 Z " fill="#E7C4EE" transform="translate(452,129)"/>
</svg>
