<?xml version="1.0" standalone="no"?>
<!DOCTYPE svg PUBLIC "-//W3C//DTD SVG 20010904//EN"
 "http://www.w3.org/TR/2001/REC-SVG-20010904/DTD/svg10.dtd">
<svg version="1.0" xmlns="http://www.w3.org/2000/svg"
 width="736.000000pt" height="706.000000pt" viewBox="0 0 736.000000 706.000000"
 preserveAspectRatio="xMidYMid meet">

<g transform="translate(0.000000,706.000000) scale(0.100000,-0.100000)"
fill="#000000" stroke="none">
<path d="M0 3545 l0 -3515 873 1 c479 1 901 5 937 9 37 4 50 8 31 8 -19 1 -31
5 -28 9 4 3 2 12 -4 20 -6 7 -8 13 -4 13 3 0 -8 14 -25 32 -25 24 -29 33 -18
39 8 4 14 20 13 36 0 24 -5 29 -35 34 l-35 5 28 9 c21 5 25 10 15 16 -7 5 -9
9 -4 9 6 0 20 -10 33 -22 18 -16 26 -19 35 -10 9 9 7 13 -5 17 -9 4 -13 13
-10 21 3 9 -2 14 -16 14 -25 0 -27 8 -6 24 20 15 0 54 -42 81 -34 21 -53 52
-54 88 l0 22 -9 -23 c-16 -37 -29 -25 -23 21 3 23 6 50 7 60 0 14 6 17 22 13
31 -8 54 2 47 21 -4 10 0 14 13 12 22 -4 124 67 124 85 0 16 -33 3 -37 -14 -5
-20 -25 -29 -20 -9 1 6 -7 16 -17 22 -11 7 -28 19 -38 28 -13 12 -32 14 -73
11 -53 -4 -78 10 -36 21 14 3 18 11 15 25 -4 15 1 22 23 30 22 7 33 20 43 51
8 26 18 40 26 37 8 -3 11 0 7 10 -4 10 0 12 11 8 21 -8 34 25 15 37 -8 5 -25
8 -39 7 -23 -3 -25 0 -25 35 0 42 5 49 50 65 17 6 22 11 13 11 -10 1 -18 7
-18 15 0 8 -7 16 -15 20 -8 3 -15 12 -15 19 0 10 -8 13 -26 9 -19 -3 -25 -1
-20 7 9 14 43 15 51 1 3 -5 16 -10 28 -10 21 1 20 2 -4 15 -15 8 -29 24 -32
36 -6 23 11 69 25 69 5 0 6 -4 3 -10 -3 -5 0 -10 7 -10 18 1 48 25 48 39 0 6
12 11 28 11 43 1 62 22 62 69 0 37 -4 44 -35 62 -19 12 -32 25 -29 30 6 11
-19 39 -35 39 -33 0 9 33 64 51 18 5 17 7 -7 14 -16 4 -28 11 -28 15 0 17 33
40 50 35 9 -3 23 2 30 10 11 13 10 18 -5 29 -16 12 -16 13 -1 19 9 4 16 2 16
-3 0 -5 7 -7 15 -4 8 4 13 10 10 15 -3 4 5 13 17 20 l22 12 -23 8 c-12 5 -19
13 -16 19 9 15 32 12 39 -5 7 -20 52 -19 60 1 9 23 9 23 -20 21 -20 -2 -27 3
-30 20 -2 13 1 23 6 23 6 0 10 9 10 20 0 13 7 20 20 20 12 0 20 6 19 13 -6 47
14 80 24 40 4 -17 5 -17 6 0 0 9 8 17 16 17 8 0 15 9 15 20 0 13 9 22 25 26
25 6 35 37 16 48 -5 3 -11 15 -14 27 -5 17 -2 20 13 16 14 -4 17 -1 13 12 -13
36 -25 42 -44 25 -10 -9 -23 -13 -28 -9 -16 9 -13 25 4 25 8 0 15 7 15 15 0 9
-9 15 -22 15 -17 0 -19 3 -10 12 16 16 15 28 -3 28 -9 0 -20 11 -25 25 -5 14
-13 25 -17 24 -32 -5 -43 3 -43 31 0 17 5 30 11 30 8 0 8 4 1 13 -13 15 -11
67 3 67 15 0 40 -42 36 -62 -3 -21 3 -22 30 -8 10 6 19 19 19 30 0 10 5 20 11
22 7 2 7 12 0 31 -7 18 -15 25 -26 21 -21 -8 -19 2 5 26 11 11 31 20 45 20 30
0 33 20 5 27 -11 3 -20 9 -20 14 0 5 -9 9 -19 9 -21 0 -36 27 -18 33 13 4 -37
53 -63 62 -8 2 -21 24 -28 46 -11 35 -11 44 0 50 8 5 15 1 20 -11 4 -11 12
-20 18 -20 10 0 12 6 14 49 1 23 5 25 61 26 68 1 96 12 74 26 -11 7 -10 9 4 9
9 0 17 4 17 9 0 5 8 11 18 14 9 2 25 8 36 12 15 7 17 5 11 -13 -4 -16 -2 -22
9 -22 11 0 13 8 9 34 -6 36 -3 40 42 50 l30 8 -23 -24 c-23 -26 -21 -38 9 -38
24 0 69 21 69 32 0 13 62 88 69 84 3 -2 12 2 18 10 8 8 9 15 3 19 -24 15 -8
27 29 22 27 -3 44 0 54 10 19 19 40 8 32 -18 -5 -16 -1 -19 29 -19 19 0 38 5
41 11 5 6 11 4 19 -6 7 -9 21 -15 32 -13 14 2 20 -4 22 -24 2 -16 6 -28 10
-28 4 0 14 -5 22 -10 13 -8 12 -11 -5 -25 -20 -15 -20 -15 3 -34 15 -13 22
-30 22 -55 0 -20 4 -36 9 -36 14 0 22 -77 10 -104 -10 -21 -8 -29 10 -52 22
-29 28 -69 10 -79 -6 -4 -17 1 -24 11 -17 22 -19 6 -5 -32 7 -19 7 -30 -1 -40
-6 -8 -9 -23 -6 -34 3 -11 1 -20 -4 -20 -5 0 -9 -4 -9 -10 0 -5 7 -10 15 -10
20 0 20 -36 0 -44 -8 -3 -15 -12 -15 -21 0 -8 -10 -25 -21 -36 -14 -14 -24
-39 -27 -68 -3 -25 -12 -56 -20 -69 -8 -12 -12 -34 -9 -49 6 -30 -27 -88 -44
-77 -11 6 -28 -36 -22 -54 3 -7 11 -11 17 -10 12 3 16 -3 16 -23 0 -5 -4 -7
-10 -4 -17 10 -11 -5 10 -27 21 -23 21 -45 1 -41 -18 5 -13 -7 20 -39 23 -23
29 -37 25 -54 -4 -13 -2 -24 3 -24 5 0 24 -14 42 -31 18 -17 40 -28 49 -26 9
2 34 -4 56 -15 33 -16 40 -17 49 -4 6 8 22 16 35 18 14 1 29 12 34 24 6 14 19
21 38 21 31 0 67 31 60 51 -2 7 2 10 12 6 9 -3 16 -1 16 5 0 6 5 11 12 11 9 0
9 -3 0 -12 -20 -20 -14 -24 33 -23 50 0 53 2 28 20 -18 13 -10 35 13 35 10 0
13 10 12 31 -2 19 2 34 10 36 7 3 12 -4 12 -17 0 -12 4 -19 9 -16 5 3 7 15 4
25 -3 10 1 23 9 27 13 9 18 10 52 12 11 1 16 7 13 16 -3 8 5 24 19 37 15 14
23 32 22 47 -3 19 4 26 37 39 22 8 51 16 65 17 17 2 26 10 30 27 4 18 13 25
37 27 23 2 30 7 26 17 -3 9 5 18 21 25 15 5 31 21 36 35 5 13 38 45 72 71 35
25 63 51 64 57 4 42 4 42 13 28 12 -19 31 -4 31 25 0 18 5 24 23 25 l22 0 -22
11 c-27 13 -32 34 -20 71 7 22 5 32 -9 48 -18 20 -18 21 0 35 17 12 18 14 2
20 -9 3 -21 26 -27 50 -8 32 -16 44 -30 44 -11 0 -19 -7 -19 -15 0 -22 -8 -19
-67 25 -32 25 -53 48 -53 60 0 11 -6 20 -14 20 -7 0 -19 7 -26 15 -7 8 -20 15
-30 15 -10 0 -20 7 -24 15 -3 8 -15 15 -26 15 -13 0 -20 7 -20 20 0 11 -4 20
-10 20 -5 0 -10 -5 -10 -11 0 -5 -4 -7 -10 -4 -17 10 -11 33 10 40 11 4 17 11
14 17 -4 6 -9 5 -15 -3 -6 -10 -11 -7 -18 11 -6 14 -17 33 -23 43 -11 14 -10
19 2 27 8 5 10 10 4 10 -6 0 -17 -7 -24 -15 -11 -13 -16 -12 -39 6 -14 11 -33
35 -41 52 -10 20 -23 31 -33 31 -14 -2 -18 4 -15 25 1 14 6 31 11 38 5 7 1 19
-11 31 -21 21 -57 38 -47 22 3 -6 -1 -10 -9 -10 -9 0 -16 7 -16 15 0 8 5 15
10 15 20 0 10 19 -12 22 -30 4 -33 24 -5 32 20 5 26 14 29 43 6 42 1 54 -12
34 -5 -9 -15 -11 -26 -6 -13 5 -15 9 -6 12 6 3 12 13 12 23 0 10 7 21 16 24
10 4 14 14 11 26 -4 16 0 20 19 20 13 0 29 9 36 20 10 15 24 20 58 20 25 0 50
4 56 9 5 5 25 11 44 13 25 2 38 10 45 25 5 13 18 23 27 23 20 0 25 20 6 20 -7
0 -5 5 5 11 9 6 15 15 12 20 -4 5 -10 7 -15 4 -5 -3 -12 0 -16 6 -4 6 1 16 10
21 24 13 21 41 -4 33 -29 -9 -24 9 10 38 25 22 28 30 23 61 -4 25 0 44 12 62
9 14 15 27 13 28 -2 1 -15 7 -30 14 -33 14 -36 28 -7 37 16 6 18 9 8 15 -11 7
-11 13 0 33 7 14 10 30 7 35 -4 6 7 12 26 14 17 2 33 9 36 16 3 10 -9 11 -52
7 -43 -5 -56 -3 -56 7 0 7 -18 31 -40 52 -22 22 -42 46 -45 55 -7 23 -88 63
-137 68 -23 2 -47 8 -52 13 -6 6 -18 10 -28 10 -11 0 -23 11 -28 25 -5 14 -16
25 -24 25 -7 0 -16 7 -20 15 -3 9 0 15 9 15 8 0 15 -4 15 -10 0 -5 14 -10 30
-10 17 0 30 4 30 9 0 13 57 34 70 26 6 -4 24 -8 41 -10 38 -5 35 14 -7 35 -28
14 -28 15 -6 18 14 2 33 -5 46 -17 17 -16 30 -19 58 -14 33 5 39 3 49 -21 l12
-26 34 20 c41 24 43 24 43 6 0 -8 7 -17 16 -20 19 -7 47 12 38 25 -3 5 11 16
30 24 20 9 36 19 36 24 0 4 11 6 25 3 28 -5 35 14 8 21 -10 3 -1 5 19 6 29 1
36 4 32 16 -5 11 1 15 20 15 17 0 29 7 34 19 5 14 12 17 30 10 18 -7 21 -14
17 -32 -5 -17 -2 -26 9 -30 9 -4 16 -2 16 3 0 8 40 30 84 44 11 4 16 12 12 21
-9 23 11 27 27 5 11 -16 21 -19 41 -14 29 7 66 -17 66 -43 0 -7 6 -12 13 -10
8 1 11 -8 9 -26 -3 -25 0 -28 18 -22 12 4 36 0 57 -10 30 -15 42 -16 68 -6 45
16 58 14 125 -16 42 -19 63 -35 66 -50 5 -17 13 -23 34 -23 16 0 32 -4 35 -10
9 -15 25 -12 25 5 0 19 11 19 36 0 19 -15 19 -16 -1 -13 -32 5 -33 -39 -1 -52
14 -5 26 -13 26 -18 0 -5 11 -7 25 -4 14 2 25 9 25 14 0 6 7 5 15 -2 9 -7 13
-15 10 -18 -3 -3 5 -10 17 -16 13 -6 28 -23 35 -36 12 -24 13 -24 13 -3 0 12
5 25 10 28 16 10 50 -5 50 -21 0 -13 2 -13 16 1 25 25 49 15 52 -23 3 -27 8
-34 32 -39 33 -6 46 -18 52 -48 2 -11 9 -19 16 -18 6 2 14 -8 18 -21 7 -30 26
-38 60 -26 38 15 47 12 41 -11 -5 -19 -2 -20 36 -15 23 3 43 5 44 5 1 1 0 8
-3 16 -4 10 0 15 14 15 11 0 28 3 38 7 13 5 16 3 11 -10 -5 -13 0 -17 21 -17
18 0 23 -3 14 -9 -7 -4 -25 -6 -39 -3 -27 5 -27 6 -7 -42 4 -10 -2 -13 -23
-10 -15 1 -33 -2 -40 -8 -11 -9 -9 -14 7 -25 37 -26 24 -48 -27 -46 -7 1 -11
-3 -8 -7 8 -13 -6 -41 -16 -34 -12 7 -48 -35 -49 -56 0 -9 7 -25 15 -36 8 -12
12 -24 9 -26 -2 -3 2 -11 11 -18 20 -17 32 -5 15 15 -15 18 -13 20 18 29 22 7
31 -7 13 -19 -18 -10 -5 -117 15 -132 9 -7 16 -14 13 -17 -9 -8 -51 -27 -52
-24 -1 2 -8 13 -14 25 -7 12 -10 30 -6 39 5 14 3 14 -16 3 -26 -17 -26 -24 -1
-49 11 -11 20 -24 20 -30 0 -5 10 -11 23 -11 16 -1 18 -2 5 -6 -21 -5 -23 -14
-6 -31 10 -10 10 -15 -2 -22 -11 -7 -12 -12 -3 -21 17 -17 50 -2 49 23 -1 14
6 24 17 26 15 3 17 -3 15 -40 -2 -30 1 -42 10 -41 7 2 12 -7 12 -22 0 -14 -5
-25 -11 -25 -5 0 -7 -5 -3 -11 3 -6 0 -15 -7 -20 -12 -8 -12 -11 1 -19 22 -15
40 -12 40 6 0 9 9 18 20 21 11 3 20 10 20 17 0 6 5 4 10 -4 14 -21 12 -30 -4
-30 -15 0 -29 -27 -21 -40 3 -5 -9 -11 -25 -15 -26 -6 -29 -9 -19 -21 9 -11 9
-18 2 -25 -16 -16 14 -64 47 -76 24 -9 38 -43 18 -43 -15 0 -30 -52 -17 -60 8
-6 8 -9 0 -14 -17 -11 -13 -36 6 -36 15 0 14 -2 -3 -15 -17 -13 -17 -14 -2
-15 10 0 20 -11 24 -25 3 -13 21 -36 40 -50 l34 -26 0 25 c0 20 5 26 23 26 12
0 35 12 50 26 15 14 35 24 45 23 29 -5 57 10 67 33 7 15 19 23 35 23 19 0 26
6 28 25 2 14 7 29 12 34 9 9 44 -20 53 -45 6 -19 59 -33 55 -15 -3 12 4 16 27
16 22 0 18 -27 -5 -40 -11 -6 -20 -17 -20 -25 0 -8 -6 -14 -12 -13 -8 2 -14
-11 -16 -35 -3 -30 -9 -40 -30 -50 -15 -6 -30 -16 -33 -21 -4 -5 -12 -5 -19
-1 -9 6 -12 1 -8 -17 4 -24 -11 -48 -32 -48 -8 0 -9 -15 -4 -45 l6 -45 -31 6
c-40 8 -41 -10 -2 -31 27 -13 29 -18 25 -57 -3 -24 -12 -53 -20 -66 -9 -13
-13 -30 -10 -39 3 -8 -1 -27 -10 -41 -14 -24 -14 -30 0 -57 10 -19 23 -30 37
-30 12 0 24 -6 27 -14 4 -11 -2 -13 -26 -8 -33 7 -52 -7 -34 -25 11 -11 5 -38
-8 -38 -5 0 -21 -5 -37 -11 -25 -9 -26 -12 -10 -20 9 -6 17 -17 17 -25 0 -8 7
-26 16 -40 9 -13 14 -27 11 -31 -4 -3 -2 -13 3 -23 7 -13 4 -22 -11 -36 -11
-10 -18 -23 -15 -30 7 -19 -5 -24 -27 -12 -17 9 -19 8 -14 -6 9 -23 -11 -30
-38 -12 -28 18 -44 4 -24 -20 10 -12 10 -17 1 -23 -9 -5 -9 -12 1 -26 12 -15
12 -23 -1 -47 -10 -20 -12 -43 -8 -71 17 -103 17 -97 -7 -98 -12 -1 -27 -1
-34 0 -9 1 -9 -4 0 -24 7 -15 13 -19 15 -11 3 16 28 24 55 18 24 -5 22 -22 -3
-22 -15 0 -22 -9 -27 -30 l-6 -31 -23 22 c-19 18 -27 20 -36 11 -9 -9 -8 -12
5 -12 11 0 17 -8 17 -21 0 -17 -3 -19 -13 -10 -15 12 -27 5 -27 -17 0 -9 6
-12 15 -8 9 3 18 -1 21 -9 5 -11 11 -12 25 -4 13 6 19 6 19 -1 0 -5 -7 -10
-15 -10 -8 0 -15 -4 -15 -10 0 -5 -6 -10 -14 -10 -17 0 -28 -24 -20 -45 7 -17
30 -20 39 -5 3 6 13 10 21 10 12 0 12 -3 2 -20 -12 -19 -21 -19 -65 -3 -7 3
-13 -2 -13 -11 0 -9 5 -16 10 -16 6 0 15 -11 20 -24 7 -18 14 -23 29 -19 15 4
21 1 21 -11 0 -22 17 -20 32 3 11 18 13 17 27 -13 12 -23 24 -32 46 -34 27 -2
28 -1 10 9 -11 7 -28 20 -37 30 -14 14 -15 18 -3 23 12 4 13 11 5 31 -10 26
-6 45 9 45 10 0 81 -64 81 -73 0 -5 -10 -7 -22 -5 -35 5 -31 -17 5 -30 44 -16
45 -16 40 12 -6 30 14 43 31 20 18 -24 50 -12 41 16 -5 15 -2 20 14 20 38 0
52 -10 40 -31 -7 -15 -6 -19 6 -19 17 0 20 -16 5 -25 -18 -11 2 -33 36 -39 19
-4 34 -13 34 -20 0 -24 49 -68 69 -61 24 7 37 -11 21 -30 -15 -18 -6 -45 14
-45 23 0 49 31 37 43 -19 19 -12 31 8 13 10 -9 25 -14 34 -11 19 8 28 -5 21
-32 -4 -14 -19 -24 -47 -30 l-42 -10 32 -8 c33 -8 69 -48 58 -65 -3 -6 -1 -10
5 -10 5 0 18 -16 27 -35 16 -34 53 -49 53 -22 0 6 5 4 11 -6 12 -21 2 -40 -17
-33 -7 3 -16 1 -19 -5 -4 -5 -14 -8 -23 -7 -11 2 -18 -5 -20 -21 -3 -22 -1
-23 36 -19 22 2 39 1 37 -2 -2 -3 3 -13 10 -23 11 -15 14 -15 24 -3 14 17 41
10 41 -10 0 -8 5 -14 10 -14 6 0 10 -7 10 -16 0 -8 -4 -13 -10 -9 -5 3 -3 -7
5 -22 8 -15 15 -41 15 -57 l0 -30 30 34 c17 18 31 32 31 29 7 -22 5 -58 -4
-74 -6 -11 -12 -33 -14 -50 -2 -27 -2 -28 7 -7 11 26 20 29 18 5 -1 -10 0 -31
0 -47 2 -23 6 -27 23 -23 15 4 19 1 17 -11 -2 -9 -13 -19 -26 -22 -13 -3 -24
-10 -25 -15 -1 -6 -5 -9 -9 -7 -5 1 -8 -20 -8 -48 0 -36 -5 -52 -17 -59 -15
-9 -14 -10 10 -11 15 0 27 -4 27 -10 0 -9 -14 -14 -32 -11 -5 0 -8 -3 -8 -9 0
-13 32 -28 49 -22 10 3 12 0 8 -12 -4 -11 3 -23 23 -37 24 -18 27 -25 19 -41
-9 -16 -7 -20 10 -25 11 -3 24 -18 30 -34 9 -26 8 -29 -12 -30 -20 -1 -20 -2
3 -8 l25 -7 -25 -9 -25 -9 25 -7 c22 -6 20 -7 -15 -10 -115 -7 203 -17 593
-18 l442 -1 0 1318 0 1317 -166 23 c-92 13 -217 33 -278 44 -61 11 -139 24
-174 30 -52 9 -65 15 -76 37 -16 30 -61 73 -93 90 -45 23 -122 13 -201 -26
l-74 -37 -82 11 c-136 19 -304 51 -326 63 -20 11 -21 17 -15 83 7 67 10 74 49
109 48 43 74 46 201 22 44 -8 103 -17 130 -20 28 -3 86 -12 130 -20 90 -17
190 -31 266 -38 80 -8 378 -58 459 -77 45 -10 128 -24 208 -33 l42 -6 0 2070
0 2070 -3680 0 -3680 0 0 -3515z m3385 2633 c25 -16 44 -19 116 -16 l87 4 -42
-26 c-51 -34 -93 -76 -113 -114 -13 -24 -15 -51 -10 -131 4 -55 9 -116 13
-135 4 -23 -11 -1 -45 67 -27 57 -60 116 -72 133 -28 37 -95 60 -180 61 l-64
1 72 34 c44 21 80 46 94 65 20 29 21 38 15 138 -3 58 -9 120 -12 136 -3 17 20
-21 52 -84 41 -80 67 -119 89 -133z m-526 63 c13 -13 34 -21 54 -21 27 -1 30
-3 16 -13 -39 -30 -52 -65 -45 -125 6 -57 6 -57 -9 -24 -28 62 -54 91 -90 98
l-35 6 31 29 c31 29 31 31 25 92 l-6 62 19 -42 c11 -23 29 -51 40 -62z m290
-450 c11 -6 32 -11 48 -11 27 0 27 0 7 -15 -33 -22 -47 -69 -41 -128 4 -34 3
-45 -3 -30 -5 12 -20 40 -34 62 -22 34 -33 42 -67 47 l-41 7 25 15 c36 22 45
49 40 112 l-4 55 24 -52 c14 -28 34 -56 46 -62z m1841 -90 c41 -22 72 -70 80
-124 7 -57 27 -65 88 -39 63 27 102 28 151 2 68 -34 91 -122 50 -190 -32 -54
-69 -77 -69 -43 0 9 -3 13 -6 10 -4 -4 -28 4 -53 17 -25 13 -59 29 -76 37 -16
8 -32 16 -35 19 -9 9 -97 50 -108 50 -6 0 -17 6 -24 13 -7 7 -34 21 -60 31
-27 10 -48 22 -48 27 0 5 -9 9 -21 9 -11 0 -18 4 -15 9 5 8 -21 21 -49 25 -18
2 -17 43 2 82 36 76 120 104 193 65z m1906 -508 c-58 -66 -67 -78 -73 -101 -3
-14 1 -39 10 -58 18 -37 14 -40 -23 -19 -39 22 -68 18 -137 -20 l-63 -35 40
51 c45 58 55 85 47 135 -6 37 -2 41 27 19 31 -23 66 -18 126 19 68 42 77 44
46 9z m-5321 -92 c16 -10 40 -32 52 -51 25 -35 31 -66 11 -54 -6 4 -8 3 -5 -3
11 -17 -63 -97 -235 -253 -45 -41 -102 -96 -128 -121 -25 -25 -56 -50 -69 -54
-12 -4 -20 -9 -17 -12 11 -11 -16 -33 -39 -33 -31 0 -84 46 -101 87 -32 76 -9
157 59 207 24 18 43 21 125 21 l97 0 5 95 c6 102 19 134 68 166 53 35 120 37
177 5z m151 -98 c-4 -4 -11 -1 -16 7 -16 25 -11 35 7 17 9 -9 13 -20 9 -24z
m1988 -29 c9 -23 7 -36 -3 -30 -12 8 -21 46 -11 46 4 0 11 -7 14 -16z m-2582
-42 c3 -10 0 -26 -7 -36 -11 -15 -13 -15 -19 0 -10 27 -7 54 8 54 7 0 16 -8
18 -18z m2553 -12 c3 -6 -1 -7 -9 -4 -18 7 -21 14 -7 14 6 0 13 -4 16 -10z
m77 -55 c4 -5 5 -11 3 -13 -6 -7 -43 17 -48 33 -5 12 -3 13 16 2 12 -6 25 -16
29 -22z m38 -106 c0 -10 -4 -21 -10 -24 -6 -3 -7 1 -4 9 4 9 -1 18 -10 22 -9
3 -16 15 -16 27 0 19 1 20 20 2 11 -10 20 -26 20 -36z m-2855 11 c8 -16 15
-37 15 -47 0 -15 2 -16 10 -3 7 12 10 8 10 -15 0 -24 -2 -27 -11 -15 -8 11 -9
7 -5 -17 4 -26 1 -33 -14 -38 -15 -5 -19 -14 -17 -38 1 -18 8 -32 14 -32 16 0
28 -14 29 -33 3 -50 5 -54 19 -48 20 7 19 -8 -1 -25 -14 -11 -18 -11 -29 5
-12 15 -13 12 -13 -28 1 -35 5 -46 17 -47 12 0 11 -3 -4 -9 -30 -13 -38 -12
-32 4 3 8 1 16 -5 18 -7 3 -13 48 -15 126 -3 101 -1 122 11 122 10 0 15 15 18
50 2 35 -1 50 -9 50 -7 0 -10 -7 -7 -15 4 -8 3 -23 -1 -32 -11 -31 -24 8 -18
55 7 50 17 53 38 12z m6274 3 c-13 -15 -29 -32 -35 -38 -28 -26 -133 -163
-148 -192 -33 -65 -11 -134 81 -262 14 -20 6 -17 -42 16 -135 90 -205 97 -329
29 -46 -25 -107 -62 -136 -81 -55 -37 -79 -46 -45 -17 39 32 168 197 186 237
10 22 19 56 19 76 0 42 -24 129 -52 183 l-20 40 57 -52 c69 -61 110 -82 159
-82 42 0 135 45 246 119 41 27 77 50 79 50 3 1 -6 -11 -20 -26z m-684 -128
c-49 -60 -58 -104 -30 -141 22 -29 18 -36 -11 -18 -43 29 -102 23 -164 -15
-30 -18 -50 -27 -44 -20 6 8 25 33 43 56 34 43 44 95 27 142 l-8 24 30 -22
c17 -11 40 -21 51 -21 24 0 116 44 126 60 3 5 10 10 16 10 5 0 -11 -25 -36
-55z m-2405 -259 c0 -2 -7 -7 -16 -10 -8 -3 -12 -2 -9 4 6 10 25 14 25 6z
m-3161 -122 c2 -10 0 -16 -4 -12 -5 4 -14 3 -21 -3 -18 -14 -29 8 -13 27 15
19 33 13 38 -12z m-22 -71 c-9 -9 -20 -13 -24 -9 -4 4 -1 11 7 16 25 16 35 11
17 -7z m5067 -8 c11 -8 16 -15 10 -15 -5 0 -18 7 -28 15 -11 8 -16 15 -10 15
5 0 18 -7 28 -15z m113 -21 c-3 -3 -12 -4 -19 -1 -8 3 -5 6 6 6 11 1 17 -2 13
-5z m-1517 -14 c0 -5 -5 -10 -11 -10 -5 0 -7 5 -4 10 3 6 8 10 11 10 2 0 4 -4
4 -10z m1270 0 c0 -5 -9 -10 -20 -10 -11 0 -20 5 -20 10 0 6 9 10 20 10 11 0
20 -4 20 -10z m345 -10 c3 -6 -4 -10 -17 -10 -18 0 -20 2 -8 10 19 12 18 12
25 0z m-435 -27 c-1 -19 -30 -45 -45 -40 -21 9 -19 20 8 33 28 14 37 16 37 7z
m-4829 -32 c-8 -15 -7 -20 5 -25 12 -5 14 -10 5 -20 -6 -7 -9 -15 -6 -17 2 -3
-8 -4 -23 -3 -30 1 -43 30 -18 40 9 3 16 15 16 25 0 10 7 19 15 19 12 0 13 -4
6 -19z m1980 -29 c7 -19 5 -22 -18 -22 -20 0 -24 3 -16 11 6 6 9 18 6 27 -4 9
-1 13 7 10 7 -2 17 -14 21 -26z m2727 -1 c11 -7 11 -9 -2 -14 -9 -4 -16 -13
-16 -22 0 -18 -20 -21 -20 -2 -1 8 -4 7 -13 -3 -7 -8 -23 -21 -36 -28 -20 -12
-25 -11 -43 8 -11 12 -18 22 -17 23 33 20 62 28 83 23 19 -5 28 -2 32 9 7 17
13 18 32 6z m-2811 -27 c-3 -3 -12 -4 -19 -1 -8 3 -5 6 6 6 11 1 17 -2 13 -5z
m66 -20 c19 11 27 12 27 3 0 -7 4 -6 10 3 6 9 10 10 10 3 0 -6 -7 -19 -16 -28
-13 -12 -14 -19 -4 -30 10 -12 9 -15 -5 -15 -10 0 -15 -3 -12 -7 4 -3 2 -12
-4 -19 -7 -9 -5 -14 10 -19 12 -3 21 -14 21 -24 0 -27 -28 -78 -56 -100 -32
-25 -31 -43 4 -40 15 1 35 -2 46 -6 11 -5 26 -3 37 3 23 15 33 -2 43 -70 4
-28 14 -53 25 -60 10 -7 21 -23 25 -35 4 -13 12 -23 17 -23 6 0 7 -5 4 -10 -4
-6 -1 -18 6 -26 9 -11 8 -18 -5 -33 -17 -18 -16 -20 1 -30 16 -9 16 -12 3 -20
-13 -9 -12 -12 5 -25 11 -9 23 -16 28 -16 4 0 7 -5 7 -10 0 -6 -16 -8 -41 -4
-30 5 -43 3 -50 -7 -4 -8 -12 -14 -16 -14 -32 -2 -62 -18 -67 -37 -7 -22 -7
-22 -17 -3 -9 19 -9 19 -5 -3 2 -12 -1 -38 -7 -58 -9 -30 -15 -35 -34 -31 -13
2 -26 0 -29 -4 -3 -5 4 -9 15 -9 31 0 25 -27 -6 -32 -36 -5 -63 1 -63 14 0 5
8 12 19 15 30 8 15 44 -15 38 -13 -3 -35 -7 -49 -10 -20 -4 -26 -1 -31 19 -3
14 -15 27 -29 30 -24 6 -38 42 -44 113 -1 6 -10 15 -21 18 -27 8 -25 23 5 46
14 12 22 26 18 34 -8 21 -24 18 -30 -5 -3 -13 -13 -20 -27 -19 -17 1 -17 2 -3
6 9 2 17 12 17 22 0 9 9 23 19 30 11 8 17 20 14 28 -3 7 1 13 10 13 19 0 25
20 25 88 1 34 -3 52 -11 52 -7 0 -4 7 6 14 9 7 17 25 17 40 0 16 5 26 15 26 9
0 15 10 15 26 0 19 -4 25 -15 20 -8 -3 -15 -1 -15 4 0 6 -5 10 -11 10 -8 0 -7
-5 1 -15 11 -13 10 -18 -8 -31 -12 -8 -22 -24 -22 -34 0 -10 -4 -21 -9 -24
-14 -9 -71 5 -71 17 0 14 32 36 53 37 21 0 23 28 2 36 -24 10 -17 24 13 25 23
0 24 2 8 8 -15 6 -16 10 -7 15 7 5 18 3 24 -3 6 -6 20 -11 30 -11 16 0 17 3 7
15 -6 8 -16 30 -20 50 -8 34 -7 35 20 35 16 0 32 5 36 11 4 8 26 10 63 6 51
-5 54 -5 36 9 -17 12 -18 16 -6 24 10 6 18 4 25 -6 10 -12 15 -12 39 0z m2585
-41 c-7 -9 -6 -13 3 -14 11 0 11 -2 1 -6 -7 -3 -19 3 -27 13 -12 16 -11 22 3
37 16 18 17 18 23 0 4 -10 2 -24 -3 -30z m-75 -1 c-3 -19 1 -22 25 -16 26 5
26 5 8 -10 -10 -8 -23 -13 -27 -10 -5 3 -6 -3 -2 -12 5 -15 2 -16 -27 -11 -18
4 -43 7 -56 7 -35 0 -30 26 7 34 19 3 28 10 23 17 -8 13 15 30 36 26 9 -2 14
-12 13 -25z m-4474 -74 c0 -38 -1 -40 -10 -19 -8 22 -4 61 7 61 2 0 4 -19 3
-42z m4321 28 c0 -8 12 -17 26 -20 14 -4 24 -12 21 -19 -4 -14 -47 -22 -47 -9
0 5 -8 12 -18 14 -25 7 -26 48 -1 48 10 0 19 -6 19 -14z m210 -21 c0 -8 -6
-15 -14 -15 -8 0 -16 -6 -19 -12 -2 -7 -8 -10 -11 -6 -8 6 23 46 37 47 4 1 7
-6 7 -14z m-80 -67 c0 -5 -4 -8 -10 -8 -5 0 -10 10 -10 23 0 18 2 19 10 7 5
-8 10 -18 10 -22z m800 -8 c0 -5 -4 -10 -10 -10 -5 0 -10 5 -10 10 0 6 5 10
10 10 6 0 10 -4 10 -10z m-3610 -10 c0 -5 -4 -10 -10 -10 -5 0 -10 5 -10 10 0
6 5 10 10 10 6 0 10 -4 10 -10z m835 -10 c0 -8 7 -18 15 -22 13 -5 12 -7 -2
-7 -18 -1 -48 24 -48 40 0 6 8 9 18 7 9 -2 17 -10 17 -18z m2065 16 c0 -3 -4
-8 -10 -11 -5 -3 -10 -1 -10 4 0 6 5 11 10 11 6 0 10 -2 10 -4z m-2510 -15 c0
-12 -26 -32 -33 -25 -9 10 4 34 19 34 8 0 14 -4 14 -9z m-2006 -17 c14 -5 14
-9 4 -22 -11 -13 -10 -14 13 -9 33 8 40 1 27 -29 -9 -19 -14 -22 -26 -12 -11
10 -16 9 -24 -5 -5 -10 -13 -15 -19 -12 -5 4 -9 -4 -9 -16 0 -39 -14 -10 -18
37 -3 40 -1 46 18 51 16 4 18 8 8 14 -16 10 2 12 26 3z m4381 -4 c-3 -5 -10
-10 -16 -10 -5 0 -9 5 -9 10 0 6 7 10 16 10 8 0 12 -4 9 -10z m865 -47 c0 -19
-3 -24 -10 -17 -6 6 -8 18 -4 27 9 24 14 21 14 -10z m-5106 -75 c-18 -67 -21
-173 -6 -219 14 -40 60 -87 180 -183 45 -36 81 -66 79 -66 -2 0 -32 12 -68 26
-85 34 -218 74 -248 74 -34 0 -184 -84 -215 -120 -13 -17 -27 -30 -30 -30 -3
0 6 24 20 54 27 59 40 139 30 180 -10 39 -68 99 -178 182 -54 41 -94 74 -88
74 6 0 43 -14 83 -31 80 -35 191 -69 222 -69 16 0 21 7 23 33 2 34 31 107 42
107 4 0 15 -9 26 -21 16 -18 16 -22 4 -29 -8 -5 -24 -15 -35 -23 -18 -14 -15
-15 29 -6 48 9 61 18 113 87 14 17 27 32 28 32 2 0 -3 -24 -11 -52z m4406 6
c0 -8 -4 -12 -10 -9 -5 3 -10 10 -10 16 0 5 5 9 10 9 6 0 10 -7 10 -16z m325
6 c3 -5 1 -10 -4 -10 -6 0 -11 5 -11 10 0 6 2 10 4 10 3 0 8 -4 11 -10z
m-2465 -10 c0 -5 -4 -10 -9 -10 -6 0 -13 5 -16 10 -3 6 1 10 9 10 9 0 16 -4
16 -10z m1728 -12 c7 -7 12 -16 12 -20 0 -11 -23 -6 -32 7 -18 24 -1 34 20 13z
m-1678 -18 c0 -5 -2 -10 -4 -10 -3 0 -8 5 -11 10 -3 6 -1 10 4 10 6 0 11 -4
11 -10z m1760 -40 c0 -13 -7 -20 -19 -20 -14 0 -18 5 -14 20 3 11 12 20 19 20
8 0 14 -9 14 -20z m-1795 -10 c3 -5 1 -10 -4 -10 -6 0 -11 5 -11 10 0 6 2 10
4 10 3 0 8 -4 11 -10z m2357 -32 c-7 -7 -12 -8 -12 -2 0 14 12 26 19 19 2 -3
-1 -11 -7 -17z m-2314 -32 c-7 -8 -15 -12 -17 -11 -5 6 10 25 20 25 5 0 4 -6
-3 -14z m-246 -88 c-6 -6 -15 -8 -19 -4 -4 4 -1 11 7 16 19 12 27 3 12 -12z
m2398 -48 c0 -5 -2 -10 -4 -10 -3 0 -8 5 -11 10 -3 6 -1 10 4 10 6 0 11 -4 11
-10z m270 -35 c0 -3 -9 -1 -20 5 -11 6 -20 17 -20 25 0 11 5 10 20 -5 11 -11
20 -22 20 -25z m-593 -97 c-3 -7 -5 -2 -5 12 0 14 2 19 5 13 2 -7 2 -19 0 -25z
m-4292 -8 c3 -5 1 -10 -4 -10 -6 0 -11 5 -11 10 0 6 2 10 4 10 3 0 8 -4 11
-10z m11 -43 c5 -14 0 -25 -17 -38 -24 -18 -24 -18 -4 -33 22 -16 21 -20 -15
-31 -23 -7 -24 -6 -11 9 11 14 12 19 3 25 -19 11 -28 81 -12 91 19 12 49 0 56
-23z m4401 27 c-3 -3 -12 -4 -19 -1 -8 3 -5 6 6 6 11 1 17 -2 13 -5z m-4862
-63 c-12 -54 18 -100 109 -165 39 -29 26 -29 -42 -1 -77 31 -110 31 -154 2
l-34 -24 10 38 c9 33 7 43 -10 66 -12 16 -39 42 -62 58 -43 32 -57 53 -21 35
11 -7 43 -18 70 -26 43 -13 52 -13 77 0 16 8 34 22 41 30 19 23 23 20 16 -13z
m5412 13 c-3 -3 -12 -4 -19 -1 -8 3 -5 6 6 6 11 1 17 -2 13 -5z m-607 -34 c0
-5 -5 -10 -11 -10 -5 0 -7 5 -4 10 3 6 8 10 11 10 2 0 4 -4 4 -10z m390 -20
c0 -5 -5 -10 -11 -10 -5 0 -7 5 -4 10 3 6 8 10 11 10 2 0 4 -4 4 -10z m-330
-50 c0 -5 -4 -10 -10 -10 -5 0 -10 5 -10 10 0 6 5 10 10 10 6 0 10 -4 10 -10z
m-2913 -6 c-3 -3 -12 -4 -19 -1 -8 3 -5 6 6 6 11 1 17 -2 13 -5z m-1342 -34
c-11 -49 11 -95 67 -140 55 -44 53 -48 -12 -25 -68 24 -112 20 -151 -15 -35
-30 -48 -26 -30 9 17 31 13 76 -9 96 -24 22 -39 12 -22 -15 7 -11 12 -23 12
-27 0 -5 -4 -1 -10 7 -27 43 -9 -45 22 -107 6 -12 8 -33 4 -47 -3 -14 -2 -34
3 -43 50 -94 68 -158 86 -308 17 -146 30 -217 44 -244 6 -11 11 -35 11 -53 0
-19 4 -38 9 -43 5 -6 11 -28 13 -50 2 -30 -1 -40 -13 -43 -16 -3 -49 55 -49
88 0 25 -43 57 -94 71 -22 6 -56 16 -75 21 l-34 11 7 121 c4 66 9 150 11 186
3 36 4 97 3 135 -2 71 -1 106 2 160 2 17 1 66 0 110 -2 52 1 80 9 83 19 6 12
24 -20 53 l-32 28 29 -2 c16 -1 35 -8 42 -14 7 -7 30 -17 51 -23 45 -12 76 -3
105 29 25 28 29 27 21 -9z m4725 15 c0 -8 -4 -15 -9 -15 -5 0 -14 7 -21 15
-10 13 -9 15 9 15 12 0 21 -6 21 -15z m-3340 -35 c0 -5 -4 -10 -10 -10 -5 0
-10 5 -10 10 0 6 5 10 10 10 6 0 10 -4 10 -10z m2840 0 c0 -5 -8 -10 -17 -10
-15 0 -16 2 -3 10 19 12 20 12 20 0z m-2880 -20 c11 -7 7 -10 -17 -10 -18 0
-36 0 -40 -1 -4 0 -9 4 -11 10 -5 14 48 14 68 1z m-70 -70 c0 -44 -4 -59 -16
-64 -35 -13 -46 23 -18 62 9 13 14 34 12 47 -4 16 -1 22 9 18 9 -3 13 -24 13
-63z m3158 49 c-2 -6 -8 -10 -13 -10 -5 0 -11 4 -13 10 -2 6 4 11 13 11 9 0
15 -5 13 -11z m-2898 -23 c0 -8 -51 -13 -56 -5 -3 5 9 9 25 9 17 0 31 -2 31
-4z m3015 -45 c3 -5 1 -12 -5 -16 -5 -3 -10 1 -10 9 0 18 6 21 15 7z m858 -42
c96 -50 114 -152 42 -236 -46 -54 -45 -75 4 -98 132 -59 142 -222 17 -270 -44
-17 -123 -14 -112 4 3 4 -4 41 -14 82 -11 41 -27 126 -36 189 -9 63 -20 122
-25 132 -5 9 -10 50 -11 91 -3 61 -6 73 -18 69 -24 -8 1 14 35 32 35 19 87 21
118 5z m-953 -565 c0 -16 -26 -19 -35 -4 -3 6 -4 14 0 20 8 13 35 1 35 -16z
m-4940 -170 c0 -8 -5 -12 -10 -9 -6 4 -8 11 -5 16 9 14 15 11 15 -7z m4880
-11 c0 -10 -5 -25 -10 -33 -7 -11 -10 -7 -10 18 0 17 5 32 10 32 6 0 10 -8 10
-17z m-4875 -123 c16 0 21 -22 17 -72 -5 -47 -25 -50 -46 -7 -13 27 -14 38 -4
73 8 24 14 34 16 24 2 -10 10 -18 17 -18z m1352 -130 c20 0 11 -23 -11 -26
-10 -1 -28 1 -40 6 -17 7 -18 9 -3 9 10 1 21 9 24 18 4 11 8 12 11 5 2 -7 10
-12 19 -12z m-1121 -46 c27 -10 61 -25 76 -35 14 -11 31 -19 36 -19 5 0 32
-18 58 -41 27 -22 65 -48 84 -58 119 -62 157 -82 170 -90 8 -6 40 -21 71 -34
74 -32 99 -58 99 -101 0 -19 -6 -36 -12 -39 -7 -2 -51 14 -97 37 l-84 40 -49
-18 c-48 -17 -49 -17 -88 5 -30 17 -41 31 -52 65 -7 24 -18 44 -26 44 -9 0
-10 -5 -4 -17 12 -24 5 -42 -29 -71 -27 -22 -39 -52 -21 -52 5 0 9 -13 9 -30
0 -39 -13 -38 -62 6 -22 19 -56 46 -75 58 -51 34 -90 73 -90 90 0 28 19 27 47
-3 27 -28 103 -51 103 -30 0 18 2 24 11 36 7 7 6 14 -1 18 -5 3 -10 14 -10 24
0 26 -54 61 -96 61 -29 0 -37 -4 -42 -22 -6 -23 -6 -23 -13 2 -12 42 -10 140
2 140 8 0 8 4 0 13 -8 10 -7 17 1 25 16 16 25 15 84 -4z m-66 -208 c0 -3 -4
-8 -10 -11 -5 -3 -10 -1 -10 4 0 6 5 11 10 11 6 0 10 -2 10 -4z m4658 -65 c3
-8 -1 -12 -9 -9 -7 2 -15 10 -17 17 -3 8 1 12 9 9 7 -2 15 -10 17 -17z m52
-25 c0 -3 -4 -8 -10 -11 -5 -3 -10 -1 -10 4 0 6 5 11 10 11 6 0 10 -2 10 -4z
m55 -46 c3 -5 -1 -10 -10 -10 -9 0 -13 5 -10 10 3 6 8 10 10 10 2 0 7 -4 10
-10z m-45 -50 c0 -5 8 -10 18 -10 19 0 42 -18 42 -32 0 -14 -28 -9 -44 7 -8 9
-18 16 -21 15 -20 -1 -25 2 -25 15 0 8 7 15 15 15 8 0 15 -4 15 -10z m-90 -80
c0 -5 -7 -10 -15 -10 -8 0 -15 5 -15 10 0 6 7 10 15 10 8 0 15 -4 15 -10z
m330 -28 c0 -5 11 -14 25 -20 17 -8 23 -17 19 -29 -5 -14 -4 -15 4 -4 12 17
42 7 42 -14 0 -11 -9 -14 -32 -12 -18 1 -33 8 -33 14 0 20 -14 26 -30 13 -9
-7 -19 -10 -22 -6 -4 4 -1 12 7 17 11 8 12 12 3 15 -7 3 -9 12 -6 20 6 15 23
20 23 6z m167 -74 c-3 -8 -6 -5 -6 6 -1 11 2 17 5 13 3 -3 4 -12 1 -19z m73
-198 c0 -5 -2 -10 -4 -10 -3 0 -8 5 -11 10 -3 6 -1 10 4 10 6 0 11 -4 11 -10z
m130 -182 c0 -18 -2 -20 -9 -8 -6 8 -7 18 -5 22 9 14 14 9 14 -14z m-4470 -3
c0 -8 -4 -15 -9 -15 -13 0 -22 16 -14 24 11 11 23 6 23 -9z m-50 -39 c0 -3 -4
-8 -10 -11 -5 -3 -10 -1 -10 4 0 6 5 11 10 11 6 0 10 -2 10 -4z m4620 -421 c0
-8 -4 -17 -10 -20 -6 -4 -10 5 -10 20 0 15 4 24 10 20 6 -3 10 -12 10 -20z"/>
<path d="M930 4540 c0 -5 5 -10 10 -10 6 0 10 5 10 10 0 6 -4 10 -10 10 -5 0
-10 -4 -10 -10z"/>
<path d="M2789 3892 c-11 -19 -13 -36 -7 -57 5 -17 6 -38 4 -47 -2 -10 0 -18
5 -18 5 0 9 11 9 25 0 14 6 34 13 45 10 17 9 22 -2 29 -8 5 -11 16 -6 30 9 29
3 26 -16 -7z"/>
<path d="M2830 3849 c0 -5 5 -7 10 -4 6 3 10 8 10 11 0 2 -4 4 -10 4 -5 0 -10
-5 -10 -11z"/>
<path d="M2798 3725 c-4 -19 -1 -25 13 -25 22 0 25 23 5 39 -11 9 -15 6 -18
-14z"/>
<path d="M2841 3714 c0 -11 3 -14 6 -6 3 7 2 16 -1 19 -3 4 -6 -2 -5 -13z"/>
<path d="M2727 3664 c-8 -8 1 -24 14 -24 5 0 9 7 9 15 0 15 -12 20 -23 9z"/>
<path d="M975 3560 c-3 -5 -2 -10 4 -10 5 0 13 5 16 10 3 6 2 10 -4 10 -5 0
-13 -4 -16 -10z"/>
<path d="M2391 2884 c0 -11 3 -14 6 -6 3 7 2 16 -1 19 -3 4 -6 -2 -5 -13z"/>
<path d="M3911 4354 c0 -11 3 -14 6 -6 3 7 2 16 -1 19 -3 4 -6 -2 -5 -13z"/>
<path d="M3770 4350 c0 -5 -7 -7 -15 -4 -20 8 -19 -10 0 -26 18 -15 20 -13 29
18 5 13 3 22 -3 22 -6 0 -11 -4 -11 -10z"/>
<path d="M4292 4281 c-10 -6 -6 -10 15 -14 33 -6 44 0 23 13 -18 12 -22 12
-38 1z"/>
<path d="M4320 4180 c0 -5 4 -10 9 -10 6 0 13 5 16 10 3 6 -1 10 -9 10 -9 0
-16 -4 -16 -10z"/>
<path d="M5090 3765 c0 -8 9 -15 20 -15 24 0 27 15 4 24 -22 9 -24 8 -24 -9z"/>
<path d="M3536 3681 c-4 -7 -5 -15 -2 -18 9 -9 19 4 14 18 -4 11 -6 11 -12 0z"/>
<path d="M4095 3680 c-11 -5 -37 -11 -57 -15 -21 -3 -38 -10 -38 -14 0 -5 -15
-9 -32 -8 -70 0 -86 -4 -113 -29 -15 -14 -34 -23 -41 -20 -18 7 -45 -4 -38
-15 3 -5 13 -9 23 -9 15 0 17 -9 15 -60 -1 -45 2 -60 12 -60 8 0 14 -6 14 -12
0 -7 7 -4 16 7 14 19 17 18 68 -38 29 -31 57 -57 61 -57 5 0 17 -7 27 -17 21
-19 113 -52 146 -53 13 0 32 -5 43 -10 10 -6 72 -12 136 -13 104 -3 121 0 148
17 40 27 107 105 99 117 -3 5 -9 7 -13 5 -4 -3 -8 8 -8 24 0 25 4 30 24 30 38
0 22 50 -16 50 -9 0 -33 13 -53 29 -28 21 -34 31 -26 39 8 8 6 13 -8 18 -26
10 -36 27 -21 36 7 5 -1 8 -19 8 -19 0 -34 6 -38 15 -3 8 -16 15 -30 15 -14 0
-31 6 -38 13 -16 15 -213 21 -243 7z"/>
<path d="M4515 3600 c3 -5 8 -10 11 -10 2 0 4 5 4 10 0 6 -5 10 -11 10 -5 0
-7 -4 -4 -10z"/>
<path d="M4520 3560 c0 -5 9 -10 20 -10 11 0 20 5 20 10 0 6 -9 10 -20 10 -11
0 -20 -4 -20 -10z"/>
<path d="M4750 3529 c0 -5 5 -7 10 -4 6 3 10 8 10 11 0 2 -4 4 -10 4 -5 0 -10
-5 -10 -11z"/>
<path d="M5092 3510 c0 -14 2 -19 5 -12 2 6 2 18 0 25 -3 6 -5 1 -5 -13z"/>
<path d="M4630 3426 c0 -9 -8 -16 -17 -16 -11 0 -14 -3 -7 -10 10 -10 54 -2
54 10 0 4 -7 13 -15 20 -12 10 -15 10 -15 -4z"/>
<path d="M5049 3334 c-12 -14 -11 -16 5 -13 11 2 21 10 24 17 5 17 -13 15 -29
-4z"/>
<path d="M5123 3220 c1 -11 7 -20 14 -20 21 0 23 15 3 28 -16 10 -18 8 -17 -8z"/>
<path d="M5180 2975 c0 -8 2 -15 4 -15 2 0 6 7 10 15 3 8 1 15 -4 15 -6 0 -10
-7 -10 -15z"/>
<path d="M2550 2900 c-14 -9 -7 -15 14 -11 4 1 15 -4 22 -10 11 -9 18 -9 26
-1 7 7 10 14 7 16 -11 11 -56 15 -69 6z"/>
<path d="M2677 2886 c-4 -10 -1 -13 9 -9 15 6 19 23 5 23 -5 0 -11 -7 -14 -14z"/>
<path d="M3505 2880 c-4 -6 3 -10 14 -10 25 0 27 6 6 13 -8 4 -17 2 -20 -3z"/>
<path d="M2640 2870 c0 -5 5 -10 10 -10 6 0 10 5 10 10 0 6 -4 10 -10 10 -5 0
-10 -4 -10 -10z"/>
<path d="M2491 2826 c-10 -12 -8 -13 8 -9 12 3 18 9 15 14 -7 12 -10 11 -23
-5z"/>
<path d="M2535 2790 c-10 -16 4 -30 31 -30 13 0 24 -4 24 -10 0 -5 7 -10 16
-10 21 0 14 42 -7 46 -9 1 -26 5 -37 8 -11 4 -23 2 -27 -4z"/>
<path d="M3500 2790 c0 -5 7 -10 16 -10 8 0 12 5 9 10 -3 6 -10 10 -16 10 -5
0 -9 -4 -9 -10z"/>
<path d="M2390 2725 c0 -8 4 -15 10 -15 5 0 7 7 4 15 -4 8 -8 15 -10 15 -2 0
-4 -7 -4 -15z"/>
<path d="M5375 2720 c-3 -5 1 -10 10 -10 9 0 13 5 10 10 -3 6 -8 10 -10 10 -2
0 -7 -4 -10 -10z"/>
<path d="M3635 2691 c-3 -5 -1 -12 5 -16 5 -3 10 1 10 9 0 18 -6 21 -15 7z"/>
<path d="M5400 2661 c0 -6 5 -13 10 -16 6 -3 10 1 10 9 0 9 -4 16 -10 16 -5 0
-10 -4 -10 -9z"/>
<path d="M2801 2614 c0 -11 3 -14 6 -6 3 7 2 16 -1 19 -3 4 -6 -2 -5 -13z"/>
<path d="M5526 2479 c-23 -23 -28 -43 -16 -73 10 -23 9 -25 14 39 1 13 7 19
19 17 11 -2 17 4 17 18 0 25 -9 25 -34 -1z"/>
<path d="M5456 2451 c-4 -5 -2 -12 3 -15 5 -4 12 -2 15 3 4 5 2 12 -3 15 -5 4
-12 2 -15 -3z"/>
<path d="M2545 2200 c3 -5 8 -10 11 -10 2 0 4 5 4 10 0 6 -5 10 -11 10 -5 0
-7 -4 -4 -10z"/>
<path d="M2630 2089 c0 -5 5 -7 10 -4 6 3 10 8 10 11 0 2 -4 4 -10 4 -5 0 -10
-5 -10 -11z"/>
<path d="M2567 2063 c-13 -12 -7 -23 13 -23 11 0 20 7 20 15 0 15 -21 21 -33
8z"/>
<path d="M2631 2013 c-18 -20 -4 -31 15 -11 9 9 12 18 7 21 -4 3 -14 -2 -22
-10z"/>
<path d="M2345 2010 c-3 -5 1 -10 9 -10 9 0 16 5 16 10 0 6 -4 10 -9 10 -6 0
-13 -4 -16 -10z"/>
<path d="M2177 1986 c-3 -8 -3 -16 0 -19 9 -10 33 5 33 19 0 18 -26 18 -33 0z"/>
<path d="M2434 1975 c-4 -9 -14 -15 -23 -13 -9 1 -26 -5 -39 -13 -22 -16 -21
-16 29 -22 28 -4 57 -12 65 -18 9 -8 14 -8 14 -1 0 6 -4 14 -10 17 -5 3 -10
17 -10 30 0 29 -18 43 -26 20z"/>
<path d="M2540 1970 c-20 -12 -9 -21 18 -13 12 3 19 9 16 14 -7 11 -15 11 -34
-1z"/>
<path d="M2550 1925 c7 -9 15 -13 17 -11 7 7 -7 26 -19 26 -6 0 -6 -6 2 -15z"/>
<path d="M2520 1875 c0 -8 4 -15 10 -15 5 0 7 7 4 15 -4 8 -8 15 -10 15 -2 0
-4 -7 -4 -15z"/>
<path d="M2560 1861 c0 -25 6 -27 13 -6 4 8 2 17 -3 20 -6 4 -10 -3 -10 -14z"/>
<path d="M3320 1835 c0 -8 6 -15 14 -15 22 0 28 17 10 24 -22 9 -24 8 -24 -9z"/>
<path d="M3143 1692 c-26 -4 -31 -22 -7 -22 10 0 14 -6 10 -15 -4 -10 1 -15
14 -15 11 0 20 4 20 9 0 5 3 16 6 24 6 17 -11 24 -43 19z"/>
<path d="M2960 1580 c0 -5 5 -10 11 -10 5 0 7 5 4 10 -3 6 -8 10 -11 10 -2 0
-4 -4 -4 -10z"/>
<path d="M5658 1289 c-10 -5 -22 -19 -28 -29 -9 -17 -7 -20 9 -20 20 0 45 33
39 50 -2 5 -11 4 -20 -1z"/>
<path d="M5335 1280 c-3 -5 -1 -10 4 -10 6 0 11 -9 11 -20 0 -12 5 -17 13 -14
23 9 42 -23 29 -50 -10 -22 -8 -25 19 -36 16 -7 29 -16 29 -21 0 -5 7 -6 15
-3 18 7 2 45 -18 40 -6 -1 -9 -1 -4 1 4 3 7 16 7 29 0 16 6 24 18 25 11 0 12
2 4 6 -7 3 -20 -1 -29 -8 -14 -12 -15 -11 -9 7 8 27 -16 48 -44 39 -14 -5 -20
-2 -20 9 0 18 -15 21 -25 6z"/>
<path d="M1768 1213 c6 -2 18 -2 25 0 6 3 1 5 -13 5 -14 0 -19 -2 -12 -5z"/>
<path d="M5311 1186 c-12 -14 -5 -26 16 -26 15 0 18 26 4 34 -5 3 -14 0 -20
-8z"/>
<path d="M5422 1078 c-17 -17 -15 -31 3 -24 8 3 15 1 15 -4 0 -16 27 -11 34 6
11 28 7 35 -13 24 -13 -7 -20 -7 -23 0 -2 7 -8 6 -16 -2z"/>
<path d="M5785 1050 c3 -5 12 -7 20 -3 21 7 19 13 -6 13 -11 0 -18 -4 -14 -10z"/>
<path d="M5505 960 c-3 -5 -1 -18 4 -27 9 -16 10 -14 11 10 0 28 -5 34 -15 17z"/>
<path d="M5388 903 c7 -3 16 -2 19 1 4 3 -2 6 -13 5 -11 0 -14 -3 -6 -6z"/>
<path d="M5490 897 c14 -6 28 -15 31 -20 4 -5 10 -4 13 2 4 6 -4 15 -19 21
-36 14 -56 11 -25 -3z"/>
<path d="M5417 863 c-12 -11 -7 -33 7 -33 7 0 19 6 25 14 9 11 8 15 -5 20 -19
7 -19 7 -27 -1z"/>
<path d="M5485 850 c3 -5 8 -10 11 -10 2 0 4 5 4 10 0 6 -5 10 -11 10 -5 0 -7
-4 -4 -10z"/>
<path d="M5547 825 c-7 -16 8 -29 23 -20 15 9 12 35 -4 35 -8 0 -16 -7 -19
-15z"/>
<path d="M1763 806 c-4 -8 -19 -16 -33 -19 -23 -4 -22 -4 5 -6 20 -1 34 6 43
19 7 11 8 20 3 20 -6 0 -14 -6 -18 -14z"/>
<path d="M1688 543 c7 -3 16 -2 19 1 4 3 -2 6 -13 5 -11 0 -14 -3 -6 -6z"/>
<path d="M1670 520 c0 -6 7 -10 15 -10 8 0 15 2 15 4 0 2 -7 6 -15 10 -8 3
-15 1 -15 -4z"/>
<path d="M6240 223 c0 -7 -10 -15 -22 -19 -20 -6 -20 -7 -4 -16 24 -14 57 15
38 34 -8 8 -12 9 -12 1z"/>
<path d="M6270 190 c0 -5 5 -10 11 -10 5 0 7 5 4 10 -3 6 -8 10 -11 10 -2 0
-4 -4 -4 -10z"/>
</g>
</svg>
