<?xml version="1.0" encoding="UTF-8"?>
<svg version="1.1" xmlns="http://www.w3.org/2000/svg" width="600" height="600">
<path d="M0 0 C198 0 396 0 600 0 C600 198 600 396 600 600 C402 600 204 600 0 600 C0 402 0 204 0 0 Z " fill="#A8A2A1" transform="translate(0,0)"/>
<path d="M0 0 C1.60781893 0.7631861 3.21113138 1.53587058 4.8125 2.3125 C5.70582031 2.74175781 6.59914063 3.17101562 7.51953125 3.61328125 C9.83031351 4.9051359 11.16124078 6.15140784 13 8 C19.41478137 11.51930207 25.72685728 13.04076958 33 12 C35.54214061 11.22350958 37.60694913 10.21998672 40 9 C41.6642135 8.32723284 43.32986582 7.65793165 45 7 C45 6.34 45 5.68 45 5 C47.3260857 4.61936779 49.66055264 4.28730055 52 4 C53.6680907 5.6680907 53.17145582 7.64959973 53.1875 9.9375 C53.1512006 15.48404804 52.30641458 20.62270425 51 26 C52.98 26.495 52.98 26.495 55 27 C56.21298921 31.76462162 56.18370055 36.43020873 56.1875 41.3125 C56.19974609 42.12912109 56.21199219 42.94574219 56.22460938 43.78710938 C56.23750063 49.17995006 55.74343345 53.87395813 54 59 C52.515 59.495 52.515 59.495 51 60 C50.94552953 61.41623216 50.90699492 62.83308191 50.875 64.25 C50.85179687 65.03890625 50.82859375 65.8278125 50.8046875 66.640625 C51.01875114 69.22651378 51.79133294 70.73374926 53 73 C53.125 75.75 53.125 75.75 53 78 C52.01 78 51.02 78 50 78 C49.34 77.34 48.68 76.68 48 76 C47.34 75.67 46.68 75.34 46 75 C46 75.66 46 76.32 46 77 C45.01 77.495 45.01 77.495 44 78 C44.66 78.33 45.32 78.66 46 79 C46 79.66 46 80.32 46 81 C45.34 81 44.68 81 44 81 C43.87882812 81.98742187 43.75765625 82.97484375 43.6328125 83.9921875 C43.46523438 85.27351563 43.29765625 86.55484375 43.125 87.875 C42.96257812 89.15117187 42.80015625 90.42734375 42.6328125 91.7421875 C42 95 42 95 40 97 C40.66 97.66 41.32 98.32 42 99 C41.69331167 101.83686709 40.9897059 104.02275538 39.8125 106.625 C39.544375 107.40875 39.27625 108.1925 39 109 C40.76288909 111.89908089 40.76288909 111.89908089 42.625 113.5 C44 115 44 115 44 118 C44.66 118 45.32 118 46 118 C46.495 116.515 46.495 116.515 47 115 C49.20891161 120.27684441 49.20891161 120.27684441 48.1875 123.8125 C47 126 47 126 46 127 C46.66 127.66 47.32 128.32 48 129 C47.34 129.99 46.68 130.98 46 132 C46.84164327 135.02496878 46.84164327 135.02496878 48 138 C48 138.99 48 139.98 48 141 C48.66 141 49.32 141 50 141 C49.67 142.65 49.34 144.3 49 146 C49.66 146.33 50.32 146.66 51 147 C51.5625 149.1875 51.5625 149.1875 52 152 C52.185625 153.093125 52.37125 154.18625 52.5625 155.3125 C52.7790625 156.6428125 52.7790625 156.6428125 53 158 C53.99 158.33 54.98 158.66 56 159 C56.33 158.34 56.66 157.68 57 157 C57 159.64779693 56.82804069 161.51587793 56 164 C55.34 164.33 54.68 164.66 54 165 C53.34227572 168.02934491 53.34227572 168.02934491 53 171 C54.32 171.33 55.64 171.66 57 172 C57 172.99 57 173.98 57 175 C58.32 175.33 59.64 175.66 61 176 C61 176.99 61 177.98 61 179 C60.01 179 59.02 179 58 179 C58.33 179.99 58.66 180.98 59 182 C58.34 182 57.68 182 57 182 C56.67 181.01 56.34 180.02 56 179 C55.16855469 178.98582031 54.33710938 178.97164062 53.48046875 178.95703125 C52.39378906 178.90933594 51.30710937 178.86164063 50.1875 178.8125 C49.10855469 178.77769531 48.02960938 178.74289062 46.91796875 178.70703125 C44 178 44 178 42.11328125 175.44921875 C41.74589844 174.64097656 41.37851562 173.83273437 41 173 C40.01 173.33 39.02 173.66 38 174 C37.01 174 36.02 174 35 174 C34.34 175.65 33.68 177.3 33 179 C32.01 179 31.02 179 30 179 C30 178.01 30 177.02 30 176 C29.071875 176.350625 28.14375 176.70125 27.1875 177.0625 C24 178 24 178 21 177 C21 177.66 21 178.32 21 179 C19.68 179 18.36 179 17 179 C16.67 179.66 16.34 180.32 16 181 C15.01 180.67 14.02 180.34 13 180 C12.67 180.33 12.34 180.66 12 181 C4.20942913 182.35300844 -3.44158673 181.84300834 -11.28369141 181.33081055 C-13.49459098 181.18784976 -15.70600801 181.06088641 -17.91796875 180.93554688 C-25.10720276 180.5022888 -32.013692 179.86458896 -39 178 C-39 177.34 -39 176.68 -39 176 C-40.0725 175.9175 -41.145 175.835 -42.25 175.75 C-46.42208146 174.91558371 -47.27564714 174.08759991 -50 171 C-50.9075 170.46375 -51.815 169.9275 -52.75 169.375 C-53.4925 168.92125 -54.235 168.4675 -55 168 C-55 167.34 -55 166.68 -55 166 C-55.66 166 -56.32 166 -57 166 C-58.32229189 163.35541621 -58.09677194 161.32238699 -58.0625 158.375 C-58.05347656 157.37210938 -58.04445312 156.36921875 -58.03515625 155.3359375 C-58.01775391 154.17964844 -58.01775391 154.17964844 -58 153 C-57.34 153 -56.68 153 -56 153 C-56.30532135 149.68679669 -56.62045576 146.37460045 -56.9375 143.0625 C-57.06801758 141.64420898 -57.06801758 141.64420898 -57.20117188 140.19726562 C-57.28818359 139.29814453 -57.37519531 138.39902344 -57.46484375 137.47265625 C-57.543396 136.64000244 -57.62194824 135.80734863 -57.70288086 134.94946289 C-57.80311398 132.999388 -57.80311398 132.999388 -59 132 C-59.412374 124.84579061 -59.74574054 117.71181021 -57 111 C-56.01 110.01 -56.01 110.01 -55 109 C-54.3574765 106.93125966 -54.3574765 106.93125966 -54 105 C-53.34 105 -52.68 105 -52 105 C-51.67 104.01 -51.34 103.02 -51 102 C-50.34 102 -49.68 102 -49 102 C-49 101.01 -49 100.02 -49 99 C-48.37351562 98.67386719 -47.74703125 98.34773438 -47.1015625 98.01171875 C-46.28429687 97.57472656 -45.46703125 97.13773437 -44.625 96.6875 C-43.40683594 96.04361328 -43.40683594 96.04361328 -42.1640625 95.38671875 C-39.20868359 93.49292902 -38.16280855 91.69444882 -37.3671875 88.30078125 C-37.20476562 87.31464844 -37.04234375 86.32851563 -36.875 85.3125 C-36.70742188 84.31863281 -36.53984375 83.32476562 -36.3671875 82.30078125 C-36.24601562 81.54152344 -36.12484375 80.78226562 -36 80 C-35.34 80 -34.68 80 -34 80 C-33.74089844 79.30003906 -33.48179687 78.60007812 -33.21484375 77.87890625 C-31.88607634 74.73002656 -30.29426701 71.88336604 -28.5625 68.9375 C-27.96566406 67.91527344 -27.36882812 66.89304687 -26.75390625 65.83984375 C-25 63 -25 63 -23.33203125 60.96484375 C-21.65928711 58.4974235 -21.46337595 56.57134672 -21.125 53.625 C-20.26596855 48.41538993 -18.99524833 45.64783543 -15 42 C-12.96294372 40.68307494 -10.89027683 39.44650499 -8.80078125 38.21484375 C-5.36348499 35.8959736 -4.26744134 33.0940782 -3.3125 29.1875 C-3.209375 28.465625 -3.10625 27.74375 -3 27 C-2.34 27 -1.68 27 -1 27 C1.11251805 21.92995667 2.38379399 18.67335048 1.0625 13.25 C0.05641303 8.69897574 -0.17220909 4.64964531 0 0 Z " fill="#27282B" transform="translate(311,221)"/>
<path d="M0 0 C1.60781893 0.7631861 3.21113138 1.53587058 4.8125 2.3125 C5.70582031 2.74175781 6.59914063 3.17101562 7.51953125 3.61328125 C9.83031351 4.9051359 11.16124078 6.15140784 13 8 C19.41478137 11.51930207 25.72685728 13.04076958 33 12 C35.54214061 11.22350958 37.60694913 10.21998672 40 9 C41.6642135 8.32723284 43.32986582 7.65793165 45 7 C45 6.34 45 5.68 45 5 C47.3260857 4.61936779 49.66055264 4.28730055 52 4 C53.6680907 5.6680907 53.17145582 7.64959973 53.1875 9.9375 C53.1512006 15.48404804 52.30641458 20.62270425 51 26 C52.98 26.495 52.98 26.495 55 27 C56.21298921 31.76462162 56.18370055 36.43020873 56.1875 41.3125 C56.19974609 42.12912109 56.21199219 42.94574219 56.22460938 43.78710938 C56.23750063 49.17995006 55.74343345 53.87395813 54 59 C52.515 59.495 52.515 59.495 51 60 C50.94552953 61.41623216 50.90699492 62.83308191 50.875 64.25 C50.85179687 65.03890625 50.82859375 65.8278125 50.8046875 66.640625 C51.01875114 69.22651378 51.79133294 70.73374926 53 73 C53.125 75.75 53.125 75.75 53 78 C52.01 78 51.02 78 50 78 C49.34 77.34 48.68 76.68 48 76 C47.34 75.67 46.68 75.34 46 75 C46 75.66 46 76.32 46 77 C45.01 77.495 45.01 77.495 44 78 C44.66 78.33 45.32 78.66 46 79 C46 79.66 46 80.32 46 81 C45.34 81 44.68 81 44 81 C43.87882812 81.98742187 43.75765625 82.97484375 43.6328125 83.9921875 C43.46523438 85.27351563 43.29765625 86.55484375 43.125 87.875 C42.96257812 89.15117187 42.80015625 90.42734375 42.6328125 91.7421875 C42 95 42 95 40 97 C40.66 97.66 41.32 98.32 42 99 C41.69331167 101.83686709 40.9897059 104.02275538 39.8125 106.625 C39.544375 107.40875 39.27625 108.1925 39 109 C40.76288909 111.89908089 40.76288909 111.89908089 42.625 113.5 C44 115 44 115 44 118 C44.66 118 45.32 118 46 118 C46.495 116.515 46.495 116.515 47 115 C49.20891161 120.27684441 49.20891161 120.27684441 48.1875 123.8125 C47 126 47 126 46 127 C46.66 127.66 47.32 128.32 48 129 C47.34 129.99 46.68 130.98 46 132 C46.84164327 135.02496878 46.84164327 135.02496878 48 138 C48 138.99 48 139.98 48 141 C48.66 141 49.32 141 50 141 C49.67 142.65 49.34 144.3 49 146 C49.66 146.33 50.32 146.66 51 147 C51.5625 149.1875 51.5625 149.1875 52 152 C52.185625 153.093125 52.37125 154.18625 52.5625 155.3125 C52.7790625 156.6428125 52.7790625 156.6428125 53 158 C53.99 158.33 54.98 158.66 56 159 C56.33 158.34 56.66 157.68 57 157 C57 159.64779693 56.82804069 161.51587793 56 164 C55.34 164.33 54.68 164.66 54 165 C53.34227572 168.02934491 53.34227572 168.02934491 53 171 C54.32 171.33 55.64 171.66 57 172 C57 172.99 57 173.98 57 175 C58.32 175.33 59.64 175.66 61 176 C61 176.99 61 177.98 61 179 C60.01 179 59.02 179 58 179 C58.33 179.99 58.66 180.98 59 182 C58.34 182 57.68 182 57 182 C56.67 181.01 56.34 180.02 56 179 C55.16855469 178.98582031 54.33710938 178.97164062 53.48046875 178.95703125 C52.39378906 178.90933594 51.30710937 178.86164063 50.1875 178.8125 C49.10855469 178.77769531 48.02960938 178.74289062 46.91796875 178.70703125 C44 178 44 178 42.11328125 175.44921875 C41.74589844 174.64097656 41.37851562 173.83273437 41 173 C40.01 173.33 39.02 173.66 38 174 C37.01 174 36.02 174 35 174 C34.34 175.65 33.68 177.3 33 179 C32.01 179 31.02 179 30 179 C30 178.01 30 177.02 30 176 C29.071875 176.350625 28.14375 176.70125 27.1875 177.0625 C24 178 24 178 21 177 C21 177.66 21 178.32 21 179 C19.68 179 18.36 179 17 179 C16.67 179.66 16.34 180.32 16 181 C15.01 180.67 14.02 180.34 13 180 C12.67 180.33 12.34 180.66 12 181 C4.11018774 182.37939925 -3.66866694 181.84121389 -11.61328125 181.33081055 C-13.89006416 181.18654548 -16.16739093 181.06038792 -18.4453125 180.93554688 C-19.89850336 180.84743379 -21.35163152 180.75827886 -22.8046875 180.66796875 C-24.11421387 180.58828857 -25.42374023 180.5086084 -26.77294922 180.42651367 C-30 180 -30 180 -33 178 C-32.3702124 178.00523682 -31.7404248 178.01047363 -31.09155273 178.01586914 C-28.20687885 178.03680138 -25.32222102 178.0497115 -22.4375 178.0625 C-21.44685547 178.07087891 -20.45621094 178.07925781 -19.43554688 178.08789062 C-14.16848423 178.10538917 -9.21381845 177.81966649 -4 177 C-1.94889468 176.8667584 0.10066925 176.78715776 2.15454102 176.70874023 C9.49302296 176.42396828 16.08799692 175.70026656 23 173 C23.020625 171.906875 23.04125 170.81375 23.0625 169.6875 C23.78594672 163.66237657 27.25798522 158.6489223 31 154 C31.99 153.67 32.98 153.34 34 153 C34.73323796 150.98491642 34.73323796 150.98491642 35 149 C35.66 149 36.32 149 37 149 C37.28875 148.071875 37.5775 147.14375 37.875 146.1875 C39 143 39 143 41 140 C41.27478373 137.77514259 41.27478373 137.77514259 41.1953125 135.33203125 C41.18886719 134.43935547 41.18242187 133.54667969 41.17578125 132.62695312 C41.15902344 131.69818359 41.14226562 130.76941406 41.125 129.8125 C41.11597656 128.87212891 41.10695313 127.93175781 41.09765625 126.96289062 C41.07409056 124.64167032 41.04119116 122.32096356 41 120 C40.34 120 39.68 120 39 120 C36.92170106 114.85481703 36.70731637 110.40591012 36.734375 104.953125 C36.73246155 104.10071228 36.7305481 103.24829956 36.72857666 102.37005615 C36.72722144 100.57824405 36.73087138 98.7864219 36.73925781 96.99462891 C36.75001998 94.24489555 36.73931309 91.49580765 36.7265625 88.74609375 C36.72788317 87.00260272 36.73044366 85.2591121 36.734375 83.515625 C36.73032654 82.6916925 36.72627808 81.86776001 36.72210693 81.01885986 C36.77004532 75.22995468 36.77004532 75.22995468 39 73 C39.59210558 70.66274113 40.10261779 68.30432834 40.5625 65.9375 C41.90277778 59.09722222 41.90277778 59.09722222 43 58 C44.66617115 57.95936168 46.33388095 57.957279 48 58 C48.99 55.69 49.98 53.38 51 51 C51.66 51 52.32 51 53 51 C52.88525534 48.45749979 52.7585303 45.91652662 52.625 43.375 C52.5940625 42.66214844 52.563125 41.94929688 52.53125 41.21484375 C52.28801091 36.79600037 51.46495638 33.20584251 50 29 C49.8046875 26.4453125 49.8046875 26.4453125 49.875 24.125 C49.89304687 23.34382813 49.91109375 22.56265625 49.9296875 21.7578125 C49.95289063 21.17773438 49.97609375 20.59765625 50 20 C47.69 20 45.38 20 43 20 C43.66 18.68 44.32 17.36 45 16 C44.01 14.515 44.01 14.515 43 13 C42.34 14.65 41.68 16.3 41 18 C37.37 18.33 33.74 18.66 30 19 C30 18.67 30 18.34 30 18 C25.85906302 17.79029441 25.85906302 17.79029441 22 19 C19.98072489 18.39421747 17.97746603 17.73080266 16 17 C16.33 15.68 16.66 14.36 17 13 C15.02 13 13.04 13 11 13 C11.495 15.475 11.495 15.475 12 18 C11.01 18.33 10.02 18.66 9 19 C9 20.65 9 22.3 9 24 C8.360625 24.12375 7.72125 24.2475 7.0625 24.375 C6.381875 24.58125 5.70125 24.7875 5 25 C4.67 25.66 4.34 26.32 4 27 C3.01 27.33 2.02 27.66 1 28 C0.34 28.99 -0.32 29.98 -1 31 C-1.66 31 -2.32 31 -3 31 C-3 29.68 -3 28.36 -3 27 C-2.34 27 -1.68 27 -1 27 C1.11251805 21.92995667 2.38379399 18.67335048 1.0625 13.25 C0.05641303 8.69897574 -0.17220909 4.64964531 0 0 Z " fill="#605F63" transform="translate(311,221)"/>
<path d="M0 0 C0.99 0.99 0.99 0.99 2 2 C0.25 6.875 0.25 6.875 -2 8 C-2.65772428 11.02934491 -2.65772428 11.02934491 -3 14 C-1.68 14.33 -0.36 14.66 1 15 C1 15.99 1 16.98 1 18 C2.98 18.495 2.98 18.495 5 19 C5 19.99 5 20.98 5 22 C4.01 22 3.02 22 2 22 C2.495 23.485 2.495 23.485 3 25 C2.34 25 1.68 25 1 25 C0.505 23.515 0.505 23.515 0 22 C-0.83144531 21.98582031 -1.66289062 21.97164063 -2.51953125 21.95703125 C-4.14955078 21.88548828 -4.14955078 21.88548828 -5.8125 21.8125 C-6.89144531 21.77769531 -7.97039062 21.74289062 -9.08203125 21.70703125 C-12 21 -12 21 -13.88671875 18.44921875 C-14.43779297 17.23685547 -14.43779297 17.23685547 -15 16 C-16.485 16.495 -16.485 16.495 -18 17 C-18.99 17 -19.98 17 -21 17 C-21.66 18.65 -22.32 20.3 -23 22 C-23.99 22 -24.98 22 -26 22 C-26 21.01 -26 20.02 -26 19 C-26.928125 19.350625 -27.85625 19.70125 -28.8125 20.0625 C-32 21 -32 21 -35 20 C-35 20.66 -35 21.32 -35 22 C-36.32 22 -37.64 22 -39 22 C-39.33 22.66 -39.66 23.32 -40 24 C-40.99 23.67 -41.98 23.34 -43 23 C-43.495 23.495 -43.495 23.495 -44 24 C-51.88981226 25.37939925 -59.66866694 24.84121389 -67.61328125 24.33081055 C-69.89006416 24.18654548 -72.16739093 24.06038792 -74.4453125 23.93554688 C-75.89850336 23.84743379 -77.35163152 23.75827886 -78.8046875 23.66796875 C-80.11421387 23.58828857 -81.42374023 23.5086084 -82.77294922 23.42651367 C-86 23 -86 23 -89 21 C-88.0553186 21.00785522 -88.0553186 21.00785522 -87.09155273 21.01586914 C-84.20687885 21.03680138 -81.32222102 21.0497115 -78.4375 21.0625 C-77.44685547 21.07087891 -76.45621094 21.07925781 -75.43554688 21.08789062 C-70.16852633 21.10538903 -65.21349694 20.82189246 -60 20 C-56.41402479 19.74598444 -52.82091619 19.61265037 -49.22851562 19.48242188 C-44.80250054 19.27127984 -41.2005951 18.53315489 -37 17 C-35.7315625 17.0309375 -35.7315625 17.0309375 -34.4375 17.0625 C-31.27482862 16.98140586 -29.63786998 15.66602314 -27 14 C-26.01 14 -25.02 14 -24 14 C-24 13.01 -24 12.02 -24 11 C-23.01 10.67 -22.02 10.34 -21 10 C-20.67 9.01 -20.34 8.02 -20 7 C-19.39671875 7.05800781 -18.7934375 7.11601562 -18.171875 7.17578125 C-15.69803349 7.31543359 -13.45382158 7.36337079 -11 7 C-9.61767557 5.37373596 -8.28062485 3.7074998 -7 2 C-3.25 1.6875 -3.25 1.6875 0 2 C0 1.34 0 0.68 0 0 Z " fill="#757276" transform="translate(367,378)"/>
<path d="M0 0 C1.60781893 0.7631861 3.21113138 1.53587058 4.8125 2.3125 C5.70582031 2.74175781 6.59914063 3.17101562 7.51953125 3.61328125 C9.83031351 4.9051359 11.16124078 6.15140784 13 8 C19.41478137 11.51930207 25.72685728 13.04076958 33 12 C35.54214061 11.22350958 37.60694913 10.21998672 40 9 C41.6642135 8.32723284 43.32986582 7.65793165 45 7 C45 6.34 45 5.68 45 5 C48.465 4.505 48.465 4.505 52 4 C52 7.63 52 11.26 52 15 C51.34 15 50.68 15 50 15 C49.505 17.475 49.505 17.475 49 20 C47.02 20 45.04 20 43 20 C43.66 18.68 44.32 17.36 45 16 C44.34 15.01 43.68 14.02 43 13 C42.34 14.65 41.68 16.3 41 18 C37.37 18.33 33.74 18.66 30 19 C30 18.67 30 18.34 30 18 C25.85906302 17.79029441 25.85906302 17.79029441 22 19 C19.98072489 18.39421747 17.97746603 17.73080266 16 17 C16.33 15.68 16.66 14.36 17 13 C15.02 13 13.04 13 11 13 C11.33 14.65 11.66 16.3 12 18 C11.01 18.33 10.02 18.66 9 19 C9 20.65 9 22.3 9 24 C8.360625 24.12375 7.72125 24.2475 7.0625 24.375 C6.381875 24.58125 5.70125 24.7875 5 25 C4.67 25.66 4.34 26.32 4 27 C3.01 27.33 2.02 27.66 1 28 C0.34 28.99 -0.32 29.98 -1 31 C-1.66 31 -2.32 31 -3 31 C-3 29.68 -3 28.36 -3 27 C-2.34 27 -1.68 27 -1 27 C1.11251805 21.92995667 2.38379399 18.67335048 1.0625 13.25 C0.05641303 8.69897574 -0.17220909 4.64964531 0 0 Z " fill="#3C3C3F" transform="translate(311,221)"/>
<path d="M0 0 C0.33 0.99 0.66 1.98 1 3 C1.99 2.67 2.98 2.34 4 2 C4 4.97 4 7.94 4 11 C7.96 11 11.92 11 16 11 C13.64046906 13.35953094 12.22104383 13.49141413 9 14 C9 15.32 9 16.64 9 18 C9.66 18 10.32 18 11 18 C11.33 17.01 11.66 16.02 12 15 C14 18.75 14 18.75 14 21 C13.01 21 12.02 21 11 21 C9.29467677 22.94009522 9.29467677 22.94009522 8 25 C9.96466413 26.06775224 11.96855359 27.06553465 14 28 C14.66 27.67 15.32 27.34 16 27 C16.66 28.65 17.32 30.3 18 32 C16.1875 33.0625 16.1875 33.0625 14 34 C13.01 33.67 12.02 33.34 11 33 C10.505 31.515 10.505 31.515 10 30 C9.7525 30.78375 9.505 31.5675 9.25 32.375 C7.80505715 35.40937999 6.94434181 35.67029725 4 37 C3.67 37.99 3.34 38.98 3 40 C2.01 40 1.02 40 0 40 C0 26.8 0 13.6 0 0 Z " fill="#807D7D" transform="translate(0,501)"/>
<path d="M0 0 C0.66 0.33 1.32 0.66 2 1 C2 2.65 2 4.3 2 6 C2.66 6 3.32 6 4 6 C4 7.98 4 9.96 4 12 C4.99 12 5.98 12 7 12 C11.14163215 18.33426093 11.1947336 22.09914389 9.67578125 29.4609375 C9 32 9 32 8 34 C8.99 34.33 9.98 34.66 11 35 C11 38.63 11 42.26 11 46 C7 48 7 48 4 49 C2.33289654 50.49985609 2.33289654 50.49985609 1 52 C1.24363281 50.31970703 1.24363281 50.31970703 1.4921875 48.60546875 C2.08722676 43.83148772 2.14775722 39.11806658 2.125 34.3125 C2.12886719 33.48427734 2.13273437 32.65605469 2.13671875 31.80273438 C2.13020965 27.73780074 2.01755932 23.96525101 1 20 C0.01 19.67 -0.98 19.34 -2 19 C-1.34 12.73 -0.68 6.46 0 0 Z " fill="#838081" transform="translate(364,228)"/>
<path d="M0 0 C6.93 0 13.86 0 21 0 C20 3 20 3 18 4 C18.515625 4.391875 19.03125 4.78375 19.5625 5.1875 C20.036875 5.785625 20.51125 6.38375 21 7 C20.6875 9.6875 20.6875 9.6875 20 12 C19.34 12 18.68 12 18 12 C18.33 10.68 18.66 9.36 19 8 C18.34 8 17.68 8 17 8 C16.896875 9.051875 16.79375 10.10375 16.6875 11.1875 C16.02266585 14.87430754 15.11433704 16.96638599 13 20 C10 18 10 18 9 15 C8.01 17.475 8.01 17.475 7 20 C6.34 18.68 5.68 17.36 5 16 C4.34 16 3.68 16 3 16 C2.34 17.32 1.68 18.64 1 20 C0.67 20 0.34 20 0 20 C0 13.4 0 6.8 0 0 Z " fill="#A8A6A5" transform="translate(0,0)"/>
<path d="M0 0 C0.66 0.66 1.32 1.32 2 2 C1.71666591 3.67589101 1.37113621 5.34134187 1 7 C0.90875522 9.41530294 0.86994347 11.83297945 0.875 14.25 C0.87242187 15.49265625 0.86984375 16.7353125 0.8671875 18.015625 C0.65841892 20.88340913 0.65841892 20.88340913 2 22 C2.96073701 28.64213241 3.1098113 35.30151095 3 42 C2.34 42 1.68 42 1 42 C1.33 46.29 1.66 50.58 2 55 C2.66 55 3.32 55 4 55 C4 55.66 4 56.32 4 57 C4.7425 57.2475 5.485 57.495 6.25 57.75 C9 59 9 59 10.875 61 C13.65820337 63.61948553 16.32589625 64.1521299 20 65 C20 65.33 20 65.66 20 66 C14.06 66.495 14.06 66.495 8 67 C7.5978125 65.5459375 7.5978125 65.5459375 7.1875 64.0625 C6.795625 63.051875 6.40375 62.04125 6 61 C5.01 60.67 4.02 60.34 3 60 C3 59.01 3 58.02 3 57 C1.02 56.67 -0.96 56.34 -3 56 C-4.16188603 50.61307386 -3.92403618 48.56149645 -1 44 C-0.83300768 40.87478167 -0.83300768 40.87478167 -1 38 C-0.67 37.34 -0.34 36.68 0 36 C-1.65 35.67 -3.3 35.34 -5 35 C-5 34.01 -5 33.02 -5 32 C-4.34 32 -3.68 32 -3 32 C-2.27056552 28.68026099 -1.84487365 25.52384621 -1.71875 22.12890625 C-1.66267578 20.77249023 -1.66267578 20.77249023 -1.60546875 19.38867188 C-1.57066406 18.45603516 -1.53585938 17.52339844 -1.5 16.5625 C-1.08167229 5.3993475 -1.08167229 5.3993475 0 0 Z " fill="#92908E" transform="translate(252,332)"/>
<path d="M0 0 C1.98 0.495 1.98 0.495 4 1 C3.814375 2.093125 3.62875 3.18625 3.4375 4.3125 C2.7421932 7.93624133 2.7421932 7.93624133 4 11 C3.87890625 12.9375 3.87890625 12.9375 3.5625 15 C3.20158638 17.41218219 3 19.54384564 3 22 C3.66 22.33 4.32 22.66 5 23 C5 23.66 5 24.32 5 25 C6.32 25 7.64 25 9 25 C9 26.32 9 27.64 9 29 C8.01 28.67 7.02 28.34 6 28 C6.33 28.99 6.66 29.98 7 31 C7.66 30.67 8.32 30.34 9 30 C9.66 30.33 10.32 30.66 11 31 C11 32.65 11 34.3 11 36 C11.66 36.33 12.32 36.66 13 37 C13.33 37.66 13.66 38.32 14 39 C13.67 39.66 13.34 40.32 13 41 C15.97 40.505 15.97 40.505 19 40 C19 41.32 19 42.64 19 44 C22.3 44 25.6 44 29 44 C29 44.33 29 44.66 29 45 C25.37 45 21.74 45 18 45 C18 44.34 18 43.68 18 43 C16.9275 42.9175 15.855 42.835 14.75 42.75 C10.57791854 41.91558371 9.72435286 41.08759991 7 38 C6.0925 37.46375 5.185 36.9275 4.25 36.375 C3.5075 35.92125 2.765 35.4675 2 35 C2 34.34 2 33.68 2 33 C1.34 33 0.68 33 0 33 C-1.32229189 30.35541621 -1.09677194 28.32238699 -1.0625 25.375 C-1.05347656 24.37210937 -1.04445312 23.36921875 -1.03515625 22.3359375 C-1.02355469 21.56507813 -1.01195312 20.79421875 -1 20 C-0.34 20 0.32 20 1 20 C0.835 18.741875 0.67 17.48375 0.5 16.1875 C-0.11073012 10.7855491 -0.09133564 5.42939662 0 0 Z M3 6 C3.66 6 4.32 6 5 6 C5 6.66 5 7.32 5 8 C4.34 8 3.68 8 3 8 C3 7.34 3 6.68 3 6 Z " fill="#3F3E3F" transform="translate(254,354)"/>
<path d="M0 0 C5.49404762 10.56547619 5.49404762 10.56547619 5 16 C4.01 16 3.02 16 2 16 C1.34 15.34 0.68 14.68 0 14 C-0.66 13.67 -1.32 13.34 -2 13 C-2 13.66 -2 14.32 -2 15 C-2.99 15.495 -2.99 15.495 -4 16 C-3.34 16.33 -2.68 16.66 -2 17 C-2 17.66 -2 18.32 -2 19 C-2.66 19 -3.32 19 -4 19 C-4.10957031 19.98742187 -4.21914063 20.97484375 -4.33203125 21.9921875 C-4.49058594 23.27351563 -4.64914062 24.55484375 -4.8125 25.875 C-4.96332031 27.15117187 -5.11414063 28.42734375 -5.26953125 29.7421875 C-6 33 -6 33 -9 35 C-9 31.04 -9 27.08 -9 23 C-9.66 23 -10.32 23 -11 23 C-11.36717663 15.5340751 -11.36717663 15.5340751 -9.625 13 C-8 12 -8 12 -6 12 C-5.01 9.69 -4.02 7.38 -3 5 C-2.01 5 -1.02 5 0 5 C0 3.35 0 1.7 0 0 Z " fill="#626266" transform="translate(359,283)"/>
<path d="M0 0 C0.66 0 1.32 0 2 0 C2.99 2.64 3.98 5.28 5 8 C5.45375 7.34 5.9075 6.68 6.375 6 C6.91125 5.34 7.4475 4.68 8 4 C8.66 4 9.32 4 10 4 C10.33 5.32 10.66 6.64 11 8 C11.33 7.67 11.66 7.34 12 7 C12 5.68 12 4.36 12 3 C12.99 3.33 13.98 3.66 15 4 C15 12.375 15 12.375 14 16 C12.68 15.67 11.36 15.34 10 15 C9.34 16.98 8.68 18.96 8 21 C6.5393715 18.35261084 6 17.10551666 6 14 C6.66 14 7.32 14 8 14 C6.27773504 10.75150023 6.27773504 10.75150023 3 10 C3 11.32 3 12.64 3 14 C2.34 14 1.68 14 1 14 C1 12.68 1 11.36 1 10 C0.34 10 -0.32 10 -1 10 C-1 10.66 -1 11.32 -1 12 C-1.66 12 -2.32 12 -3 12 C-3.33 13.32 -3.66 14.64 -4 16 C-4.66 16 -5.32 16 -6 16 C-5.67 14.35 -5.34 12.7 -5 11 C-4.34 11 -3.68 11 -3 11 C-3.33 8.69 -3.66 6.38 -4 4 C-3.34 4 -2.68 4 -2 4 C-1.67 3.01 -1.34 2.02 -1 1 C-0.67 0.67 -0.34 0.34 0 0 Z " fill="#737176" transform="translate(553,544)"/>
<path d="M0 0 C0.33 2.64 0.66 5.28 1 8 C0.34 8 -0.32 8 -1 8 C-0.34 10.31 0.32 12.62 1 15 C0.278125 15.268125 -0.44375 15.53625 -1.1875 15.8125 C-3.97590126 16.98982498 -6.44095724 18.39145884 -9 20 C-9.50757862 18.58603098 -10.00574925 17.16868271 -10.5 15.75 C-10.91765625 14.56664062 -10.91765625 14.56664062 -11.34375 13.359375 C-12 11 -12 11 -12 7 C-10 5 -10 5 -7 4 C-6.67 3.01 -6.34 2.02 -6 1 C-1.125 0 -1.125 0 0 0 Z " fill="#727075" transform="translate(25,536)"/>
<path d="M0 0 C1.60781893 0.7631861 3.21113138 1.53587058 4.8125 2.3125 C5.70582031 2.74175781 6.59914063 3.17101562 7.51953125 3.61328125 C9.81026731 4.89392897 11.23060824 6.10422311 13 8 C15.09989652 9.17574711 15.09989652 9.17574711 17 10 C14.6739143 10.38063221 12.33944736 10.71269945 10 11 C9.67 10.67 9.34 10.34 9 10 C9.268125 10.886875 9.53625 11.77375 9.8125 12.6875 C10 16 10 16 7.5625 18.875 C6.716875 19.57625 5.87125 20.2775 5 21 C4.01 20.67 3.02 20.34 2 20 C1.93941406 19.30132812 1.87882812 18.60265625 1.81640625 17.8828125 C1.73261719 16.97273438 1.64882813 16.06265625 1.5625 15.125 C1.48128906 14.22007812 1.40007812 13.31515625 1.31640625 12.3828125 C1.13010715 9.98889139 1.13010715 9.98889139 0 8 C-0.13415472 5.3276379 -0.04318541 2.67749512 0 0 Z " fill="#484947" transform="translate(311,221)"/>
<path d="M0 0 C6.93 0 13.86 0 21 0 C20.67 0.99 20.34 1.98 20 3 C16.32949248 4.46820301 11.89826425 4.5452025 8 5 C7.5978125 6.1446875 7.5978125 6.1446875 7.1875 7.3125 C6 10 6 10 4.375 11.5 C2.71140927 12.97568415 2.71140927 12.97568415 3 15.5625 C3 16.366875 3 17.17125 3 18 C2.01 18.66 1.02 19.32 0 20 C0 13.4 0 6.8 0 0 Z " fill="#B8B0AF" transform="translate(0,0)"/>
<path d="M0 0 C0 0.66 0 1.32 0 2 C-0.99 2 -1.98 2 -3 2 C-4.50560497 4.85410334 -5.63216796 7.68124642 -6.625 10.75 C-6.88539063 11.54921875 -7.14578125 12.3484375 -7.4140625 13.171875 C-7.60742188 13.77515625 -7.80078125 14.3784375 -8 15 C-8.99 15 -9.98 15 -11 15 C-12.0209375 16.670625 -12.0209375 16.670625 -13.0625 18.375 C-13.44535156 19.00148438 -13.82820313 19.62796875 -14.22265625 20.2734375 C-14.47917969 20.84320313 -14.73570312 21.41296875 -15 22 C-14.67 22.66 -14.34 23.32 -14 24 C-14.28718326 25.6752357 -14.63128912 27.34080104 -15 29 C-15.34403308 31.33177975 -15.67949202 33.66487041 -16 36 C-16.66 35.67 -17.32 35.34 -18 35 C-18.37908497 19.81554103 -18.37908497 19.81554103 -16 14 C-15.34 13.34 -14.68 12.68 -14 12 C-13.3574765 9.93125966 -13.3574765 9.93125966 -13 8 C-12.34 8 -11.68 8 -11 8 C-10.67 7.01 -10.34 6.02 -10 5 C-9.34 5 -8.68 5 -8 5 C-8 4.01 -8 3.02 -8 2 C-3.71900826 -1.23966942 -3.71900826 -1.23966942 0 0 Z " fill="#484848" transform="translate(270,318)"/>
<path d="M0 0 C2.01822917 0.06510417 4.03645833 0.13020833 6.0546875 0.1953125 C5.3946875 1.8453125 4.7346875 3.4953125 4.0546875 5.1953125 C8.3446875 5.1953125 12.6346875 5.1953125 17.0546875 5.1953125 C17.3846875 3.5453125 17.7146875 1.8953125 18.0546875 0.1953125 C18.7146875 0.1953125 19.3746875 0.1953125 20.0546875 0.1953125 C19.7246875 1.8453125 19.3946875 3.4953125 19.0546875 5.1953125 C19.7146875 5.5253125 20.3746875 5.8553125 21.0546875 6.1953125 C20.7246875 7.1853125 20.3946875 8.1753125 20.0546875 9.1953125 C12.4646875 9.1953125 4.8746875 9.1953125 -2.9453125 9.1953125 C-3.2753125 6.8853125 -3.6053125 4.5753125 -3.9453125 2.1953125 C-1.9453125 0.1953125 -1.9453125 0.1953125 0 0 Z " fill="#8D8586" transform="translate(139.9453125,590.8046875)"/>
<path d="M0 0 C0 0.99 0 1.98 0 3 C0.66 3 1.32 3 2 3 C2 3.99 2 4.98 2 6 C1.41992188 5.96519531 0.83984375 5.93039062 0.2421875 5.89453125 C-5.17765937 5.70671477 -8.12583146 6.51106287 -13 9 C-18.54741488 9.44027102 -22.74812637 8.75062454 -28 7 C-28 7.66 -28 8.32 -28 9 C-28.99 9 -29.98 9 -31 9 C-31.66 7.68 -32.32 6.36 -33 5 C-31.453125 5.0309375 -31.453125 5.0309375 -29.875 5.0625 C-26.07688738 5.09910519 -26.07688738 5.09910519 -22.6875 4.4375 C-20 4 -20 4 -18 5 C-18 4.34 -18 3.68 -18 3 C-18.99 2.67 -19.98 2.34 -21 2 C-17 2 -17 2 -15.25 3.5 C-14.8375 3.995 -14.425 4.49 -14 5 C-13.67 4.01 -13.34 3.02 -13 2 C-11.68 2.33 -10.36 2.66 -9 3 C-9 2.34 -9 1.68 -9 1 C-5.94152152 0.45627049 -3.11227195 0 0 0 Z " fill="#999794" transform="translate(341,397)"/>
<path d="M0 0 C0 3.63 0 7.26 0 11 C-0.66 11 -1.32 11 -2 11 C-2.33 12.65 -2.66 14.3 -3 16 C-4.98 16 -6.96 16 -9 16 C-8.34 14.68 -7.68 13.36 -7 12 C-7.66 11.01 -8.32 10.02 -9 9 C-9.66 9.66 -10.32 10.32 -11 11 C-11 10.34 -11 9.68 -11 9 C-12.65 8.67 -14.3 8.34 -16 8 C-10.85714286 3.57142857 -10.85714286 3.57142857 -7 3 C-7 2.34 -7 1.68 -7 1 C-4 0 -4 0 0 0 Z " fill="#424143" transform="translate(363,225)"/>
<path d="M0 0 C1.65 0.33 3.3 0.66 5 1 C4.6814443 4.50411265 4.30932553 6.5840105 2.1875 9.4375 C0 11 0 11 -2.1875 10.875 C-4 10 -4 10 -5 8 C-5.99 8.66 -6.98 9.32 -8 10 C-9.32 10 -10.64 10 -12 10 C-12.33 7.03 -12.66 4.06 -13 1 C-10.03 1 -7.06 1 -4 1 C-4 2.32 -4 3.64 -4 5 C-3.34 5 -2.68 5 -2 5 C-2 4.01 -2 3.02 -2 2 C-1.34 2 -0.68 2 0 2 C0 1.34 0 0.68 0 0 Z " fill="#969291" transform="translate(453,461)"/>
<path d="M0 0 C0.99 0.33 1.98 0.66 3 1 C2.525625 2.19625 2.05125 3.3925 1.5625 4.625 C0.25637792 8.07340644 -0.40722662 11.35867782 -1 15 C-1.99 16.485 -1.99 16.485 -3 18 C-3.99 17.67 -4.98 17.34 -6 17 C-6.66 19.31 -7.32 21.62 -8 24 C-8.61875 24.144375 -9.2375 24.28875 -9.875 24.4375 C-12.03258322 24.93152225 -12.03258322 24.93152225 -14 26 C-13.70222656 25.48824219 -13.40445312 24.97648437 -13.09765625 24.44921875 C-11.68596366 21.29928547 -11.10719853 18.19605539 -10.4375 14.8125 C-9.10411311 8.10411311 -9.10411311 8.10411311 -8 7 C-6.33382885 6.95936168 -4.66611905 6.957279 -3 7 C-2.01 4.69 -1.02 2.38 0 0 Z " fill="#535357" transform="translate(362,272)"/>
<path d="M0 0 C2 1 2 1 5 3 C5 3.99 5 4.98 5 6 C5.66 6 6.32 6 7 6 C7.33 5.01 7.66 4.02 8 3 C7.67 4.98 7.34 6.96 7 9 C7.66 9 8.32 9 9 9 C9 9.66 9 10.32 9 11 C7.68 11 6.36 11 5 11 C5.061875 12.794375 5.061875 12.794375 5.125 14.625 C5.13851708 18.42329953 4.42009753 21.44975618 3 25 C2.01 25 1.02 25 0 25 C0 16.75 0 8.5 0 0 Z " fill="#B4ADAA" transform="translate(0,133)"/>
<path d="M0 0 C0.66 0.33 1.32 0.66 2 1 C3.32227764 5.34937867 3.11479353 9.81123392 3.0625 14.3125 C3.05798828 15.05306641 3.05347656 15.79363281 3.04882812 16.55664062 C3.03712175 18.37112899 3.01918898 20.18557534 3 22 C2.34 22 1.68 22 1 22 C0.34 24.64 -0.32 27.28 -1 30 C-2.98 30 -4.96 30 -7 30 C-7.27263672 31.48113281 -7.27263672 31.48113281 -7.55078125 32.9921875 C-7.80214844 34.27351563 -8.05351562 35.55484375 -8.3125 36.875 C-8.55613281 38.15117187 -8.79976563 39.42734375 -9.05078125 40.7421875 C-10 44 -10 44 -13 46 C-12.55018927 43.39409649 -12.09055778 40.79059469 -11.625 38.1875 C-11.49867188 37.44951172 -11.37234375 36.71152344 -11.2421875 35.95117188 C-10.59836518 32.39405354 -10.03003944 30.04505916 -8 27 C-7.360625 26.731875 -6.72125 26.46375 -6.0625 26.1875 C-2.89926088 24.36624111 -2.23615192 22.39941777 -1 19 C-0.76847868 15.98037088 -0.81873011 13.02116482 -1 10 C-0.34 10 0.32 10 1 10 C1.33 9.34 1.66 8.68 2 8 C1.34 8 0.68 8 0 8 C0 7.34 0 6.68 0 6 C-0.66 6 -1.32 6 -2 6 C-1.49396008 3.83125748 -1.00016187 2.00032373 0 0 Z " fill="#3C3D40" transform="translate(361,250)"/>
<path d="M0 0 C2.31 0 4.62 0 7 0 C8.25 6.625 8.25 6.625 6 10 C6 10.99 6 11.98 6 13 C5.01 13.495 5.01 13.495 4 14 C4 13.34 4 12.68 4 12 C2.68 12 1.36 12 0 12 C0 12.66 0 13.32 0 14 C-0.66 13.67 -1.32 13.34 -2 13 C-2 12.34 -2 11.68 -2 11 C-1.34 11 -0.68 11 0 11 C-0.33 9.02 -0.66 7.04 -1 5 C-1.66 5 -2.32 5 -3 5 C-3.33 5.99 -3.66 6.98 -4 8 C-5.65 8.33 -7.3 8.66 -9 9 C-9.33 7.02 -9.66 5.04 -10 3 C-7.36 3.33 -4.72 3.66 -2 4 C-1.34 2.68 -0.68 1.36 0 0 Z " fill="#979392" transform="translate(401,404)"/>
<path d="M0 0 C0 8.58 0 17.16 0 26 C-2.64 26 -5.28 26 -8 26 C-6.9214967 23.17929907 -5.7733663 20.5887018 -4.3125 17.9375 C-2.76717818 15.16713395 -2.76717818 15.16713395 -3.3125 12.625 C-3.539375 12.08875 -3.76625 11.5525 -4 11 C-5.32 10.67 -6.64 10.34 -8 10 C-8 9.01 -8 8.02 -8 7 C-6.35 6.67 -4.7 6.34 -3 6 C-3.66 5.34 -4.32 4.68 -5 4 C-2.33333333 0 -2.33333333 0 0 0 Z " fill="#989290" transform="translate(600,471)"/>
<path d="M0 0 C1.58294782 -0.05437607 3.16644256 -0.09296271 4.75 -0.125 C5.63171875 -0.14820313 6.5134375 -0.17140625 7.421875 -0.1953125 C10.1135858 0.00860498 11.69904974 0.63448279 14 2 C14 2.99 14 3.98 14 5 C15.32 5.33 16.64 5.66 18 6 C18 6.99 18 7.98 18 9 C17.01 9 16.02 9 15 9 C15.33 9.99 15.66 10.98 16 12 C15.34 12 14.68 12 14 12 C13.67 11.01 13.34 10.02 13 9 C9.04 8.67 5.08 8.34 1 8 C0.26919734 6.02253397 -0.39421747 4.01927511 -1 2 C-0.67 1.34 -0.34 0.68 0 0 Z " fill="#817F84" transform="translate(354,391)"/>
<path d="M0 0 C0.66 0 1.32 0 2 0 C2 0.66 2 1.32 2 2 C2.66 2 3.32 2 4 2 C4 2.99 4 3.98 4 5 C3.34 5 2.68 5 2 5 C2.33 5.969375 2.66 6.93875 3 7.9375 C4.20251062 12.18521739 4.7883192 16.62609994 4 21 C2.48046875 22.765625 2.48046875 22.765625 1 24 C0.01 23.67 -0.98 23.34 -2 23 C-2 19.37 -2 15.74 -2 12 C-3.32 11.67 -4.64 11.34 -6 11 C-4.66536458 9.53515625 -3.33072917 8.0703125 -1.99609375 6.60546875 C-1.66738281 6.07566406 -1.33867187 5.54585938 -1 5 C-1.33 4.01 -1.66 3.02 -2 2 C-1.34 1.34 -0.68 0.68 0 0 Z " fill="#8E898A" transform="translate(377,272)"/>
<path d="M0 0 C0.66 0.66 1.32 1.32 2 2 C0.25 6.875 0.25 6.875 -2 8 C-2.268125 8.825 -2.53625 9.65 -2.8125 10.5 C-4 13 -4 13 -6.375 13.875 C-8.86654217 13.99364487 -10.64823293 13.78392236 -13 13 C-13.33 13.66 -13.66 14.32 -14 15 C-14.66 12.69 -15.32 10.38 -16 8 C-15.071875 7.7525 -14.14375 7.505 -13.1875 7.25 C-9.9216587 6.31654296 -9.9216587 6.31654296 -8.5625 3.875 C-8.046875 3.25625 -7.53125 2.6375 -7 2 C-3.3125 1.75 -3.3125 1.75 0 2 C0 1.34 0 0.68 0 0 Z " fill="#727075" transform="translate(367,378)"/>
<path d="M0 0 C3.63 0.33 7.26 0.66 11 1 C11.33 3.64 11.66 6.28 12 9 C7.545 9.495 7.545 9.495 3 10 C3 10.99 3 11.98 3 13 C2.34 13 1.68 13 1 13 C1 12.34 1 11.68 1 11 C0.195625 10.71125 -0.60875 10.4225 -1.4375 10.125 C-4 9 -4 9 -5 7 C-3.02 6.01 -1.04 5.02 1 4 C0.67 2.68 0.34 1.36 0 0 Z " fill="#817E7D" transform="translate(501,575)"/>
<path d="M0 0 C1.32 0.66 2.64 1.32 4 2 C3.47731534 4.76276177 2.89130413 7.3260876 2 10 C0.35 10 -1.3 10 -3 10 C-3 9.34 -3 8.68 -3 8 C-4.11375 8.515625 -5.2275 9.03125 -6.375 9.5625 C-7.57125 10.036875 -8.7675 10.51125 -10 11 C-10.66 10.67 -11.32 10.34 -12 10 C-12.09765625 3.84765625 -12.09765625 3.84765625 -12 2 C-11 1 -11 1 -8.25 0.875 C-5.3659672 0.98592434 -2.80140547 1.34084577 0 2 C0 1.34 0 0.68 0 0 Z " fill="#6E6C71" transform="translate(375,358)"/>
<path d="M0 0 C0.99 0.33 1.98 0.66 3 1 C3 1.99 3 2.98 3 4 C3.99 4 4.98 4 6 4 C6 3.01 6 2.02 6 1 C6.66 1.33 7.32 1.66 8 2 C8 4.66666667 8 7.33333333 8 10 C8.33 10.33 8.66 10.66 9 11 C9.33 10.34 9.66 9.68 10 9 C11.32 9 12.64 9 14 9 C14.375 11.1875 14.375 11.1875 14 14 C12.16038352 15.99022836 10.20813852 17.38989899 8 19 C6 17.3125 6 17.3125 4 15 C4 13.33333333 4 11.66666667 4 10 C3.34 9.175 2.68 8.35 2 7.5 C0 5 0 5 -0.25 2.1875 C-0.1675 1.465625 -0.085 0.74375 0 0 Z " fill="#737176" transform="translate(72,576)"/>
<path d="M0 0 C0.33 1.32 0.66 2.64 1 4 C2.65 3.67 4.3 3.34 6 3 C6.93065133 5.60582371 7.14917407 6.64198224 6.0625 9.25 C5.711875 9.8275 5.36125 10.405 5 11 C4.34 11 3.68 11 3 11 C3 10.01 3 9.02 3 8 C2.34 8 1.68 8 1 8 C0.67 8.99 0.34 9.98 0 11 C0 10.01 0 9.02 0 8 C-0.99 8.66 -1.98 9.32 -3 10 C-2.34 10.33 -1.68 10.66 -1 11 C-1.33 11.66 -1.66 12.32 -2 13 C-4.32156597 13.40729228 -6.6568787 13.74438677 -9 14 C-8.63265306 7.63265306 -8.63265306 7.63265306 -5.5625 4.5625 C-3 3 -3 3 -1 3 C-0.67 2.01 -0.34 1.02 0 0 Z " fill="#9A9695" transform="translate(9,405)"/>
<path d="M0 0 C2.64 0 5.28 0 8 0 C7.67 0.99 7.34 1.98 7 3 C7.33 3.99 7.66 4.98 8 6 C8.375 8.5 8.375 8.5 8 11 C5.5 12.8125 5.5 12.8125 3 14 C3.33 14.99 3.66 15.98 4 17 C3.34 17.99 2.68 18.98 2 20 C2 18.68 2 17.36 2 16 C1.34 16 0.68 16 0 16 C0 10.72 0 5.44 0 0 Z " fill="#7D7B80" transform="translate(0,543)"/>
<path d="M0 0 C0.66 0.33 1.32 0.66 2 1 C2 2.65 2 4.3 2 6 C2.66 6 3.32 6 4 6 C4 7.98 4 9.96 4 12 C4.99 12 5.98 12 7 12 C7.93065133 14.60582371 8.14917407 15.64198224 7.0625 18.25 C6.711875 18.8275 6.36125 19.405 6 20 C3.36 19.67 0.72 19.34 -2 19 C-1.34 12.73 -0.68 6.46 0 0 Z " fill="#928E8B" transform="translate(364,228)"/>
<path d="M0 0 C1.875 1.5 1.875 1.5 3 3 C2.67 3.99 2.34 4.98 2 6 C-1.63 6.33 -5.26 6.66 -9 7 C-9 6.67 -9 6.34 -9 6 C-13.14093698 5.79029441 -13.14093698 5.79029441 -17 7 C-19.01927511 6.39421747 -21.02253397 5.73080266 -23 5 C-19.65133292 3.12147944 -16.35733428 2.23630791 -12.625 1.375 C-11.52414062 1.11460937 -10.42328125 0.85421875 -9.2890625 0.5859375 C-6.08584132 0.0152924 -3.24414673 -0.21565137 0 0 Z " fill="#36373A" transform="translate(350,233)"/>
<path d="M0 0 C0.66 2.31 1.32 4.62 2 7 C-1.28696233 7.79953138 -2.71023192 8.09658936 -6 7 C-6.1546875 8.3921875 -6.1546875 8.3921875 -6.3125 9.8125 C-7 13 -7 13 -8.1875 14.875 C-10.80014875 16.49664405 -12.99520702 16.20031953 -16 16 C-14.49736177 12.99472353 -12.08347159 13.02782386 -9 12 C-8.67 11.34 -8.34 10.68 -8 10 C-8.66 10 -9.32 10 -10 10 C-10 9.34 -10 8.68 -10 8 C-9.34 8 -8.68 8 -8 8 C-8.66 6.68 -9.32 5.36 -10 4 C-9.34 4 -8.68 4 -8 4 C-8 3.01 -8 2.02 -8 1 C-5.29120665 -0.35439668 -2.99066732 -0.06501451 0 0 Z " fill="#737176" transform="translate(54,584)"/>
<path d="M0 0 C5.92651057 -0.02469854 11.85299125 -0.04285931 17.77954102 -0.05493164 C19.79614789 -0.05996382 21.8127511 -0.06679014 23.8293457 -0.07543945 C26.72608339 -0.08755373 29.62277288 -0.09323943 32.51953125 -0.09765625 C33.42274612 -0.10281754 34.325961 -0.10797882 35.25654602 -0.11329651 C36.5175135 -0.11340981 36.5175135 -0.11340981 37.80395508 -0.11352539 C38.54341873 -0.115746 39.28288239 -0.11796661 40.04475403 -0.12025452 C42 0 42 0 45 1 C45 1.66 45 2.32 45 3 C37.07334139 4.26718692 29.35423663 3.84268533 21.38671875 3.33081055 C19.10993584 3.18654548 16.83260907 3.06038792 14.5546875 2.93554688 C13.10149664 2.84743379 11.64836848 2.75827886 10.1953125 2.66796875 C8.88578613 2.58828857 7.57625977 2.5086084 6.22705078 2.42651367 C3 2 3 2 0 0 Z " fill="#81807E" transform="translate(278,399)"/>
<path d="M0 0 C0.78375 0.165 1.5675 0.33 2.375 0.5 C5.09522679 1.23945377 5.09522679 1.23945377 8 0 C8 2.97 8 5.94 8 9 C7.01 9 6.02 9 5 9 C5 9.66 5 10.32 5 11 C4.34 11 3.68 11 3 11 C2.34 10.34 1.68 9.68 1 9 C-1.57061311 8.35232207 -1.57061311 8.35232207 -4 8 C-4 4.23398607 -2.60930438 2.60930438 0 0 Z " fill="#989493" transform="translate(492,336)"/>
<path d="M0 0 C1.32 0.33 2.64 0.66 4 1 C3.979375 2.11375 3.95875 3.2275 3.9375 4.375 C3.73619282 7.83215921 3.73619282 7.83215921 5 10 C4.01 10.99 3.02 11.98 2 13 C1.67 12.34 1.34 11.68 1 11 C0.38511719 11.01160156 -0.22976563 11.02320313 -0.86328125 11.03515625 C-1.67152344 11.04417969 -2.47976563 11.05320312 -3.3125 11.0625 C-4.51326172 11.07990234 -4.51326172 11.07990234 -5.73828125 11.09765625 C-8 11 -8 11 -11 10 C-11 9.34 -11 8.68 -11 8 C-10.236875 7.855625 -9.47375 7.71125 -8.6875 7.5625 C-5.91827092 7.0367406 -5.91827092 7.0367406 -3 6 C-2.34 6 -1.68 6 -1 6 C-1 5.01 -1 4.02 -1 3 C-1.66 2.67 -2.32 2.34 -3 2 C-2.01 2 -1.02 2 0 2 C0 1.34 0 0.68 0 0 Z " fill="#6B696E" transform="translate(588,573)"/>
<path d="M0 0 C1.98 0.495 1.98 0.495 4 1 C3.814375 2.093125 3.62875 3.18625 3.4375 4.3125 C2.7421932 7.93624133 2.7421932 7.93624133 4 11 C3.66015625 13.3125 3.66015625 13.3125 3.0625 16 C1.92359435 21.72510289 1.79742812 27.18168548 2 33 C1.34 33 0.68 33 0 33 C-1.32229189 30.35541621 -1.09677194 28.32238699 -1.0625 25.375 C-1.05347656 24.37210937 -1.04445312 23.36921875 -1.03515625 22.3359375 C-1.02355469 21.56507813 -1.01195312 20.79421875 -1 20 C-0.34 20 0.32 20 1 20 C0.835 18.741875 0.67 17.48375 0.5 16.1875 C-0.11073012 10.7855491 -0.09133564 5.42939662 0 0 Z M3 6 C3.66 6 4.32 6 5 6 C5 6.66 5 7.32 5 8 C4.34 8 3.68 8 3 8 C3 7.34 3 6.68 3 6 Z " fill="#515452" transform="translate(254,354)"/>
<path d="M0 0 C1.32 0 2.64 0 4 0 C4 1.32 4 2.64 4 4 C4.66 4 5.32 4 6 4 C5.67 4.66 5.34 5.32 5 6 C5.33 6.33 5.66 6.66 6 7 C7 8 8 9 9 10 C8.01 10.495 8.01 10.495 7 11 C7.66 11.33 8.32 11.66 9 12 C9 12.99 9 13.98 9 15 C8.01 15 7.02 15 6 15 C6 15.66 6 16.32 6 17 C4.68 17 3.36 17 2 17 C1.93941406 16.21753906 1.87882812 15.43507813 1.81640625 14.62890625 C1.73261719 13.61699219 1.64882813 12.60507812 1.5625 11.5625 C1.48128906 10.55316406 1.40007813 9.54382813 1.31640625 8.50390625 C1.26788532 6.06359221 1.26788532 6.06359221 0 5 C-0.04063832 3.33382885 -0.042721 1.66611905 0 0 Z " fill="#827F7E" transform="translate(15,480)"/>
<path d="M0 0 C0.99 0 1.98 0 3 0 C3 0.66 3 1.32 3 2 C4.98 1.67 6.96 1.34 9 1 C9 1.66 9 2.32 9 3 C9.66 3 10.32 3 11 3 C11 2.34 11 1.68 11 1 C11.66 1 12.32 1 13 1 C13 1.66 13 2.32 13 3 C13.66 3 14.32 3 15 3 C15.33 2.34 15.66 1.68 16 1 C16 1.99 16 2.98 16 4 C16.33 4.99 16.66 5.98 17 7 C15.35 7.33 13.7 7.66 12 8 C11.67 8.99 11.34 9.98 11 11 C10.01 10.67 9.02 10.34 8 10 C8 8.35 8 6.7 8 5 C6.700625 4.87625 5.40125 4.7525 4.0625 4.625 C1.84765625 4.4140625 1.84765625 4.4140625 0 4 C-0.33 3.34 -0.66 2.68 -1 2 C-0.67 1.34 -0.34 0.68 0 0 Z " fill="#8E8A89" transform="translate(408,421)"/>
<path d="M0 0 C0.33 0.66 0.66 1.32 1 2 C0.1875 3.953125 0.1875 3.953125 -1 6.25 C-2.91799474 10.32819359 -3.13530407 12.56199319 -2 17 C-2.375 19.1875 -2.375 19.1875 -3 21 C-3.33 21.99 -3.66 22.98 -4 24 C-6.0625 24.6875 -6.0625 24.6875 -8 25 C-8 24.01 -8 23.02 -8 22 C-8.66 21.67 -9.32 21.34 -10 21 C-9.52949219 20.45859375 -9.05898438 19.9171875 -8.57421875 19.359375 C-6.73777329 16.60698528 -6.31616146 14.50442793 -5.8125 11.25 C-5.65394531 10.26515625 -5.49539063 9.2803125 -5.33203125 8.265625 C-5.22246094 7.51796875 -5.11289062 6.7703125 -5 6 C-4.34 6 -3.68 6 -3 6 C-2.690625 5.195625 -2.38125 4.39125 -2.0625 3.5625 C-1 1 -1 1 0 0 Z " fill="#38393B" transform="translate(280,295)"/>
<path d="M0 0 C1.65 0 3.3 0 5 0 C4.85851011 1.6045556 4.71164314 3.20863767 4.5625 4.8125 C4.48128906 5.70582031 4.40007812 6.59914063 4.31640625 7.51953125 C4 10 4 10 3 13 C2.34 13 1.68 13 1 13 C1 13.66 1 14.32 1 15 C0.01 15.33 -0.98 15.66 -2 16 C-2.66 16.66 -3.32 17.32 -4 18 C-4 17.34 -4 16.68 -4 16 C-4.66 15.67 -5.32 15.34 -6 15 C-5.175 14.690625 -4.35 14.38125 -3.5 14.0625 C-0.80332646 12.31012983 -0.80332646 12.31012983 -0.703125 9.90234375 C-0.73402079 8.3189344 -0.80604724 6.73571942 -0.921875 5.15625 C-1 3 -1 3 0 0 Z " fill="#B5AFAF" transform="translate(248,328)"/>
<path d="M0 0 C0.33 0.66 0.66 1.32 1 2 C2.65 2 4.3 2 6 2 C6 2.66 6 3.32 6 4 C5.01 4 4.02 4 3 4 C3 4.66 3 5.32 3 6 C-6.22551253 11.74031891 -6.22551253 11.74031891 -12 11 C-11.01 10.67 -10.02 10.34 -9 10 C-8.26676204 7.98491642 -8.26676204 7.98491642 -8 6 C-7.01 6 -6.02 6 -5 6 C-4.34 4.68 -3.68 3.36 -3 2 C-2.67 2.33 -2.34 2.66 -2 3 C-1.34 2.01 -0.68 1.02 0 0 Z " fill="#B8B2B2" transform="translate(353,222)"/>
<path d="M0 0 C0.66 0 1.32 0 2 0 C2.33 0.99 2.66 1.98 3 3 C3.99 2.01 4.98 1.02 6 0 C6 0.99 6 1.98 6 3 C7.32 3 8.64 3 10 3 C10 4.32 10 5.64 10 7 C10.99 7.33 11.98 7.66 13 8 C8.38 8 3.76 8 -1 8 C-1 1 -1 1 0 0 Z " fill="#B8B0AE" transform="translate(347,592)"/>
<path d="M0 0 C0 0.99 0 1.98 0 3 C0.66 3 1.32 3 2 3 C2 3.99 2 4.98 2 6 C1.41992188 5.97679687 0.83984375 5.95359375 0.2421875 5.9296875 C-4.61411166 5.81749577 -8.42932395 6.12485085 -13 8 C-13.33 6.35 -13.66 4.7 -14 3 C-13.34 2.67 -12.68 2.34 -12 2 C-11.01 2.33 -10.02 2.66 -9 3 C-9 2.34 -9 1.68 -9 1 C-5.94152152 0.45627049 -3.11227195 0 0 0 Z " fill="#908A8B" transform="translate(341,397)"/>
<path d="M0 0 C0.66 0 1.32 0 2 0 C3.6875 1.8125 3.6875 1.8125 5 4 C4.67 4.99 4.34 5.98 4 7 C3.01 7 2.02 7 1 7 C1 7.99 1 8.98 1 10 C-1.97 11.32 -4.94 12.64 -8 14 C-8.66 13.34 -9.32 12.68 -10 12 C-9.34 12 -8.68 12 -8 12 C-8 11.34 -8 10.68 -8 10 C-7.01 10 -6.02 10 -5 10 C-5 9.01 -5 8.02 -5 7 C-4.34 6.67 -3.68 6.34 -3 6 C-1.95191959 4.02477154 -0.9479589 2.02518491 0 0 Z " fill="#66676B" transform="translate(342,382)"/>
<path d="M0 0 C0.66 0 1.32 0 2 0 C2 5.28 2 10.56 2 16 C-2 18 -2 18 -4.25 17.625 C-5.11625 17.315625 -5.11625 17.315625 -6 17 C-6 16.67 -6 16.34 -6 16 C-4.35 16 -2.7 16 -1 16 C-0.67 14.35 -0.34 12.7 0 11 C-0.66 10.62875 -1.32 10.2575 -2 9.875 C-4 8 -4 8 -4.25 4.8125 C-4.1675 3.884375 -4.085 2.95625 -4 2 C-3.01 2.33 -2.02 2.66 -1 3 C-0.67 2.01 -0.34 1.02 0 0 Z " fill="#989493" transform="translate(598,54)"/>
<path d="M0 0 C-0.66 2.31 -1.32 4.62 -2 7 C-2.66 7 -3.32 7 -4 7 C-4 7.66 -4 8.32 -4 9 C-9.75 9.125 -9.75 9.125 -12 8 C-12 6.68 -12 5.36 -12 4 C-8.74666005 1.58323318 -3.92033906 -1.96016953 0 0 Z " fill="#BEB9B4" transform="translate(300,256)"/>
<path d="M0 0 C3.3 1.65 6.6 3.3 10 5 C9.01 6.485 9.01 6.485 8 8 C8 7.01 8 6.02 8 5 C7.38125 5.185625 6.7625 5.37125 6.125 5.5625 C4 6 4 6 2 5 C2.33 7.31 2.66 9.62 3 12 C3.66 12 4.32 12 5 12 C6.125 18.75 6.125 18.75 5 21 C4.01 20.67 3.02 20.34 2 20 C1.93941406 19.30132812 1.87882812 18.60265625 1.81640625 17.8828125 C1.73261719 16.97273438 1.64882813 16.06265625 1.5625 15.125 C1.48128906 14.22007812 1.40007812 13.31515625 1.31640625 12.3828125 C1.13010715 9.98889139 1.13010715 9.98889139 0 8 C-0.13415472 5.3276379 -0.04318541 2.67749512 0 0 Z " fill="#5C5855" transform="translate(311,221)"/>
<path d="M0 0 C1.625 1.625 1.625 1.625 3 4 C2.25 6.875 2.25 6.875 1 10 C0.63079809 11.99369031 0.28674418 13.99279077 0 16 C0.99 16.66 1.98 17.32 3 18 C1.625 19.5 1.625 19.5 0 21 C-0.66 21 -1.32 21 -2 21 C-2.33 21.66 -2.66 22.32 -3 23 C-3 17.06 -3 11.12 -3 5 C-2.34 5 -1.68 5 -1 5 C-0.67 3.35 -0.34 1.7 0 0 Z " fill="#9A9695" transform="translate(3,435)"/>
<path d="M0 0 C0.33 0 0.66 0 1 0 C1 4.29 1 8.58 1 13 C1.99 13.33 2.98 13.66 4 14 C3.54677767 16.64379692 3.05775473 18.87789 1.90625 21.3125 C0.80533573 24.57728025 1.15018382 26.47029208 1.875 29.8125 C2.07867187 30.78832031 2.28234375 31.76414062 2.4921875 32.76953125 C2.74355469 33.87361328 2.74355469 33.87361328 3 35 C2.34 35 1.68 35 1 35 C-0.76673751 30.47160454 -1.19084817 26.91316873 -0.9765625 22.0703125 C-0.925 20.78125 -0.8734375 19.4921875 -0.8203125 18.1640625 C-0.75545108 16.81769662 -0.69034387 15.47134255 -0.625 14.125 C-0.56668526 12.75525151 -0.50938372 11.38545948 -0.453125 10.015625 C-0.31203607 6.67652037 -0.16065577 3.33821098 0 0 Z " fill="#4D5053" transform="translate(349,306)"/>
<path d="M0 0 C2 3 2 3 2 6 C0.36368108 7.04892238 -1.30485863 8.04906703 -3 9 C-3.33 9.66 -3.66 10.32 -4 11 C-3.34 11.33 -2.68 11.66 -2 12 C-2 12.66 -2 13.32 -2 14 C-3.65 14 -5.3 14 -7 14 C-7.33 10.04 -7.66 6.08 -8 2 C-6.68 2 -5.36 2 -4 2 C-3.67 2.99 -3.34 3.98 -3 5 C-2.34 4.67 -1.68 4.34 -1 4 C-0.34786708 1.97536745 -0.34786708 1.97536745 0 0 Z " fill="#747277" transform="translate(16,578)"/>
<path d="M0 0 C0 0.99 0 1.98 0 3 C-0.66 3 -1.32 3 -2 3 C-2 2.34 -2 1.68 -2 1 C-4.17532857 3.17532857 -4.3662254 4.10274469 -5 7 C-5.33 7.66 -5.66 8.32 -6 9 C-6.66 9 -7.32 9 -8 9 C-8 9.66 -8 10.32 -8 11 C-8.99 10.67 -9.98 10.34 -11 10 C-11.66 10.66 -12.32 11.32 -13 12 C-12.7215625 10.824375 -12.7215625 10.824375 -12.4375 9.625 C-11.74037734 7.02910225 -11.74037734 7.02910225 -13 5 C-8.68660704 1.42677506 -5.86197356 -0.71487482 0 0 Z " fill="#9B9796" transform="translate(485,361)"/>
<path d="M0 0 C1.1484375 1.671875 1.1484375 1.671875 2 4 C1.1015625 6.578125 1.1015625 6.578125 -0.375 9.25 C-1.09816406 10.58804687 -1.09816406 10.58804687 -1.8359375 11.953125 C-2.22007812 12.62859375 -2.60421875 13.3040625 -3 14 C-3.66 14 -4.32 14 -5 14 C-5 14.99 -5 15.98 -5 17 C-5.99 17 -6.98 17 -8 17 C-7.49159115 12.17369625 -6.13041456 9.1398908 -3.4375 5.125 C-2.79683594 4.15820312 -2.15617187 3.19140625 -1.49609375 2.1953125 C-1.00238281 1.47085937 -0.50867188 0.74640625 0 0 Z " fill="#45464A" transform="translate(342,375)"/>
<path d="M0 0 C2.31 0 4.62 0 7 0 C7.66 1.65 8.32 3.3 9 5 C11.31 4.01 13.62 3.02 16 2 C15.3125 4.875 15.3125 4.875 14 8 C11.375 9.375 11.375 9.375 9 10 C8.34 9.34 7.68 8.68 7 8 C6.01 8.495 6.01 8.495 5 9 C5 6.36 5 3.72 5 1 C3.68 1.33 2.36 1.66 1 2 C0.67 1.34 0.34 0.68 0 0 Z " fill="#8A8685" transform="translate(560,62)"/>
<path d="M0 0 C1.20577428 4.94367454 0.6290678 8.20862412 -1 13 C-2.32 12.67 -3.64 12.34 -5 12 C-4.34 11.34 -3.68 10.68 -3 10 C-3.495 9.46375 -3.99 8.9275 -4.5 8.375 C-6.37489544 5.40641555 -6.23501425 3.44687573 -6 0 C-3 -1 -3 -1 0 0 Z " fill="#767479" transform="translate(72,561)"/>
<path d="M0 0 C0.33 0.99 0.66 1.98 1 3 C1.66 3 2.32 3 3 3 C3.33 2.01 3.66 1.02 4 0 C7.63 0.33 11.26 0.66 15 1 C15.33 2.32 15.66 3.64 16 5 C15.01 5 14.02 5 13 5 C13.33 5.99 13.66 6.98 14 8 C13.34 8 12.68 8 12 8 C11.67 7.01 11.34 6.02 11 5 C7.04 4.67 3.08 4.34 -1 4 C-0.67 2.68 -0.34 1.36 0 0 Z " fill="#89878B" transform="translate(356,395)"/>
<path d="M0 0 C0.93423645 3.01031744 1.04449911 3.86650268 0 7 C0.99 7 1.98 7 3 7 C3 8.32 3 9.64 3 11 C2.01 11 1.02 11 0 11 C0 10.34 0 9.68 0 9 C-0.99 9.33 -1.98 9.66 -3 10 C-3.66 9.34 -4.32 8.68 -5 8 C-5.99 8.495 -5.99 8.495 -7 9 C-7.6875 7.1875 -7.6875 7.1875 -8 5 C-6.8125 3.25 -6.8125 3.25 -5 2 C-3.68 2 -2.36 2 -1 2 C-0.67 1.34 -0.34 0.68 0 0 Z " fill="#989493" transform="translate(496,381)"/>
<path d="M0 0 C2.475 0.495 2.475 0.495 5 1 C5 2.65 5 4.3 5 6 C5.33 6 5.66 6 6 6 C6.33 4.68 6.66 3.36 7 2 C8.32 2.33 9.64 2.66 11 3 C11 7 11 7 10 10 C7.69 9.67 5.38 9.34 3 9 C2.67 9.99 2.34 10.98 2 12 C2 11.01 2 10.02 2 9 C1.34 8.67 0.68 8.34 0 8 C0.66 7.34 1.32 6.68 2 6 C2 5.01 2 4.02 2 3 C1.34 3 0.68 3 0 3 C0 2.01 0 1.02 0 0 Z " fill="#7A787B" transform="translate(519,575)"/>
<path d="M0 0 C1.53202706 0.25195908 3.05257128 0.57596777 4.5625 0.9375 C5.38878906 1.13214844 6.21507812 1.32679688 7.06640625 1.52734375 C8.02353516 1.76130859 8.02353516 1.76130859 9 2 C8.67 2.66 8.34 3.32 8 4 C7.34 4 6.68 4 6 4 C6.66 5.65 7.32 7.3 8 9 C4.20442119 9 2.37097383 8.49821059 -1 7 C-1.04254356 5.00045254 -1.04080783 2.99958364 -1 1 C-0.67 0.67 -0.34 0.34 0 0 Z " fill="#767479" transform="translate(25,527)"/>
<path d="M0 0 C0.928125 0.350625 1.85625 0.70125 2.8125 1.0625 C5.9802953 2.32382628 5.9802953 2.32382628 9 1 C8.67 3.31 8.34 5.62 8 8 C7.34 8 6.68 8 6 8 C6 9.32 6 10.64 6 12 C5.34 12 4.68 12 4 12 C4.33 10.35 4.66 8.7 5 7 C3.35 7 1.7 7 0 7 C0 4.69 0 2.38 0 0 Z " fill="#77757A" transform="translate(19,573)"/>
<path d="M0 0 C0.33 0 0.66 0 1 0 C1.125 5.75 1.125 5.75 0 8 C-0.66 8 -1.32 8 -2 8 C-2 9.65 -2 11.3 -2 13 C-3.32 13.33 -4.64 13.66 -6 14 C-6.33 15.32 -6.66 16.64 -7 18 C-7 17.34 -7 16.68 -7 16 C-8.32 15.67 -9.64 15.34 -11 15 C-10.01 14.67 -9.02 14.34 -8 14 C-6.92925408 12.03696582 -5.93704257 10.0302589 -5 8 C-3.410285 5.26569021 -1.75494451 2.63241677 0 0 Z " fill="#ACAAAA" transform="translate(278,288)"/>
<path d="M0 0 C0.66 0.33 1.32 0.66 2 1 C3.9248938 6.96717077 3.87442699 13.88680145 1.5 19.625 C1.005 20.40875 0.51 21.1925 0 22 C-0.66 21.67 -1.32 21.34 -2 21 C-1.67 20.34 -1.34 19.68 -1 19 C-0.93049459 17.45976004 -0.91547643 15.91665012 -0.9375 14.375 C-0.94652344 13.55773437 -0.95554687 12.74046875 -0.96484375 11.8984375 C-0.97644531 11.27195312 -0.98804688 10.64546875 -1 10 C-0.34 10 0.32 10 1 10 C1.33 9.34 1.66 8.68 2 8 C1.34 8 0.68 8 0 8 C0 7.34 0 6.68 0 6 C-0.66 6 -1.32 6 -2 6 C-1.49396008 3.83125748 -1.00016187 2.00032373 0 0 Z " fill="#323537" transform="translate(361,250)"/>
<path d="M0 0 C0.33 0 0.66 0 1 0 C1 1.65 1 3.3 1 5 C2.32 5.66 3.64 6.32 5 7 C5 10 5 10 4 13 C3.34 13 2.68 13 2 13 C1.67 12.34 1.34 11.68 1 11 C0.67 12.65 0.34 14.3 0 16 C-0.66 16 -1.32 16 -2 16 C-2.2358396 10.22192976 -1.86783046 5.48675196 0 0 Z " fill="#807E83" transform="translate(75,521)"/>
<path d="M0 0 C0.66 0.33 1.32 0.66 2 1 C1.34 3.31 0.68 5.62 0 8 C-0.99 8 -1.98 8 -3 8 C-3.33 8.99 -3.66 9.98 -4 11 C-4.99 11.33 -5.98 11.66 -7 12 C-7.125 4.25 -7.125 4.25 -6 2 C-3.525 2.99 -3.525 2.99 -1 4 C-0.67 2.68 -0.34 1.36 0 0 Z " fill="#BDB5B3" transform="translate(239,356)"/>
<path d="M0 0 C1.32 0.66 2.64 1.32 4 2 C3.47731534 4.76276177 2.89130413 7.3260876 2 10 C0.35 10 -1.3 10 -3 10 C-3 9.34 -3 8.68 -3 8 C-3.66 8 -4.32 8 -5 8 C-4.25 3.25 -4.25 3.25 -2 1 C-1.34 1.33 -0.68 1.66 0 2 C0 1.34 0 0.68 0 0 Z " fill="#797779" transform="translate(375,358)"/>
<path d="M0 0 C0.66 0 1.32 0 2 0 C2.33 3.3 2.66 6.6 3 10 C3.99 10.33 4.98 10.66 6 11 C6 15 6 15 5 18 C3.68 18 2.36 18 1 18 C0.67 12.06 0.34 6.12 0 0 Z " fill="#525055" transform="translate(352,341)"/>
<path d="M0 0 C0.66 0 1.32 0 2 0 C2.144375 1.2375 2.28875 2.475 2.4375 3.75 C2.87441158 7.9582327 2.87441158 7.9582327 4 12 C4.99 12.33 5.98 12.66 7 13 C4.3260876 13.89130413 1.76276177 14.47731534 -1 15 C-1 13.35 -1 11.7 -1 10 C-0.34 10 0.32 10 1 10 C1 9.01 1 8.02 1 7 C0.34 7 -0.32 7 -1 7 C-1 6.34 -1 5.68 -1 5 C-1.66 4.67 -2.32 4.34 -3 4 C-1.625 2 -1.625 2 0 0 Z " fill="#9D9998" transform="translate(380,267)"/>
<path d="M0 0 C2.10852713 3.47286822 2.10852713 3.47286822 1.5625 6.125 C1.376875 6.74375 1.19125 7.3625 1 8 C1.33 8.66 1.66 9.32 2 10 C1.71281674 11.6752357 1.36871088 13.34080104 1 15 C0.65596692 17.33177975 0.32050798 19.66487041 0 22 C-0.66 21.67 -1.32 21.34 -2 21 C-2.3690205 6.21867882 -2.3690205 6.21867882 0 0 Z " fill="#444245" transform="translate(254,332)"/>
<path d="M0 0 C2.625 -0.1875 2.625 -0.1875 5 0 C5.33 2.31 5.66 4.62 6 7 C3.39417629 7.93065133 2.35801776 8.14917407 -0.25 7.0625 C-0.8275 6.711875 -1.405 6.36125 -2 6 C-2 3 -2 3 0 0 Z M-3 7 C-1 8 -1 8 -1 8 Z " fill="#737176" transform="translate(91,560)"/>
<path d="M0 0 C2.01822917 0.06510417 4.03645833 0.13020833 6.0546875 0.1953125 C5.3946875 2.1753125 4.7346875 4.1553125 4.0546875 6.1953125 C2.4046875 6.1953125 0.7546875 6.1953125 -0.9453125 6.1953125 C-0.9453125 7.1853125 -0.9453125 8.1753125 -0.9453125 9.1953125 C-1.6053125 9.1953125 -2.2653125 9.1953125 -2.9453125 9.1953125 C-3.5703125 5.8203125 -3.5703125 5.8203125 -3.9453125 2.1953125 C-1.9453125 0.1953125 -1.9453125 0.1953125 0 0 Z " fill="#857D7E" transform="translate(139.9453125,590.8046875)"/>
<path d="M0 0 C1.3303125 0.37125 1.3303125 0.37125 2.6875 0.75 C2.3575 2.73 2.0275 4.71 1.6875 6.75 C-2.7675 5.76 -2.7675 5.76 -7.3125 4.75 C-7.6425 5.74 -7.9725 6.73 -8.3125 7.75 C-8.3125 3.75 -8.3125 3.75 -6.1875 1.4375 C-3.3125 -0.25 -3.3125 -0.25 0 0 Z " fill="#BFB7B5" transform="translate(317.3125,216.25)"/>
<path d="M0 0 C2.125 0.375 2.125 0.375 4 1 C4 1.99 4 2.98 4 4 C4.99 4 5.98 4 7 4 C6.34 5.98 5.68 7.96 5 10 C3.02 9.34 1.04 8.68 -1 8 C-0.34 7.01 0.32 6.02 1 5 C0.01 4.01 -0.98 3.02 -2 2 C-1.34 1.34 -0.68 0.68 0 0 Z " fill="#BAB3B1" transform="translate(265,398)"/>
<path d="M0 0 C0.33 0 0.66 0 1 0 C2.3302664 9.97699803 2.09502917 19.95614824 2 30 C1.67 30 1.34 30 1 30 C-1.39529698 9.16947091 -1.39529698 9.16947091 -1 1 C-0.67 0.67 -0.34 0.34 0 0 Z " fill="#3A3D40" transform="translate(347,296)"/>
<path d="M0 0 C0.33 0.99 0.66 1.98 1 3 C1.99 2.67 2.98 2.34 4 2 C4.56122991 13.8689733 4.56122991 13.8689733 1 18 C0.67 18 0.34 18 0 18 C0 12.06 0 6.12 0 0 Z " fill="#8F8786" transform="translate(0,501)"/>
<path d="M0 0 C2.475 0.99 2.475 0.99 5 2 C5 3.32 5 4.64 5 6 C6.65 6 8.3 6 10 6 C9.67 6.66 9.34 7.32 9 8 C5.37 8 1.74 8 -2 8 C-1.34 5.36 -0.68 2.72 0 0 Z " fill="#878382" transform="translate(437,436)"/>
<path d="M0 0 C-1.2065625 0.37125 -1.2065625 0.37125 -2.4375 0.75 C-3.283125 1.1625 -4.12875 1.575 -5 2 C-5.35412344 3.32796291 -5.68521554 4.66216607 -6 6 C-8.5625 8.25 -8.5625 8.25 -11 10 C-11 9.34 -11 8.68 -11 8 C-12.65 7.67 -14.3 7.34 -16 7 C-10.85714286 2.57142857 -10.85714286 2.57142857 -7 2 C-7 1.34 -7 0.68 -7 0 C-3.86650268 -1.04449911 -3.01031744 -0.93423645 0 0 Z " fill="#555254" transform="translate(363,226)"/>
<path d="M0 0 C-1.66666667 3.33333333 -3.33333333 6.66666667 -5 10 C-5.66 10 -6.32 10 -7 10 C-7.33 6.7 -7.66 3.4 -8 0 C-4.29847322 -0.92538169 -3.36541838 -1.08174162 0 0 Z " fill="#8C8887" transform="translate(106,505)"/>
<path d="M0 0 C2.31 0.33 4.62 0.66 7 1 C7.66 2.65 8.32 4.3 9 6 C8.34 6 7.68 6 7 6 C6.67 6.66 6.34 7.32 6 8 C4.68 7.67 3.36 7.34 2 7 C2 6.34 2 5.68 2 5 C1.34 5 0.68 5 0 5 C0 3.35 0 1.7 0 0 Z " fill="#B3ABA8" transform="translate(240,383)"/>
<path d="M0 0 C0.66 0.33 1.32 0.66 2 1 C2 4.63 2 8.26 2 12 C0.02 12.99 0.02 12.99 -2 14 C-3.54207746 9.88779344 -2.74901256 6.22170714 -2 2 C-1.34 1.34 -0.68 0.68 0 0 Z " fill="#878488" transform="translate(373,262)"/>
<path d="M0 0 C0.33 0.99 0.66 1.98 1 3 C1.99 3.33 2.98 3.66 4 4 C5.38576923 5.62332967 6.72641268 7.28724465 8 9 C7.01 9 6.02 9 5 9 C5.99 9.66 6.98 10.32 8 11 C2.6 11.36 2.6 11.36 0.125 9.875 C-1.49030526 7.18282457 -1.26199727 5.07846795 -1 2 C-0.67 1.34 -0.34 0.68 0 0 Z " fill="#6F6D72" transform="translate(48,569)"/>
<path d="M0 0 C1.65 0 3.3 0 5 0 C5 3.3 5 6.6 5 10 C3.35 10 1.7 10 0 10 C0 6.7 0 3.4 0 0 Z " fill="#77757A" transform="translate(80,551)"/>
<path d="M0 0 C1.04449911 3.13349732 0.93423645 3.98968256 0 7 C-0.66 7 -1.32 7 -2 7 C-2.061875 7.94875 -2.12375 8.8975 -2.1875 9.875 C-2.455625 10.90625 -2.72375 11.9375 -3 13 C-5.5625 14.375 -5.5625 14.375 -8 15 C-7.37494641 11.86068592 -6.30139285 9.61549819 -4.5625 6.9375 C-4.13066406 6.26589844 -3.69882812 5.59429687 -3.25390625 4.90234375 C-2.17451401 3.26476113 -1.08794294 1.6319144 0 0 Z " fill="#4A484B" transform="translate(289,280)"/>
<path d="M0 0 C1.1446875 0.2475 1.1446875 0.2475 2.3125 0.5 C5.03596236 1.09145396 5.03596236 1.09145396 8 1 C8.66 2.65 9.32 4.3 10 6 C8.1875 7.0625 8.1875 7.0625 6 8 C3 7 3 7 1 4 C0.375 1.8125 0.375 1.8125 0 0 Z " fill="#777579" transform="translate(8,527)"/>
<path d="M0 0 C1.134375 0.020625 2.26875 0.04125 3.4375 0.0625 C3.4375 1.0525 3.4375 2.0425 3.4375 3.0625 C1.7875 3.3925 0.1375 3.7225 -1.5625 4.0625 C-1.5625 4.7225 -1.5625 5.3825 -1.5625 6.0625 C-0.5725 6.0625 0.4175 6.0625 1.4375 6.0625 C1.1075 7.0525 0.7775 8.0425 0.4375 9.0625 C-0.8825 8.7325 -2.2025 8.4025 -3.5625 8.0625 C-3.94313221 5.7364143 -4.27519945 3.40194736 -4.5625 1.0625 C-3.5625 0.0625 -3.5625 0.0625 0 0 Z " fill="#938F8E" transform="translate(123.5625,495.9375)"/>
<path d="M0 0 C0.66 0.33 1.32 0.66 2 1 C1.2575 2.175625 1.2575 2.175625 0.5 3.375 C-1.16537965 5.78552327 -1.16537965 5.78552327 -1 8 C-3.5 9.625 -3.5 9.625 -6 11 C-6.08096803 9.54257537 -6.13917774 8.08387193 -6.1875 6.625 C-6.22230469 5.81289063 -6.25710937 5.00078125 -6.29296875 4.1640625 C-6.19628906 3.44992187 -6.09960938 2.73578125 -6 2 C-3 0 -3 0 0 0 Z " fill="#908C8B" transform="translate(6,480)"/>
<path d="M0 0 C0.33 1.32 0.66 2.64 1 4 C2.65 3.67 4.3 3.34 6 3 C6.93065133 5.60582371 7.14917407 6.64198224 6.0625 9.25 C5.711875 9.8275 5.36125 10.405 5 11 C4.34 11 3.68 11 3 11 C3 10.01 3 9.02 3 8 C2.34 8 1.68 8 1 8 C0.67 8.99 0.34 9.98 0 11 C0 10.01 0 9.02 0 8 C-0.66 7.67 -1.32 7.34 -2 7 C-1.01 6.67 -0.02 6.34 1 6 C0.34 5.34 -0.32 4.68 -1 4 C-0.625 1.875 -0.625 1.875 0 0 Z " fill="#8E8A89" transform="translate(9,405)"/>
<path d="M0 0 C1.32 0.33 2.64 0.66 4 1 C4.25 4.3125 4.25 4.3125 4 8 C2.125 9.9375 2.125 9.9375 0 11 C-0.66 11 -1.32 11 -2 11 C-3.13643966 7.59068103 -2.86747764 6.99664544 -1.5625 3.8125 C-1.13130859 2.73935547 -1.13130859 2.73935547 -0.69140625 1.64453125 C-0.46324219 1.10183594 -0.23507812 0.55914062 0 0 Z " fill="#949391" transform="translate(499,368)"/>
<path d="M0 0 C1.32 0.33 2.64 0.66 4 1 C4 1.66 4 2.32 4 3 C5.32 3 6.64 3 8 3 C8 4.32 8 5.64 8 7 C7.01 6.67 6.02 6.34 5 6 C4.34 7.32 3.68 8.64 3 10 C2.34 10 1.68 10 1 10 C0.67 6.7 0.34 3.4 0 0 Z " fill="#343536" transform="translate(255,376)"/>
<path d="M0 0 C1.09506492 3.28519475 1.09960608 5.73663415 1.0625 9.1875 C1.05347656 10.27417969 1.04445313 11.36085938 1.03515625 12.48046875 C1.02355469 13.31191406 1.01195312 14.14335937 1 15 C-0.32 15.33 -1.64 15.66 -3 16 C-3.20719042 9.99147774 -2.73710708 5.47421415 0 0 Z " fill="#8B8786" transform="translate(567,360)"/>
<path d="M0 0 C0.33 0 0.66 0 1 0 C2.14806378 13.6332574 2.14806378 13.6332574 2 20 C0.68 19.67 -0.64 19.34 -2 19 C-1.34 12.73 -0.68 6.46 0 0 Z " fill="#7F7E7B" transform="translate(364,228)"/>
<path d="M0 0 C1.98 0 3.96 0 6 0 C5.67 0.99 5.34 1.98 5 3 C6.65 3.33 8.3 3.66 10 4 C10 4.66 10 5.32 10 6 C9.34 6 8.68 6 8 6 C8 6.66 8 7.32 8 8 C7.34 8 6.68 8 6 8 C5.67 7.34 5.34 6.68 5 6 C2.47266765 5.34444881 2.47266765 5.34444881 0 5 C0 3.35 0 1.7 0 0 Z " fill="#7D7B7E" transform="translate(80,540)"/>
<path d="M0 0 C0.33 0.66 0.66 1.32 1 2 C1.99 2 2.98 2 4 2 C3.67 4.31 3.34 6.62 3 9 C1.02 9.66 -0.96 10.32 -3 11 C-3.39253254 6.55129785 -2.15305957 3.85756507 0 0 Z " fill="#7E7C7D" transform="translate(68,517)"/>
<path d="M0 0 C0.99 0 1.98 0 3 0 C3.33 0.66 3.66 1.32 4 2 C4.99 2 5.98 2 7 2 C7 3.98 7 5.96 7 8 C6.34 8 5.68 8 5 8 C4.67 7.34 4.34 6.68 4 6 C3.67 6.66 3.34 7.32 3 8 C1 8 1 8 -0.625 6.5 C-1.07875 6.005 -1.5325 5.51 -2 5 C-1.34 3.35 -0.68 1.7 0 0 Z " fill="#8B8786" transform="translate(577,312)"/>
<path d="M0 0 C0.93065133 2.60582371 1.14917407 3.64198224 0.0625 6.25 C-0.288125 6.8275 -0.63875 7.405 -1 8 C-1.99 7.67 -2.98 7.34 -4 7 C-4 7.99 -4 8.98 -4 10 C-4.99 10.33 -5.98 10.66 -7 11 C-7.66 10.67 -8.32 10.34 -9 10 C-9 9.34 -9 8.68 -9 8 C-7.33333333 6.66666667 -5.66666667 5.33333333 -4 4 C-4 3.34 -4 2.68 -4 2 C-2.68 1.34 -1.36 0.68 0 0 Z " fill="#B9B8B3" transform="translate(264,310)"/>
<path d="M0 0 C0.99 0.33 1.98 0.66 3 1 C3 1.66 3 2.32 3 3 C3.99 2.67 4.98 2.34 6 2 C6.33 2.99 6.66 3.98 7 5 C7.66 5.33 8.32 5.66 9 6 C7.68 6.99 6.36 7.98 5 9 C4.34 7.68 3.68 6.36 3 5 C2.01 5.33 1.02 5.66 0 6 C-1.125 2.25 -1.125 2.25 0 0 Z " fill="#77757A" transform="translate(544,511)"/>
<path d="M0 0 C0.66 0 1.32 0 2 0 C2.33964174 3.65114875 2.26393998 5.55333235 0.375 8.75 C-2.31121308 11.29483345 -4.44160742 12.11040186 -8 13 C-7.34 12.01 -6.68 11.02 -6 10 C-5.34 10 -4.68 10 -4 10 C-4.33 9.01 -4.66 8.02 -5 7 C-3.68 7 -2.36 7 -1 7 C-1.020625 6.030625 -1.04125 5.06125 -1.0625 4.0625 C-1 1 -1 1 0 0 Z " fill="#868687" transform="translate(272,306)"/>
<path d="M0 0 C0.66 0 1.32 0 2 0 C2 0.66 2 1.32 2 2 C2.99 2.33 3.98 2.66 5 3 C4.34 4.32 3.68 5.64 3 7 C3.66 7.33 4.32 7.66 5 8 C5 8.99 5 9.98 5 11 C3.02 11.99 3.02 11.99 1 13 C1 12.01 1 11.02 1 10 C0.34 9.67 -0.32 9.34 -1 9 C-0.67 6.03 -0.34 3.06 0 0 Z " fill="#9B9896" transform="translate(373,253)"/>
<path d="M0 0 C0.66 0 1.32 0 2 0 C2.33 0.99 2.66 1.98 3 3 C3.66 2.67 4.32 2.34 5 2 C5.3125 4.3125 5.3125 4.3125 5 7 C2.5 8.8125 2.5 8.8125 0 10 C0 9.34 0 8.68 0 8 C-0.66 8 -1.32 8 -2 8 C-1.47731534 5.23723823 -0.89130413 2.6739124 0 0 Z " fill="#908C8B" transform="translate(530,40)"/>
<path d="M0 0 C1.98 0.495 1.98 0.495 4 1 C4 4.3 4 7.6 4 11 C3.01 11.33 2.02 11.66 1 12 C1 10.02 1 8.04 1 6 C0.34 6 -0.32 6 -1 6 C-1.042721 4.33388095 -1.04063832 2.66617115 -1 1 C-0.67 0.67 -0.34 0.34 0 0 Z " fill="#8F8B8A" transform="translate(590,2)"/>
<path d="M0 0 C3.79450934 0.39253545 5.51015791 2.24338912 8 5 C7.34 5 6.68 5 6 5 C6.33 5.99 6.66 6.98 7 8 C6.01 8.495 6.01 8.495 5 9 C4.34 8.01 3.68 7.02 3 6 C1.68 6 0.36 6 -1 6 C-1.042721 4.33388095 -1.04063832 2.66617115 -1 1 C-0.67 0.67 -0.34 0.34 0 0 Z " fill="#79777C" transform="translate(27,507)"/>
<path d="M0 0 C1.32 0.66 2.64 1.32 4 2 C4.609375 4.3828125 4.609375 4.3828125 4.75 7.125 C4.80671875 8.03507812 4.8634375 8.94515625 4.921875 9.8828125 C4.94765625 10.58148438 4.9734375 11.28015625 5 12 C3.02 11.34 1.04 10.68 -1 10 C-0.67 6.7 -0.34 3.4 0 0 Z " fill="#928E8D" transform="translate(140,498)"/>
<path d="M0 0 C0.66 0 1.32 0 2 0 C2 0.66 2 1.32 2 2 C2.66 2 3.32 2 4 2 C4 1.34 4 0.68 4 0 C4.66 0 5.32 0 6 0 C6.33 1.98 6.66 3.96 7 6 C6.01 6.66 5.02 7.32 4 8 C4 7.34 4 6.68 4 6 C2.68 6 1.36 6 0 6 C0 6.66 0 7.32 0 8 C-0.66 7.67 -1.32 7.34 -2 7 C-2 6.34 -2 5.68 -2 5 C-1.34 5 -0.68 5 0 5 C0 3.35 0 1.7 0 0 Z " fill="#8B8786" transform="translate(401,410)"/>
<path d="M0 0 C2.625 -0.1875 2.625 -0.1875 5 0 C5 1.65 5 3.3 5 5 C4.38125 5.103125 3.7625 5.20625 3.125 5.3125 C0.63473516 5.87525373 0.63473516 5.87525373 -1 9 C-1.66 8.67 -2.32 8.34 -3 8 C-2.45276317 4.62537285 -1.9451 2.91765 0 0 Z " fill="#3C3C3C" transform="translate(258,327)"/>
<path d="M0 0 C0.66 0.33 1.32 0.66 2 1 C1.67 1.99 1.34 2.98 1 4 C-5.93 4 -12.86 4 -20 4 C-20 3.01 -20 2.02 -20 1 C-18.35 1 -16.7 1 -15 1 C-15 1.66 -15 2.32 -15 3 C-10.38 3 -5.76 3 -1 3 C-0.67 2.01 -0.34 1.02 0 0 Z " fill="#948C8C" transform="translate(159,596)"/>
<path d="M0 0 C1.32 0.33 2.64 0.66 4 1 C3.814375 2.093125 3.62875 3.18625 3.4375 4.3125 C2.7421932 7.93624133 2.7421932 7.93624133 4 11 C3.01 12.485 3.01 12.485 2 14 C-0.28062828 10.57905758 -0.21925007 9.31812778 -0.125 5.3125 C-0.10695312 4.31863281 -0.08890625 3.32476562 -0.0703125 2.30078125 C-0.04710937 1.54152344 -0.02390625 0.78226562 0 0 Z M3 6 C3.66 6 4.32 6 5 6 C5 6.66 5 7.32 5 8 C4.34 8 3.68 8 3 8 C3 7.34 3 6.68 3 6 Z " fill="#3E3E40" transform="translate(254,354)"/>
<path d="M0 0 C0.99 0.495 0.99 0.495 2 1 C3.23795783 7.54015458 3.10873314 14.36727857 3 21 C0.28749984 15.93666637 -0.12000022 12.00002153 -0.0625 6.25 C-0.05347656 5.07953125 -0.04445312 3.9090625 -0.03515625 2.703125 C-0.02355469 1.81109375 -0.01195312 0.9190625 0 0 Z " fill="#737373" transform="translate(252,353)"/>
<path d="M0 0 C4.29 0 8.58 0 13 0 C12.01 0.33 11.02 0.66 10 1 C8.79117904 3.00016466 8.79117904 3.00016466 8 5 C7.4225 4.62875 6.845 4.2575 6.25 3.875 C4 2.70833333 4 2.70833333 1.75 3.875 C0.88375 4.431875 0.88375 4.431875 0 5 C0 3.35 0 1.7 0 0 Z " fill="#94918D" transform="translate(8,358)"/>
<path d="M0 0 C2.31 0.33 4.62 0.66 7 1 C7.93423645 4.01031744 8.04449911 4.86650268 7 8 C6.01 8.33 5.02 8.66 4 9 C3.34 8.67 2.68 8.34 2 8 C2.33 6.02 2.66 4.04 3 2 C2.34 2 1.68 2 1 2 C0.67 2.66 0.34 3.32 0 4 C0 2.68 0 1.36 0 0 Z " fill="#7B797D" transform="translate(96,552)"/>
<path d="M0 0 C2 3.75 2 3.75 2 6 C1.01 6 0.02 6 -1 6 C-2.0260734 7.31337396 -3.02727325 8.64664105 -4 10 C-4.66 10 -5.32 10 -6 10 C-5.74438677 7.6568787 -5.40729228 5.32156597 -5 3 C-4.34 2.67 -3.68 2.34 -3 2 C-2.34 2.33 -1.68 2.66 -1 3 C-0.67 2.01 -0.34 1.02 0 0 Z " fill="#79767A" transform="translate(12,516)"/>
<path d="M0 0 C2.31 0 4.62 0 7 0 C6.01 1.485 6.01 1.485 5 3 C4.60986284 4.9896995 4.26797351 6.99019869 4 9 C2.68 8.34 1.36 7.68 0 7 C0 4.69 0 2.38 0 0 Z " fill="#727075" transform="translate(7,560)"/>
<path d="M0 0 C1.98 0 3.96 0 6 0 C6 0.99 6 1.98 6 3 C6.66 3 7.32 3 8 3 C7.67 4.65 7.34 6.3 7 8 C6.34 8 5.68 8 5 8 C4.34 7.01 3.68 6.02 3 5 C2.01 5 1.02 5 0 5 C0 3.35 0 1.7 0 0 Z " fill="#8F8B8A" transform="translate(501,512)"/>
<path d="M0 0 C1.98 0 3.96 0 6 0 C5.67 0.66 5.34 1.32 5 2 C6.32 2.33 7.64 2.66 9 3 C9 3.66 9 4.32 9 5 C6.36 5.33 3.72 5.66 1 6 C0.67 4.02 0.34 2.04 0 0 Z " fill="#C8BEBD" transform="translate(263,9)"/>
<path d="M0 0 C2.875 -0.125 2.875 -0.125 6 0 C6.66 0.66 7.32 1.32 8 2 C7.01 3.485 7.01 3.485 6 5 C5.34 5 4.68 5 4 5 C4 6.32 4 7.64 4 9 C3.34 9 2.68 9 2 9 C1.34 6.03 0.68 3.06 0 0 Z " fill="#8E8A89" transform="translate(496,591)"/>
<path d="M0 0 C0.33 0.66 0.66 1.32 1 2 C1.99 2.66 2.98 3.32 4 4 C2.02 4.33 0.04 4.66 -2 5 C-2 4.34 -2 3.68 -2 3 C-2.99 3 -3.98 3 -5 3 C-5 3.66 -5 4.32 -5 5 C-6.32 5 -7.64 5 -9 5 C-9 3.68 -9 2.36 -9 1 C-4.545 0.505 -4.545 0.505 0 0 Z " fill="#C4BCBA" transform="translate(208,359)"/>
<path d="M0 0 C0.33 0 0.66 0 1 0 C1.29599372 8.2056037 0.43794854 15.92437827 -1 24 C-1.33 24 -1.66 24 -2 24 C-2.19627391 22.41773035 -2.38165538 20.83410729 -2.5625 19.25 C-2.66691406 18.36828125 -2.77132813 17.4865625 -2.87890625 16.578125 C-2.99456676 14.11567549 -2.73638695 12.33461936 -2 10 C-1.34 10 -0.68 10 0 10 C0 7.69 0 5.38 0 3 C-0.66 2.67 -1.32 2.34 -2 2 C-1.34 2 -0.68 2 0 2 C0 1.34 0 0.68 0 0 Z " fill="#575755" transform="translate(363,226)"/>
<path d="M0 0 C1.2065625 0.0309375 1.2065625 0.0309375 2.4375 0.0625 C1.84062566 3.40499629 0.70146123 5.52686342 -1.5625 8.0625 C-2.2225 8.0625 -2.8825 8.0625 -3.5625 8.0625 C-3.60491723 5.72955225 -3.60342937 3.39547433 -3.5625 1.0625 C-2.5625 0.0625 -2.5625 0.0625 0 0 Z " fill="#8A8785" transform="translate(513.5625,511.9375)"/>
<path d="M0 0 C3.91593446 0.78318689 7.36406635 2.39179858 11 4 C10.01 5.485 10.01 5.485 9 7 C3.49411765 6.51058824 3.49411765 6.51058824 1.125 4.0625 C0 2 0 2 0 0 Z " fill="#898584" transform="translate(455,452)"/>
<path d="M0 0 C4.29 0 8.58 0 13 0 C10.44729911 2.55270089 8.53273025 2.91363069 4.98535156 3.11352539 C4.2940918 3.10828857 3.60283203 3.10305176 2.890625 3.09765625 C2.13652344 3.09443359 1.38242187 3.09121094 0.60546875 3.08789062 C-0.17183594 3.07951172 -0.94914062 3.07113281 -1.75 3.0625 C-2.54277344 3.05798828 -3.33554687 3.05347656 -4.15234375 3.04882812 C-6.10159508 3.03708565 -8.05080738 3.01915146 -10 3 C-10 2.67 -10 2.34 -10 2 C-6.7 1.67 -3.4 1.34 0 1 C0 0.67 0 0.34 0 0 Z " fill="#3C393C" transform="translate(317,395)"/>
<path d="M0 0 C0.33 0.66 0.66 1.32 1 2 C1.66 2.33 2.32 2.66 3 3 C2.47731534 5.76276177 1.89130413 8.3260876 1 11 C0.01 11 -0.98 11 -2 11 C-2.94693195 7.2983569 -3.30443767 5.60887535 -1.5625 2.125 C-1.046875 1.42375 -0.53125 0.7225 0 0 Z " fill="#948D8B" transform="translate(399,373)"/>
<path d="M0 0 C0.99 0.99 1.98 1.98 3 3 C2.2884375 3.61875 2.2884375 3.61875 1.5625 4.25 C-0.16266518 6.182185 -0.56584875 7.48192275 -1 10 C-1.66 10 -2.32 10 -3 10 C-3.33 7.69 -3.66 5.38 -4 3 C-3.34 3 -2.68 3 -2 3 C-2 2.34 -2 1.68 -2 1 C-1.34 0.67 -0.68 0.34 0 0 Z " fill="#959190" transform="translate(516,350)"/>
<path d="M0 0 C1 3 1 3 0.5625 5.125 C-1.36525288 7.43830346 -2.20787087 7.38858577 -5.125 7.75 C-6.40375 7.8325 -7.6825 7.915 -9 8 C-7.82255415 4.46766245 -7.04394359 4.13691925 -3.9375 2.3125 C-3.20402344 1.87550781 -2.47054688 1.43851562 -1.71484375 0.98828125 C-1.14894531 0.66214844 -0.58304687 0.33601563 0 0 Z " fill="#3A393C" transform="translate(304,258)"/>
<path d="M0 0 C0.99 0.33 1.98 0.66 3 1 C3.33 3.64 3.66 6.28 4 9 C3.34 9 2.68 9 2 9 C2 7.68 2 6.36 2 5 C0.02 5 -1.96 5 -4 5 C-2.25 1.125 -2.25 1.125 0 0 Z " fill="#8E8A89" transform="translate(60,479)"/>
<path d="M0 0 C2.3431213 0.25561323 4.67843403 0.59270772 7 1 C7.33 1.66 7.66 2.32 8 3 C7.01 3 6.02 3 5 3 C5 3.99 5 4.98 5 6 C4.01 6 3.02 6 2 6 C1.67 6.99 1.34 7.98 1 9 C-0.06546953 5.8035914 -0.07427838 3.34252724 0 0 Z " fill="#8D8988" transform="translate(568,311)"/>
<path d="M0 0 C1.32 0 2.64 0 4 0 C4 1.65 4 3.3 4 5 C3.34 5 2.68 5 2 5 C2 5.99 2 6.98 2 8 C0.68 8.33 -0.64 8.66 -2 9 C-1.34 6.03 -0.68 3.06 0 0 Z " fill="#39383A" transform="translate(359,231)"/>
<path d="M0 0 C2.97 0 5.94 0 9 0 C8.67 1.32 8.34 2.64 8 4 C4.37 3.67 0.74 3.34 -3 3 C-2.01 2.67 -1.02 2.34 0 2 C0 1.34 0 0.68 0 0 Z " fill="#9B9A98" transform="translate(184,596)"/>
<path d="M0 0 C-0.99 0.495 -0.99 0.495 -2 1 C-2.46651207 3.12576782 -2.46651207 3.12576782 -2.625 5.5625 C-2.69976562 6.38878906 -2.77453125 7.21507812 -2.8515625 8.06640625 C-2.90054687 8.70449219 -2.94953125 9.34257813 -3 10 C-3.66 10 -4.32 10 -5 10 C-5 7.36 -5 4.72 -5 2 C-6.32 1.67 -7.64 1.34 -9 1 C-5.8035914 -0.06546953 -3.34252724 -0.07427838 0 0 Z " fill="#979392" transform="translate(478,542)"/>
<path d="M0 0 C0.8971875 0.309375 0.8971875 0.309375 1.8125 0.625 C1.8125 1.615 1.8125 2.605 1.8125 3.625 C0.4925 3.295 -0.8275 2.965 -2.1875 2.625 C-2.5175 4.275 -2.8475 5.925 -3.1875 7.625 C-4.5075 6.965 -5.8275 6.305 -7.1875 5.625 C-5.69046729 2.17030914 -4.27938051 -0.73360809 0 0 Z " fill="#898584" transform="translate(574.1875,454.375)"/>
<path d="M0 0 C1.98 0 3.96 0 6 0 C6.6875 2.3125 6.6875 2.3125 7 5 C5.5625 6.8125 5.5625 6.8125 4 8 C3.34 6.35 2.68 4.7 2 3 C1.34 3 0.68 3 0 3 C0 2.01 0 1.02 0 0 Z M7 2 C9 3 9 3 9 3 Z " fill="#9A9695" transform="translate(161,493)"/>
<path d="M0 0 C0.33 1.32 0.66 2.64 1 4 C0.01 4 -0.98 4 -2 4 C-2.33 4.99 -2.66 5.98 -3 7 C-4.65 7.33 -6.3 7.66 -8 8 C-8.33 6.02 -8.66 4.04 -9 2 C-6.36 2.33 -3.72 2.66 -1 3 C-0.67 2.01 -0.34 1.02 0 0 Z " fill="#888483" transform="translate(400,405)"/>
<path d="M0 0 C0.33 0.66 0.66 1.32 1 2 C1.66 2.33 2.32 2.66 3 3 C2.01 3.495 2.01 3.495 1 4 C1 5.32 1 6.64 1 8 C-0.65 8 -2.3 8 -4 8 C-3.6875 5.125 -3.6875 5.125 -3 2 C-2.01 1.34 -1.02 0.68 0 0 Z " fill="#2F3032" transform="translate(277,390)"/>
<path d="M0 0 C4.62 0 9.24 0 14 0 C14 0.99 14 1.98 14 3 C11.32568069 3.07640912 8.99964263 2.99992342 6.375 2.4375 C3.86351334 1.77723945 3.86351334 1.77723945 1 3 C0.67 2.01 0.34 1.02 0 0 Z " fill="#969390" transform="translate(23,358)"/>
<path d="M0 0 C5.53846154 -0.36923077 5.53846154 -0.36923077 7.875 1.5 C8.24625 1.995 8.6175 2.49 9 3 C8.67 3.99 8.34 4.98 8 6 C6.35 5.67 4.7 5.34 3 5 C2.87625 4.360625 2.7525 3.72125 2.625 3.0625 C2.315625 2.0415625 2.315625 2.0415625 2 1 C1.34 0.67 0.68 0.34 0 0 Z " fill="#3B3B3E" transform="translate(344,233)"/>
<path d="M0 0 C2.475 0.99 2.475 0.99 5 2 C4.67 2.66 4.34 3.32 4 4 C3.34 4 2.68 4 2 4 C2 4.66 2 5.32 2 6 C-0.31 6 -2.62 6 -5 6 C-5 5.34 -5 4.68 -5 4 C-4.0409375 3.8453125 -4.0409375 3.8453125 -3.0625 3.6875 C-2.381875 3.460625 -1.70125 3.23375 -1 3 C-0.67 2.01 -0.34 1.02 0 0 Z " fill="#9B9796" transform="translate(467,426)"/>
<path d="M0 0 C0.625 2.5625 0.625 2.5625 1 5 C-1.64 5.33 -4.28 5.66 -7 6 C-6.75 3.625 -6.75 3.625 -6 1 C-2.69333333 -1.34666667 -2.69333333 -1.34666667 0 0 Z " fill="#938F8E" transform="translate(526,402)"/>
<path d="M0 0 C1.65 0 3.3 0 5 0 C4.01 0.495 4.01 0.495 3 1 C2.80469954 3.01810474 2.60968517 5.03623913 2.41796875 7.0546875 C2 9 2 9 -0.0625 11 C-1.0215625 11.495 -1.0215625 11.495 -2 12 C-2 11.01 -2 10.02 -2 9 C-1.34 9 -0.68 9 0 9 C0 6.03 0 3.06 0 0 Z " fill="#938F8E" transform="translate(217,527)"/>
<path d="M0 0 C1.98 0.495 1.98 0.495 4 1 C3.67 3.31 3.34 5.62 3 8 C1.68 8.33 0.36 8.66 -1 9 C-0.67 6.03 -0.34 3.06 0 0 Z " fill="#828081" transform="translate(585,512)"/>
<path d="M0 0 C5.625 -0.25 5.625 -0.25 9 2 C8.67 2.99 8.34 3.98 8 5 C6.02 5 4.04 5 2 5 C1.34 3.35 0.68 1.7 0 0 Z " fill="#969291" transform="translate(471,504)"/>
<path d="M0 0 C0.66 0 1.32 0 2 0 C2 0.99 2 1.98 2 3 C3.65 2.34 5.3 1.68 7 1 C6.67 2.32 6.34 3.64 6 5 C3.69 5.33 1.38 5.66 -1 6 C-0.67 4.02 -0.34 2.04 0 0 Z " fill="#9D9998" transform="translate(393,466)"/>
<path d="M0 0 C0.99 0.66 1.98 1.32 3 2 C5.27912938 2.45394552 5.27912938 2.45394552 7.6875 2.625 C8.49574219 2.69976562 9.30398438 2.77453125 10.13671875 2.8515625 C10.75160156 2.90054687 11.36648438 2.94953125 12 3 C12 3.33 12 3.66 12 4 C6.39 4 0.78 4 -5 4 C-4.34 3.34 -3.68 2.68 -3 2 C-2.01 2 -1.02 2 0 2 C0 1.34 0 0.68 0 0 Z " fill="#444445" transform="translate(288,396)"/>
<path d="M0 0 C0 0.66 0 1.32 0 2 C0.62648437 1.90460938 1.25296875 1.80921875 1.8984375 1.7109375 C2.71570313 1.60007812 3.53296875 1.48921875 4.375 1.375 C5.59316406 1.20097656 5.59316406 1.20097656 6.8359375 1.0234375 C7.55007812 1.01570313 8.26421875 1.00796875 9 1 C9.66 1.66 10.32 2.32 11 3 C4.73 3 -1.54 3 -8 3 C-6.23110084 -0.53779831 -3.70375662 0 0 0 Z " fill="#C2BAB8" transform="translate(129,359)"/>
<path d="M0 0 C1.134375 0.020625 2.26875 0.04125 3.4375 0.0625 C3.4375 1.7125 3.4375 3.3625 3.4375 5.0625 C2.7775 4.4025 2.1175 3.7425 1.4375 3.0625 C1.1075 3.7225 0.7775 4.3825 0.4375 5.0625 C-0.8825 4.7325 -2.2025 4.4025 -3.5625 4.0625 C-3.2325 3.4025 -2.9025 2.7425 -2.5625 2.0625 C-3.2225 1.7325 -3.8825 1.4025 -4.5625 1.0625 C-3.5625 0.0625 -3.5625 0.0625 0 0 Z " fill="#938F8E" transform="translate(524.5625,358.9375)"/>
<path d="M0 0 C0.66 0.33 1.32 0.66 2 1 C1.75 3.875 1.75 3.875 1 7 C-1.0625 8.375 -1.0625 8.375 -3 9 C-4 6 -4 6 -3 3 C-1.4375 1.3125 -1.4375 1.3125 0 0 Z " fill="#93908E" transform="translate(387,312)"/>
<path d="M0 0 C0.33 0.66 0.66 1.32 1 2 C-0.21484375 4.8203125 -0.21484375 4.8203125 -1.9375 8.125 C-2.50339844 9.22070312 -3.06929688 10.31640625 -3.65234375 11.4453125 C-4.09707031 12.28835938 -4.54179687 13.13140625 -5 14 C-5.87840996 10.90279155 -5.99435406 9.09354597 -5 6 C-4.34 6 -3.68 6 -3 6 C-2.690625 5.195625 -2.38125 4.39125 -2.0625 3.5625 C-1 1 -1 1 0 0 Z " fill="#5C5C5F" transform="translate(280,295)"/>
<path d="M0 0 C0.66 0.99 1.32 1.98 2 3 C0.68 3.33 -0.64 3.66 -2 4 C-2 5.32 -2 6.64 -2 8 C-1.34 8 -0.68 8 0 8 C-0.3125 9.9375 -0.3125 9.9375 -1 12 C-1.99 12.33 -2.98 12.66 -4 13 C-3.91266424 11.39482903 -3.80447776 9.79078338 -3.6875 8.1875 C-3.62949219 7.29417969 -3.57148438 6.40085937 -3.51171875 5.48046875 C-2.93686419 2.69396 -2.1793144 1.75864246 0 0 Z " fill="#4A4A4A" transform="translate(294,266)"/>
<path d="M0 0 C0.33 0.66 0.66 1.32 1 2 C2.65 1.67 4.3 1.34 6 1 C6.99 2.32 7.98 3.64 9 5 C6.08517222 5.80967438 4.53886783 6.21845993 1.6875 5.0625 C1.130625 4.711875 0.57375 4.36125 0 4 C0 2.68 0 1.36 0 0 Z " fill="#817E7D" transform="translate(79,523)"/>
<path d="M0 0 C0.66 0.33 1.32 0.66 2 1 C1.67 1.99 1.34 2.98 1 4 C1.99 4.33 2.98 4.66 4 5 C3.67 5.99 3.34 6.98 3 8 C1.02 8 -0.96 8 -3 8 C-2.690625 7.236875 -2.38125 6.47375 -2.0625 5.6875 C-1.32106407 3.81210323 -0.63771783 1.91315348 0 0 Z " fill="#8B8786" transform="translate(500,552)"/>
<path d="M0 0 C0.66 0 1.32 0 2 0 C2 1.98 2 3.96 2 6 C-1 6 -1 6 -4 5 C-4.33 4.01 -4.66 3.02 -5 2 C-3.35 2 -1.7 2 0 2 C0 1.34 0 0.68 0 0 Z " fill="#9C9897" transform="translate(261,536)"/>
<path d="M0 0 C0.99 0.33 1.98 0.66 3 1 C3.33 1.99 3.66 2.98 4 4 C1.35261084 5.4606285 0.10551666 6 -3 6 C-1.125 1.125 -1.125 1.125 0 0 Z " fill="#918A87" transform="translate(595,491)"/>
<path d="M0 0 C3 0 6 0 9 0 C8 3 8 3 6.1875 4.3125 C4 5 4 5 1.75 4.125 C1.1725 3.75375 0.595 3.3825 0 3 C0 2.01 0 1.02 0 0 Z " fill="#AEA9A6" transform="translate(297,405)"/>
<path d="M0 0 C2.97 0 5.94 0 9 0 C7.515 2.475 7.515 2.475 6 5 C4.02 4.34 2.04 3.68 0 3 C0 2.01 0 1.02 0 0 Z " fill="#A19D9A" transform="translate(297,402)"/>
<path d="M0 0 C0.66 0 1.32 0 2 0 C2 0.66 2 1.32 2 2 C2.99 2.33 3.98 2.66 5 3 C4.34 4.65 3.68 6.3 3 8 C2.01 8 1.02 8 0 8 C0 7.01 0 6.02 0 5 C-0.66 4.67 -1.32 4.34 -2 4 C-1.34 4 -0.68 4 0 4 C0 2.68 0 1.36 0 0 Z " fill="#827D83" transform="translate(341,392)"/>
<path d="M0 0 C0.99 0.33 1.98 0.66 3 1 C2.67 2.98 2.34 4.96 2 7 C-0.475 6.01 -0.475 6.01 -3 5 C-2.01 3.35 -1.02 1.7 0 0 Z " fill="#38383A" transform="translate(262,384)"/>
<path d="M0 0 C0.66 0 1.32 0 2 0 C2 1.65 2 3.3 2 5 C3.32 5.66 4.64 6.32 6 7 C6.33 6.34 6.66 5.68 7 5 C6.67 6.32 6.34 7.64 6 9 C3.36 7.68 0.72 6.36 -2 5 C-2 4.01 -2 3.02 -2 2 C-1.34 2 -0.68 2 0 2 C0 1.34 0 0.68 0 0 Z " fill="#484747" transform="translate(258,384)"/>
<path d="M0 0 C3.63 0 7.26 0 11 0 C10.67 0.99 10.34 1.98 10 3 C9.01 3 8.02 3 7 3 C7 2.34 7 1.68 7 1 C5.35 2.32 3.7 3.64 2 5 C1.34 3.35 0.68 1.7 0 0 Z " fill="#9D9895" transform="translate(38,358)"/>
<path d="M0 0 C1.65 0 3.3 0 5 0 C5 1.32 5 2.64 5 4 C3.68 4.33 2.36 4.66 1 5 C1 5.66 1 6.32 1 7 C0.34 7 -0.32 7 -1 7 C-0.67 4.69 -0.34 2.38 0 0 Z " fill="#C1B9B7" transform="translate(248,328)"/>
<path d="M0 0 C0.99 0 1.98 0 3 0 C2.67 2.31 2.34 4.62 2 7 C1.38125 7.144375 0.7625 7.28875 0.125 7.4375 C-2.03258322 7.93152225 -2.03258322 7.93152225 -4 9 C-3.71125 8.443125 -3.4225 7.88625 -3.125 7.3125 C-1.9586747 4.91505355 -0.9660119 2.48403061 0 0 Z " fill="#5A595D" transform="translate(352,289)"/>
<path d="M0 0 C0.598125 0.350625 1.19625 0.70125 1.8125 1.0625 C-0.36174117 3.56287734 -1.91795798 4.49878586 -5.1875 5.0625 C-5.5175 4.0725 -5.8475 3.0825 -6.1875 2.0625 C-4.66896708 -0.97456585 -3.05066334 -1.30742714 0 0 Z " fill="#B0ACA8" transform="translate(293.1875,264.9375)"/>
<path d="M0 0 C0.99 0 1.98 0 3 0 C4.125 6.75 4.125 6.75 3 9 C2.01 8.67 1.02 8.34 0 8 C0 5.36 0 2.72 0 0 Z " fill="#777573" transform="translate(313,233)"/>
<path d="M0 0 C1.65 0 3.3 0 5 0 C5 2.66666667 5 5.33333333 5 8 C3 8 3 8 1.375 6.8125 C-0.42149467 4.44439338 -0.23521845 2.90102749 0 0 Z " fill="#928E8D" transform="translate(555,104)"/>
<path d="M0 0 C1.98 0 3.96 0 6 0 C4.35 2.64 2.7 5.28 1 8 C-1 5 -1 5 -0.625 2.3125 C-0.41875 1.549375 -0.2125 0.78625 0 0 Z " fill="#B8AFAE" transform="translate(104,0)"/>
<path d="M0 0 C2.97 0 5.94 0 9 0 C8.67 0.66 8.34 1.32 8 2 C6.68 2 5.36 2 4 2 C3.67 3.32 3.34 4.64 3 6 C1 4 1 4 0 0 Z " fill="#928E8D" transform="translate(462,588)"/>
<path d="M0 0 C1.32 0 2.64 0 4 0 C3.125 4.75 3.125 4.75 2 7 C2.66 7 3.32 7 4 7 C4 7.66 4 8.32 4 9 C2.68 8.67 1.36 8.34 0 8 C0 5.36 0 2.72 0 0 Z " fill="#7D7B80" transform="translate(140,564)"/>
<path d="M0 0 C0.66 0 1.32 0 2 0 C2 0.66 2 1.32 2 2 C2.66 2.33 3.32 2.66 4 3 C3.01 4.485 3.01 4.485 2 6 C1.34 6 0.68 6 0 6 C0 6.66 0 7.32 0 8 C-0.99 7.67 -1.98 7.34 -3 7 C-2.690625 6.401875 -2.38125 5.80375 -2.0625 5.1875 C-0.89790296 2.91043228 -0.89790296 2.91043228 0 0 Z " fill="#969291" transform="translate(467,528)"/>
<path d="M0 0 C0.66 0.66 1.32 1.32 2 2 C1.625 4.625 1.625 4.625 1 7 C-2 8 -2 8 -5 7 C-5 6.34 -5 5.68 -5 5 C-4.360625 4.731875 -3.72125 4.46375 -3.0625 4.1875 C-0.66868314 3.11332248 -0.66868314 3.11332248 0 0 Z " fill="#7B7A7F" transform="translate(351,387)"/>
<path d="M0 0 C0.66 0.66 1.32 1.32 2 2 C0.68 3.32 -0.64 4.64 -2 6 C-2.66 5.34 -3.32 4.68 -4 4 C-4.99 5.485 -4.99 5.485 -6 7 C-6.66 6.67 -7.32 6.34 -8 6 C-7.67 4.68 -7.34 3.36 -7 2 C-4.69 2 -2.38 2 0 2 C0 1.34 0 0.68 0 0 Z " fill="#6B696E" transform="translate(367,378)"/>
<path d="M0 0 C0.33 0 0.66 0 1 0 C1.0809723 2.43816585 1.14046972 4.87364384 1.1875 7.3125 C1.22520508 8.34793945 1.22520508 8.34793945 1.26367188 9.40429688 C1.33834499 14.55674183 1.33834499 14.55674183 -0.51171875 16.98046875 C-1.00285156 17.31691406 -1.49398438 17.65335937 -2 18 C-2.33 16.35 -2.66 14.7 -3 13 C-2.01 12.67 -1.02 12.34 0 12 C0 8.04 0 4.08 0 0 Z " fill="#37363A" transform="translate(352,346)"/>
<path d="M0 0 C0.33 0 0.66 0 1 0 C1 2.97 1 5.94 1 9 C0.01 9.495 0.01 9.495 -1 10 C-2.76462683 6.91190305 -3 5.76687864 -3 2 C-2.01 2 -1.02 2 0 2 C0 1.34 0 0.68 0 0 Z " fill="#3F4040" transform="translate(360,241)"/>
<path d="M0 0 C1.69752187 0.25245197 3.38471545 0.57645775 5.0625 0.9375 C5.98160156 1.13214844 6.90070313 1.32679688 7.84765625 1.52734375 C8.91306641 1.76130859 8.91306641 1.76130859 10 2 C10 2.33 10 2.66 10 3 C5.71 3.66 1.42 4.32 -3 5 C-1 1 -1 1 0 0 Z " fill="#434347" transform="translate(331,232)"/>
<path d="M0 0 C0 1.65 0 3.3 0 5 C-2.31 5 -4.62 5 -7 5 C-6 2 -6 2 -4.0625 0.8125 C-2 0 -2 0 0 0 Z " fill="#BCB4B2" transform="translate(321,595)"/>
<path d="M0 0 C2.97 0.495 2.97 0.495 6 1 C5.34 2.65 4.68 4.3 4 6 C2.35 5.67 0.7 5.34 -1 5 C-0.67 3.35 -0.34 1.7 0 0 Z " fill="#9A9695" transform="translate(401,432)"/>
<path d="M0 0 C1.98 0.495 1.98 0.495 4 1 C3.67 2.65 3.34 4.3 3 6 C1.68 6 0.36 6 -1 6 C-0.67 4.02 -0.34 2.04 0 0 Z " fill="#9B9796" transform="translate(465,376)"/>
<path d="M0 0 C0.66 0 1.32 0 2 0 C2 2 2 4 2 6 C1.01 6 0.02 6 -1 6 C-1.33 7.32 -1.66 8.64 -2 10 C-2 9.34 -2 8.68 -2 8 C-3.32 7.67 -4.64 7.34 -6 7 C-5.01 6.67 -4.02 6.34 -3 6 C-1.29144978 2.99992729 -1.29144978 2.99992729 0 0 Z " fill="#B5B0B2" transform="translate(273,296)"/>
<path d="M0 0 C1.24262452 2.48524904 0.89426128 3.34486262 0.25 6 C0.01023437 7.051875 0.01023437 7.051875 -0.234375 8.125 C-1 10 -1 10 -4 12 C-3.71640113 10.5608866 -3.42278601 9.12374482 -3.125 7.6875 C-2.96257812 6.88699219 -2.80015625 6.08648437 -2.6328125 5.26171875 C-2 3 -2 3 0 0 Z " fill="#838284" transform="translate(290,272)"/>
<path d="M0 0 C0.66 0.99 1.32 1.98 2 3 C2.66 3.66 3.32 4.32 4 5 C3.34 5.66 2.68 6.32 2 7 C-0.125 6.625 -0.125 6.625 -2 6 C-2 4.35 -2 2.7 -2 1 C-1.34 0.67 -0.68 0.34 0 0 Z " fill="#938F8E" transform="translate(463,561)"/>
<path d="M0 0 C1.32 0.33 2.64 0.66 4 1 C4.625 2.8125 4.625 2.8125 5 5 C4.01 6.485 4.01 6.485 3 8 C2.34 7.67 1.68 7.34 1 7 C0.59270772 4.67843403 0.25561323 2.3431213 0 0 Z " fill="#8F8B8A" transform="translate(488,560)"/>
<path d="M0 0 C1.65 0.33 3.3 0.66 5 1 C1.25 6.875 1.25 6.875 -1 8 C-0.67 5.36 -0.34 2.72 0 0 Z " fill="#737377" transform="translate(366,272)"/>
<path d="M0 0 C1.98 0 3.96 0 6 0 C5.67 0.66 5.34 1.32 5 2 C4.34 2 3.68 2 3 2 C2.87625 2.61875 2.7525 3.2375 2.625 3.875 C2 6 2 6 0 8 C0 5.36 0 2.72 0 0 Z " fill="#BAB0AE" transform="translate(0,268)"/>
<path d="M0 0 C0.66 0.33 1.32 0.66 2 1 C1.34 3.31 0.68 5.62 0 8 C-0.66 8 -1.32 8 -2 8 C-2.33 8.66 -2.66 9.32 -3 10 C-3 6.60345276 -2.51816587 2.51816587 0 0 Z " fill="#B3AEAD" transform="translate(298,255)"/>
<path d="M0 0 C2.9375 0.375 2.9375 0.375 6 1 C6.33 1.66 6.66 2.32 7 3 C6.67 3.66 6.34 4.32 6 5 C4.35 4.67 2.7 4.34 1 4 C0.67 2.68 0.34 1.36 0 0 Z " fill="#B3B8B4" transform="translate(321,224)"/>
<path d="M0 0 C0.33 0.66 0.66 1.32 1 2 C-0.62339805 3.70884005 -2.29319053 5.37446717 -4 7 C-4.66 7 -5.32 7 -6 7 C-6.33 5.02 -6.66 3.04 -7 1 C-6.01 1 -5.02 1 -4 1 C-3.67 1.99 -3.34 2.98 -3 4 C-2.01 2.68 -1.02 1.36 0 0 Z " fill="#94908F" transform="translate(463,577)"/>
<path d="M0 0 C0.598125 0.185625 1.19625 0.37125 1.8125 0.5625 C4.16408762 1.22093687 4.16408762 1.22093687 7 0 C6.67 1.32 6.34 2.64 6 4 C2.25 5.125 2.25 5.125 0 4 C0 2.68 0 1.36 0 0 Z " fill="#706E73" transform="translate(21,574)"/>
<path d="M0 0 C2.31 0 4.62 0 7 0 C7 0.66 7 1.32 7 2 C3.91190305 3.76462683 2.76687864 4 -1 4 C-0.67 2.68 -0.34 1.36 0 0 Z " fill="#7E7C81" transform="translate(528,564)"/>
<path d="M0 0 C1.66666667 0 3.33333333 0 5 0 C5.33 0.99 5.66 1.98 6 3 C2.25 5 2.25 5 0 5 C0 4.34 0 3.68 0 3 C-0.66 2.67 -1.32 2.34 -2 2 C-1.34 1.34 -0.68 0.68 0 0 Z " fill="#7B7778" transform="translate(536,509)"/>
<path d="M0 0 C1.1875 1.5 1.1875 1.5 2 4 C1.27101296 6.78824238 0.1843275 9.37665092 -1 12 C-1.33 12 -1.66 12 -2 12 C-1.85904936 10.3745692 -1.71207913 8.74965949 -1.5625 7.125 C-1.48128906 6.22007812 -1.40007812 5.31515625 -1.31640625 4.3828125 C-1 2 -1 2 0 0 Z " fill="#575455" transform="translate(254,332)"/>
<path d="M0 0 C0.66 0 1.32 0 2 0 C3.2380014 3.57644848 2.74926071 6.33694766 2 10 C1.01 10 0.02 10 -1 10 C-1.08004482 6.4780279 -1.04005702 3.38018531 0 0 Z " fill="#999594" transform="translate(385,296)"/>
<path d="M0 0 C2 2 2 2 2.125 4.625 C2.08375 5.40875 2.0425 6.1925 2 7 C1.01 7 0.02 7 -1 7 C-1.66 6.34 -2.32 5.68 -3 5 C-3 4.01 -3 3.02 -3 2 C-2.01 1.34 -1.02 0.68 0 0 Z " fill="#68666B" transform="translate(362,292)"/>
<path d="M0 0 C1.32 0 2.64 0 4 0 C4 2.31 4 4.62 4 7 C3.01 7 2.02 7 1 7 C0.67 4.69 0.34 2.38 0 0 Z " fill="#B5AFAF" transform="translate(279,280)"/>
<path d="M0 0 C0.99 0.66 1.98 1.32 3 2 C2.25 3.9375 2.25 3.9375 1 6 C-1.125 6.75 -1.125 6.75 -3 7 C-2.67 5.35 -2.34 3.7 -2 2 C-1.34 2 -0.68 2 0 2 C0 1.34 0 0.68 0 0 Z " fill="#353638" transform="translate(293,276)"/>
<path d="M0 0 C0.99 1.32 1.98 2.64 3 4 C2.34 4.66 1.68 5.32 1 6 C0.60235737 7.98821313 0.26224651 9.98944339 0 12 C-0.33 12 -0.66 12 -1 12 C-1.22162329 10.37675914 -1.42689803 8.751279 -1.625 7.125 C-1.74101563 6.22007812 -1.85703125 5.31515625 -1.9765625 4.3828125 C-1.98429687 3.59648437 -1.99203125 2.81015625 -2 2 C-1.34 1.34 -0.68 0.68 0 0 Z " fill="#B0A8A6" transform="translate(66,155)"/>
<path d="M0 0 C0.33 0 0.66 0 1 0 C1 1.65 1 3.3 1 5 C1.99 5.33 2.98 5.66 4 6 C3.67 7.32 3.34 8.64 3 10 C2.01 10 1.02 10 0 10 C0 6.7 0 3.4 0 0 Z " fill="#BCB2B1" transform="translate(0,148)"/>
<path d="M0 0 C3.63 0 7.26 0 11 0 C10.01 0.33 9.02 0.66 8 1 C7.67 1.66 7.34 2.32 7 3 C4.66666667 3 2.33333333 3 0 3 C0 2.01 0 1.02 0 0 Z " fill="#9F9B9A" transform="translate(584,0)"/>
<path d="M0 0 C-0.99 1.485 -0.99 1.485 -2 3 C-3.32 3 -4.64 3 -6 3 C-8.20067421 3.93283296 -8.20067421 3.93283296 -10 5 C-9.625 3.0625 -9.625 3.0625 -9 1 C-6.04335481 -0.4783226 -3.25770263 -0.06032783 0 0 Z " fill="#8D8988" transform="translate(162,511)"/>
<path d="M0 0 C0.99 0.33 1.98 0.66 3 1 C2.75 2.875 2.75 2.875 2 5 C-0.0625 6.25 -0.0625 6.25 -2 7 C-1.125 1.125 -1.125 1.125 0 0 Z " fill="#908C8B" transform="translate(490,482)"/>
<path d="M0 0 C0.86625 0.2784375 0.86625 0.2784375 1.75 0.5625 C4.20692525 1.04023546 5.64397534 0.75729364 8 0 C7.67 0.99 7.34 1.98 7 3 C3.4375 4.6875 3.4375 4.6875 0 6 C0 4.02 0 2.04 0 0 Z " fill="#8C8887" transform="translate(495,476)"/>
<path d="M0 0 C0.66 0 1.32 0 2 0 C2.33 1.65 2.66 3.3 3 5 C2.67 4.34 2.34 3.68 2 3 C1.34 3 0.68 3 0 3 C-0.103125 3.639375 -0.20625 4.27875 -0.3125 4.9375 C-0.539375 5.618125 -0.76625 6.29875 -1 7 C-1.99 7.33 -2.98 7.66 -4 8 C-4 7.34 -4 6.68 -4 6 C-3.34 6 -2.68 6 -2 6 C-1.855625 5.195625 -1.71125 4.39125 -1.5625 3.5625 C-1 1 -1 1 0 0 Z " fill="#9B9796" transform="translate(133,472)"/>
<path d="M0 0 C1.98 0.66 3.96 1.32 6 2 C5.34 3.32 4.68 4.64 4 6 C2.68 5.67 1.36 5.34 0 5 C0.66 5 1.32 5 2 5 C1.34 4.34 0.68 3.68 0 3 C0 2.01 0 1.02 0 0 Z " fill="#B2ADAA" transform="translate(279,401)"/>
<path d="M0 0 C2.97 0 5.94 0 9 0 C9 0.66 9 1.32 9 2 C6 4 6 4 3 4 C2.67 3.34 2.34 2.68 2 2 C1.34 2 0.68 2 0 2 C0 1.34 0 0.68 0 0 Z " fill="#C0B8B6" transform="translate(224,382)"/>
<path d="M0 0 C0.99 0 1.98 0 3 0 C3 2.64 3 5.28 3 8 C2.01 8 1.02 8 0 8 C0 5.36 0 2.72 0 0 Z " fill="#C3BBB9" transform="translate(193,376)"/>
<path d="M0 0 C1.32 0.33 2.64 0.66 4 1 C4 3.31 4 5.62 4 8 C2 6.25 2 6.25 0 4 C0 2.68 0 1.36 0 0 Z " fill="#B1A9A7" transform="translate(64,144)"/>
<path d="M0 0 C1.32 0 2.64 0 4 0 C4 0.99 4 1.98 4 3 C-0.29 3 -4.58 3 -9 3 C-9 2.67 -9 2.34 -9 2 C-6.03 2 -3.06 2 0 2 C0 1.34 0 0.68 0 0 Z " fill="#918E8F" transform="translate(521,597)"/>
<path d="M0 0 C0.66 0 1.32 0 2 0 C2.33 2.31 2.66 4.62 3 7 C2.01 7.33 1.02 7.66 0 8 C0 5.36 0 2.72 0 0 Z " fill="#888483" transform="translate(188,576)"/>
<path d="M0 0 C1.32 0.66 2.64 1.32 4 2 C4 2.99 4 3.98 4 5 C2.35 5.33 0.7 5.66 -1 6 C-1 3 -1 3 0 0 Z " fill="#8F8B8A" transform="translate(481,546)"/>
<path d="M0 0 C1.32 0.33 2.64 0.66 4 1 C3.67 1.99 3.34 2.98 3 4 C2.34 4 1.68 4 1 4 C1.33 5.32 1.66 6.64 2 8 C1.01 8.495 1.01 8.495 0 9 C0 6.03 0 3.06 0 0 Z " fill="#858388" transform="translate(0,543)"/>
<path d="M0 0 C0.99 1.32 1.98 2.64 3 4 C2.01 4.99 1.02 5.98 0 7 C-0.66 6.67 -1.32 6.34 -2 6 C-1.125 1.125 -1.125 1.125 0 0 Z " fill="#6F6D72" transform="translate(15,528)"/>
<path d="M0 0 C0.66 0 1.32 0 2 0 C2.625 2.875 2.625 2.875 3 6 C2.34 6.66 1.68 7.32 1 8 C1 7.34 1 6.68 1 6 C0.34 6 -0.32 6 -1 6 C-1.33 5.01 -1.66 4.02 -2 3 C-1.34 3 -0.68 3 0 3 C0 2.01 0 1.02 0 0 Z " fill="#999594" transform="translate(464,481)"/>
<path d="M0 0 C2.475 0.99 2.475 0.99 5 2 C4.67 2.99 4.34 3.98 4 5 C2.68 4.67 1.36 4.34 0 4 C0 2.68 0 1.36 0 0 Z M-2 3 C-1.34 3.66 -0.68 4.32 0 5 C-0.99 5.495 -0.99 5.495 -2 6 C-2 5.01 -2 4.02 -2 3 Z " fill="#A19D9C" transform="translate(348,410)"/>
<path d="M0 0 C0.66 0 1.32 0 2 0 C2.125 6.75 2.125 6.75 1 9 C0.34 9 -0.32 9 -1 9 C-1.07427838 5.65747276 -1.06546953 3.1964086 0 0 Z " fill="#AFABAA" transform="translate(248,354)"/>
<path d="M0 0 C0.99 0.99 1.98 1.98 3 3 C2.34 3 1.68 3 1 3 C1 3.66 1 4.32 1 5 C0.01 5.33 -0.98 5.66 -2 6 C-2.66 6.66 -3.32 7.32 -4 8 C-4 7.34 -4 6.68 -4 6 C-4.66 5.67 -5.32 5.34 -6 5 C-4.02 4.34 -2.04 3.68 0 3 C0 2.01 0 1.02 0 0 Z " fill="#BCB8B7" transform="translate(248,338)"/>
<path d="M0 0 C0.99 0.99 1.98 1.98 3 3 C2.8125 6.125 2.8125 6.125 2 9 C1.01 9.495 1.01 9.495 0 10 C0 6.7 0 3.4 0 0 Z " fill="#B8B0AB" transform="translate(0,69)"/>
<path d="M0 0 C0 0.99 0 1.98 0 3 C-0.66 3 -1.32 3 -2 3 C-2.33 3.66 -2.66 4.32 -3 5 C-3.433125 4.0409375 -3.433125 4.0409375 -3.875 3.0625 C-4.82823451 0.84793921 -4.82823451 0.84793921 -7 0 C-2.25 -1.125 -2.25 -1.125 0 0 Z " fill="#7D7B80" transform="translate(153,588)"/>
<path d="M0 0 C0.99 0.495 0.99 0.495 2 1 C2 1.99 2 2.98 2 4 C2.66 4.33 3.32 4.66 4 5 C3.67 5.99 3.34 6.98 3 8 C2.01 8 1.02 8 0 8 C0 5.36 0 2.72 0 0 Z " fill="#868487" transform="translate(0,533)"/>
<path d="M0 0 C2.475 0.495 2.475 0.495 5 1 C5.33 2.65 5.66 4.3 6 6 C3.00306862 5.00102287 1.97290587 4.34869747 0 2 C0 1.34 0 0.68 0 0 Z " fill="#8D8988" transform="translate(160,518)"/>
<path d="M0 0 C1.98 0.99 1.98 0.99 4 2 C4 3.32 4 4.64 4 6 C2.68 6.33 1.36 6.66 0 7 C0 4.69 0 2.38 0 0 Z " fill="#908C8B" transform="translate(135,498)"/>
<path d="M0 0 C1.65 0.33 3.3 0.66 5 1 C5.33 2.65 5.66 4.3 6 6 C5.34 6 4.68 6 4 6 C4 5.34 4 4.68 4 4 C2.68 3.67 1.36 3.34 0 3 C0 2.01 0 1.02 0 0 Z " fill="#8C8684" transform="translate(592,478)"/>
<path d="M0 0 C1.32 0.33 2.64 0.66 4 1 C3.34 2.65 2.68 4.3 2 6 C0.68 6 -0.64 6 -2 6 C-1.34 4.02 -0.68 2.04 0 0 Z " fill="#8E8A89" transform="translate(461,460)"/>
<path d="M0 0 C0.66 0 1.32 0 2 0 C2 2.31 2 4.62 2 7 C0.35 6.67 -1.3 6.34 -3 6 C-2.01 4.02 -1.02 2.04 0 0 Z " fill="#9D9998" transform="translate(467,401)"/>
<path d="M0 0 C0.66 0.33 1.32 0.66 2 1 C1.01 2.98 0.02 4.96 -1 7 C-1.66 7 -2.32 7 -3 7 C-3 7.99 -3 8.98 -3 10 C-3.66 10 -4.32 10 -5 10 C-4.49380917 6.25418786 -3.84235245 4.48705839 -1 2 C-0.67 1.34 -0.34 0.68 0 0 Z " fill="#535357" transform="translate(340,382)"/>
<path d="M0 0 C1.32 0.66 2.64 1.32 4 2 C3.67 3.65 3.34 5.3 3 7 C2.67 6.01 2.34 5.02 2 4 C1.34 4 0.68 4 0 4 C-0.33 4.66 -0.66 5.32 -1 6 C-1 2 -1 2 0 0 Z " fill="#9B9C98" transform="translate(248,372)"/>
<path d="M0 0 C0.99 0 1.98 0 3 0 C3 1.32 3 2.64 3 4 C1.35 4.66 -0.3 5.32 -2 6 C-1.49396008 3.83125748 -1.00016187 2.00032373 0 0 Z " fill="#403F42" transform="translate(283,289)"/>
<path d="M0 0 C1.25541557 3.76624671 0.37061958 5.37188934 -1 9 C-1.66 9 -2.32 9 -3 9 C-2.67 6.69 -2.34 4.38 -2 2 C-1.34 2 -0.68 2 0 2 C0 1.34 0 0.68 0 0 Z " fill="#9D989A" transform="translate(286,278)"/>
<path d="M0 0 C0.99 0 1.98 0 3 0 C3 0.66 3 1.32 3 2 C3.99 2 4.98 2 6 2 C6 2.66 6 3.32 6 4 C6.66 4.33 7.32 4.66 8 5 C4.65626525 4.44271087 1.96687001 3.64826111 -1 2 C-0.67 1.34 -0.34 0.68 0 0 Z " fill="#BCB6B8" transform="translate(330,228)"/>
<path d="M0 0 C0.66 0 1.32 0 2 0 C2 1.32 2 2.64 2 4 C2.66 4.33 3.32 4.66 4 5 C3.01 6.485 3.01 6.485 2 8 C1.34 8 0.68 8 0 8 C0 5.36 0 2.72 0 0 Z " fill="#B6AEAC" transform="translate(397,216)"/>
<path d="M0 0 C0.33 0 0.66 0 1 0 C1 2.31 1 4.62 1 7 C-0.32 7 -1.64 7 -3 7 C-2.38722388 4.03824877 -1.74627478 2.61941217 0 0 Z " fill="#9B9796" transform="translate(599,96)"/>
<path d="M0 0 C0 1.65 0 3.3 0 5 C-1.98 5 -3.96 5 -6 5 C-2.4516129 0 -2.4516129 0 0 0 Z " fill="#848287" transform="translate(564,595)"/>
<path d="M0 0 C1.32 0 2.64 0 4 0 C3.67 0.99 3.34 1.98 3 3 C2.01 3.33 1.02 3.66 0 4 C-0.33 5.65 -0.66 7.3 -1 9 C-1.33 9 -1.66 9 -2 9 C-2.25 3.375 -2.25 3.375 0 0 Z " fill="#6E6C71" transform="translate(42,573)"/>
<path d="M0 0 C0.66 0.33 1.32 0.66 2 1 C1.01 2.485 1.01 2.485 0 4 C0.66 4 1.32 4 2 4 C1.67 4.99 1.34 5.98 1 7 C0.34 7 -0.32 7 -1 7 C-1.625 4.625 -1.625 4.625 -2 2 C-1.34 1.34 -0.68 0.68 0 0 Z " fill="#9E9A99" transform="translate(426,529)"/>
<path d="M0 0 C1.9375 0.6875 1.9375 0.6875 4 2 C4.75 4.625 4.75 4.625 5 7 C4.01 7 3.02 7 2 7 C1.34 4.69 0.68 2.38 0 0 Z " fill="#8C8887" transform="translate(140,498)"/>
<path d="M0 0 C0 2.64 0 5.28 0 8 C-0.99 8.495 -0.99 8.495 -2 9 C-2.144375 8.236875 -2.28875 7.47375 -2.4375 6.6875 C-2.9632594 3.91827092 -2.9632594 3.91827092 -4 1 C-2 0 -2 0 0 0 Z " fill="#928E8D" transform="translate(89,481)"/>
<path d="M0 0 C0.99 1.32 1.98 2.64 3 4 C2.34 5.32 1.68 6.64 1 8 C0.01 7.01 -0.98 6.02 -2 5 C-1.34 3.35 -0.68 1.7 0 0 Z " fill="#969291" transform="translate(3,435)"/>
<path d="M0 0 C0.33 0.66 0.66 1.32 1 2 C0.34 2 -0.32 2 -1 2 C-1 3.32 -1 4.64 -1 6 C-2.98 6.99 -2.98 6.99 -5 8 C-5.66 7.34 -6.32 6.68 -7 6 C-6.34 6 -5.68 6 -5 6 C-5 5.34 -5 4.68 -5 4 C-4.01 4 -3.02 4 -2 4 C-2 3.01 -2 2.02 -2 1 C-1.34 0.67 -0.68 0.34 0 0 Z " fill="#625F64" transform="translate(339,388)"/>
<path d="M0 0 C0.99 0.33 1.98 0.66 3 1 C2.45276317 4.37462715 1.9451 6.08235 0 9 C0 6.03 0 3.06 0 0 Z " fill="#65676B" transform="translate(350,319)"/>
<path d="M0 0 C0.99 0.33 1.98 0.66 3 1 C2.67 2.32 2.34 3.64 2 5 C0.68 4.67 -0.64 4.34 -2 4 C-1.34 2.68 -0.68 1.36 0 0 Z " fill="#94908F" transform="translate(565,241)"/>
<path d="M0 0 C1.32 0.33 2.64 0.66 4 1 C4.33 2.65 4.66 4.3 5 6 C4.01 6.33 3.02 6.66 2 7 C0.5393715 4.35261084 0 3.10551666 0 0 Z " fill="#A29C99" transform="translate(371,239)"/>
<path d="M0 0 C1.32 0.33 2.64 0.66 4 1 C3.67 1.66 3.34 2.32 3 3 C2.34 2.67 1.68 2.34 1 2 C0.67 2.66 0.34 3.32 0 4 C0 2.68 0 1.36 0 0 Z M-4 4 C-2.68 4 -1.36 4 0 4 C-0.33 5.32 -0.66 6.64 -1 8 C-1.66 8 -2.32 8 -3 8 C-3.33 6.68 -3.66 5.36 -4 4 Z " fill="#979392" transform="translate(508,152)"/>
<path d="M0 0 C2 1 2 1 3 2 C3.04063832 3.66617115 3.042721 5.33388095 3 7 C2.01 7.33 1.02 7.66 0 8 C0 5.36 0 2.72 0 0 Z " fill="#B5ADA8" transform="translate(0,133)"/>
<path d="M0 0 C1.32 0 2.64 0 4 0 C4.33 1.98 4.66 3.96 5 6 C4.01 6.495 4.01 6.495 3 7 C3 6.01 3 5.02 3 4 C2.34 4 1.68 4 1 4 C0.67 2.68 0.34 1.36 0 0 Z " fill="#6C6A6F" transform="translate(8,580)"/>
<path d="M0 0 C0.66 0 1.32 0 2 0 C1.34 1.98 0.68 3.96 0 6 C0.66 6.33 1.32 6.66 2 7 C0.68 7 -0.64 7 -2 7 C-2.125 4.625 -2.125 4.625 -2 2 C-1.34 1.34 -0.68 0.68 0 0 Z " fill="#78767B" transform="translate(117,569)"/>
<path d="M0 0 C1.65 0 3.3 0 5 0 C5.33 0.99 5.66 1.98 6 3 C4.35 2.67 2.7 2.34 1 2 C1 2.66 1 3.32 1 4 C0.34 4 -0.32 4 -1 4 C-0.67 2.68 -0.34 1.36 0 0 Z " fill="#6F6D72" transform="translate(576,556)"/>
<path d="M0 0 C0.66 0.66 1.32 1.32 2 2 C1.01 2.495 1.01 2.495 0 3 C0 2.01 0 1.02 0 0 Z M-3 2 C-1.515 2.99 -1.515 2.99 0 4 C-0.66 5.65 -1.32 7.3 -2 9 C-2.66 9 -3.32 9 -4 9 C-4.04254356 7.00045254 -4.04080783 4.99958364 -4 3 C-3.67 2.67 -3.34 2.34 -3 2 Z " fill="#938F8E" transform="translate(430,423)"/>
<path d="M0 0 C0.99 0.33 1.98 0.66 3 1 C2.1875 3.4375 2.1875 3.4375 1 6 C0.01 6.33 -0.98 6.66 -2 7 C-1.125 2.25 -1.125 2.25 0 0 Z " fill="#938C8C" transform="translate(399,360)"/>
<path d="M0 0 C0.99 0.33 1.98 0.66 3 1 C3 1.66 3 2.32 3 3 C2.01 3 1.02 3 0 3 C-0.66 4.32 -1.32 5.64 -2 7 C-2.33 6.34 -2.66 5.68 -3 5 C-1.5625 2.375 -1.5625 2.375 0 0 Z " fill="#373A3A" transform="translate(267,317)"/>
<path d="M0 0 C0.99 0 1.98 0 3 0 C4 3 4 3 3 6 C2.01 6 1.02 6 0 6 C0 4.02 0 2.04 0 0 Z " fill="#918D8C" transform="translate(561,266)"/>
<path d="M0 0 C0.66 0 1.32 0 2 0 C2 0.66 2 1.32 2 2 C2.66 2.33 3.32 2.66 4 3 C2.75 4.5625 2.75 4.5625 1 6 C-1.1875 5.6875 -1.1875 5.6875 -3 5 C-2.505 4.54625 -2.01 4.0925 -1.5 3.625 C0.22609337 2.12364481 0.22609337 2.12364481 0 0 Z " fill="#313134" transform="translate(344,234)"/>
<path d="M0 0 C0.33 0 0.66 0 1 0 C1 1.65 1 3.3 1 5 C1.66 5 2.32 5 3 5 C3 6.65 3 8.3 3 10 C2.01 9.67 1.02 9.34 0 9 C0 6.03 0 3.06 0 0 Z " fill="#999893" transform="translate(365,229)"/>
<path d="M0 0 C1.98 0 3.96 0 6 0 C6 0.99 6 1.98 6 3 C2.25 4.125 2.25 4.125 0 3 C0 2.01 0 1.02 0 0 Z " fill="#43413E" transform="translate(313,226)"/>
<path d="M0 0 C-0.33 0.99 -0.66 1.98 -1 3 C-1.66 3 -2.32 3 -3 3 C-2.67 3.99 -2.34 4.98 -2 6 C-2.99 6 -3.98 6 -5 6 C-5 4.35 -5 2.7 -5 1 C-2 0 -2 0 0 0 Z " fill="#ADA9A8" transform="translate(30,175)"/>
<path d="M0 0 C0.66 0 1.32 0 2 0 C2.33 1.65 2.66 3.3 3 5 C1.02 5.99 1.02 5.99 -1 7 C-0.67 4.69 -0.34 2.38 0 0 Z " fill="#8A8685" transform="translate(482,586)"/>
<path d="M0 0 C0.66 0.66 1.32 1.32 2 2 C4.57061311 2.64767793 4.57061311 2.64767793 7 3 C4.64561267 4.42944945 3.51967567 5.08661261 0.75 4.625 C0.1725 4.41875 -0.405 4.2125 -1 4 C-0.67 2.68 -0.34 1.36 0 0 Z " fill="#888483" transform="translate(505,531)"/>
<path d="M0 0 C2.97 0.495 2.97 0.495 6 1 C6 1.66 6 2.32 6 3 C3.36 3 0.72 3 -2 3 C-1.34 2.01 -0.68 1.02 0 0 Z " fill="#2F3032" transform="translate(310,394)"/>
<path d="M0 0 C0.66 0 1.32 0 2 0 C2 1.98 2 3.96 2 6 C1.01 6.33 0.02 6.66 -1 7 C-0.67 4.69 -0.34 2.38 0 0 Z " fill="#878A87" transform="translate(251,377)"/>
<path d="M0 0 C1.32 0.33 2.64 0.66 4 1 C3.625 2.9375 3.625 2.9375 3 5 C2.01 5.495 2.01 5.495 1 6 C0.67 4.02 0.34 2.04 0 0 Z " fill="#938F8E" transform="translate(21,376)"/>
<path d="M0 0 C0.66 0 1.32 0 2 0 C2.33 1.98 2.66 3.96 3 6 C1.68 5.67 0.36 5.34 -1 5 C-0.67 3.35 -0.34 1.7 0 0 Z " fill="#67656A" transform="translate(361,373)"/>
<path d="M0 0 C0.66 0 1.32 0 2 0 C1.67 1.98 1.34 3.96 1 6 C-0.32 6 -1.64 6 -3 6 C-3 4 -3 4 -1 2 C-0.67 1.34 -0.34 0.68 0 0 Z " fill="#959190" transform="translate(13,371)"/>
<path d="M0 0 C0.33 0.66 0.66 1.32 1 2 C-0.670625 2.2165625 -0.670625 2.2165625 -2.375 2.4375 C-5.82142047 2.78372035 -5.82142047 2.78372035 -8 4 C-8 3.01 -8 2.02 -8 1 C-5.29120665 -0.35439668 -2.99066732 -0.06501451 0 0 Z " fill="#AFA8A9" transform="translate(101,367)"/>
<path d="M0 0 C1 3 1 3 1 6 C-0.32 5.67 -1.64 5.34 -3 5 C-1.125 1.125 -1.125 1.125 0 0 Z " fill="#817F7C" transform="translate(383,361)"/>
<path d="M0 0 C0.33 0 0.66 0 1 0 C1 1.98 1 3.96 1 6 C0.34 6 -0.32 6 -1 6 C-1 6.66 -1 7.32 -1 8 C-1.99 8 -2.98 8 -4 8 C-4 7.34 -4 6.68 -4 6 C-3.34 6 -2.68 6 -2 6 C-1.34 4.02 -0.68 2.04 0 0 Z " fill="#424549" transform="translate(363,266)"/>
<path d="M0 0 C0 0.99 0 1.98 0 3 C-0.99 3.33 -1.98 3.66 -3 4 C-3.33 4.99 -3.66 5.98 -4 7 C-4.99 6.67 -5.98 6.34 -7 6 C-4.83312509 3.72478134 -2.54379491 1.84205838 0 0 Z " fill="#615E60" transform="translate(302,259)"/>
<path d="M0 0 C2.97 0.495 2.97 0.495 6 1 C6 1.99 6 2.98 6 4 C4.02 4.99 4.02 4.99 2 6 C2 5.01 2 4.02 2 3 C1.34 2.67 0.68 2.34 0 2 C0 1.34 0 0.68 0 0 Z " fill="#939192" transform="translate(372,260)"/>
<path d="M0 0 C0.99 0.33 1.98 0.66 3 1 C2.67 2.32 2.34 3.64 2 5 C-0.97 4.505 -0.97 4.505 -4 4 C-2.68 2.68 -1.36 1.36 0 0 Z " fill="#C9C1BF" transform="translate(314,216)"/>
<path d="M0 0 C1.98 0 3.96 0 6 0 C5.67 1.32 5.34 2.64 5 4 C3.0625 3.6875 3.0625 3.6875 1 3 C0.67 2.01 0.34 1.02 0 0 Z " fill="#B8B0AE" transform="translate(391,170)"/>
<path d="M0 0 C2.475 0.495 2.475 0.495 5 1 C3.515 3.475 3.515 3.475 2 6 C1.34 5.67 0.68 5.34 0 5 C0.66 4.01 1.32 3.02 2 2 C1.34 2 0.68 2 0 2 C0 1.34 0 0.68 0 0 Z " fill="#C5BBBA" transform="translate(342,81)"/>
</svg>
