<?xml version="1.0" standalone="no"?>
<!DOCTYPE svg PUBLIC "-//W3C//DTD SVG 20010904//EN"
 "http://www.w3.org/TR/2001/REC-SVG-20010904/DTD/svg10.dtd">
<svg version="1.0" xmlns="http://www.w3.org/2000/svg"
 width="640.000000pt" height="640.000000pt" viewBox="0 0 640.000000 640.000000"
 preserveAspectRatio="xMidYMid meet">

<g transform="translate(0.000000,640.000000) scale(0.100000,-0.100000)"
fill="#000000" stroke="none">
<path d="M6040 6354 c0 -37 4 -47 20 -51 24 -6 25 -20 3 -45 -15 -17 -15 -21
3 -55 10 -21 27 -46 37 -57 9 -11 17 -27 17 -36 0 -9 9 -25 20 -35 11 -10 20
-26 20 -37 0 -10 5 -18 10 -18 6 0 10 -6 10 -14 0 -8 4 -17 8 -20 12 -7 53 5
47 14 -3 5 4 6 15 3 11 -3 20 0 20 6 0 6 16 21 35 32 41 25 45 52 10 75 -22
14 -25 24 -26 73 -1 43 -3 50 -9 31 -4 -14 -8 -18 -9 -9 -2 28 39 100 62 108
20 8 20 10 5 16 -29 12 -21 23 22 30 25 4 40 12 40 21 0 11 -29 14 -160 14
-146 0 -160 -2 -160 -17 -1 -17 -1 -17 -14 0 -21 27 -26 21 -26 -29z"/>
<path d="M6280 5991 c0 -6 5 -13 10 -16 6 -3 10 1 10 9 0 9 -4 16 -10 16 -5 0
-10 -4 -10 -9z"/>
<path d="M5508 5924 c-2 -2 -27 -4 -54 -5 -27 -1 -77 -12 -111 -25 -35 -13
-63 -21 -63 -18 0 2 -9 0 -20 -6 -11 -6 -43 -15 -72 -20 -29 -6 -68 -17 -85
-26 -18 -8 -58 -15 -88 -15 -41 -1 -72 -9 -113 -30 -58 -29 -88 -37 -77 -20 3
6 -3 9 -14 8 -11 0 -18 -4 -16 -7 4 -6 -11 -23 -63 -70 -15 -13 -30 -19 -43
-15 -11 4 -19 2 -19 -4 0 -13 -27 -15 -32 -2 -8 23 -140 10 -167 -16 -11 -11
-28 -13 -68 -8 -42 5 -52 4 -48 -7 6 -15 -63 -38 -110 -38 -23 0 -24 -2 -13
-22 7 -13 19 -31 27 -40 12 -16 12 -18 -1 -18 -9 0 -22 -14 -31 -31 -8 -18
-17 -27 -21 -20 -10 16 -26 13 -26 -4 0 -21 -69 -95 -88 -95 -12 0 -12 -3 -2
-15 14 -17 59 -16 78 2 7 7 19 16 25 20 7 5 22 20 34 35 l21 28 7 -37 c4 -24
3 -39 -4 -41 -7 -2 -4 -13 6 -28 14 -22 22 -24 62 -21 25 3 61 11 78 18 28 12
35 11 48 -2 9 -9 17 -26 18 -38 1 -18 7 -21 33 -19 18 1 39 -3 47 -10 7 -6 16
-9 19 -7 3 3 8 -13 12 -36 4 -23 9 -46 13 -52 3 -5 7 -39 8 -74 2 -47 -2 -66
-11 -70 -8 -3 -14 -13 -14 -22 0 -10 -11 -24 -25 -31 -14 -7 -25 -21 -25 -31
0 -20 30 -34 40 -18 6 8 9 8 14 0 9 -15 -2 -31 -21 -31 -8 0 -24 -11 -34 -24
-11 -14 -37 -33 -59 -42 -25 -11 -40 -25 -40 -35 0 -10 -4 -21 -10 -24 -20
-12 -9 -25 20 -25 17 0 30 -4 30 -9 0 -20 33 -19 60 1 33 24 127 41 137 24 4
-5 1 -12 -5 -14 -7 -2 -12 -8 -12 -13 0 -15 46 -10 60 6 7 8 16 13 20 10 4 -3
13 2 21 11 10 12 9 18 -4 31 -15 15 -15 17 5 27 12 6 23 17 26 25 4 11 -5 13
-47 7 -56 -7 -62 -3 -29 24 20 16 21 20 8 35 -13 15 -6 24 61 87 40 39 88 80
104 92 91 64 171 132 268 229 60 59 113 107 119 107 12 0 148 138 148 150 0 5
32 44 70 87 39 43 70 84 70 90 0 7 4 13 9 13 5 0 17 22 26 50 9 27 21 52 26
55 5 4 9 12 9 18 0 8 -3 8 -9 -1 -12 -20 -44 -11 -56 15 -9 22 -29 36 -37 27z
m-588 -194 c0 -5 -4 -10 -10 -10 -5 0 -10 5 -10 10 0 6 5 10 10 10 6 0 10 -4
10 -10z m-25 -130 c3 -5 2 -10 -4 -10 -5 0 -13 5 -16 10 -3 6 -2 10 4 10 5 0
13 -4 16 -10z m-235 -10 c0 -5 -4 -10 -10 -10 -5 0 -10 5 -10 10 0 6 5 10 10
10 6 0 10 -4 10 -10z m-100 -26 c0 -8 -4 -12 -10 -9 -5 3 -10 10 -10 16 0 5 5
9 10 9 6 0 10 -7 10 -16z m100 -28 c0 -20 -13 -27 -30 -15 -13 8 -13 10 0 19
21 14 30 12 30 -4z m-210 -20 c0 -11 -19 -15 -25 -6 -3 5 1 10 9 10 9 0 16 -2
16 -4z m90 -721 c0 -8 -51 -55 -60 -55 -17 0 -11 18 12 40 20 18 48 27 48 15z"/>
<path d="M6360 5895 c-13 -14 -30 -23 -37 -21 -9 4 -10 -1 -3 -19 6 -15 6 -27
-1 -30 -12 -8 -4 -61 22 -138 10 -31 19 -65 19 -75 0 -9 9 -35 19 -57 l19 -40
1 203 c1 111 -3 202 -7 202 -5 0 -19 -11 -32 -25z"/>
<path d="M2314 5871 c-5 -5 -25 -14 -44 -19 -34 -9 -35 -10 -33 -55 2 -37 0
-45 -12 -41 -9 4 -15 19 -15 41 0 45 -41 86 -52 52 -2 -6 -21 -12 -43 -13 -22
-1 -46 -5 -53 -10 -8 -5 -18 -2 -26 9 -8 11 -29 18 -64 19 -29 1 -52 -1 -52
-4 0 -13 -47 -28 -60 -20 -8 5 -18 6 -23 3 -5 -3 -19 5 -32 17 l-23 22 -12
-22 c-9 -18 -9 -28 1 -46 10 -19 10 -27 1 -36 -14 -14 -27 -4 -46 33 -15 29
-43 47 -55 34 -5 -6 -5 -34 -1 -70 5 -33 7 -61 5 -63 -2 -2 -12 -1 -23 2 -14
5 -18 13 -14 31 3 18 0 25 -12 25 -11 0 -16 -9 -17 -27 0 -16 -3 -21 -6 -13
-18 53 -36 80 -53 80 -10 0 -22 5 -26 12 -5 8 -11 5 -20 -7 -11 -14 -18 -16
-36 -8 -18 8 -26 6 -39 -11 -16 -20 -16 -20 -28 3 -10 18 -15 20 -27 10 -8 -6
-49 -13 -91 -15 -67 -3 -80 -6 -95 -26 -10 -13 -18 -18 -18 -12 0 8 -11 9 -32
5 -28 -6 -34 -12 -39 -41 -3 -19 -9 -42 -13 -50 -11 -28 10 -41 79 -47 71 -5
121 -28 210 -97 42 -33 82 -56 96 -56 5 0 9 11 9 25 0 16 4 23 13 19 9 -3 12
-16 9 -34 -3 -21 3 -38 22 -61 14 -17 29 -43 32 -57 4 -15 19 -65 35 -112 38
-114 48 -158 53 -220 5 -58 0 -80 -19 -80 -22 0 -38 30 -41 77 -2 25 -10 53
-19 63 -9 10 -19 34 -22 54 -3 20 -10 36 -15 36 -12 0 -38 64 -38 95 0 14 -7
28 -15 31 -8 4 -15 13 -15 21 0 26 -61 90 -113 119 -29 15 -63 36 -77 46 -14
10 -43 19 -65 21 -22 1 -46 6 -52 10 -9 6 -18 -5 -29 -32 -9 -23 -20 -41 -24
-41 -5 0 -5 -12 -1 -27 10 -38 25 -35 29 5 3 31 17 43 24 21 3 -9 10 -9 26 0
18 10 22 9 22 -4 0 -8 -9 -23 -20 -32 -40 -34 -19 -69 46 -80 36 -6 37 -6 30
21 -6 24 -4 27 16 24 18 -2 23 -10 24 -33 1 -17 4 -48 8 -69 6 -33 5 -38 -8
-33 -21 8 -22 -39 -1 -59 8 -9 15 -25 15 -37 0 -11 4 -34 10 -51 5 -17 12 -43
15 -59 5 -24 8 -26 26 -17 13 8 18 17 14 30 -3 10 -10 44 -15 77 -7 40 -16 64
-31 76 -16 13 -19 21 -11 29 12 12 35 1 26 -13 -3 -5 -2 -9 3 -8 47 8 61 -2
93 -68 40 -83 36 -79 55 -63 21 17 29 7 16 -18 -17 -33 -14 -92 5 -92 12 0 14
-5 9 -17 -12 -29 -24 -104 -24 -161 -1 -38 3 -54 14 -58 19 -8 11 -40 -17 -71
-12 -13 -18 -29 -14 -38 3 -10 -1 -38 -10 -63 -9 -26 -16 -58 -16 -72 -1 -14
-3 -19 -5 -12 -3 6 -9 12 -15 12 -10 0 -3 -193 8 -211 3 -6 12 -34 19 -62 25
-95 47 -150 56 -135 15 23 29 -12 22 -55 -5 -33 -3 -39 16 -44 19 -5 21 -12
21 -84 0 -77 4 -85 34 -80 5 1 5 -8 1 -21 -5 -13 -9 -47 -9 -77 -1 -45 -6 -59
-28 -82 -25 -25 -28 -34 -28 -101 0 -80 16 -118 50 -118 10 0 33 -13 51 -29
18 -17 35 -29 38 -28 3 0 25 -18 47 -41 24 -24 55 -45 73 -48 23 -5 30 -11 26
-21 -3 -10 12 -30 40 -55 25 -22 52 -53 60 -69 24 -46 55 -69 94 -69 27 0 32
-3 23 -12 -16 -16 -15 -60 2 -84 14 -19 15 -18 35 5 25 28 29 81 6 81 -8 0
-15 5 -15 10 0 6 7 10 16 10 9 0 18 8 21 19 6 23 49 44 74 36 26 -9 24 -23 -6
-37 -14 -6 -25 -17 -25 -23 0 -7 -6 -18 -14 -24 -8 -7 -17 -24 -21 -39 -4 -15
-10 -29 -15 -32 -12 -7 -15 -69 -5 -110 4 -19 23 -65 41 -101 19 -37 34 -71
34 -76 0 -21 43 -118 59 -133 16 -16 67 -115 91 -177 6 -17 18 -34 26 -37 8
-3 14 -11 14 -19 0 -23 46 -60 67 -53 18 6 96 18 123 19 8 0 21 6 28 14 7 7
24 13 38 13 13 0 45 13 71 29 26 16 51 27 56 24 12 -7 -93 -103 -113 -103 -8
0 -28 -7 -45 -16 -16 -9 -55 -22 -85 -28 -44 -9 -55 -15 -55 -30 0 -27 27 -32
200 -35 141 -2 149 -1 127 14 -12 9 -30 14 -40 11 -10 -4 -27 0 -38 8 -18 14
-18 15 7 25 15 5 36 7 47 4 15 -3 20 0 19 13 -2 13 7 20 28 24 42 7 46 38 6
46 -17 4 -28 10 -25 15 3 5 10 7 15 3 5 -3 16 -1 24 6 7 6 26 13 42 15 15 2
29 4 31 6 1 1 5 2 10 3 4 1 13 5 20 10 7 4 16 6 19 3 10 -11 -8 -27 -30 -27
-23 -1 -57 -21 -57 -35 0 -4 9 -16 21 -26 17 -14 25 -16 45 -7 13 6 24 15 24
20 0 5 4 7 9 4 5 -3 25 1 45 9 20 8 66 15 104 15 59 0 73 -3 96 -25 14 -13 26
-31 26 -40 0 -23 19 -18 25 8 2 12 11 53 20 90 13 60 20 152 8 105 -5 -19 -23
-25 -23 -8 0 6 -6 10 -14 10 -16 0 -29 27 -20 41 3 5 -3 12 -13 16 -10 4 -29
18 -42 32 -20 22 -23 31 -18 79 5 42 3 51 -7 43 -7 -6 -16 -8 -20 -4 -4 4 -4
0 0 -10 11 -30 -4 -18 -21 15 -9 18 -19 59 -22 90 -3 32 -10 58 -14 58 -16 0
-9 36 11 58 12 12 16 23 10 27 -6 3 -10 2 -10 -3 0 -6 -15 -10 -34 -10 -27 0
-33 3 -29 18 3 10 0 21 -6 24 -6 4 -11 16 -11 26 0 12 -8 20 -22 22 -14 2 -29
16 -39 35 -9 18 -22 40 -30 49 -11 13 -10 17 2 25 8 5 18 9 22 9 5 0 5 5 2 10
-3 6 -23 10 -44 10 -35 0 -61 14 -61 32 0 4 7 8 15 8 24 0 18 19 -15 50 -17
16 -26 31 -21 34 5 4 17 -1 26 -10 9 -9 19 -14 22 -10 9 8 -26 113 -43 127 -8
6 -14 26 -14 43 0 17 -5 48 -11 69 -13 47 -6 57 21 32 23 -21 25 -11 5 25 -19
33 -19 46 0 30 28 -24 27 -2 -4 57 -17 32 -31 66 -31 76 0 9 -5 17 -11 17 -7
0 -9 -11 -6 -30 4 -16 2 -32 -3 -35 -6 -4 -13 7 -16 24 -4 17 -10 31 -14 31
-4 0 -12 18 -19 40 -10 33 -16 40 -30 35 -12 -3 -21 0 -25 10 -3 9 -10 14 -15
11 -5 -3 -11 1 -15 9 -9 26 -26 16 -26 -14 0 -17 -4 -33 -10 -36 -5 -3 -10 3
-10 14 0 23 -67 71 -100 71 -29 0 -29 -66 0 -75 11 -3 20 -13 20 -21 0 -11 -6
-13 -20 -9 -23 7 -59 -20 -37 -28 7 -3 1 -9 -13 -15 -21 -8 -29 -5 -47 14 -27
29 -33 30 -33 5 0 -10 7 -22 16 -25 10 -4 13 -13 9 -27 -6 -19 -5 -20 15 -9
12 6 24 9 28 6 3 -3 0 -6 -7 -6 -7 0 -11 -6 -8 -14 3 -8 -2 -17 -10 -21 -15
-5 -15 -7 1 -23 14 -15 18 -15 26 -2 5 8 12 11 16 7 4 -4 3 -12 -3 -18 -14
-14 42 -121 87 -166 27 -27 32 -38 27 -66 -4 -29 -1 -35 29 -55 29 -19 33 -26
24 -41 -7 -14 -5 -25 11 -45 11 -14 25 -24 30 -21 5 4 9 -3 9 -15 0 -11 8 -24
18 -27 24 -9 32 -23 32 -56 0 -16 4 -26 9 -23 13 9 54 -41 48 -58 -5 -13 1
-16 27 -16 29 0 66 -24 66 -43 0 -12 -28 -7 -33 6 -4 9 -7 9 -15 -1 -17 -24
-114 -7 -137 24 -8 12 -26 18 -54 18 -22 1 -41 5 -41 10 0 5 -6 3 -13 -3 -10
-8 -30 -8 -72 0 -46 8 -60 8 -66 -3 -5 -8 -3 -17 6 -24 23 -17 18 -34 -9 -34
-13 0 -32 -3 -41 -7 -14 -5 -16 -2 -10 15 17 57 -58 -6 -89 -73 -10 -22 -23
-46 -29 -53 -16 -20 -36 16 -37 66 0 40 -13 56 -23 30 -3 -8 -9 -3 -15 12 -9
23 -6 27 29 43 22 10 36 23 34 30 -6 16 45 72 73 79 12 4 22 3 22 -2 0 -4 -10
-11 -22 -15 -22 -6 -22 -7 7 -15 18 -6 33 -6 39 0 15 15 67 12 87 -6 10 -9 30
-14 51 -12 33 4 33 4 8 15 -14 6 -36 15 -49 20 -22 8 -22 10 -7 25 24 24 5 30
-64 19 -56 -9 -65 -8 -107 14 -35 19 -42 26 -28 31 9 4 32 2 50 -3 l33 -10
-17 28 c-9 17 -25 29 -38 30 -40 2 -44 4 -53 19 -7 11 -12 12 -20 4 -18 -18
-52 -5 -45 17 7 20 -4 23 -52 19 -13 -1 -23 4 -23 10 0 7 -7 9 -16 6 -19 -7
-64 3 -64 15 0 5 18 9 40 9 22 0 40 -4 40 -10 0 -5 10 -10 23 -10 46 0 36 13
-26 35 -53 18 -62 24 -59 43 2 16 -2 22 -17 22 -11 0 -33 12 -48 28 -31 29
-36 32 -58 32 -8 0 -15 5 -15 10 0 17 44 11 70 -10 14 -11 31 -20 38 -20 6 0
12 -4 12 -10 0 -17 35 -11 47 9 10 16 7 20 -29 31 -53 15 -32 32 29 23 38 -5
43 -4 37 11 -3 9 -12 16 -20 16 -7 0 -30 15 -50 34 -21 19 -51 37 -68 41 -19
4 -25 9 -16 12 8 2 22 7 30 10 12 3 10 8 -9 24 -26 21 -67 27 -55 7 5 -8 2 -9
-10 -5 -10 4 -20 7 -22 7 -2 0 -4 5 -4 10 0 6 9 10 20 10 30 0 24 12 -18 38
-21 13 -44 32 -50 43 -11 17 -9 19 20 19 23 0 29 -3 19 -9 -10 -7 -3 -16 30
-40 24 -18 51 -38 60 -45 21 -17 68 -26 75 -14 3 5 -1 17 -10 27 -9 10 -16 23
-16 29 0 7 -4 12 -10 12 -5 0 -14 19 -20 43 -6 23 -22 62 -34 87 -13 25 -24
58 -24 74 0 15 -5 32 -12 36 -9 6 -7 11 9 19 22 12 25 8 22 -30 -1 -8 5 -29
14 -45 8 -16 15 -35 15 -41 0 -7 11 -15 25 -19 14 -3 34 -17 44 -30 21 -26 67
-48 88 -40 19 8 16 24 -6 31 -16 5 -19 12 -15 38 4 24 0 38 -15 54 -23 24 -28
58 -10 69 6 3 9 21 7 38 -5 44 10 57 45 40 24 -13 27 -13 27 1 0 8 -6 15 -14
15 -19 0 -26 21 -14 44 7 12 7 21 -1 25 -14 9 -19 49 -6 51 6 0 11 -11 13 -25
2 -14 9 -25 15 -26 7 0 25 -2 42 -4 16 -2 33 1 37 8 5 8 8 3 8 -11 0 -23 16
-62 29 -72 4 -3 17 -27 28 -55 25 -59 49 -74 38 -24 -4 18 -16 48 -26 66 -24
42 -24 49 1 80 11 14 20 42 21 62 0 28 2 32 8 16 8 -20 0 -59 -22 -103 -8 -17
-8 -25 0 -30 6 -4 13 -14 16 -22 2 -8 3 -3 1 12 -3 28 11 48 19 26 2 -7 2 -1
0 15 -3 15 -1 27 3 27 12 0 33 -34 34 -55 0 -11 9 -33 19 -49 l19 -29 7 46 c4
26 11 44 16 42 4 -3 6 -12 2 -20 -3 -8 -1 -15 5 -15 5 0 12 9 15 20 3 11 10
20 17 20 14 0 4 -38 -16 -61 -16 -17 -18 -29 -6 -29 4 0 15 18 25 40 9 22 21
40 27 40 18 0 25 2 42 11 13 7 21 4 30 -11 24 -38 43 -25 38 27 -2 32 10 49
22 32 7 -10 8 -8 3 6 -4 11 -9 46 -12 77 -5 47 -3 59 11 64 11 4 14 13 10 31
-5 17 -1 29 12 39 18 15 18 15 -4 10 -21 -4 -23 -2 -17 17 4 12 10 56 14 97 7
72 8 74 20 45 7 -17 10 -47 7 -70 -6 -37 -5 -39 9 -21 10 13 15 43 15 85 0 73
13 109 24 69 l6 -23 19 24 c11 14 18 39 18 59 -1 32 18 56 36 45 5 -3 6 -15 3
-28 -7 -26 20 -58 28 -34 14 43 15 71 4 93 -9 20 -8 32 1 53 11 25 14 26 25
11 11 -15 13 -15 25 3 7 12 9 30 5 42 -7 21 -7 22 -15 2 -7 -19 -8 -19 -8 3
-1 12 4 22 9 22 6 0 18 16 27 35 21 45 43 46 44 3 1 -50 6 -99 12 -104 2 -3 8
21 12 53 3 32 13 68 21 80 9 14 12 33 8 48 -6 26 1 31 25 16 12 -8 12 -12 2
-24 -8 -11 -9 -17 -1 -22 6 -3 8 -10 5 -15 -3 -4 4 -6 15 -3 15 4 19 2 14 -10
-3 -9 -1 -24 4 -34 9 -16 12 -14 24 12 17 39 39 65 50 59 14 -9 9 -53 -8 -62
-21 -12 -11 -60 14 -68 36 -11 46 -22 55 -54 5 -21 5 -42 -2 -57 -7 -14 -7
-23 -1 -23 6 0 10 -18 10 -40 0 -22 5 -40 10 -40 17 0 11 -19 -11 -41 -21 -21
-22 -23 -4 -55 9 -18 15 -38 12 -46 -4 -9 -6 -7 -6 4 -1 10 -6 17 -12 15 -15
-3 -29 47 -18 64 11 18 11 89 0 89 -22 0 -27 -121 -9 -232 13 -83 28 -104 28
-39 0 22 5 43 12 47 8 5 9 -4 5 -34 -4 -24 -3 -43 3 -47 6 -4 10 6 10 22 0 15
5 35 10 43 8 12 10 10 11 -10 1 -14 5 -6 9 20 6 38 7 40 8 13 2 -39 25 -63 52
-56 12 3 20 0 20 -6 0 -7 5 -9 11 -5 8 5 8 9 -1 14 -9 5 -9 9 -1 14 15 10 41
-18 41 -43 0 -11 5 -23 10 -26 6 -3 10 -17 10 -30 0 -26 16 -42 22 -23 3 9 17
3 43 -16 25 -19 40 -26 43 -18 7 23 22 1 16 -24 -5 -18 0 -31 20 -51 17 -17
26 -21 26 -11 0 8 -4 18 -10 24 -6 6 -4 24 5 49 8 22 14 56 15 76 0 23 6 39
15 43 8 3 15 12 15 21 0 8 5 15 10 15 16 0 11 -57 -6 -75 -15 -15 -15 -20 1
-73 27 -87 35 -85 36 9 1 116 10 174 29 174 8 0 16 9 18 20 2 11 8 24 13 30
10 10 12 164 3 189 -3 9 -12 16 -19 16 -7 0 -17 15 -21 32 -3 18 -13 37 -20
43 -15 11 -9 85 7 85 5 0 9 6 9 13 0 6 8 21 16 32 14 19 16 19 25 2 8 -14 14
-16 25 -6 8 7 14 7 14 1 0 -5 -7 -15 -15 -22 -10 -9 -15 -9 -15 -1 0 6 -9 11
-21 11 -19 0 -20 -5 -16 -49 2 -27 7 -53 11 -59 10 -17 61 2 64 24 7 45 13 50
27 24 10 -17 14 -20 15 -9 0 31 25 64 50 68 14 1 28 8 33 15 5 8 12 5 22 -8
15 -19 15 -19 15 2 0 12 5 22 10 22 11 0 14 -7 24 -53 4 -15 11 -25 16 -22 11
7 21 -48 18 -90 -2 -18 1 -29 8 -28 19 4 23 -33 8 -63 -8 -14 -14 -41 -14 -59
0 -18 -6 -38 -13 -44 -16 -13 -28 -5 -21 14 3 7 1 16 -5 20 -6 3 -11 5 -11 3
-15 -121 -39 -218 -56 -225 -15 -5 -19 -64 -6 -77 4 -4 7 -48 7 -96 0 -79 3
-91 22 -109 13 -12 25 -17 28 -11 14 22 24 8 21 -30 -2 -22 0 -40 4 -40 12 0
32 46 28 66 -2 13 2 18 15 16 10 -2 17 4 18 15 6 90 9 164 10 251 1 56 6 102
11 102 4 0 8 10 8 23 0 44 54 187 72 187 4 0 8 -17 8 -37 0 -41 18 -77 27 -55
2 6 13 12 24 12 19 0 20 4 23 70 1 27 -3 34 -15 32 -32 -5 -27 33 7 67 25 23
34 27 34 15 0 -13 3 -14 15 -4 8 7 12 16 9 21 -3 5 4 18 15 30 18 20 20 20 29
3 9 -15 13 -16 26 -5 20 17 21 32 1 25 -8 -4 -22 -1 -29 5 -16 13 -66 4 -66
-11 0 -6 -6 -6 -14 1 -8 7 -25 9 -41 5 -26 -6 -28 -5 -23 20 4 20 1 29 -11 34
-9 3 -19 10 -23 16 -4 6 -14 4 -26 -7 -17 -16 -21 -16 -32 -2 -12 15 -59 11
-70 -6 -7 -10 -26 58 -34 116 -5 34 0 50 29 99 32 51 37 76 17 76 -4 0 -15
-17 -25 -38 -11 -20 -32 -47 -48 -60 l-29 -23 -10 26 c-12 31 -30 24 -30 -11
0 -16 6 -24 18 -24 16 -1 16 -2 0 -13 -20 -16 -70 -15 -76 1 -2 7 3 10 12 6
10 -4 16 -1 16 8 0 18 -40 21 -47 2 -3 -8 -13 -14 -23 -14 -10 0 -20 -8 -22
-17 -3 -17 -4 -17 -11 0 -5 14 -2 20 13 24 11 3 20 9 20 13 0 19 -13 40 -25
40 -7 0 -15 6 -18 13 -3 9 -7 9 -19 -1 -12 -9 -18 -10 -23 -2 -4 6 -16 10 -28
8 -20 -3 -22 1 -20 36 2 22 8 43 15 48 9 5 7 8 -8 8 -14 0 -25 11 -34 35 -9
23 -16 31 -21 23 -6 -9 -14 -6 -28 11 -14 15 -21 19 -21 10 0 -9 -12 -14 -31
-15 -17 -1 -27 2 -22 5 4 3 9 33 10 66 2 53 1 56 -8 28 -12 -41 -25 -42 -33
-2 -5 27 -8 30 -21 19 -13 -11 -15 -7 -15 24 0 27 7 42 30 63 17 15 28 33 26
40 -9 22 15 25 33 4 38 -44 62 -17 32 35 -12 19 -22 50 -22 67 -2 29 -2 29 -6
6 -5 -34 -39 -44 -71 -23 -16 10 -22 22 -19 35 3 11 -1 20 -12 24 -9 2 -21 15
-26 27 -13 30 -40 30 -39 0 1 -27 -19 -24 -25 3 -5 31 -33 68 -41 55 -4 -6
-19 11 -34 40 -15 27 -29 50 -31 50 -2 0 -1 -25 2 -55 4 -40 2 -55 -7 -55 -8
0 -10 8 -6 26 5 17 3 23 -4 19 -19 -12 -12 -62 10 -68 11 -3 20 -10 20 -16 0
-14 -43 -14 -57 0 -8 8 -13 5 -18 -11 -7 -23 4 -44 12 -22 9 24 23 11 23 -21
0 -18 7 -43 16 -56 14 -19 14 -25 3 -32 -8 -5 -18 -4 -23 1 -16 16 -23 11 -29
-20 -7 -33 -37 -42 -37 -12 0 10 -11 25 -25 32 -19 10 -25 21 -23 39 2 15 8
24 13 22 6 -1 9 -8 7 -13 -2 -6 4 -8 13 -5 9 4 15 1 15 -8 0 -8 5 -15 11 -15
7 0 9 16 4 48 -3 26 -8 59 -9 72 -4 39 -16 70 -27 70 -5 0 -9 6 -9 14 0 7 -13
30 -30 51 -24 31 -30 34 -30 17 0 -13 -9 -22 -25 -26 -14 -4 -25 -13 -25 -21
0 -21 -8 -19 -47 11 -19 14 -40 23 -48 20 -7 -2 -19 2 -25 10 -17 19 -38 18
-36 -3 1 -13 -5 -17 -21 -16 -18 2 -23 -2 -23 -22 0 -37 -12 -31 -40 20 -13
25 -36 49 -51 55 -14 6 -32 23 -38 36 -12 26 -31 24 -31 -3 0 -15 -2 -14 -18
0 -10 10 -27 17 -38 17 -11 0 -25 5 -31 11 -9 9 -16 7 -29 -6 -17 -16 -18 -16
-34 5 -16 21 -21 22 -50 12 -32 -12 -80 -7 -91 9 -3 5 -9 5 -15 0z m52 -122
c10 -18 -6 -29 -27 -19 -26 14 -25 40 1 33 11 -3 23 -9 26 -14z m685 -49 c5 0
9 -4 9 -8 0 -4 -16 -8 -35 -9 -19 -1 -35 3 -35 8 0 5 6 9 14 9 8 0 17 8 21 18
8 16 8 16 12 0 3 -10 9 -18 14 -18z m-624 -12 c-3 -8 -6 -5 -6 6 -1 11 2 17 5
13 3 -3 4 -12 1 -19z m123 7 c0 -8 -4 -15 -10 -15 -5 0 -10 7 -10 15 0 8 5 15
10 15 6 0 10 -7 10 -15z m30 -25 c0 -5 -4 -10 -10 -10 -5 0 -10 5 -10 10 0 6
5 10 10 10 6 0 10 -4 10 -10z m207 -76 c-3 -3 -12 -4 -19 -1 -8 3 -5 6 6 6 11
1 17 -2 13 -5z m58 -62 c3 -32 15 -59 15 -33 0 7 7 19 15 27 13 14 15 12 15
-15 0 -40 -36 -102 -45 -79 -4 10 -13 14 -22 11 -13 -5 -15 -1 -10 26 4 20 3
30 -3 26 -14 -9 -12 32 2 55 18 28 30 20 33 -18z m405 23 c0 -8 -4 -15 -9 -15
-13 0 -22 16 -14 24 11 11 23 6 23 -9z m120 -6 c0 -6 -4 -7 -10 -4 -5 3 -10
11 -10 16 0 6 5 7 10 4 6 -3 10 -11 10 -16z m-684 -60 c0 -19 2 -38 5 -44 5
-13 -31 -55 -48 -55 -6 0 -13 10 -15 23 -2 12 -10 22 -18 21 -10 -1 -16 10
-17 30 -2 28 2 34 35 48 48 22 57 18 58 -23z m652 -73 c-2 -10 -12 -24 -23
-30 -11 -6 -23 -15 -26 -19 -3 -5 -9 2 -12 14 -6 22 -7 22 -25 6 -22 -20 -32
-13 -32 20 0 27 0 27 36 8 29 -15 29 -15 32 16 2 17 -1 36 -7 42 -6 6 -11 15
-11 21 0 5 16 -6 35 -24 21 -21 35 -42 33 -54z m-291 32 c-3 -8 -6 -5 -6 6 -1
11 2 17 5 13 3 -3 4 -12 1 -19z m53 2 c0 -5 -5 -10 -11 -10 -5 0 -7 5 -4 10 3
6 8 10 11 10 2 0 4 -4 4 -10z m-400 -82 c0 -9 -4 -20 -10 -23 -6 -4 -10 9 -10
32 0 28 3 34 10 23 5 -8 10 -23 10 -32z m-110 -10 c0 -48 -16 -42 -25 10 -4
24 -2 32 10 32 11 0 15 -11 15 -42z m-46 -13 c-7 -18 -8 -18 -15 1 -4 10 -8
26 -8 34 -1 12 1 12 14 -1 10 -10 13 -22 9 -34z m-116 -38 c14 -16 14 -19 2
-27 -23 -15 -25 -13 -27 38 -1 26 1 38 4 27 3 -11 12 -28 21 -38z m22 37 c0
-8 -4 -12 -10 -9 -5 3 -10 10 -10 16 0 5 5 9 10 9 6 0 10 -7 10 -16z m880 -44
c0 -11 -2 -20 -4 -20 -2 0 -6 9 -9 20 -3 11 -1 20 4 20 5 0 9 -9 9 -20z m-740
-9 c0 -5 -7 -12 -16 -15 -14 -5 -15 -4 -4 9 14 17 20 19 20 6z m658 -32 c-3
-8 -7 -3 -11 10 -4 17 -3 21 5 13 5 -5 8 -16 6 -23z m-757 -38 c1 -9 2 -25 3
-36 0 -12 7 -19 17 -17 22 3 36 -16 41 -53 2 -22 9 -31 26 -33 20 -3 22 -9 22
-63 0 -46 -3 -59 -15 -59 -8 0 -15 9 -15 19 0 11 -4 23 -10 26 -6 4 -10 -10
-10 -35 0 -62 -24 -46 -31 21 -3 30 -6 46 -7 37 -1 -10 -11 -23 -22 -30 -21
-13 -27 -38 -10 -38 6 0 10 -13 10 -30 0 -25 4 -30 23 -30 12 0 32 -7 44 -15
21 -15 21 -14 10 15 -9 23 -8 33 1 42 19 19 36 -5 38 -54 3 -50 -3 -63 -21
-48 -19 16 -27 -15 -15 -65 10 -45 9 -48 -14 -39 -9 4 -17 19 -18 38 -1 17 -2
40 -2 51 -1 13 -8 20 -21 20 -21 0 -23 -15 -9 -50 7 -17 6 -18 -8 -7 -9 7 -18
34 -21 60 -15 140 -23 144 -47 27 -17 -82 -23 -96 -28 -61 -3 22 -6 26 -13 15
-6 -10 -9 -8 -9 11 0 36 -11 70 -21 70 -5 0 -9 -29 -9 -64 0 -38 -5 -68 -12
-72 -8 -5 -10 27 -6 127 2 74 3 114 1 89 -3 -25 -11 -48 -19 -53 -9 -5 -14
-24 -14 -53 0 -67 -16 -45 -18 24 -1 43 3 63 14 73 10 8 13 21 8 41 -3 16 -3
46 1 66 l7 37 12 -30 c15 -36 30 -19 28 32 -1 18 2 33 7 33 5 0 11 9 14 21 3
12 10 18 16 15 5 -4 13 -1 17 5 4 8 3 9 -4 5 -8 -5 -12 0 -12 13 0 25 18 37
33 22 16 -16 25 -14 33 11 6 21 7 21 20 3 8 -10 14 -26 15 -34z m721 7 c-9 -9
-15 -9 -24 0 -10 10 -10 15 2 22 20 12 38 -6 22 -22z m-615 7 c9 -25 -2 -27
-22 -5 -17 18 -17 20 -1 20 9 0 19 -7 23 -15z m-686 -107 c1 -24 5 -54 9 -68
7 -22 8 -20 10 15 1 32 3 36 10 20 5 -11 11 -31 14 -45 4 -14 17 -38 30 -54
l24 -28 -5 26 c-7 35 3 33 23 -5 12 -25 18 -29 25 -18 13 21 26 -3 40 -74 8
-37 19 -63 31 -72 12 -8 17 -18 12 -26 -5 -9 -2 -10 9 -6 13 5 17 1 18 -16 0
-12 3 -16 6 -9 7 19 23 14 23 -7 0 -11 5 -23 10 -26 6 -3 10 3 10 14 0 12 4
21 10 21 5 0 8 -29 6 -70 -3 -51 -9 -76 -25 -95 -14 -19 -18 -35 -15 -55 7
-34 -12 -96 -31 -104 -8 -3 -15 -14 -15 -23 0 -10 -7 -29 -16 -41 -11 -16 -14
-34 -10 -60 4 -20 2 -43 -2 -50 -13 -20 -45 53 -37 85 4 18 0 31 -17 47 -21
21 -58 41 -58 32 0 -3 -3 -11 -6 -20 -5 -12 0 -16 19 -16 22 0 27 -6 36 -47
10 -47 -1 -85 -15 -50 -11 30 -22 18 -29 -33 -4 -27 -11 -50 -17 -50 -5 0 -7
8 -3 19 3 10 1 30 -4 45 -9 21 -8 26 4 26 8 0 15 7 15 16 0 10 -6 14 -15 10
-8 -3 -18 2 -23 11 -11 18 -32 9 -32 -13 0 -8 -4 -14 -10 -14 -5 0 -10 5 -10
10 0 6 -9 19 -21 31 -25 25 -17 63 12 56 18 -5 19 0 17 60 -2 59 -5 68 -38
101 -49 51 -64 86 -47 115 6 12 16 25 21 29 6 4 5 12 -2 21 -7 8 -12 25 -11
38 0 13 -3 45 -7 70 -4 30 -2 49 5 53 6 4 11 18 11 31 0 22 18 49 38 57 5 1
13 13 16 26 6 16 3 22 -8 22 -9 0 -16 -5 -16 -11 0 -5 -4 -7 -10 -4 -15 9 -12
35 4 35 20 0 27 26 15 57 -11 29 -6 53 11 53 5 0 10 -19 11 -42z m1686 5 c-3
-10 -5 -4 -5 12 0 17 2 24 5 18 2 -7 2 -21 0 -30z m-27 -29 c0 -8 -4 -12 -10
-9 -5 3 -10 10 -10 16 0 5 5 9 10 9 6 0 10 -7 10 -16z m-1500 -96 c0 -5 -4 -8
-10 -8 -5 0 -10 10 -10 23 0 18 2 19 10 7 5 -8 10 -18 10 -22z m1621 -42 c5 3
9 -7 9 -21 0 -15 5 -35 10 -46 13 -24 2 -25 -15 -2 -11 15 -14 12 -21 -25 -5
-24 -13 -44 -19 -45 -11 -2 -22 41 -24 96 -1 30 3 39 22 46 12 5 23 5 25 0 2
-5 8 -7 13 -3z m-814 -38 c-3 -7 -5 -2 -5 12 0 14 2 19 5 13 2 -7 2 -19 0 -25z
m-1320 -20 c-3 -8 -6 -5 -6 6 -1 11 2 17 5 13 3 -3 4 -12 1 -19z m760 -100
c-3 -8 -6 -5 -6 6 -1 11 2 17 5 13 3 -3 4 -12 1 -19z m-748 -50 c1 -10 -6 -18
-14 -18 -17 0 -18 4 -8 51 7 33 7 33 14 9 4 -14 7 -33 8 -42z m1261 43 c0 -11
-4 -22 -9 -25 -11 -7 -20 14 -13 32 7 19 22 14 22 -7z m715 9 c3 -5 1 -10 -4
-10 -6 0 -11 -18 -11 -40 0 -22 -4 -40 -10 -40 -5 0 -10 -7 -10 -15 0 -8 -4
-15 -10 -15 -5 0 -10 7 -10 15 0 8 4 15 9 15 5 0 12 23 16 50 7 48 17 61 30
40z m-805 -46 c0 -24 -17 -23 -30 0 -16 31 -3 57 17 31 7 -11 13 -24 13 -31z
m650 -16 c-1 -26 -3 -30 -10 -16 -6 9 -7 23 -4 32 9 25 14 19 14 -16z m88 -27
c1 -32 -2 -39 -14 -34 -10 4 -14 13 -10 27 3 11 6 29 6 39 0 37 18 6 18 -32z
m-980 17 c-2 -17 -9 -22 -23 -20 -26 5 -27 6 -19 26 3 9 15 16 26 16 14 0 19
-6 16 -22z m309 -10 c-3 -7 -5 -2 -5 12 0 14 2 19 5 13 2 -7 2 -19 0 -25z
m-497 -41 c0 -5 -4 -5 -10 -2 -5 3 -10 14 -10 23 0 15 2 15 10 2 5 -8 10 -19
10 -23z m1360 -67 c0 -19 -11 -26 -23 -14 -8 8 3 34 14 34 5 0 9 -9 9 -20z
m-920 -21 c0 -10 -7 -19 -15 -19 -15 0 -21 31 -9 43 11 10 24 -3 24 -24z
m-193 -61 c-3 -7 -5 -2 -5 12 0 14 2 19 5 13 2 -7 2 -19 0 -25z m133 12 c0 -5
-2 -10 -4 -10 -3 0 -8 5 -11 10 -3 6 -1 10 4 10 6 0 11 -4 11 -10z m-140 -85
c0 -8 -2 -15 -4 -15 -2 0 -6 7 -10 15 -3 8 -1 15 4 15 6 0 10 -7 10 -15z
m1157 -7 c-3 -8 -6 -5 -6 6 -1 11 2 17 5 13 3 -3 4 -12 1 -19z m-1197 -89 c0
-17 -4 -28 -10 -24 -5 3 -10 17 -10 31 0 13 5 24 10 24 6 0 10 -14 10 -31z
m-360 -49 c0 -16 -4 -30 -10 -30 -11 0 -14 43 -3 53 11 12 13 8 13 -23z m1368
-67 c-3 -42 -28 -59 -28 -20 0 32 9 57 22 57 5 0 8 -17 6 -37z m-1321 -115
c-3 -8 -6 -5 -6 6 -1 11 2 17 5 13 3 -3 4 -12 1 -19z m-117 -67 c0 -11 -4 -9
-14 4 -8 11 -12 24 -9 28 7 11 23 -12 23 -32z m355 9 c3 -6 -1 -7 -9 -4 -18 7
-21 14 -7 14 6 0 13 -4 16 -10z m1525 -25 c0 -14 -4 -25 -10 -25 -5 0 -10 11
-10 25 0 14 5 25 10 25 6 0 10 -11 10 -25z m-1563 -17 c-3 -8 -6 -5 -6 6 -1
11 2 17 5 13 3 -3 4 -12 1 -19z m-612 -98 c3 -5 2 -10 -4 -10 -5 0 -13 5 -16
10 -3 6 -2 10 4 10 5 0 13 -4 16 -10z m-70 -10 c3 -5 1 -10 -4 -10 -6 0 -11 5
-11 10 0 6 2 10 4 10 3 0 8 -4 11 -10z m265 -44 c0 -14 5 -28 10 -31 15 -9 12
-35 -3 -35 -15 0 -41 65 -32 80 11 18 25 10 25 -14z m-350 -22 c0 -8 -4 -12
-10 -9 -5 3 -10 10 -10 16 0 5 5 9 10 9 6 0 10 -7 10 -16z m120 6 c0 -5 -4
-10 -10 -10 -5 0 -10 5 -10 10 0 6 5 10 10 10 6 0 10 -4 10 -10z m87 -22 c-3
-8 -6 -5 -6 6 -1 11 2 17 5 13 3 -3 4 -12 1 -19z m68 -100 c14 -3 10 -6 -13
-9 -49 -8 -111 43 -64 53 9 3 26 -6 37 -18 11 -12 29 -24 40 -26z m-182 -38
c14 -22 22 -40 17 -40 -22 0 -40 14 -40 31 0 10 -4 19 -10 19 -5 0 -10 7 -10
15 0 26 15 17 43 -25z m-69 14 c8 -21 -3 -56 -15 -49 -12 8 -12 65 0 65 5 0
12 -7 15 -16z m84 -155 c-2 -6 -8 -10 -13 -10 -5 0 -11 4 -13 10 -2 6 4 11 13
11 9 0 15 -5 13 -11z m1042 -64 c0 -5 -9 1 -20 15 -11 14 -20 30 -20 35 0 6 9
-1 20 -15 11 -14 20 -29 20 -35z m-1096 13 c-6 -10 -44 9 -44 21 0 5 11 4 24
-2 13 -7 22 -15 20 -19z m-19 -77 c10 -17 -12 -21 -25 -6 -10 12 -10 15 3 15
9 0 18 -4 22 -9z m505 -446 c0 -8 -4 -15 -10 -15 -5 0 -7 7 -4 15 4 8 8 15 10
15 2 0 4 -7 4 -15z m310 -45 c8 -5 12 -12 9 -15 -8 -8 -39 5 -39 16 0 11 11
11 30 -1z m550 -110 c0 -5 -4 -10 -10 -10 -5 0 -10 5 -10 10 0 6 5 10 10 10 6
0 10 -4 10 -10z m-451 -28 c14 -26 2 -64 -18 -60 -26 5 -28 78 -2 78 6 0 15
-8 20 -18z m-372 -34 c-3 -8 -6 -5 -6 6 -1 11 2 17 5 13 3 -3 4 -12 1 -19z
m672 -405 c1 -14 -27 -17 -54 -7 -14 6 -12 11 12 36 l28 29 6 -23 c4 -13 7
-29 8 -35z m-79 7 c0 -5 -5 -10 -11 -10 -5 0 -7 5 -4 10 3 6 8 10 11 10 2 0 4
-4 4 -10z m167 -32 c-3 -8 -6 -5 -6 6 -1 11 2 17 5 13 3 -3 4 -12 1 -19z m-62
-57 c3 -5 1 -12 -5 -16 -5 -3 -10 1 -10 9 0 18 6 21 15 7z"/>
<path d="M2015 4940 c-4 -6 -3 -16 3 -22 13 -13 23 4 13 21 -7 10 -10 10 -16
1z"/>
<path d="M2050 4731 c0 -5 7 -11 14 -14 10 -4 13 -1 9 9 -6 15 -23 19 -23 5z"/>
<path d="M1858 4658 c-7 -19 2 -38 19 -38 9 0 13 8 11 22 -3 25 -23 35 -30 16z"/>
<path d="M2145 4630 c3 -5 10 -10 16 -10 5 0 9 5 9 10 0 6 -7 10 -16 10 -8 0
-12 -4 -9 -10z"/>
<path d="M2126 4575 c-9 -13 -16 -27 -16 -31 0 -4 -7 -16 -17 -26 -20 -23 -12
-32 22 -24 21 5 24 11 19 31 -4 18 -1 27 10 31 17 6 23 44 7 44 -5 0 -16 -11
-25 -25z"/>
<path d="M1950 4410 c0 -5 5 -10 10 -10 6 0 10 5 10 10 0 6 -4 10 -10 10 -5 0
-10 -4 -10 -10z"/>
<path d="M3160 5730 c0 -11 5 -20 10 -20 6 0 10 9 10 20 0 11 -4 20 -10 20 -5
0 -10 -9 -10 -20z"/>
<path d="M3130 5655 c0 -28 15 -34 24 -9 10 25 7 34 -9 34 -9 0 -15 -9 -15
-25z"/>
<path d="M3705 5530 c-3 -5 1 -10 9 -10 9 0 16 5 16 10 0 6 -4 10 -9 10 -6 0
-13 -4 -16 -10z"/>
<path d="M3676 5488 c-9 -35 -7 -106 3 -112 5 -4 11 -1 13 6 2 6 10 8 17 4 9
-6 9 -11 -1 -24 -11 -13 -11 -14 2 -10 24 8 24 45 0 51 -18 5 -20 9 -11 26 16
29 14 81 -3 81 -7 0 -16 -10 -20 -22z"/>
<path d="M3810 5484 c0 -8 5 -12 10 -9 6 4 8 11 5 16 -9 14 -15 11 -15 -7z"/>
<path d="M3591 5455 c-39 -45 -41 -69 -6 -62 18 3 30 -2 39 -15 13 -19 14 -18
19 9 4 24 4 65 -2 96 -2 15 -20 6 -50 -28z"/>
<path d="M3760 5444 c0 -8 5 -12 10 -9 6 4 8 11 5 16 -9 14 -15 11 -15 -7z"/>
<path d="M3760 5370 c0 -35 14 -39 30 -10 12 23 6 40 -16 40 -9 0 -14 -11 -14
-30z"/>
<path d="M3995 5370 c-3 -5 1 -10 10 -10 9 0 13 5 10 10 -3 6 -8 10 -10 10 -2
0 -7 -4 -10 -10z"/>
<path d="M3975 5340 c-8 -13 4 -53 18 -62 6 -4 -1 -10 -16 -13 -21 -6 -29 -16
-37 -49 -6 -22 -15 -54 -21 -70 -5 -16 -7 -32 -4 -34 3 -3 5 0 5 6 0 6 6 9 13
7 12 -5 26 19 47 87 6 21 20 40 31 43 21 7 25 21 7 27 -26 9 4 26 37 21 34 -6
42 1 27 23 -10 16 -99 28 -107 14z"/>
<path d="M3920 5321 c0 -25 6 -27 13 -6 4 8 2 17 -3 20 -6 4 -10 -3 -10 -14z"/>
<path d="M1131 5311 c-8 -5 -20 -7 -28 -4 -7 3 -13 -2 -13 -11 0 -10 8 -16 22
-16 17 0 19 -3 10 -12 -15 -15 -16 -52 -1 -42 8 4 8 1 1 -12 -5 -11 -6 -28 -2
-39 7 -19 7 -19 21 3 8 12 18 22 23 22 5 0 1 -9 -9 -20 -17 -19 -17 -23 -2
-72 31 -103 68 -203 81 -218 8 -8 16 -26 18 -40 2 -17 9 -25 22 -25 23 0 24 9
27 151 2 80 -1 105 -14 124 -16 23 -16 22 -11 -31 4 -45 3 -50 -7 -29 -20 46
-36 118 -28 132 10 19 -4 80 -26 109 -17 24 -17 24 -11 -16 3 -22 2 -33 -2
-24 -4 8 -13 22 -20 30 -7 8 -18 22 -25 31 -8 12 -17 15 -26 9z"/>
<path d="M3886 5221 c-4 -7 -5 -15 -2 -18 9 -9 19 4 14 18 -4 11 -6 11 -12 0z"/>
<path d="M3780 5061 c0 -17 5 -33 10 -36 6 -4 10 8 10 29 0 20 -4 36 -10 36
-5 0 -10 -13 -10 -29z"/>
<path d="M3867 5084 c-10 -10 12 -44 28 -44 8 0 15 -4 15 -9 0 -5 11 -4 24 2
30 14 22 31 -10 23 -19 -5 -24 -2 -24 14 0 19 -19 27 -33 14z"/>
<path d="M4056 5023 c-4 -10 -22 -36 -41 -58 -37 -43 -41 -50 -25 -60 6 -3 10
-17 10 -31 0 -13 4 -24 8 -24 8 0 51 111 56 144 1 8 5 19 9 22 10 10 9 24 -2
24 -5 0 -12 -8 -15 -17z"/>
<path d="M4473 5023 c-7 -3 -13 -11 -13 -19 0 -15 14 -17 42 -6 17 7 17 8 0
18 -9 6 -23 9 -29 7z"/>
<path d="M1362 4921 c-14 -46 -15 -61 -2 -41 7 12 10 8 10 -15 0 -23 3 -27 10
-15 12 18 13 110 2 110 -5 0 -14 -17 -20 -39z"/>
<path d="M1361 4793 c0 -24 -5 -43 -11 -43 -5 0 -10 -11 -10 -25 0 -16 6 -25
15 -25 9 0 15 9 15 24 0 14 4 36 10 50 5 15 6 26 0 26 -4 0 -11 8 -13 18 -3 9
-5 -2 -6 -25z"/>
<path d="M4320 4800 c-8 -5 -12 -11 -10 -14 3 -2 14 2 24 10 22 15 10 19 -14
4z"/>
<path d="M1276 4787 c3 -10 9 -15 12 -12 3 3 0 11 -7 18 -10 9 -11 8 -5 -6z"/>
<path d="M2956 4705 c-4 -12 -3 -21 3 -23 6 -2 11 -30 11 -63 0 -37 4 -59 11
-59 12 0 6 77 -10 136 -6 25 -8 26 -15 9z"/>
<path d="M4743 4674 c-33 -38 -35 -43 -12 -37 19 5 69 47 69 58 0 15 -38 1
-57 -21z"/>
<path d="M3751 4620 c0 -32 2 -40 9 -29 5 9 6 28 0 45 -8 27 -8 26 -9 -16z"/>
<path d="M3795 4650 c-3 -5 -1 -10 4 -10 6 0 11 5 11 10 0 6 -2 10 -4 10 -3 0
-8 -4 -11 -10z"/>
<path d="M1344 4635 c-7 -17 4 -37 17 -30 12 8 12 45 -1 45 -6 0 -13 -7 -16
-15z"/>
<path d="M2871 4641 c-10 -6 -10 -10 -1 -16 13 -8 24 -1 19 14 -3 6 -10 7 -18
2z"/>
<path d="M3016 4611 c-9 -14 4 -81 15 -81 5 0 6 19 3 43 -8 48 -10 52 -18 38z"/>
<path d="M3040 4590 c0 -11 8 -37 17 -58 16 -35 17 -36 21 -12 2 14 8 30 13
36 5 7 -2 19 -21 33 -30 21 -30 21 -30 1z"/>
<path d="M3107 4456 c-9 -31 -1 -83 15 -103 5 -7 6 -22 2 -35 -6 -20 -5 -21
10 -9 20 17 21 79 2 107 -8 11 -16 31 -18 44 -3 25 -4 25 -11 -4z"/>
<path d="M3070 4385 c0 -8 5 -15 10 -15 6 0 10 7 10 15 0 8 -4 15 -10 15 -5 0
-10 -7 -10 -15z"/>
<path d="M3361 4260 c-1 -50 13 -85 21 -53 3 10 -1 36 -8 58 l-12 40 -1 -45z"/>
<path d="M3310 4280 c0 -5 7 -10 15 -10 8 0 15 5 15 10 0 6 -7 10 -15 10 -8 0
-15 -4 -15 -10z"/>
<path d="M3080 4261 c0 -11 4 -22 9 -25 4 -3 6 6 3 19 -5 30 -12 33 -12 6z"/>
<path d="M4930 4242 c5 -32 9 -37 29 -34 20 2 83 50 70 53 -2 0 -15 2 -29 5
-14 2 -37 6 -51 8 -25 5 -25 3 -19 -32z"/>
<path d="M2671 4254 c0 -11 3 -14 6 -6 3 7 2 16 -1 19 -3 4 -6 -2 -5 -13z"/>
<path d="M2728 4223 c-6 -16 -16 -56 -23 -90 -13 -63 -7 -83 22 -83 7 0 22
-18 33 -40 17 -33 26 -40 49 -40 26 0 30 -5 40 -44 7 -30 21 -51 40 -66 16
-11 31 -30 33 -43 2 -12 10 -22 18 -22 16 0 50 -36 50 -53 0 -16 31 -71 44
-79 7 -5 16 -25 19 -45 5 -36 70 -118 92 -118 6 0 16 -13 22 -30 13 -34 33
-40 33 -10 0 13 5 18 15 14 20 -8 20 51 0 100 -10 24 -14 56 -11 95 4 49 2 59
-10 54 -10 -4 -14 2 -14 22 0 14 -4 24 -9 21 -8 -5 -19 32 -23 74 -1 19 -17
40 -30 40 -5 0 -8 -12 -6 -27 2 -16 -1 -30 -7 -33 -5 -3 -11 9 -13 25 -6 70
-10 77 -44 70 -23 -5 -29 -4 -23 5 5 9 2 10 -13 6 -17 -6 -22 0 -32 31 -6 21
-25 63 -41 95 -16 31 -26 63 -23 72 9 25 -12 19 -24 -6 l-11 -23 0 22 c-1 15
-6 21 -15 17 -9 -3 -17 3 -21 16 -5 17 -13 21 -31 17 -20 -3 -26 2 -41 39 -21
51 -29 54 -45 17z"/>
<path d="M5160 4208 c-36 -13 -71 -30 -78 -38 -11 -13 -13 -13 -23 3 -13 21
-45 22 -53 1 -10 -27 -7 -34 16 -34 20 0 20 -1 5 -18 -19 -20 -22 -53 -8 -67
5 -6 12 -30 15 -54 2 -24 10 -47 16 -51 6 -4 10 -27 9 -55 -2 -34 2 -51 13
-59 15 -11 15 -13 0 -23 -16 -11 -16 -12 -1 -12 9 -1 25 -13 34 -28 14 -21 15
-30 6 -45 -9 -15 -9 -22 3 -33 8 -8 21 -15 30 -15 12 0 14 -13 12 -75 -3 -68
-1 -77 21 -101 17 -19 21 -30 14 -37 -19 -19 -12 -35 22 -47 31 -11 31 -12 12
-26 -13 -10 -16 -17 -9 -22 6 -4 15 -38 19 -77 4 -38 12 -76 17 -82 7 -9 2
-17 -21 -30 -35 -20 -42 -38 -11 -28 28 9 42 -2 30 -24 -6 -12 -5 -22 3 -30 9
-10 8 -15 -5 -25 -27 -20 -22 -61 9 -86 21 -16 24 -23 14 -29 -10 -7 -11 -13
-1 -31 10 -19 9 -27 -9 -49 -12 -14 -27 -37 -33 -51 -7 -14 -20 -37 -30 -52
-16 -23 -17 -30 -6 -48 7 -11 16 -20 20 -20 21 0 4 -29 -26 -45 -33 -18 -33
-19 -14 -34 17 -15 18 -20 7 -44 -7 -15 -17 -27 -22 -27 -6 0 0 -11 13 -25
l24 -26 -26 -22 c-27 -23 -41 -50 -42 -82 0 -29 52 -21 131 20 35 18 65 29 68
25 5 -8 -59 -50 -76 -50 -21 0 -140 -72 -150 -91 -9 -18 -5 -19 53 -20 35 -1
54 -3 43 -6 -38 -8 -155 -56 -155 -63 0 -8 72 3 135 20 107 30 111 26 21 -19
-35 -17 -73 -31 -84 -31 -25 0 -39 -19 -22 -30 8 -5 -3 -10 -29 -15 -22 -4
-44 -12 -48 -18 -11 -18 -11 -47 1 -47 6 0 5 -5 -2 -12 -21 -21 -13 -25 66
-32 42 -4 87 -10 99 -13 39 -9 13 -25 -31 -19 -22 3 -59 1 -81 -3 -24 -5 -31
-9 -17 -10 35 -2 17 -18 -28 -25 -29 -4 -40 -11 -40 -24 0 -11 -15 -24 -41
-35 -47 -21 -45 -25 29 -62 30 -15 51 -29 48 -32 -3 -3 -11 -1 -18 5 -17 14
-120 1 -126 -15 -2 -7 5 -16 15 -19 101 -33 97 -47 -13 -41 -72 3 -90 1 -104
-13 -9 -9 -25 -20 -36 -24 -12 -6 -15 -10 -6 -13 6 -3 10 -8 7 -13 -2 -4 4
-15 15 -25 11 -10 20 -22 20 -27 0 -13 -78 -9 -83 5 -2 6 -7 10 -10 7 -3 -3 3
-24 13 -48 20 -45 18 -48 -31 -44 -15 1 -27 -17 -63 -100 -8 -18 -20 -63 -27
-101 -11 -59 -15 -67 -35 -67 -13 0 -26 -4 -29 -10 -9 -15 -25 -12 -25 5 0 19
-14 19 -34 0 -8 -8 -22 -15 -30 -15 -9 0 -16 -8 -16 -20 0 -13 7 -20 19 -20
16 0 18 -6 13 -45 -4 -37 -1 -48 14 -60 10 -7 22 -11 26 -9 5 3 8 1 8 -4 0 -5
11 -14 25 -20 14 -6 25 -18 25 -27 0 -10 10 -15 30 -15 28 0 30 -2 30 -39 l0
-39 78 -7 c42 -3 104 -13 137 -22 41 -10 87 -14 147 -10 60 3 93 1 104 -8 20
-14 10 -35 -17 -35 -24 0 -24 -11 1 -38 11 -12 20 -26 20 -32 0 -5 7 -10 16
-10 8 0 13 4 10 9 -11 17 6 40 35 46 35 8 48 25 20 25 -12 0 -21 6 -21 14 0 8
8 12 23 9 14 -3 29 3 41 16 11 12 27 21 37 21 10 0 41 29 71 66 29 36 66 80
82 97 16 17 46 58 68 91 21 33 42 63 46 66 4 3 13 16 20 30 6 14 16 32 22 40
15 24 50 108 50 121 0 11 27 71 95 214 45 95 75 189 77 239 0 28 6 58 12 68 8
13 7 21 -2 30 -6 6 -12 27 -12 45 0 23 -5 33 -15 33 -8 0 -15 -4 -15 -10 0 -5
-5 -10 -10 -10 -6 0 -8 10 -5 23 4 14 -1 30 -14 44 -12 12 -18 29 -15 38 4 8
1 22 -6 29 -6 8 -12 28 -12 45 -1 17 -4 31 -8 31 -13 0 -40 83 -30 94 5 7 5
18 0 26 -5 8 -5 21 1 32 6 12 6 25 -1 37 -7 14 -7 27 1 45 14 31 5 60 -17 52
-12 -5 -14 -1 -9 15 5 13 2 25 -6 29 -9 6 -10 12 -2 22 6 7 14 27 17 44 5 21
15 34 28 37 18 5 19 8 8 21 -7 9 -19 16 -27 16 -11 0 -13 6 -8 23 3 12 14 49
24 82 10 33 20 67 23 75 3 8 14 38 23 65 10 28 28 69 42 93 13 23 21 42 18 42
-8 0 45 69 94 122 72 78 226 151 349 164 31 4 87 17 123 30 37 13 74 24 83 24
13 0 16 10 16 50 0 58 2 56 -125 91 -120 32 -229 14 -340 -56 -27 -18 -72 -45
-99 -60 -27 -15 -69 -46 -92 -69 -69 -66 -102 -88 -108 -74 -2 7 -4 2 -3 -12
2 -20 -5 -27 -35 -37 -32 -11 -42 -10 -67 5 -25 14 -29 22 -27 52 1 28 8 38
31 49 l28 14 -24 13 -24 13 32 1 c39 0 53 18 27 37 -18 13 -18 14 -1 41 10 15
21 35 24 45 3 9 9 17 14 17 5 0 9 6 9 14 0 22 114 115 179 147 128 63 192 74
296 54 79 -15 120 -33 217 -96 53 -34 64 -38 66 -23 9 39 -105 192 -165 223
-13 6 -80 14 -150 17 -71 3 -144 9 -163 15 -87 23 -245 -9 -332 -67 -28 -19
-54 -34 -58 -34 -4 0 -10 -7 -14 -15 -3 -8 -12 -15 -19 -15 -8 0 -31 -20 -52
-45 -58 -70 -73 -74 -106 -34 -25 30 -26 36 -13 50 13 15 13 17 -3 23 -10 4
-19 2 -21 -3 -2 -6 -13 -11 -25 -11 l-20 0 21 23 c32 34 29 51 -8 44 -25 -5
-30 -3 -30 13 0 10 9 25 21 33 11 8 19 21 18 28 -5 24 27 83 62 117 46 45 100
72 160 79 54 6 59 12 28 31 -128 80 -236 99 -349 60z m148 -545 c5 -18 -16
-16 -35 3 -15 14 -14 16 7 12 13 -1 25 -9 28 -15z m42 13 c0 -3 -4 -8 -10 -11
-5 -3 -10 -1 -10 4 0 6 5 11 10 11 6 0 10 -2 10 -4z m140 -350 c0 -3 -4 -8
-10 -11 -5 -3 -10 -1 -10 4 0 6 5 11 10 11 6 0 10 -2 10 -4z m60 -71 c0 -14
-4 -25 -10 -25 -5 0 -10 11 -10 25 0 14 5 25 10 25 6 0 10 -11 10 -25z m-110
-745 c0 -5 -7 -10 -15 -10 -8 0 -15 -4 -15 -10 0 -5 -7 -10 -16 -10 -12 0 -11
5 7 20 27 22 39 25 39 10z m-7 -195 c-21 -9 -46 -11 -70 -7 l-38 6 35 7 c19 3
51 7 70 7 l35 1 -32 -14z m-283 -161 c0 -2 -7 -4 -15 -4 -8 0 -15 4 -15 10 0
5 7 7 15 4 8 -4 15 -8 15 -10z m127 10 c-3 -3 -12 -4 -19 -1 -8 3 -5 6 6 6 11
1 17 -2 13 -5z m-272 -434 c8 -13 -5 -13 -25 0 -13 8 -13 10 2 10 9 0 20 -4
23 -10z m-165 -89 c0 -21 -13 -41 -26 -41 -17 0 -17 5 -2 30 13 21 28 27 28
11z m63 -56 c33 -29 34 -39 5 -29 -22 7 -47 31 -48 47 0 13 14 7 43 -18z"/>
<path d="M2661 4180 c0 -8 4 -22 9 -30 12 -18 12 -2 0 25 -6 13 -9 15 -9 5z"/>
<path d="M3422 4135 c0 -16 2 -22 5 -12 2 9 2 23 0 30 -3 6 -5 -1 -5 -18z"/>
<path d="M3380 4105 c0 -14 5 -25 10 -25 6 0 10 11 10 25 0 14 -4 25 -10 25
-5 0 -10 -11 -10 -25z"/>
<path d="M3450 4065 c0 -8 5 -15 10 -15 6 0 10 7 10 15 0 8 -4 15 -10 15 -5 0
-10 -7 -10 -15z"/>
<path d="M3381 4052 c-6 -12 -18 -22 -26 -22 -24 0 -17 -38 15 -86 30 -43 58
-60 46 -28 -4 12 -2 15 9 10 17 -6 22 29 5 39 -5 3 -10 21 -10 39 0 18 -6 41
-14 51 -13 18 -14 18 -25 -3z"/>
<path d="M2140 3963 c0 -28 23 -84 33 -80 15 5 16 33 2 30 -6 -1 -11 10 -10
24 0 14 -6 28 -12 30 -7 3 -13 1 -13 -4z"/>
<path d="M2210 3960 c0 -5 5 -10 10 -10 6 0 10 5 10 10 0 6 -4 10 -10 10 -5 0
-10 -4 -10 -10z"/>
<path d="M2636 3937 c3 -10 9 -15 12 -12 3 3 0 11 -7 18 -10 9 -11 8 -5 -6z"/>
<path d="M2420 3919 c0 -5 5 -7 10 -4 6 3 10 8 10 11 0 2 -4 4 -10 4 -5 0 -10
-5 -10 -11z"/>
<path d="M2740 3896 c0 -13 -7 -29 -15 -36 -11 -9 -12 -15 -2 -24 25 -25 30
-20 32 32 1 28 -2 52 -7 52 -4 0 -8 -11 -8 -24z"/>
<path d="M3190 3909 c0 -5 5 -7 10 -4 6 3 10 8 10 11 0 2 -4 4 -10 4 -5 0 -10
-5 -10 -11z"/>
<path d="M3445 3897 c-4 -10 -5 -21 -1 -24 10 -10 18 4 13 24 -4 17 -4 17 -12
0z"/>
<path d="M2190 3820 c0 -11 7 -20 15 -20 17 0 18 2 9 24 -9 23 -24 20 -24 -4z"/>
<path d="M2440 3829 c0 -5 5 -7 10 -4 6 3 10 8 10 11 0 2 -4 4 -10 4 -5 0 -10
-5 -10 -11z"/>
<path d="M2300 3800 c0 -5 5 -10 11 -10 5 0 7 5 4 10 -3 6 -8 10 -11 10 -2 0
-4 -4 -4 -10z"/>
<path d="M1566 3781 c-4 -7 -5 -15 -2 -18 9 -9 19 4 14 18 -4 11 -6 11 -12 0z"/>
<path d="M2150 3770 c0 -11 6 -20 14 -20 24 0 28 18 6 30 -17 9 -20 8 -20 -10z"/>
<path d="M2741 3774 c0 -11 3 -14 6 -6 3 7 2 16 -1 19 -3 4 -6 -2 -5 -13z"/>
<path d="M2260 3771 c0 -6 4 -13 10 -16 6 -3 7 1 4 9 -7 18 -14 21 -14 7z"/>
<path d="M3494 3766 c-4 -10 0 -29 7 -43 l14 -27 3 34 c4 37 -13 64 -24 36z"/>
<path d="M2190 3715 c7 -8 16 -15 21 -15 5 0 6 7 3 15 -4 8 -13 15 -21 15 -13
0 -13 -3 -3 -15z"/>
<path d="M1552 3660 c0 -14 2 -19 5 -12 2 6 2 18 0 25 -3 6 -5 1 -5 -13z"/>
<path d="M2150 3660 c0 -5 5 -10 11 -10 5 0 7 5 4 10 -3 6 -8 10 -11 10 -2 0
-4 -4 -4 -10z"/>
<path d="M3230 3657 c0 -7 4 -17 9 -22 5 -6 11 -23 13 -39 2 -16 8 -31 14 -33
13 -4 8 37 -9 80 -12 28 -27 36 -27 14z"/>
<path d="M2320 3640 c0 -5 9 -10 21 -10 11 0 17 5 14 10 -3 6 -13 10 -21 10
-8 0 -14 -4 -14 -10z"/>
<path d="M2070 3631 c0 -12 29 -41 41 -41 17 0 9 18 -16 34 -14 9 -25 12 -25
7z"/>
<path d="M2071 3511 c-10 -6 -10 -10 -1 -16 13 -8 24 -1 19 14 -3 6 -10 7 -18
2z"/>
<path d="M4625 3504 c-24 -12 -34 -13 -58 -3 -27 12 -32 10 -51 -13 -12 -14
-29 -28 -38 -31 -19 -7 -25 -27 -8 -27 24 0 6 -22 -34 -40 -24 -12 -48 -32
-54 -45 -7 -14 -18 -25 -27 -25 -8 0 -15 -7 -15 -15 0 -8 -9 -19 -21 -25 -11
-7 -28 -19 -38 -28 -10 -9 -40 -35 -66 -57 -111 -91 -100 -72 -97 -177 3 -127
4 -130 43 -153 27 -16 57 -21 144 -23 109 -4 111 -4 180 31 39 20 82 46 96 59
33 31 74 118 88 188 14 71 21 256 12 301 -6 30 -4 36 20 51 15 9 36 14 47 11
11 -3 28 0 38 5 16 9 13 11 -16 16 -99 15 -117 15 -145 0z m-200 -224 c-9 -14
-35 -12 -37 3 -4 35 -3 43 7 49 12 8 39 -38 30 -52z"/>
<path d="M2231 3264 c0 -11 3 -14 6 -6 3 7 2 16 -1 19 -3 4 -6 -2 -5 -13z"/>
<path d="M4980 2930 c0 -12 17 -12 45 0 17 7 15 9 -12 9 -18 1 -33 -3 -33 -9z"/>
<path d="M3180 2920 c-8 -5 -12 -11 -9 -14 2 -3 11 -1 19 4 8 5 12 11 9 14 -2
3 -11 1 -19 -4z"/>
<path d="M5063 2923 c-13 -2 -23 -9 -23 -14 0 -15 53 -7 58 9 2 6 0 11 -5 11
-4 -1 -18 -4 -30 -6z"/>
<path d="M3241 2920 c-1 -3 -4 -20 -5 -37 -4 -35 2 -41 22 -21 10 10 15 10 22
-2 8 -12 10 -12 16 3 4 10 2 23 -5 30 -8 8 -11 8 -11 -1 0 -22 -29 -13 -33 11
-2 12 -5 20 -6 17z"/>
<path d="M4700 2895 c-14 -8 -20 -15 -15 -15 6 -1 -26 -19 -70 -41 -44 -22
-71 -38 -60 -35 11 2 41 7 66 11 34 4 54 14 79 40 37 39 38 61 0 40z"/>
<path d="M4985 2880 c-19 -8 -19 -9 2 -9 12 -1 25 4 28 9 7 12 -2 12 -30 0z"/>
<path d="M4951 2854 c0 -11 3 -14 6 -6 3 7 2 16 -1 19 -3 4 -6 -2 -5 -13z"/>
<path d="M3086 2833 c-12 -12 -6 -31 13 -36 14 -3 17 0 14 14 -6 22 -17 31
-27 22z"/>
<path d="M3210 2824 c0 -8 5 -12 10 -9 6 3 10 10 10 16 0 5 -4 9 -10 9 -5 0
-10 -7 -10 -16z"/>
<path d="M4987 2833 c-9 -9 -9 -33 1 -33 4 0 13 9 20 20 10 16 10 20 -1 20 -8
0 -17 -3 -20 -7z"/>
<path d="M4147 2784 c-14 -87 26 -184 71 -170 11 4 23 18 26 32 4 14 19 37 33
50 l26 24 -32 0 c-27 0 -31 -3 -26 -19 6 -20 -16 -31 -62 -31 -28 0 -30 16 -4
23 15 4 19 12 16 38 -3 42 -21 89 -33 89 -5 0 -12 -16 -15 -36z"/>
<path d="M4961 2780 c-5 -3 -13 -15 -20 -27 -6 -13 -23 -26 -36 -29 -46 -11
-23 -54 30 -54 l30 0 -32 -16 c-34 -17 -40 -28 -23 -39 6 -3 10 -15 10 -25 0
-17 3 -18 33 -8 43 14 57 28 28 28 -22 0 -22 1 7 27 27 23 29 28 15 38 -13 10
-10 15 22 34 29 17 35 25 26 34 -15 15 -14 27 4 27 8 0 15 5 15 10 0 10 -94
10 -109 0z m9 -80 c0 -5 -11 -10 -25 -10 -14 0 -25 5 -25 10 0 6 11 10 25 10
14 0 25 -4 25 -10z"/>
<path d="M2875 2229 c-4 -6 -5 -12 -2 -15 2 -3 7 2 10 11 7 17 1 20 -8 4z"/>
<path d="M2720 2180 c0 -5 5 -10 11 -10 5 0 7 5 4 10 -3 6 -8 10 -11 10 -2 0
-4 -4 -4 -10z"/>
<path d="M3406 2042 c-3 -6 -1 -14 5 -17 15 -10 25 3 12 16 -7 7 -13 7 -17 1z"/>
<path d="M2555 1938 c3 -13 9 -33 12 -45 6 -27 23 -31 23 -5 0 14 2 15 10 2 5
-8 7 -23 4 -34 -4 -12 -2 -16 5 -12 6 4 11 14 11 23 0 9 3 14 6 10 12 -12 84
35 84 55 0 19 -1 19 -25 4 -13 -9 -31 -16 -39 -16 -8 0 -17 -6 -19 -12 -3 -7
-4 2 -2 20 3 31 3 32 -37 32 -37 0 -40 -2 -33 -22z"/>
<path d="M2650 1849 c0 -5 5 -7 10 -4 6 3 10 8 10 11 0 2 -4 4 -10 4 -5 0 -10
-5 -10 -11z"/>
<path d="M3783 1835 c-16 -19 -18 -25 -7 -25 9 0 12 -5 8 -11 -4 -8 -35 -10
-90 -7 -68 4 -88 9 -106 25 -28 26 -78 41 -78 23 0 -42 32 -63 132 -91 79 -22
118 -40 154 -72 14 -12 35 -24 47 -27 12 -3 26 -15 31 -27 12 -25 48 -51 45
-31 -4 29 2 49 12 43 5 -4 7 -19 4 -34 -3 -15 -1 -40 5 -55 10 -27 11 -28 35
-12 14 9 26 13 26 9 1 -5 4 6 8 22 4 17 2 33 -4 37 -7 5 -6 14 3 28 7 12 15
45 18 73 5 44 3 50 -8 36 -7 -9 -27 -16 -45 -16 -25 0 -34 6 -43 27 -11 27
-46 49 -78 51 -12 0 -10 3 6 10 28 11 21 29 -8 22 -12 -3 -22 1 -26 11 -8 22
-15 20 -41 -9z m144 -147 c-3 -8 -6 -5 -6 6 -1 11 2 17 5 13 3 -3 4 -12 1 -19z"/>
<path d="M3959 1422 c-36 -16 -71 -53 -80 -86 -6 -20 -16 -36 -24 -36 -10 0
-15 -11 -15 -35 0 -20 5 -35 11 -35 7 0 18 -8 25 -17 7 -10 16 -15 20 -10 4 4
2 13 -4 19 -7 7 -12 22 -12 35 0 13 -5 23 -12 23 -9 0 -9 3 0 12 10 10 18 6
38 -15 31 -34 59 -32 59 3 0 15 6 25 15 25 8 0 14 -8 13 -18 -1 -16 4 -18 35
-12 45 8 52 12 52 30 0 7 7 15 15 19 19 7 19 30 1 45 -10 8 -16 9 -21 1 -3 -5
-17 -10 -31 -10 -19 0 -28 8 -40 35 -15 36 -18 38 -45 27z"/>
<path d="M4855 890 c-3 -5 1 -10 9 -10 9 0 16 5 16 10 0 6 -4 10 -9 10 -6 0
-13 -4 -16 -10z"/>
<path d="M3772 810 c-13 -22 -32 -34 -85 -51 -72 -23 -108 -23 -305 1 -82 10
-96 9 -111 -4 -13 -12 -20 -13 -29 -4 -20 20 -26 0 -30 -100 -3 -62 -8 -90
-13 -77 -5 13 -8 15 -8 5 0 -8 4 -22 9 -30 6 -10 10 -11 10 -2 0 6 5 12 10 12
6 0 10 -11 10 -24 0 -13 5 -26 11 -28 5 -2 13 -22 16 -45 3 -23 14 -50 24 -59
11 -9 19 -29 19 -44 0 -15 7 -41 15 -56 8 -16 15 -42 15 -58 0 -22 4 -27 16
-22 14 5 16 1 11 -29 -5 -31 16 -118 33 -135 3 -3 11 -17 19 -33 14 -27 15
-27 118 -27 l103 0 -2 38 c-1 20 -1 74 0 120 2 80 3 82 27 82 14 0 25 5 25 10
0 6 -18 10 -40 10 -22 0 -40 5 -40 10 0 6 -7 10 -16 10 -15 0 -64 43 -64 57 0
8 61 63 71 63 5 0 9 6 9 13 0 7 6 25 13 40 9 20 19 27 40 27 17 0 27 5 27 15
0 11 11 15 41 15 l41 0 -5 43 c-3 23 -8 54 -12 69 -7 26 -6 27 29 21 29 -5 36
-3 36 11 0 9 7 19 15 22 8 4 15 15 15 25 0 15 7 19 40 19 l40 0 0 60 c0 49 -3
58 -15 54 -8 -4 -15 -14 -16 -23 0 -11 -3 -9 -9 7 -8 18 -17 22 -50 22 -35 0
-43 -4 -58 -30z m-97 -240 c3 -5 -3 -10 -14 -10 -12 0 -21 5 -21 10 0 6 6 10
14 10 8 0 18 -4 21 -10z"/>
<path d="M4000 760 c0 -5 9 -10 20 -10 11 0 20 5 20 10 0 6 -9 10 -20 10 -11
0 -20 -4 -20 -10z"/>
<path d="M3160 665 c6 -8 9 -18 6 -23 -3 -6 3 -12 14 -15 16 -4 20 0 20 18 0
21 -17 35 -42 35 -6 0 -6 -6 2 -15z"/>
<path d="M3652 91 c3 -42 7 -79 7 -83 1 -5 6 -8 11 -8 6 0 10 33 10 79 0 67
-3 79 -18 83 -16 5 -17 -2 -10 -71z"/>
</g>
</svg>
